G04 #@! TF.GenerationSoftware,KiCad,Pcbnew,(5.1.6-0)*
G04 #@! TF.CreationDate,2021-01-08T20:23:25+00:00*
G04 #@! TF.ProjectId,XMAS_Star_21,584d4153-5f53-4746-9172-5f32312e6b69,rev?*
G04 #@! TF.SameCoordinates,Original*
G04 #@! TF.FileFunction,Paste,Top*
G04 #@! TF.FilePolarity,Positive*
%FSLAX46Y46*%
G04 Gerber Fmt 4.6, Leading zero omitted, Abs format (unit mm)*
G04 Created by KiCad (PCBNEW (5.1.6-0)) date 2021-01-08 20:23:25*
%MOMM*%
%LPD*%
G01*
G04 APERTURE LIST*
%ADD10R,0.650000X1.060000*%
%ADD11R,1.060000X0.650000*%
%ADD12C,0.100000*%
%ADD13R,3.050000X2.750000*%
%ADD14R,2.200000X1.200000*%
%ADD15R,1.000000X1.900000*%
%ADD16R,1.800000X1.900000*%
%ADD17R,1.650000X1.300000*%
%ADD18R,1.425000X1.550000*%
%ADD19R,0.450000X1.380000*%
G04 APERTURE END LIST*
G36*
G01*
X104256250Y-129450000D02*
X103743750Y-129450000D01*
G75*
G02*
X103525000Y-129231250I0J218750D01*
G01*
X103525000Y-128793750D01*
G75*
G02*
X103743750Y-128575000I218750J0D01*
G01*
X104256250Y-128575000D01*
G75*
G02*
X104475000Y-128793750I0J-218750D01*
G01*
X104475000Y-129231250D01*
G75*
G02*
X104256250Y-129450000I-218750J0D01*
G01*
G37*
G36*
G01*
X104256250Y-131025000D02*
X103743750Y-131025000D01*
G75*
G02*
X103525000Y-130806250I0J218750D01*
G01*
X103525000Y-130368750D01*
G75*
G02*
X103743750Y-130150000I218750J0D01*
G01*
X104256250Y-130150000D01*
G75*
G02*
X104475000Y-130368750I0J-218750D01*
G01*
X104475000Y-130806250D01*
G75*
G02*
X104256250Y-131025000I-218750J0D01*
G01*
G37*
G36*
G01*
X98043750Y-125050000D02*
X98556250Y-125050000D01*
G75*
G02*
X98775000Y-125268750I0J-218750D01*
G01*
X98775000Y-125706250D01*
G75*
G02*
X98556250Y-125925000I-218750J0D01*
G01*
X98043750Y-125925000D01*
G75*
G02*
X97825000Y-125706250I0J218750D01*
G01*
X97825000Y-125268750D01*
G75*
G02*
X98043750Y-125050000I218750J0D01*
G01*
G37*
G36*
G01*
X98043750Y-123475000D02*
X98556250Y-123475000D01*
G75*
G02*
X98775000Y-123693750I0J-218750D01*
G01*
X98775000Y-124131250D01*
G75*
G02*
X98556250Y-124350000I-218750J0D01*
G01*
X98043750Y-124350000D01*
G75*
G02*
X97825000Y-124131250I0J218750D01*
G01*
X97825000Y-123693750D01*
G75*
G02*
X98043750Y-123475000I218750J0D01*
G01*
G37*
G36*
G01*
X105740000Y-121699999D02*
X105740000Y-122370001D01*
G75*
G02*
X105490001Y-122620000I-249999J0D01*
G01*
X104819999Y-122620000D01*
G75*
G02*
X104570000Y-122370001I0J249999D01*
G01*
X104570000Y-121699999D01*
G75*
G02*
X104819999Y-121450000I249999J0D01*
G01*
X105490001Y-121450000D01*
G75*
G02*
X105740000Y-121699999I0J-249999D01*
G01*
G37*
G36*
G01*
X105740000Y-123049999D02*
X105740000Y-123720001D01*
G75*
G02*
X105490001Y-123970000I-249999J0D01*
G01*
X104819999Y-123970000D01*
G75*
G02*
X104570000Y-123720001I0J249999D01*
G01*
X104570000Y-123049999D01*
G75*
G02*
X104819999Y-122800000I249999J0D01*
G01*
X105490001Y-122800000D01*
G75*
G02*
X105740000Y-123049999I0J-249999D01*
G01*
G37*
G36*
G01*
X107090000Y-121699999D02*
X107090000Y-122370001D01*
G75*
G02*
X106840001Y-122620000I-249999J0D01*
G01*
X106169999Y-122620000D01*
G75*
G02*
X105920000Y-122370001I0J249999D01*
G01*
X105920000Y-121699999D01*
G75*
G02*
X106169999Y-121450000I249999J0D01*
G01*
X106840001Y-121450000D01*
G75*
G02*
X107090000Y-121699999I0J-249999D01*
G01*
G37*
G36*
G01*
X107090000Y-123049999D02*
X107090000Y-123720001D01*
G75*
G02*
X106840001Y-123970000I-249999J0D01*
G01*
X106169999Y-123970000D01*
G75*
G02*
X105920000Y-123720001I0J249999D01*
G01*
X105920000Y-123049999D01*
G75*
G02*
X106169999Y-122800000I249999J0D01*
G01*
X106840001Y-122800000D01*
G75*
G02*
X107090000Y-123049999I0J-249999D01*
G01*
G37*
G36*
G01*
X107205000Y-124322500D02*
X107205000Y-125022500D01*
G75*
G02*
X107142500Y-125085000I-62500J0D01*
G01*
X107017500Y-125085000D01*
G75*
G02*
X106955000Y-125022500I0J62500D01*
G01*
X106955000Y-124322500D01*
G75*
G02*
X107017500Y-124260000I62500J0D01*
G01*
X107142500Y-124260000D01*
G75*
G02*
X107205000Y-124322500I0J-62500D01*
G01*
G37*
G36*
G01*
X106705000Y-124322500D02*
X106705000Y-125022500D01*
G75*
G02*
X106642500Y-125085000I-62500J0D01*
G01*
X106517500Y-125085000D01*
G75*
G02*
X106455000Y-125022500I0J62500D01*
G01*
X106455000Y-124322500D01*
G75*
G02*
X106517500Y-124260000I62500J0D01*
G01*
X106642500Y-124260000D01*
G75*
G02*
X106705000Y-124322500I0J-62500D01*
G01*
G37*
G36*
G01*
X106205000Y-124322500D02*
X106205000Y-125022500D01*
G75*
G02*
X106142500Y-125085000I-62500J0D01*
G01*
X106017500Y-125085000D01*
G75*
G02*
X105955000Y-125022500I0J62500D01*
G01*
X105955000Y-124322500D01*
G75*
G02*
X106017500Y-124260000I62500J0D01*
G01*
X106142500Y-124260000D01*
G75*
G02*
X106205000Y-124322500I0J-62500D01*
G01*
G37*
G36*
G01*
X105705000Y-124322500D02*
X105705000Y-125022500D01*
G75*
G02*
X105642500Y-125085000I-62500J0D01*
G01*
X105517500Y-125085000D01*
G75*
G02*
X105455000Y-125022500I0J62500D01*
G01*
X105455000Y-124322500D01*
G75*
G02*
X105517500Y-124260000I62500J0D01*
G01*
X105642500Y-124260000D01*
G75*
G02*
X105705000Y-124322500I0J-62500D01*
G01*
G37*
G36*
G01*
X105205000Y-124322500D02*
X105205000Y-125022500D01*
G75*
G02*
X105142500Y-125085000I-62500J0D01*
G01*
X105017500Y-125085000D01*
G75*
G02*
X104955000Y-125022500I0J62500D01*
G01*
X104955000Y-124322500D01*
G75*
G02*
X105017500Y-124260000I62500J0D01*
G01*
X105142500Y-124260000D01*
G75*
G02*
X105205000Y-124322500I0J-62500D01*
G01*
G37*
G36*
G01*
X104705000Y-124322500D02*
X104705000Y-125022500D01*
G75*
G02*
X104642500Y-125085000I-62500J0D01*
G01*
X104517500Y-125085000D01*
G75*
G02*
X104455000Y-125022500I0J62500D01*
G01*
X104455000Y-124322500D01*
G75*
G02*
X104517500Y-124260000I62500J0D01*
G01*
X104642500Y-124260000D01*
G75*
G02*
X104705000Y-124322500I0J-62500D01*
G01*
G37*
G36*
G01*
X104280000Y-123897500D02*
X104280000Y-124022500D01*
G75*
G02*
X104217500Y-124085000I-62500J0D01*
G01*
X103517500Y-124085000D01*
G75*
G02*
X103455000Y-124022500I0J62500D01*
G01*
X103455000Y-123897500D01*
G75*
G02*
X103517500Y-123835000I62500J0D01*
G01*
X104217500Y-123835000D01*
G75*
G02*
X104280000Y-123897500I0J-62500D01*
G01*
G37*
G36*
G01*
X104280000Y-123397500D02*
X104280000Y-123522500D01*
G75*
G02*
X104217500Y-123585000I-62500J0D01*
G01*
X103517500Y-123585000D01*
G75*
G02*
X103455000Y-123522500I0J62500D01*
G01*
X103455000Y-123397500D01*
G75*
G02*
X103517500Y-123335000I62500J0D01*
G01*
X104217500Y-123335000D01*
G75*
G02*
X104280000Y-123397500I0J-62500D01*
G01*
G37*
G36*
G01*
X104280000Y-122897500D02*
X104280000Y-123022500D01*
G75*
G02*
X104217500Y-123085000I-62500J0D01*
G01*
X103517500Y-123085000D01*
G75*
G02*
X103455000Y-123022500I0J62500D01*
G01*
X103455000Y-122897500D01*
G75*
G02*
X103517500Y-122835000I62500J0D01*
G01*
X104217500Y-122835000D01*
G75*
G02*
X104280000Y-122897500I0J-62500D01*
G01*
G37*
G36*
G01*
X104280000Y-122397500D02*
X104280000Y-122522500D01*
G75*
G02*
X104217500Y-122585000I-62500J0D01*
G01*
X103517500Y-122585000D01*
G75*
G02*
X103455000Y-122522500I0J62500D01*
G01*
X103455000Y-122397500D01*
G75*
G02*
X103517500Y-122335000I62500J0D01*
G01*
X104217500Y-122335000D01*
G75*
G02*
X104280000Y-122397500I0J-62500D01*
G01*
G37*
G36*
G01*
X104280000Y-121897500D02*
X104280000Y-122022500D01*
G75*
G02*
X104217500Y-122085000I-62500J0D01*
G01*
X103517500Y-122085000D01*
G75*
G02*
X103455000Y-122022500I0J62500D01*
G01*
X103455000Y-121897500D01*
G75*
G02*
X103517500Y-121835000I62500J0D01*
G01*
X104217500Y-121835000D01*
G75*
G02*
X104280000Y-121897500I0J-62500D01*
G01*
G37*
G36*
G01*
X104280000Y-121397500D02*
X104280000Y-121522500D01*
G75*
G02*
X104217500Y-121585000I-62500J0D01*
G01*
X103517500Y-121585000D01*
G75*
G02*
X103455000Y-121522500I0J62500D01*
G01*
X103455000Y-121397500D01*
G75*
G02*
X103517500Y-121335000I62500J0D01*
G01*
X104217500Y-121335000D01*
G75*
G02*
X104280000Y-121397500I0J-62500D01*
G01*
G37*
G36*
G01*
X104705000Y-120397500D02*
X104705000Y-121097500D01*
G75*
G02*
X104642500Y-121160000I-62500J0D01*
G01*
X104517500Y-121160000D01*
G75*
G02*
X104455000Y-121097500I0J62500D01*
G01*
X104455000Y-120397500D01*
G75*
G02*
X104517500Y-120335000I62500J0D01*
G01*
X104642500Y-120335000D01*
G75*
G02*
X104705000Y-120397500I0J-62500D01*
G01*
G37*
G36*
G01*
X105205000Y-120397500D02*
X105205000Y-121097500D01*
G75*
G02*
X105142500Y-121160000I-62500J0D01*
G01*
X105017500Y-121160000D01*
G75*
G02*
X104955000Y-121097500I0J62500D01*
G01*
X104955000Y-120397500D01*
G75*
G02*
X105017500Y-120335000I62500J0D01*
G01*
X105142500Y-120335000D01*
G75*
G02*
X105205000Y-120397500I0J-62500D01*
G01*
G37*
G36*
G01*
X105705000Y-120397500D02*
X105705000Y-121097500D01*
G75*
G02*
X105642500Y-121160000I-62500J0D01*
G01*
X105517500Y-121160000D01*
G75*
G02*
X105455000Y-121097500I0J62500D01*
G01*
X105455000Y-120397500D01*
G75*
G02*
X105517500Y-120335000I62500J0D01*
G01*
X105642500Y-120335000D01*
G75*
G02*
X105705000Y-120397500I0J-62500D01*
G01*
G37*
G36*
G01*
X106205000Y-120397500D02*
X106205000Y-121097500D01*
G75*
G02*
X106142500Y-121160000I-62500J0D01*
G01*
X106017500Y-121160000D01*
G75*
G02*
X105955000Y-121097500I0J62500D01*
G01*
X105955000Y-120397500D01*
G75*
G02*
X106017500Y-120335000I62500J0D01*
G01*
X106142500Y-120335000D01*
G75*
G02*
X106205000Y-120397500I0J-62500D01*
G01*
G37*
G36*
G01*
X106705000Y-120397500D02*
X106705000Y-121097500D01*
G75*
G02*
X106642500Y-121160000I-62500J0D01*
G01*
X106517500Y-121160000D01*
G75*
G02*
X106455000Y-121097500I0J62500D01*
G01*
X106455000Y-120397500D01*
G75*
G02*
X106517500Y-120335000I62500J0D01*
G01*
X106642500Y-120335000D01*
G75*
G02*
X106705000Y-120397500I0J-62500D01*
G01*
G37*
G36*
G01*
X107205000Y-120397500D02*
X107205000Y-121097500D01*
G75*
G02*
X107142500Y-121160000I-62500J0D01*
G01*
X107017500Y-121160000D01*
G75*
G02*
X106955000Y-121097500I0J62500D01*
G01*
X106955000Y-120397500D01*
G75*
G02*
X107017500Y-120335000I62500J0D01*
G01*
X107142500Y-120335000D01*
G75*
G02*
X107205000Y-120397500I0J-62500D01*
G01*
G37*
G36*
G01*
X108205000Y-121397500D02*
X108205000Y-121522500D01*
G75*
G02*
X108142500Y-121585000I-62500J0D01*
G01*
X107442500Y-121585000D01*
G75*
G02*
X107380000Y-121522500I0J62500D01*
G01*
X107380000Y-121397500D01*
G75*
G02*
X107442500Y-121335000I62500J0D01*
G01*
X108142500Y-121335000D01*
G75*
G02*
X108205000Y-121397500I0J-62500D01*
G01*
G37*
G36*
G01*
X108205000Y-121897500D02*
X108205000Y-122022500D01*
G75*
G02*
X108142500Y-122085000I-62500J0D01*
G01*
X107442500Y-122085000D01*
G75*
G02*
X107380000Y-122022500I0J62500D01*
G01*
X107380000Y-121897500D01*
G75*
G02*
X107442500Y-121835000I62500J0D01*
G01*
X108142500Y-121835000D01*
G75*
G02*
X108205000Y-121897500I0J-62500D01*
G01*
G37*
G36*
G01*
X108205000Y-122397500D02*
X108205000Y-122522500D01*
G75*
G02*
X108142500Y-122585000I-62500J0D01*
G01*
X107442500Y-122585000D01*
G75*
G02*
X107380000Y-122522500I0J62500D01*
G01*
X107380000Y-122397500D01*
G75*
G02*
X107442500Y-122335000I62500J0D01*
G01*
X108142500Y-122335000D01*
G75*
G02*
X108205000Y-122397500I0J-62500D01*
G01*
G37*
G36*
G01*
X108205000Y-122897500D02*
X108205000Y-123022500D01*
G75*
G02*
X108142500Y-123085000I-62500J0D01*
G01*
X107442500Y-123085000D01*
G75*
G02*
X107380000Y-123022500I0J62500D01*
G01*
X107380000Y-122897500D01*
G75*
G02*
X107442500Y-122835000I62500J0D01*
G01*
X108142500Y-122835000D01*
G75*
G02*
X108205000Y-122897500I0J-62500D01*
G01*
G37*
G36*
G01*
X108205000Y-123397500D02*
X108205000Y-123522500D01*
G75*
G02*
X108142500Y-123585000I-62500J0D01*
G01*
X107442500Y-123585000D01*
G75*
G02*
X107380000Y-123522500I0J62500D01*
G01*
X107380000Y-123397500D01*
G75*
G02*
X107442500Y-123335000I62500J0D01*
G01*
X108142500Y-123335000D01*
G75*
G02*
X108205000Y-123397500I0J-62500D01*
G01*
G37*
G36*
G01*
X108205000Y-123897500D02*
X108205000Y-124022500D01*
G75*
G02*
X108142500Y-124085000I-62500J0D01*
G01*
X107442500Y-124085000D01*
G75*
G02*
X107380000Y-124022500I0J62500D01*
G01*
X107380000Y-123897500D01*
G75*
G02*
X107442500Y-123835000I62500J0D01*
G01*
X108142500Y-123835000D01*
G75*
G02*
X108205000Y-123897500I0J-62500D01*
G01*
G37*
G36*
G01*
X105475000Y-127220000D02*
X105475000Y-127720000D01*
G75*
G02*
X105250000Y-127945000I-225000J0D01*
G01*
X104800000Y-127945000D01*
G75*
G02*
X104575000Y-127720000I0J225000D01*
G01*
X104575000Y-127220000D01*
G75*
G02*
X104800000Y-126995000I225000J0D01*
G01*
X105250000Y-126995000D01*
G75*
G02*
X105475000Y-127220000I0J-225000D01*
G01*
G37*
G36*
G01*
X107025000Y-127220000D02*
X107025000Y-127720000D01*
G75*
G02*
X106800000Y-127945000I-225000J0D01*
G01*
X106350000Y-127945000D01*
G75*
G02*
X106125000Y-127720000I0J225000D01*
G01*
X106125000Y-127220000D01*
G75*
G02*
X106350000Y-126995000I225000J0D01*
G01*
X106800000Y-126995000D01*
G75*
G02*
X107025000Y-127220000I0J-225000D01*
G01*
G37*
G36*
G01*
X100315000Y-135260000D02*
X100315000Y-134760000D01*
G75*
G02*
X100540000Y-134535000I225000J0D01*
G01*
X100990000Y-134535000D01*
G75*
G02*
X101215000Y-134760000I0J-225000D01*
G01*
X101215000Y-135260000D01*
G75*
G02*
X100990000Y-135485000I-225000J0D01*
G01*
X100540000Y-135485000D01*
G75*
G02*
X100315000Y-135260000I0J225000D01*
G01*
G37*
G36*
G01*
X98765000Y-135260000D02*
X98765000Y-134760000D01*
G75*
G02*
X98990000Y-134535000I225000J0D01*
G01*
X99440000Y-134535000D01*
G75*
G02*
X99665000Y-134760000I0J-225000D01*
G01*
X99665000Y-135260000D01*
G75*
G02*
X99440000Y-135485000I-225000J0D01*
G01*
X98990000Y-135485000D01*
G75*
G02*
X98765000Y-135260000I0J225000D01*
G01*
G37*
D10*
X100890000Y-114720000D03*
X101840000Y-114720000D03*
X99940000Y-114720000D03*
X99940000Y-112520000D03*
X100890000Y-112520000D03*
X101840000Y-112520000D03*
G36*
G01*
X97890000Y-113425000D02*
X97390000Y-113425000D01*
G75*
G02*
X97165000Y-113200000I0J225000D01*
G01*
X97165000Y-112750000D01*
G75*
G02*
X97390000Y-112525000I225000J0D01*
G01*
X97890000Y-112525000D01*
G75*
G02*
X98115000Y-112750000I0J-225000D01*
G01*
X98115000Y-113200000D01*
G75*
G02*
X97890000Y-113425000I-225000J0D01*
G01*
G37*
G36*
G01*
X97890000Y-114975000D02*
X97390000Y-114975000D01*
G75*
G02*
X97165000Y-114750000I0J225000D01*
G01*
X97165000Y-114300000D01*
G75*
G02*
X97390000Y-114075000I225000J0D01*
G01*
X97890000Y-114075000D01*
G75*
G02*
X98115000Y-114300000I0J-225000D01*
G01*
X98115000Y-114750000D01*
G75*
G02*
X97890000Y-114975000I-225000J0D01*
G01*
G37*
G36*
G01*
X97890000Y-110345000D02*
X97390000Y-110345000D01*
G75*
G02*
X97165000Y-110120000I0J225000D01*
G01*
X97165000Y-109670000D01*
G75*
G02*
X97390000Y-109445000I225000J0D01*
G01*
X97890000Y-109445000D01*
G75*
G02*
X98115000Y-109670000I0J-225000D01*
G01*
X98115000Y-110120000D01*
G75*
G02*
X97890000Y-110345000I-225000J0D01*
G01*
G37*
G36*
G01*
X97890000Y-111895000D02*
X97390000Y-111895000D01*
G75*
G02*
X97165000Y-111670000I0J225000D01*
G01*
X97165000Y-111220000D01*
G75*
G02*
X97390000Y-110995000I225000J0D01*
G01*
X97890000Y-110995000D01*
G75*
G02*
X98115000Y-111220000I0J-225000D01*
G01*
X98115000Y-111670000D01*
G75*
G02*
X97890000Y-111895000I-225000J0D01*
G01*
G37*
G36*
G01*
X94505000Y-130505000D02*
X94505000Y-129955000D01*
G75*
G02*
X94705000Y-129755000I200000J0D01*
G01*
X95105000Y-129755000D01*
G75*
G02*
X95305000Y-129955000I0J-200000D01*
G01*
X95305000Y-130505000D01*
G75*
G02*
X95105000Y-130705000I-200000J0D01*
G01*
X94705000Y-130705000D01*
G75*
G02*
X94505000Y-130505000I0J200000D01*
G01*
G37*
G36*
G01*
X92855000Y-130505000D02*
X92855000Y-129955000D01*
G75*
G02*
X93055000Y-129755000I200000J0D01*
G01*
X93455000Y-129755000D01*
G75*
G02*
X93655000Y-129955000I0J-200000D01*
G01*
X93655000Y-130505000D01*
G75*
G02*
X93455000Y-130705000I-200000J0D01*
G01*
X93055000Y-130705000D01*
G75*
G02*
X92855000Y-130505000I0J200000D01*
G01*
G37*
G36*
G01*
X129620000Y-177170000D02*
X126720000Y-177170000D01*
G75*
G02*
X126420000Y-176870000I0J300000D01*
G01*
X126420000Y-176270000D01*
G75*
G02*
X126720000Y-175970000I300000J0D01*
G01*
X129620000Y-175970000D01*
G75*
G02*
X129920000Y-176270000I0J-300000D01*
G01*
X129920000Y-176870000D01*
G75*
G02*
X129620000Y-177170000I-300000J0D01*
G01*
G37*
G36*
G01*
X135320000Y-174720000D02*
X132420000Y-174720000D01*
G75*
G02*
X132120000Y-174420000I0J300000D01*
G01*
X132120000Y-173820000D01*
G75*
G02*
X132420000Y-173520000I300000J0D01*
G01*
X135320000Y-173520000D01*
G75*
G02*
X135620000Y-173820000I0J-300000D01*
G01*
X135620000Y-174420000D01*
G75*
G02*
X135320000Y-174720000I-300000J0D01*
G01*
G37*
G36*
G01*
X135320000Y-181520000D02*
X132420000Y-181520000D01*
G75*
G02*
X132120000Y-181220000I0J300000D01*
G01*
X132120000Y-180620000D01*
G75*
G02*
X132420000Y-180320000I300000J0D01*
G01*
X135320000Y-180320000D01*
G75*
G02*
X135620000Y-180620000I0J-300000D01*
G01*
X135620000Y-181220000D01*
G75*
G02*
X135320000Y-181520000I-300000J0D01*
G01*
G37*
D11*
X124740000Y-178160000D03*
X124740000Y-177210000D03*
X124740000Y-179110000D03*
X122540000Y-179110000D03*
X122540000Y-178160000D03*
X122540000Y-177210000D03*
G36*
G01*
X127165000Y-182962500D02*
X127165000Y-183727500D01*
G75*
G02*
X126922500Y-183970000I-242500J0D01*
G01*
X126437500Y-183970000D01*
G75*
G02*
X126195000Y-183727500I0J242500D01*
G01*
X126195000Y-182962500D01*
G75*
G02*
X126437500Y-182720000I242500J0D01*
G01*
X126922500Y-182720000D01*
G75*
G02*
X127165000Y-182962500I0J-242500D01*
G01*
G37*
G36*
G01*
X127165000Y-184512500D02*
X127165000Y-185277500D01*
G75*
G02*
X126922500Y-185520000I-242500J0D01*
G01*
X126437500Y-185520000D01*
G75*
G02*
X126195000Y-185277500I0J242500D01*
G01*
X126195000Y-184512500D01*
G75*
G02*
X126437500Y-184270000I242500J0D01*
G01*
X126922500Y-184270000D01*
G75*
G02*
X127165000Y-184512500I0J-242500D01*
G01*
G37*
G36*
G01*
X128365000Y-182962500D02*
X128365000Y-183727500D01*
G75*
G02*
X128122500Y-183970000I-242500J0D01*
G01*
X127637500Y-183970000D01*
G75*
G02*
X127395000Y-183727500I0J242500D01*
G01*
X127395000Y-182962500D01*
G75*
G02*
X127637500Y-182720000I242500J0D01*
G01*
X128122500Y-182720000D01*
G75*
G02*
X128365000Y-182962500I0J-242500D01*
G01*
G37*
G36*
G01*
X128365000Y-184512500D02*
X128365000Y-185277500D01*
G75*
G02*
X128122500Y-185520000I-242500J0D01*
G01*
X127637500Y-185520000D01*
G75*
G02*
X127395000Y-185277500I0J242500D01*
G01*
X127395000Y-184512500D01*
G75*
G02*
X127637500Y-184270000I242500J0D01*
G01*
X128122500Y-184270000D01*
G75*
G02*
X128365000Y-184512500I0J-242500D01*
G01*
G37*
G36*
G01*
X125430000Y-185875000D02*
X125430000Y-186175000D01*
G75*
G02*
X125280000Y-186325000I-150000J0D01*
G01*
X123980000Y-186325000D01*
G75*
G02*
X123830000Y-186175000I0J150000D01*
G01*
X123830000Y-185875000D01*
G75*
G02*
X123980000Y-185725000I150000J0D01*
G01*
X125280000Y-185725000D01*
G75*
G02*
X125430000Y-185875000I0J-150000D01*
G01*
G37*
G36*
G01*
X125430000Y-184605000D02*
X125430000Y-184905000D01*
G75*
G02*
X125280000Y-185055000I-150000J0D01*
G01*
X123980000Y-185055000D01*
G75*
G02*
X123830000Y-184905000I0J150000D01*
G01*
X123830000Y-184605000D01*
G75*
G02*
X123980000Y-184455000I150000J0D01*
G01*
X125280000Y-184455000D01*
G75*
G02*
X125430000Y-184605000I0J-150000D01*
G01*
G37*
G36*
G01*
X125430000Y-183335000D02*
X125430000Y-183635000D01*
G75*
G02*
X125280000Y-183785000I-150000J0D01*
G01*
X123980000Y-183785000D01*
G75*
G02*
X123830000Y-183635000I0J150000D01*
G01*
X123830000Y-183335000D01*
G75*
G02*
X123980000Y-183185000I150000J0D01*
G01*
X125280000Y-183185000D01*
G75*
G02*
X125430000Y-183335000I0J-150000D01*
G01*
G37*
G36*
G01*
X125430000Y-182065000D02*
X125430000Y-182365000D01*
G75*
G02*
X125280000Y-182515000I-150000J0D01*
G01*
X123980000Y-182515000D01*
G75*
G02*
X123830000Y-182365000I0J150000D01*
G01*
X123830000Y-182065000D01*
G75*
G02*
X123980000Y-181915000I150000J0D01*
G01*
X125280000Y-181915000D01*
G75*
G02*
X125430000Y-182065000I0J-150000D01*
G01*
G37*
G36*
G01*
X130730000Y-182065000D02*
X130730000Y-182365000D01*
G75*
G02*
X130580000Y-182515000I-150000J0D01*
G01*
X129280000Y-182515000D01*
G75*
G02*
X129130000Y-182365000I0J150000D01*
G01*
X129130000Y-182065000D01*
G75*
G02*
X129280000Y-181915000I150000J0D01*
G01*
X130580000Y-181915000D01*
G75*
G02*
X130730000Y-182065000I0J-150000D01*
G01*
G37*
G36*
G01*
X130730000Y-183335000D02*
X130730000Y-183635000D01*
G75*
G02*
X130580000Y-183785000I-150000J0D01*
G01*
X129280000Y-183785000D01*
G75*
G02*
X129130000Y-183635000I0J150000D01*
G01*
X129130000Y-183335000D01*
G75*
G02*
X129280000Y-183185000I150000J0D01*
G01*
X130580000Y-183185000D01*
G75*
G02*
X130730000Y-183335000I0J-150000D01*
G01*
G37*
G36*
G01*
X130730000Y-184605000D02*
X130730000Y-184905000D01*
G75*
G02*
X130580000Y-185055000I-150000J0D01*
G01*
X129280000Y-185055000D01*
G75*
G02*
X129130000Y-184905000I0J150000D01*
G01*
X129130000Y-184605000D01*
G75*
G02*
X129280000Y-184455000I150000J0D01*
G01*
X130580000Y-184455000D01*
G75*
G02*
X130730000Y-184605000I0J-150000D01*
G01*
G37*
G36*
G01*
X130730000Y-185875000D02*
X130730000Y-186175000D01*
G75*
G02*
X130580000Y-186325000I-150000J0D01*
G01*
X129280000Y-186325000D01*
G75*
G02*
X129130000Y-186175000I0J150000D01*
G01*
X129130000Y-185875000D01*
G75*
G02*
X129280000Y-185725000I150000J0D01*
G01*
X130580000Y-185725000D01*
G75*
G02*
X130730000Y-185875000I0J-150000D01*
G01*
G37*
D12*
G36*
X130038615Y-160623978D02*
G01*
X129269606Y-160844488D01*
X128993969Y-159883226D01*
X129762978Y-159662716D01*
X130038615Y-160623978D01*
G37*
G36*
X128026463Y-153606768D02*
G01*
X127257454Y-153827278D01*
X126981817Y-152866016D01*
X127750826Y-152645506D01*
X128026463Y-153606768D01*
G37*
G36*
X130150851Y-152997609D02*
G01*
X129381842Y-153218119D01*
X129106205Y-152256857D01*
X129875214Y-152036347D01*
X130150851Y-152997609D01*
G37*
G36*
X132163004Y-160014820D02*
G01*
X131393995Y-160235330D01*
X131118358Y-159274068D01*
X131887367Y-159053558D01*
X132163004Y-160014820D01*
G37*
G36*
X128082631Y-154891037D02*
G01*
X126640739Y-155304493D01*
X126447793Y-154631609D01*
X127889685Y-154218153D01*
X128082631Y-154891037D01*
G37*
G36*
X128496087Y-156332929D02*
G01*
X127054195Y-156746385D01*
X126861249Y-156073501D01*
X128303141Y-155660045D01*
X128496087Y-156332929D01*
G37*
G36*
X129322999Y-159216714D02*
G01*
X127881107Y-159630170D01*
X127688161Y-158957286D01*
X129130053Y-158543830D01*
X129322999Y-159216714D01*
G37*
G36*
G01*
X119225000Y-177865000D02*
X119225000Y-178415000D01*
G75*
G02*
X119025000Y-178615000I-200000J0D01*
G01*
X118625000Y-178615000D01*
G75*
G02*
X118425000Y-178415000I0J200000D01*
G01*
X118425000Y-177865000D01*
G75*
G02*
X118625000Y-177665000I200000J0D01*
G01*
X119025000Y-177665000D01*
G75*
G02*
X119225000Y-177865000I0J-200000D01*
G01*
G37*
G36*
G01*
X120875000Y-177865000D02*
X120875000Y-178415000D01*
G75*
G02*
X120675000Y-178615000I-200000J0D01*
G01*
X120275000Y-178615000D01*
G75*
G02*
X120075000Y-178415000I0J200000D01*
G01*
X120075000Y-177865000D01*
G75*
G02*
X120275000Y-177665000I200000J0D01*
G01*
X120675000Y-177665000D01*
G75*
G02*
X120875000Y-177865000I0J-200000D01*
G01*
G37*
G36*
G01*
X118520000Y-145795000D02*
X118520000Y-146345000D01*
G75*
G02*
X118320000Y-146545000I-200000J0D01*
G01*
X117920000Y-146545000D01*
G75*
G02*
X117720000Y-146345000I0J200000D01*
G01*
X117720000Y-145795000D01*
G75*
G02*
X117920000Y-145595000I200000J0D01*
G01*
X118320000Y-145595000D01*
G75*
G02*
X118520000Y-145795000I0J-200000D01*
G01*
G37*
G36*
G01*
X120170000Y-145795000D02*
X120170000Y-146345000D01*
G75*
G02*
X119970000Y-146545000I-200000J0D01*
G01*
X119570000Y-146545000D01*
G75*
G02*
X119370000Y-146345000I0J200000D01*
G01*
X119370000Y-145795000D01*
G75*
G02*
X119570000Y-145595000I200000J0D01*
G01*
X119970000Y-145595000D01*
G75*
G02*
X120170000Y-145795000I0J-200000D01*
G01*
G37*
G36*
G01*
X118325000Y-183605000D02*
X118325000Y-183055000D01*
G75*
G02*
X118525000Y-182855000I200000J0D01*
G01*
X118925000Y-182855000D01*
G75*
G02*
X119125000Y-183055000I0J-200000D01*
G01*
X119125000Y-183605000D01*
G75*
G02*
X118925000Y-183805000I-200000J0D01*
G01*
X118525000Y-183805000D01*
G75*
G02*
X118325000Y-183605000I0J200000D01*
G01*
G37*
G36*
G01*
X116675000Y-183605000D02*
X116675000Y-183055000D01*
G75*
G02*
X116875000Y-182855000I200000J0D01*
G01*
X117275000Y-182855000D01*
G75*
G02*
X117475000Y-183055000I0J-200000D01*
G01*
X117475000Y-183605000D01*
G75*
G02*
X117275000Y-183805000I-200000J0D01*
G01*
X116875000Y-183805000D01*
G75*
G02*
X116675000Y-183605000I0J200000D01*
G01*
G37*
G36*
G01*
X118325000Y-185125000D02*
X118325000Y-184575000D01*
G75*
G02*
X118525000Y-184375000I200000J0D01*
G01*
X118925000Y-184375000D01*
G75*
G02*
X119125000Y-184575000I0J-200000D01*
G01*
X119125000Y-185125000D01*
G75*
G02*
X118925000Y-185325000I-200000J0D01*
G01*
X118525000Y-185325000D01*
G75*
G02*
X118325000Y-185125000I0J200000D01*
G01*
G37*
G36*
G01*
X116675000Y-185125000D02*
X116675000Y-184575000D01*
G75*
G02*
X116875000Y-184375000I200000J0D01*
G01*
X117275000Y-184375000D01*
G75*
G02*
X117475000Y-184575000I0J-200000D01*
G01*
X117475000Y-185125000D01*
G75*
G02*
X117275000Y-185325000I-200000J0D01*
G01*
X116875000Y-185325000D01*
G75*
G02*
X116675000Y-185125000I0J200000D01*
G01*
G37*
G36*
G01*
X131855000Y-185305000D02*
X132405000Y-185305000D01*
G75*
G02*
X132605000Y-185505000I0J-200000D01*
G01*
X132605000Y-185905000D01*
G75*
G02*
X132405000Y-186105000I-200000J0D01*
G01*
X131855000Y-186105000D01*
G75*
G02*
X131655000Y-185905000I0J200000D01*
G01*
X131655000Y-185505000D01*
G75*
G02*
X131855000Y-185305000I200000J0D01*
G01*
G37*
G36*
G01*
X131855000Y-183655000D02*
X132405000Y-183655000D01*
G75*
G02*
X132605000Y-183855000I0J-200000D01*
G01*
X132605000Y-184255000D01*
G75*
G02*
X132405000Y-184455000I-200000J0D01*
G01*
X131855000Y-184455000D01*
G75*
G02*
X131655000Y-184255000I0J200000D01*
G01*
X131655000Y-183855000D01*
G75*
G02*
X131855000Y-183655000I200000J0D01*
G01*
G37*
D10*
X122300000Y-171490000D03*
X121350000Y-171490000D03*
X123250000Y-171490000D03*
X123250000Y-173690000D03*
X122300000Y-173690000D03*
X121350000Y-173690000D03*
D13*
X116190000Y-138570000D03*
X112840000Y-141620000D03*
X116190000Y-141620000D03*
X112840000Y-138570000D03*
D14*
X120815000Y-137815000D03*
X120815000Y-142375000D03*
D15*
X101690000Y-191780000D03*
D16*
X98990000Y-191780000D03*
D17*
X103515000Y-191780000D03*
X96765000Y-191780000D03*
D18*
X102627500Y-189205000D03*
X97652500Y-189205000D03*
D19*
X101440000Y-189120000D03*
X100790000Y-189120000D03*
X100140000Y-189120000D03*
X99490000Y-189120000D03*
X98840000Y-189120000D03*
G36*
G01*
X121220000Y-183127500D02*
X121220000Y-183552500D01*
G75*
G02*
X121007500Y-183765000I-212500J0D01*
G01*
X120207500Y-183765000D01*
G75*
G02*
X119995000Y-183552500I0J212500D01*
G01*
X119995000Y-183127500D01*
G75*
G02*
X120207500Y-182915000I212500J0D01*
G01*
X121007500Y-182915000D01*
G75*
G02*
X121220000Y-183127500I0J-212500D01*
G01*
G37*
G36*
G01*
X122845000Y-183127500D02*
X122845000Y-183552500D01*
G75*
G02*
X122632500Y-183765000I-212500J0D01*
G01*
X121832500Y-183765000D01*
G75*
G02*
X121620000Y-183552500I0J212500D01*
G01*
X121620000Y-183127500D01*
G75*
G02*
X121832500Y-182915000I212500J0D01*
G01*
X122632500Y-182915000D01*
G75*
G02*
X122845000Y-183127500I0J-212500D01*
G01*
G37*
G36*
G01*
X121220000Y-184547500D02*
X121220000Y-184972500D01*
G75*
G02*
X121007500Y-185185000I-212500J0D01*
G01*
X120207500Y-185185000D01*
G75*
G02*
X119995000Y-184972500I0J212500D01*
G01*
X119995000Y-184547500D01*
G75*
G02*
X120207500Y-184335000I212500J0D01*
G01*
X121007500Y-184335000D01*
G75*
G02*
X121220000Y-184547500I0J-212500D01*
G01*
G37*
G36*
G01*
X122845000Y-184547500D02*
X122845000Y-184972500D01*
G75*
G02*
X122632500Y-185185000I-212500J0D01*
G01*
X121832500Y-185185000D01*
G75*
G02*
X121620000Y-184972500I0J212500D01*
G01*
X121620000Y-184547500D01*
G75*
G02*
X121832500Y-184335000I212500J0D01*
G01*
X122632500Y-184335000D01*
G75*
G02*
X122845000Y-184547500I0J-212500D01*
G01*
G37*
G36*
G01*
X99650000Y-81963750D02*
X99650000Y-82476250D01*
G75*
G02*
X99431250Y-82695000I-218750J0D01*
G01*
X98993750Y-82695000D01*
G75*
G02*
X98775000Y-82476250I0J218750D01*
G01*
X98775000Y-81963750D01*
G75*
G02*
X98993750Y-81745000I218750J0D01*
G01*
X99431250Y-81745000D01*
G75*
G02*
X99650000Y-81963750I0J-218750D01*
G01*
G37*
G36*
G01*
X101225000Y-81963750D02*
X101225000Y-82476250D01*
G75*
G02*
X101006250Y-82695000I-218750J0D01*
G01*
X100568750Y-82695000D01*
G75*
G02*
X100350000Y-82476250I0J218750D01*
G01*
X100350000Y-81963750D01*
G75*
G02*
X100568750Y-81745000I218750J0D01*
G01*
X101006250Y-81745000D01*
G75*
G02*
X101225000Y-81963750I0J-218750D01*
G01*
G37*
G36*
G01*
X98412500Y-130875000D02*
X97712500Y-130875000D01*
G75*
G02*
X97650000Y-130812500I0J62500D01*
G01*
X97650000Y-130687500D01*
G75*
G02*
X97712500Y-130625000I62500J0D01*
G01*
X98412500Y-130625000D01*
G75*
G02*
X98475000Y-130687500I0J-62500D01*
G01*
X98475000Y-130812500D01*
G75*
G02*
X98412500Y-130875000I-62500J0D01*
G01*
G37*
G36*
G01*
X98412500Y-130375000D02*
X97712500Y-130375000D01*
G75*
G02*
X97650000Y-130312500I0J62500D01*
G01*
X97650000Y-130187500D01*
G75*
G02*
X97712500Y-130125000I62500J0D01*
G01*
X98412500Y-130125000D01*
G75*
G02*
X98475000Y-130187500I0J-62500D01*
G01*
X98475000Y-130312500D01*
G75*
G02*
X98412500Y-130375000I-62500J0D01*
G01*
G37*
G36*
G01*
X98412500Y-129875000D02*
X97712500Y-129875000D01*
G75*
G02*
X97650000Y-129812500I0J62500D01*
G01*
X97650000Y-129687500D01*
G75*
G02*
X97712500Y-129625000I62500J0D01*
G01*
X98412500Y-129625000D01*
G75*
G02*
X98475000Y-129687500I0J-62500D01*
G01*
X98475000Y-129812500D01*
G75*
G02*
X98412500Y-129875000I-62500J0D01*
G01*
G37*
G36*
G01*
X98412500Y-129375000D02*
X97712500Y-129375000D01*
G75*
G02*
X97650000Y-129312500I0J62500D01*
G01*
X97650000Y-129187500D01*
G75*
G02*
X97712500Y-129125000I62500J0D01*
G01*
X98412500Y-129125000D01*
G75*
G02*
X98475000Y-129187500I0J-62500D01*
G01*
X98475000Y-129312500D01*
G75*
G02*
X98412500Y-129375000I-62500J0D01*
G01*
G37*
G36*
G01*
X98412500Y-128875000D02*
X97712500Y-128875000D01*
G75*
G02*
X97650000Y-128812500I0J62500D01*
G01*
X97650000Y-128687500D01*
G75*
G02*
X97712500Y-128625000I62500J0D01*
G01*
X98412500Y-128625000D01*
G75*
G02*
X98475000Y-128687500I0J-62500D01*
G01*
X98475000Y-128812500D01*
G75*
G02*
X98412500Y-128875000I-62500J0D01*
G01*
G37*
G36*
G01*
X98412500Y-128375000D02*
X97712500Y-128375000D01*
G75*
G02*
X97650000Y-128312500I0J62500D01*
G01*
X97650000Y-128187500D01*
G75*
G02*
X97712500Y-128125000I62500J0D01*
G01*
X98412500Y-128125000D01*
G75*
G02*
X98475000Y-128187500I0J-62500D01*
G01*
X98475000Y-128312500D01*
G75*
G02*
X98412500Y-128375000I-62500J0D01*
G01*
G37*
G36*
G01*
X98812500Y-127975000D02*
X98687500Y-127975000D01*
G75*
G02*
X98625000Y-127912500I0J62500D01*
G01*
X98625000Y-127212500D01*
G75*
G02*
X98687500Y-127150000I62500J0D01*
G01*
X98812500Y-127150000D01*
G75*
G02*
X98875000Y-127212500I0J-62500D01*
G01*
X98875000Y-127912500D01*
G75*
G02*
X98812500Y-127975000I-62500J0D01*
G01*
G37*
G36*
G01*
X99312500Y-127975000D02*
X99187500Y-127975000D01*
G75*
G02*
X99125000Y-127912500I0J62500D01*
G01*
X99125000Y-127212500D01*
G75*
G02*
X99187500Y-127150000I62500J0D01*
G01*
X99312500Y-127150000D01*
G75*
G02*
X99375000Y-127212500I0J-62500D01*
G01*
X99375000Y-127912500D01*
G75*
G02*
X99312500Y-127975000I-62500J0D01*
G01*
G37*
G36*
G01*
X99812500Y-127975000D02*
X99687500Y-127975000D01*
G75*
G02*
X99625000Y-127912500I0J62500D01*
G01*
X99625000Y-127212500D01*
G75*
G02*
X99687500Y-127150000I62500J0D01*
G01*
X99812500Y-127150000D01*
G75*
G02*
X99875000Y-127212500I0J-62500D01*
G01*
X99875000Y-127912500D01*
G75*
G02*
X99812500Y-127975000I-62500J0D01*
G01*
G37*
G36*
G01*
X100312500Y-127975000D02*
X100187500Y-127975000D01*
G75*
G02*
X100125000Y-127912500I0J62500D01*
G01*
X100125000Y-127212500D01*
G75*
G02*
X100187500Y-127150000I62500J0D01*
G01*
X100312500Y-127150000D01*
G75*
G02*
X100375000Y-127212500I0J-62500D01*
G01*
X100375000Y-127912500D01*
G75*
G02*
X100312500Y-127975000I-62500J0D01*
G01*
G37*
G36*
G01*
X100812500Y-127975000D02*
X100687500Y-127975000D01*
G75*
G02*
X100625000Y-127912500I0J62500D01*
G01*
X100625000Y-127212500D01*
G75*
G02*
X100687500Y-127150000I62500J0D01*
G01*
X100812500Y-127150000D01*
G75*
G02*
X100875000Y-127212500I0J-62500D01*
G01*
X100875000Y-127912500D01*
G75*
G02*
X100812500Y-127975000I-62500J0D01*
G01*
G37*
G36*
G01*
X101312500Y-127975000D02*
X101187500Y-127975000D01*
G75*
G02*
X101125000Y-127912500I0J62500D01*
G01*
X101125000Y-127212500D01*
G75*
G02*
X101187500Y-127150000I62500J0D01*
G01*
X101312500Y-127150000D01*
G75*
G02*
X101375000Y-127212500I0J-62500D01*
G01*
X101375000Y-127912500D01*
G75*
G02*
X101312500Y-127975000I-62500J0D01*
G01*
G37*
G36*
G01*
X102287500Y-128375000D02*
X101587500Y-128375000D01*
G75*
G02*
X101525000Y-128312500I0J62500D01*
G01*
X101525000Y-128187500D01*
G75*
G02*
X101587500Y-128125000I62500J0D01*
G01*
X102287500Y-128125000D01*
G75*
G02*
X102350000Y-128187500I0J-62500D01*
G01*
X102350000Y-128312500D01*
G75*
G02*
X102287500Y-128375000I-62500J0D01*
G01*
G37*
G36*
G01*
X102287500Y-128875000D02*
X101587500Y-128875000D01*
G75*
G02*
X101525000Y-128812500I0J62500D01*
G01*
X101525000Y-128687500D01*
G75*
G02*
X101587500Y-128625000I62500J0D01*
G01*
X102287500Y-128625000D01*
G75*
G02*
X102350000Y-128687500I0J-62500D01*
G01*
X102350000Y-128812500D01*
G75*
G02*
X102287500Y-128875000I-62500J0D01*
G01*
G37*
G36*
G01*
X102287500Y-129375000D02*
X101587500Y-129375000D01*
G75*
G02*
X101525000Y-129312500I0J62500D01*
G01*
X101525000Y-129187500D01*
G75*
G02*
X101587500Y-129125000I62500J0D01*
G01*
X102287500Y-129125000D01*
G75*
G02*
X102350000Y-129187500I0J-62500D01*
G01*
X102350000Y-129312500D01*
G75*
G02*
X102287500Y-129375000I-62500J0D01*
G01*
G37*
G36*
G01*
X102287500Y-129875000D02*
X101587500Y-129875000D01*
G75*
G02*
X101525000Y-129812500I0J62500D01*
G01*
X101525000Y-129687500D01*
G75*
G02*
X101587500Y-129625000I62500J0D01*
G01*
X102287500Y-129625000D01*
G75*
G02*
X102350000Y-129687500I0J-62500D01*
G01*
X102350000Y-129812500D01*
G75*
G02*
X102287500Y-129875000I-62500J0D01*
G01*
G37*
G36*
G01*
X102287500Y-130375000D02*
X101587500Y-130375000D01*
G75*
G02*
X101525000Y-130312500I0J62500D01*
G01*
X101525000Y-130187500D01*
G75*
G02*
X101587500Y-130125000I62500J0D01*
G01*
X102287500Y-130125000D01*
G75*
G02*
X102350000Y-130187500I0J-62500D01*
G01*
X102350000Y-130312500D01*
G75*
G02*
X102287500Y-130375000I-62500J0D01*
G01*
G37*
G36*
G01*
X102287500Y-130875000D02*
X101587500Y-130875000D01*
G75*
G02*
X101525000Y-130812500I0J62500D01*
G01*
X101525000Y-130687500D01*
G75*
G02*
X101587500Y-130625000I62500J0D01*
G01*
X102287500Y-130625000D01*
G75*
G02*
X102350000Y-130687500I0J-62500D01*
G01*
X102350000Y-130812500D01*
G75*
G02*
X102287500Y-130875000I-62500J0D01*
G01*
G37*
G36*
G01*
X101312500Y-131850000D02*
X101187500Y-131850000D01*
G75*
G02*
X101125000Y-131787500I0J62500D01*
G01*
X101125000Y-131087500D01*
G75*
G02*
X101187500Y-131025000I62500J0D01*
G01*
X101312500Y-131025000D01*
G75*
G02*
X101375000Y-131087500I0J-62500D01*
G01*
X101375000Y-131787500D01*
G75*
G02*
X101312500Y-131850000I-62500J0D01*
G01*
G37*
G36*
G01*
X100812500Y-131850000D02*
X100687500Y-131850000D01*
G75*
G02*
X100625000Y-131787500I0J62500D01*
G01*
X100625000Y-131087500D01*
G75*
G02*
X100687500Y-131025000I62500J0D01*
G01*
X100812500Y-131025000D01*
G75*
G02*
X100875000Y-131087500I0J-62500D01*
G01*
X100875000Y-131787500D01*
G75*
G02*
X100812500Y-131850000I-62500J0D01*
G01*
G37*
G36*
G01*
X100312500Y-131850000D02*
X100187500Y-131850000D01*
G75*
G02*
X100125000Y-131787500I0J62500D01*
G01*
X100125000Y-131087500D01*
G75*
G02*
X100187500Y-131025000I62500J0D01*
G01*
X100312500Y-131025000D01*
G75*
G02*
X100375000Y-131087500I0J-62500D01*
G01*
X100375000Y-131787500D01*
G75*
G02*
X100312500Y-131850000I-62500J0D01*
G01*
G37*
G36*
G01*
X99812500Y-131850000D02*
X99687500Y-131850000D01*
G75*
G02*
X99625000Y-131787500I0J62500D01*
G01*
X99625000Y-131087500D01*
G75*
G02*
X99687500Y-131025000I62500J0D01*
G01*
X99812500Y-131025000D01*
G75*
G02*
X99875000Y-131087500I0J-62500D01*
G01*
X99875000Y-131787500D01*
G75*
G02*
X99812500Y-131850000I-62500J0D01*
G01*
G37*
G36*
G01*
X99312500Y-131850000D02*
X99187500Y-131850000D01*
G75*
G02*
X99125000Y-131787500I0J62500D01*
G01*
X99125000Y-131087500D01*
G75*
G02*
X99187500Y-131025000I62500J0D01*
G01*
X99312500Y-131025000D01*
G75*
G02*
X99375000Y-131087500I0J-62500D01*
G01*
X99375000Y-131787500D01*
G75*
G02*
X99312500Y-131850000I-62500J0D01*
G01*
G37*
G36*
G01*
X98812500Y-131850000D02*
X98687500Y-131850000D01*
G75*
G02*
X98625000Y-131787500I0J62500D01*
G01*
X98625000Y-131087500D01*
G75*
G02*
X98687500Y-131025000I62500J0D01*
G01*
X98812500Y-131025000D01*
G75*
G02*
X98875000Y-131087500I0J-62500D01*
G01*
X98875000Y-131787500D01*
G75*
G02*
X98812500Y-131850000I-62500J0D01*
G01*
G37*
G36*
G01*
X100925001Y-129375000D02*
X100374999Y-129375000D01*
G75*
G02*
X100125000Y-129125001I0J249999D01*
G01*
X100125000Y-128574999D01*
G75*
G02*
X100374999Y-128325000I249999J0D01*
G01*
X100925001Y-128325000D01*
G75*
G02*
X101175000Y-128574999I0J-249999D01*
G01*
X101175000Y-129125001D01*
G75*
G02*
X100925001Y-129375000I-249999J0D01*
G01*
G37*
G36*
G01*
X99625001Y-129375000D02*
X99074999Y-129375000D01*
G75*
G02*
X98825000Y-129125001I0J249999D01*
G01*
X98825000Y-128574999D01*
G75*
G02*
X99074999Y-128325000I249999J0D01*
G01*
X99625001Y-128325000D01*
G75*
G02*
X99875000Y-128574999I0J-249999D01*
G01*
X99875000Y-129125001D01*
G75*
G02*
X99625001Y-129375000I-249999J0D01*
G01*
G37*
G36*
G01*
X100925001Y-130675000D02*
X100374999Y-130675000D01*
G75*
G02*
X100125000Y-130425001I0J249999D01*
G01*
X100125000Y-129874999D01*
G75*
G02*
X100374999Y-129625000I249999J0D01*
G01*
X100925001Y-129625000D01*
G75*
G02*
X101175000Y-129874999I0J-249999D01*
G01*
X101175000Y-130425001D01*
G75*
G02*
X100925001Y-130675000I-249999J0D01*
G01*
G37*
G36*
G01*
X99625001Y-130675000D02*
X99074999Y-130675000D01*
G75*
G02*
X98825000Y-130425001I0J249999D01*
G01*
X98825000Y-129874999D01*
G75*
G02*
X99074999Y-129625000I249999J0D01*
G01*
X99625001Y-129625000D01*
G75*
G02*
X99875000Y-129874999I0J-249999D01*
G01*
X99875000Y-130425001D01*
G75*
G02*
X99625001Y-130675000I-249999J0D01*
G01*
G37*
M02*
