G04 #@! TF.GenerationSoftware,KiCad,Pcbnew,(5.1.6-0)*
G04 #@! TF.CreationDate,2021-01-08T20:23:25+00:00*
G04 #@! TF.ProjectId,XMAS_Star_21,584d4153-5f53-4746-9172-5f32312e6b69,rev?*
G04 #@! TF.SameCoordinates,Original*
G04 #@! TF.FileFunction,Paste,Bot*
G04 #@! TF.FilePolarity,Positive*
%FSLAX46Y46*%
G04 Gerber Fmt 4.6, Leading zero omitted, Abs format (unit mm)*
G04 Created by KiCad (PCBNEW (5.1.6-0)) date 2021-01-08 20:23:25*
%MOMM*%
%LPD*%
G01*
G04 APERTURE LIST*
%ADD10C,0.300000*%
G04 APERTURE END LIST*
D10*
X76607142Y-154217142D02*
X76702380Y-154502857D01*
X76797619Y-154598095D01*
X76988095Y-154693333D01*
X77273809Y-154693333D01*
X77464285Y-154598095D01*
X77559523Y-154502857D01*
X77654761Y-154312380D01*
X77654761Y-153550476D01*
X75654761Y-153550476D01*
X75654761Y-154217142D01*
X75750000Y-154407619D01*
X75845238Y-154502857D01*
X76035714Y-154598095D01*
X76226190Y-154598095D01*
X76416666Y-154502857D01*
X76511904Y-154407619D01*
X76607142Y-154217142D01*
X76607142Y-153550476D01*
X77654761Y-156407619D02*
X76607142Y-156407619D01*
X76416666Y-156312380D01*
X76321428Y-156121904D01*
X76321428Y-155740952D01*
X76416666Y-155550476D01*
X77559523Y-156407619D02*
X77654761Y-156217142D01*
X77654761Y-155740952D01*
X77559523Y-155550476D01*
X77369047Y-155455238D01*
X77178571Y-155455238D01*
X76988095Y-155550476D01*
X76892857Y-155740952D01*
X76892857Y-156217142D01*
X76797619Y-156407619D01*
X76321428Y-157074285D02*
X76321428Y-157836190D01*
X75654761Y-157360000D02*
X77369047Y-157360000D01*
X77559523Y-157455238D01*
X77654761Y-157645714D01*
X77654761Y-157836190D01*
X76321428Y-158217142D02*
X76321428Y-158979047D01*
X75654761Y-158502857D02*
X77369047Y-158502857D01*
X77559523Y-158598095D01*
X77654761Y-158788571D01*
X77654761Y-158979047D01*
X77559523Y-160407619D02*
X77654761Y-160217142D01*
X77654761Y-159836190D01*
X77559523Y-159645714D01*
X77369047Y-159550476D01*
X76607142Y-159550476D01*
X76416666Y-159645714D01*
X76321428Y-159836190D01*
X76321428Y-160217142D01*
X76416666Y-160407619D01*
X76607142Y-160502857D01*
X76797619Y-160502857D01*
X76988095Y-159550476D01*
X77654761Y-161360000D02*
X76321428Y-161360000D01*
X76702380Y-161360000D02*
X76511904Y-161455238D01*
X76416666Y-161550476D01*
X76321428Y-161740952D01*
X76321428Y-161931428D01*
X76321428Y-162407619D02*
X77654761Y-162883809D01*
X76321428Y-163360000D02*
X77654761Y-162883809D01*
X78130952Y-162693333D01*
X78226190Y-162598095D01*
X78321428Y-162407619D01*
G36*
G01*
X99650000Y-81963750D02*
X99650000Y-82476250D01*
G75*
G02*
X99431250Y-82695000I-218750J0D01*
G01*
X98993750Y-82695000D01*
G75*
G02*
X98775000Y-82476250I0J218750D01*
G01*
X98775000Y-81963750D01*
G75*
G02*
X98993750Y-81745000I218750J0D01*
G01*
X99431250Y-81745000D01*
G75*
G02*
X99650000Y-81963750I0J-218750D01*
G01*
G37*
G36*
G01*
X101225000Y-81963750D02*
X101225000Y-82476250D01*
G75*
G02*
X101006250Y-82695000I-218750J0D01*
G01*
X100568750Y-82695000D01*
G75*
G02*
X100350000Y-82476250I0J218750D01*
G01*
X100350000Y-81963750D01*
G75*
G02*
X100568750Y-81745000I218750J0D01*
G01*
X101006250Y-81745000D01*
G75*
G02*
X101225000Y-81963750I0J-218750D01*
G01*
G37*
M02*
