G04 #@! TF.GenerationSoftware,KiCad,Pcbnew,(5.1.6-0)*
G04 #@! TF.CreationDate,2021-01-08T20:23:25+00:00*
G04 #@! TF.ProjectId,XMAS_Star_21,584d4153-5f53-4746-9172-5f32312e6b69,rev?*
G04 #@! TF.SameCoordinates,Original*
G04 #@! TF.FileFunction,Legend,Top*
G04 #@! TF.FilePolarity,Positive*
%FSLAX46Y46*%
G04 Gerber Fmt 4.6, Leading zero omitted, Abs format (unit mm)*
G04 Created by KiCad (PCBNEW (5.1.6-0)) date 2021-01-08 20:23:25*
%MOMM*%
%LPD*%
G01*
G04 APERTURE LIST*
%ADD10C,0.150000*%
%ADD11C,0.300000*%
%ADD12C,0.120000*%
G04 APERTURE END LIST*
D10*
X115642857Y-100376190D02*
X115642857Y-100852380D01*
X115309523Y-99852380D02*
X115642857Y-100376190D01*
X115976190Y-99852380D01*
X116214285Y-99852380D02*
X116880952Y-99852380D01*
X116214285Y-100852380D01*
X116880952Y-100852380D01*
X117785714Y-100852380D02*
X117214285Y-100852380D01*
X117500000Y-100852380D02*
X117500000Y-99852380D01*
X117404761Y-99995238D01*
X117309523Y-100090476D01*
X117214285Y-100138095D01*
X118166666Y-100804761D02*
X118261904Y-100852380D01*
X118452380Y-100852380D01*
X118547619Y-100804761D01*
X118595238Y-100709523D01*
X118595238Y-100661904D01*
X118547619Y-100566666D01*
X118452380Y-100519047D01*
X118309523Y-100519047D01*
X118214285Y-100471428D01*
X118166666Y-100376190D01*
X118166666Y-100328571D01*
X118214285Y-100233333D01*
X118309523Y-100185714D01*
X118452380Y-100185714D01*
X118547619Y-100233333D01*
X119842857Y-62476190D02*
X119842857Y-62952380D01*
X119509523Y-61952380D02*
X119842857Y-62476190D01*
X120176190Y-61952380D01*
X120414285Y-61952380D02*
X121080952Y-61952380D01*
X120414285Y-62952380D01*
X121080952Y-62952380D01*
X121652380Y-61952380D02*
X121747619Y-61952380D01*
X121842857Y-62000000D01*
X121890476Y-62047619D01*
X121938095Y-62142857D01*
X121985714Y-62333333D01*
X121985714Y-62571428D01*
X121938095Y-62761904D01*
X121890476Y-62857142D01*
X121842857Y-62904761D01*
X121747619Y-62952380D01*
X121652380Y-62952380D01*
X121557142Y-62904761D01*
X121509523Y-62857142D01*
X121461904Y-62761904D01*
X121414285Y-62571428D01*
X121414285Y-62333333D01*
X121461904Y-62142857D01*
X121509523Y-62047619D01*
X121557142Y-62000000D01*
X121652380Y-61952380D01*
X122366666Y-62904761D02*
X122461904Y-62952380D01*
X122652380Y-62952380D01*
X122747619Y-62904761D01*
X122795238Y-62809523D01*
X122795238Y-62761904D01*
X122747619Y-62666666D01*
X122652380Y-62619047D01*
X122509523Y-62619047D01*
X122414285Y-62571428D01*
X122366666Y-62476190D01*
X122366666Y-62428571D01*
X122414285Y-62333333D01*
X122509523Y-62285714D01*
X122652380Y-62285714D01*
X122747619Y-62333333D01*
X100309523Y-84077142D02*
X100261904Y-84124761D01*
X100119047Y-84172380D01*
X100023809Y-84172380D01*
X99880952Y-84124761D01*
X99785714Y-84029523D01*
X99738095Y-83934285D01*
X99690476Y-83743809D01*
X99690476Y-83600952D01*
X99738095Y-83410476D01*
X99785714Y-83315238D01*
X99880952Y-83220000D01*
X100023809Y-83172380D01*
X100119047Y-83172380D01*
X100261904Y-83220000D01*
X100309523Y-83267619D01*
X77842857Y-62176190D02*
X77842857Y-62652380D01*
X77509523Y-61652380D02*
X77842857Y-62176190D01*
X78176190Y-61652380D01*
X78414285Y-61652380D02*
X79080952Y-61652380D01*
X78414285Y-62652380D01*
X79080952Y-62652380D01*
X79985714Y-62652380D02*
X79414285Y-62652380D01*
X79700000Y-62652380D02*
X79700000Y-61652380D01*
X79604761Y-61795238D01*
X79509523Y-61890476D01*
X79414285Y-61938095D01*
X80366666Y-62604761D02*
X80461904Y-62652380D01*
X80652380Y-62652380D01*
X80747619Y-62604761D01*
X80795238Y-62509523D01*
X80795238Y-62461904D01*
X80747619Y-62366666D01*
X80652380Y-62319047D01*
X80509523Y-62319047D01*
X80414285Y-62271428D01*
X80366666Y-62176190D01*
X80366666Y-62128571D01*
X80414285Y-62033333D01*
X80509523Y-61985714D01*
X80652380Y-61985714D01*
X80747619Y-62033333D01*
X81742857Y-100176190D02*
X81742857Y-100652380D01*
X81409523Y-99652380D02*
X81742857Y-100176190D01*
X82076190Y-99652380D01*
X82314285Y-99652380D02*
X82980952Y-99652380D01*
X82314285Y-100652380D01*
X82980952Y-100652380D01*
X83552380Y-99652380D02*
X83647619Y-99652380D01*
X83742857Y-99700000D01*
X83790476Y-99747619D01*
X83838095Y-99842857D01*
X83885714Y-100033333D01*
X83885714Y-100271428D01*
X83838095Y-100461904D01*
X83790476Y-100557142D01*
X83742857Y-100604761D01*
X83647619Y-100652380D01*
X83552380Y-100652380D01*
X83457142Y-100604761D01*
X83409523Y-100557142D01*
X83361904Y-100461904D01*
X83314285Y-100271428D01*
X83314285Y-100033333D01*
X83361904Y-99842857D01*
X83409523Y-99747619D01*
X83457142Y-99700000D01*
X83552380Y-99652380D01*
X84266666Y-100604761D02*
X84361904Y-100652380D01*
X84552380Y-100652380D01*
X84647619Y-100604761D01*
X84695238Y-100509523D01*
X84695238Y-100461904D01*
X84647619Y-100366666D01*
X84552380Y-100319047D01*
X84409523Y-100319047D01*
X84314285Y-100271428D01*
X84266666Y-100176190D01*
X84266666Y-100128571D01*
X84314285Y-100033333D01*
X84409523Y-99985714D01*
X84552380Y-99985714D01*
X84647619Y-100033333D01*
X101209523Y-68052380D02*
X101876190Y-68052380D01*
X101209523Y-69052380D01*
X101876190Y-69052380D01*
X102161904Y-68052380D02*
X102828571Y-69052380D01*
X102828571Y-68052380D02*
X102161904Y-69052380D01*
X103733333Y-69052380D02*
X103161904Y-69052380D01*
X103447619Y-69052380D02*
X103447619Y-68052380D01*
X103352380Y-68195238D01*
X103257142Y-68290476D01*
X103161904Y-68338095D01*
X104114285Y-69004761D02*
X104209523Y-69052380D01*
X104400000Y-69052380D01*
X104495238Y-69004761D01*
X104542857Y-68909523D01*
X104542857Y-68861904D01*
X104495238Y-68766666D01*
X104400000Y-68719047D01*
X104257142Y-68719047D01*
X104161904Y-68671428D01*
X104114285Y-68576190D01*
X104114285Y-68528571D01*
X104161904Y-68433333D01*
X104257142Y-68385714D01*
X104400000Y-68385714D01*
X104495238Y-68433333D01*
X101209523Y-97752380D02*
X101876190Y-97752380D01*
X101209523Y-98752380D01*
X101876190Y-98752380D01*
X102161904Y-97752380D02*
X102828571Y-98752380D01*
X102828571Y-97752380D02*
X102161904Y-98752380D01*
X103400000Y-97752380D02*
X103495238Y-97752380D01*
X103590476Y-97800000D01*
X103638095Y-97847619D01*
X103685714Y-97942857D01*
X103733333Y-98133333D01*
X103733333Y-98371428D01*
X103685714Y-98561904D01*
X103638095Y-98657142D01*
X103590476Y-98704761D01*
X103495238Y-98752380D01*
X103400000Y-98752380D01*
X103304761Y-98704761D01*
X103257142Y-98657142D01*
X103209523Y-98561904D01*
X103161904Y-98371428D01*
X103161904Y-98133333D01*
X103209523Y-97942857D01*
X103257142Y-97847619D01*
X103304761Y-97800000D01*
X103400000Y-97752380D01*
X104114285Y-98704761D02*
X104209523Y-98752380D01*
X104400000Y-98752380D01*
X104495238Y-98704761D01*
X104542857Y-98609523D01*
X104542857Y-98561904D01*
X104495238Y-98466666D01*
X104400000Y-98419047D01*
X104257142Y-98419047D01*
X104161904Y-98371428D01*
X104114285Y-98276190D01*
X104114285Y-98228571D01*
X104161904Y-98133333D01*
X104257142Y-98085714D01*
X104400000Y-98085714D01*
X104495238Y-98133333D01*
X88052380Y-84342857D02*
X89052380Y-83676190D01*
X88052380Y-83676190D02*
X89052380Y-84342857D01*
X88576190Y-83104761D02*
X89052380Y-83104761D01*
X88052380Y-83438095D02*
X88576190Y-83104761D01*
X88052380Y-82771428D01*
X89052380Y-81914285D02*
X89052380Y-82485714D01*
X89052380Y-82200000D02*
X88052380Y-82200000D01*
X88195238Y-82295238D01*
X88290476Y-82390476D01*
X88338095Y-82485714D01*
X89004761Y-81533333D02*
X89052380Y-81438095D01*
X89052380Y-81247619D01*
X89004761Y-81152380D01*
X88909523Y-81104761D01*
X88861904Y-81104761D01*
X88766666Y-81152380D01*
X88719047Y-81247619D01*
X88719047Y-81390476D01*
X88671428Y-81485714D01*
X88576190Y-81533333D01*
X88528571Y-81533333D01*
X88433333Y-81485714D01*
X88385714Y-81390476D01*
X88385714Y-81247619D01*
X88433333Y-81152380D01*
X117852380Y-84442857D02*
X118852380Y-83776190D01*
X117852380Y-83776190D02*
X118852380Y-84442857D01*
X118376190Y-83204761D02*
X118852380Y-83204761D01*
X117852380Y-83538095D02*
X118376190Y-83204761D01*
X117852380Y-82871428D01*
X117852380Y-82347619D02*
X117852380Y-82252380D01*
X117900000Y-82157142D01*
X117947619Y-82109523D01*
X118042857Y-82061904D01*
X118233333Y-82014285D01*
X118471428Y-82014285D01*
X118661904Y-82061904D01*
X118757142Y-82109523D01*
X118804761Y-82157142D01*
X118852380Y-82252380D01*
X118852380Y-82347619D01*
X118804761Y-82442857D01*
X118757142Y-82490476D01*
X118661904Y-82538095D01*
X118471428Y-82585714D01*
X118233333Y-82585714D01*
X118042857Y-82538095D01*
X117947619Y-82490476D01*
X117900000Y-82442857D01*
X117852380Y-82347619D01*
X118804761Y-81633333D02*
X118852380Y-81538095D01*
X118852380Y-81347619D01*
X118804761Y-81252380D01*
X118709523Y-81204761D01*
X118661904Y-81204761D01*
X118566666Y-81252380D01*
X118519047Y-81347619D01*
X118519047Y-81490476D01*
X118471428Y-81585714D01*
X118376190Y-81633333D01*
X118328571Y-81633333D01*
X118233333Y-81585714D01*
X118185714Y-81490476D01*
X118185714Y-81347619D01*
X118233333Y-81252380D01*
X101614285Y-95552380D02*
X102280952Y-95552380D01*
X101614285Y-96552380D01*
X102280952Y-96552380D01*
X102566666Y-95552380D02*
X103233333Y-96552380D01*
X103233333Y-95552380D02*
X102566666Y-96552380D01*
X103804761Y-95552380D02*
X103900000Y-95552380D01*
X103995238Y-95600000D01*
X104042857Y-95647619D01*
X104090476Y-95742857D01*
X104138095Y-95933333D01*
X104138095Y-96171428D01*
X104090476Y-96361904D01*
X104042857Y-96457142D01*
X103995238Y-96504761D01*
X103900000Y-96552380D01*
X103804761Y-96552380D01*
X103709523Y-96504761D01*
X103661904Y-96457142D01*
X103614285Y-96361904D01*
X103566666Y-96171428D01*
X103566666Y-95933333D01*
X103614285Y-95742857D01*
X103661904Y-95647619D01*
X103709523Y-95600000D01*
X103804761Y-95552380D01*
X101614285Y-65752380D02*
X102280952Y-65752380D01*
X101614285Y-66752380D01*
X102280952Y-66752380D01*
X102566666Y-65752380D02*
X103233333Y-66752380D01*
X103233333Y-65752380D02*
X102566666Y-66752380D01*
X104138095Y-66752380D02*
X103566666Y-66752380D01*
X103852380Y-66752380D02*
X103852380Y-65752380D01*
X103757142Y-65895238D01*
X103661904Y-65990476D01*
X103566666Y-66038095D01*
X85752380Y-83938095D02*
X86752380Y-83271428D01*
X85752380Y-83271428D02*
X86752380Y-83938095D01*
X86276190Y-82700000D02*
X86752380Y-82700000D01*
X85752380Y-83033333D02*
X86276190Y-82700000D01*
X85752380Y-82366666D01*
X86752380Y-81509523D02*
X86752380Y-82080952D01*
X86752380Y-81795238D02*
X85752380Y-81795238D01*
X85895238Y-81890476D01*
X85990476Y-81985714D01*
X86038095Y-82080952D01*
X115452380Y-84038095D02*
X116452380Y-83371428D01*
X115452380Y-83371428D02*
X116452380Y-84038095D01*
X115976190Y-82800000D02*
X116452380Y-82800000D01*
X115452380Y-83133333D02*
X115976190Y-82800000D01*
X115452380Y-82466666D01*
X115452380Y-81942857D02*
X115452380Y-81847619D01*
X115500000Y-81752380D01*
X115547619Y-81704761D01*
X115642857Y-81657142D01*
X115833333Y-81609523D01*
X116071428Y-81609523D01*
X116261904Y-81657142D01*
X116357142Y-81704761D01*
X116404761Y-81752380D01*
X116452380Y-81847619D01*
X116452380Y-81942857D01*
X116404761Y-82038095D01*
X116357142Y-82085714D01*
X116261904Y-82133333D01*
X116071428Y-82180952D01*
X115833333Y-82180952D01*
X115642857Y-82133333D01*
X115547619Y-82085714D01*
X115500000Y-82038095D01*
X115452380Y-81942857D01*
X118947619Y-102576190D02*
X118947619Y-103052380D01*
X118614285Y-102052380D02*
X118947619Y-102576190D01*
X119280952Y-102052380D01*
X119519047Y-102052380D02*
X120185714Y-102052380D01*
X119519047Y-103052380D01*
X120185714Y-103052380D01*
X121090476Y-103052380D02*
X120519047Y-103052380D01*
X120804761Y-103052380D02*
X120804761Y-102052380D01*
X120709523Y-102195238D01*
X120614285Y-102290476D01*
X120519047Y-102338095D01*
X76047619Y-59876190D02*
X76047619Y-60352380D01*
X75714285Y-59352380D02*
X76047619Y-59876190D01*
X76380952Y-59352380D01*
X76619047Y-59352380D02*
X77285714Y-59352380D01*
X76619047Y-60352380D01*
X77285714Y-60352380D01*
X78190476Y-60352380D02*
X77619047Y-60352380D01*
X77904761Y-60352380D02*
X77904761Y-59352380D01*
X77809523Y-59495238D01*
X77714285Y-59590476D01*
X77619047Y-59638095D01*
X122247619Y-59976190D02*
X122247619Y-60452380D01*
X121914285Y-59452380D02*
X122247619Y-59976190D01*
X122580952Y-59452380D01*
X122819047Y-59452380D02*
X123485714Y-59452380D01*
X122819047Y-60452380D01*
X123485714Y-60452380D01*
X124057142Y-59452380D02*
X124152380Y-59452380D01*
X124247619Y-59500000D01*
X124295238Y-59547619D01*
X124342857Y-59642857D01*
X124390476Y-59833333D01*
X124390476Y-60071428D01*
X124342857Y-60261904D01*
X124295238Y-60357142D01*
X124247619Y-60404761D01*
X124152380Y-60452380D01*
X124057142Y-60452380D01*
X123961904Y-60404761D01*
X123914285Y-60357142D01*
X123866666Y-60261904D01*
X123819047Y-60071428D01*
X123819047Y-59833333D01*
X123866666Y-59642857D01*
X123914285Y-59547619D01*
X123961904Y-59500000D01*
X124057142Y-59452380D01*
X79347619Y-102576190D02*
X79347619Y-103052380D01*
X79014285Y-102052380D02*
X79347619Y-102576190D01*
X79680952Y-102052380D01*
X79919047Y-102052380D02*
X80585714Y-102052380D01*
X79919047Y-103052380D01*
X80585714Y-103052380D01*
X81157142Y-102052380D02*
X81252380Y-102052380D01*
X81347619Y-102100000D01*
X81395238Y-102147619D01*
X81442857Y-102242857D01*
X81490476Y-102433333D01*
X81490476Y-102671428D01*
X81442857Y-102861904D01*
X81395238Y-102957142D01*
X81347619Y-103004761D01*
X81252380Y-103052380D01*
X81157142Y-103052380D01*
X81061904Y-103004761D01*
X81014285Y-102957142D01*
X80966666Y-102861904D01*
X80919047Y-102671428D01*
X80919047Y-102433333D01*
X80966666Y-102242857D01*
X81014285Y-102147619D01*
X81061904Y-102100000D01*
X81157142Y-102052380D01*
D11*
X99500000Y-46478571D02*
X100500000Y-46478571D01*
X99500000Y-47978571D01*
X100500000Y-47978571D01*
X130600000Y-81764285D02*
X130600000Y-82478571D01*
X130100000Y-80978571D02*
X130600000Y-81764285D01*
X131100000Y-80978571D01*
X69700000Y-81764285D02*
X69700000Y-82478571D01*
X69200000Y-80978571D02*
X69700000Y-81764285D01*
X70200000Y-80978571D01*
X99500000Y-77178571D02*
X100500000Y-78678571D01*
X100500000Y-77178571D02*
X99500000Y-78678571D01*
D12*
X103490000Y-129962779D02*
X103490000Y-129637221D01*
X104510000Y-129962779D02*
X104510000Y-129637221D01*
X98810000Y-124537221D02*
X98810000Y-124862779D01*
X97790000Y-124537221D02*
X97790000Y-124862779D01*
X97500000Y-116100000D02*
X100300000Y-116100000D01*
X100950000Y-116800000D02*
X100950000Y-117400000D01*
X100300000Y-118100000D02*
X97500000Y-118100000D01*
X96850000Y-117400000D02*
X96850000Y-116800000D01*
X96850000Y-116800000D02*
G75*
G02*
X97550000Y-116100000I700000J0D01*
G01*
X97550000Y-118100000D02*
G75*
G02*
X96850000Y-117400000I0J700000D01*
G01*
X100950000Y-117400000D02*
G75*
G02*
X100250000Y-118100000I-700000J0D01*
G01*
X100250000Y-116100000D02*
G75*
G02*
X100950000Y-116800000I0J-700000D01*
G01*
X105300000Y-112000000D02*
X105300000Y-114800000D01*
X104600000Y-115450000D02*
X104000000Y-115450000D01*
X103300000Y-114800000D02*
X103300000Y-112000000D01*
X104000000Y-111350000D02*
X104600000Y-111350000D01*
X104600000Y-111350000D02*
G75*
G02*
X105300000Y-112050000I0J-700000D01*
G01*
X103300000Y-112050000D02*
G75*
G02*
X104000000Y-111350000I700000J0D01*
G01*
X104000000Y-115450000D02*
G75*
G02*
X103300000Y-114750000I0J700000D01*
G01*
X105300000Y-114750000D02*
G75*
G02*
X104600000Y-115450000I-700000J0D01*
G01*
X88970000Y-131470000D02*
X91630000Y-131470000D01*
X88970000Y-131470000D02*
X88970000Y-136610000D01*
X88970000Y-136610000D02*
X91630000Y-136610000D01*
X91630000Y-131470000D02*
X91630000Y-136610000D01*
X91630000Y-128870000D02*
X91630000Y-130200000D01*
X90300000Y-128870000D02*
X91630000Y-128870000D01*
X107465000Y-124820000D02*
X107940000Y-124820000D01*
X103720000Y-120600000D02*
X103720000Y-121075000D01*
X104195000Y-120600000D02*
X103720000Y-120600000D01*
X107940000Y-120600000D02*
X107940000Y-121075000D01*
X107465000Y-120600000D02*
X107940000Y-120600000D01*
X103720000Y-124820000D02*
X103720000Y-124345000D01*
X104195000Y-124820000D02*
X103720000Y-124820000D01*
X105940580Y-126960000D02*
X105659420Y-126960000D01*
X105940580Y-127980000D02*
X105659420Y-127980000D01*
X99849420Y-135520000D02*
X100130580Y-135520000D01*
X99849420Y-134500000D02*
X100130580Y-134500000D01*
X102500000Y-114520000D02*
X102500000Y-112070000D01*
X99280000Y-112720000D02*
X99280000Y-114520000D01*
X99245000Y-109215000D02*
X99940000Y-109215000D01*
X99245000Y-109900000D02*
X99245000Y-109215000D01*
X100548276Y-110585000D02*
X100635000Y-110585000D01*
X99245000Y-110585000D02*
X99331724Y-110585000D01*
X100635000Y-110585000D02*
X100635000Y-110460000D01*
X99245000Y-110585000D02*
X99245000Y-110460000D01*
X99245000Y-110585000D02*
X100635000Y-110585000D01*
X98150000Y-113890580D02*
X98150000Y-113609420D01*
X97130000Y-113890580D02*
X97130000Y-113609420D01*
X98150000Y-110810580D02*
X98150000Y-110529420D01*
X97130000Y-110810580D02*
X97130000Y-110529420D01*
X93842742Y-129707500D02*
X94317258Y-129707500D01*
X93842742Y-130752500D02*
X94317258Y-130752500D01*
X129310000Y-179430000D02*
X129310000Y-179710000D01*
X129310000Y-179710000D02*
X127710000Y-179710000D01*
X127710000Y-179710000D02*
X127710000Y-180630000D01*
X127710000Y-180630000D02*
X135530000Y-180630000D01*
X135530000Y-180630000D02*
X135530000Y-174510000D01*
X135530000Y-174510000D02*
X127710000Y-174510000D01*
X127710000Y-174510000D02*
X127710000Y-175430000D01*
X127710000Y-175430000D02*
X129310000Y-175430000D01*
X129310000Y-175430000D02*
X129310000Y-175710000D01*
X135530000Y-178070000D02*
X131170000Y-178070000D01*
X131170000Y-178070000D02*
X131170000Y-177070000D01*
X131170000Y-177070000D02*
X135530000Y-177070000D01*
X129310000Y-180630000D02*
X129310000Y-179710000D01*
X129310000Y-174510000D02*
X129310000Y-175430000D01*
X131670000Y-179870000D02*
X133270000Y-179870000D01*
X133270000Y-179870000D02*
X133270000Y-178870000D01*
X133270000Y-178870000D02*
X131670000Y-178870000D01*
X131670000Y-178870000D02*
X131670000Y-179870000D01*
X131670000Y-175270000D02*
X133270000Y-175270000D01*
X133270000Y-175270000D02*
X133270000Y-176270000D01*
X133270000Y-176270000D02*
X131670000Y-176270000D01*
X131670000Y-176270000D02*
X131670000Y-175270000D01*
X133270000Y-178870000D02*
X135530000Y-178870000D01*
X133270000Y-179370000D02*
X135530000Y-179370000D01*
X129310000Y-179430000D02*
X128095000Y-179430000D01*
X122740000Y-179770000D02*
X124540000Y-179770000D01*
X124540000Y-176550000D02*
X122090000Y-176550000D01*
X127280000Y-181560000D02*
X125330000Y-181560000D01*
X127280000Y-181560000D02*
X129230000Y-181560000D01*
X127280000Y-186680000D02*
X125330000Y-186680000D01*
X127280000Y-186680000D02*
X130730000Y-186680000D01*
X127797495Y-155492947D02*
X127742367Y-155300695D01*
X132548903Y-157043342D02*
X132695640Y-156793205D01*
X132190574Y-155793701D02*
X132447566Y-155928070D01*
X131308875Y-157398914D02*
X132548903Y-157043342D01*
X132695640Y-156793205D02*
X132447566Y-155928070D01*
X132190574Y-155793701D02*
X130950546Y-156149274D01*
X131708549Y-158792743D02*
X130137416Y-153313552D01*
X128624407Y-158376733D02*
X128155823Y-156742588D01*
X130143661Y-159865647D02*
X130903057Y-159647894D01*
X129001160Y-153015188D02*
X128241763Y-153232942D01*
X119887258Y-178662500D02*
X119412742Y-178662500D01*
X119887258Y-177617500D02*
X119412742Y-177617500D01*
X119182258Y-146592500D02*
X118707742Y-146592500D01*
X119182258Y-145547500D02*
X118707742Y-145547500D01*
X117662742Y-182807500D02*
X118137258Y-182807500D01*
X117662742Y-183852500D02*
X118137258Y-183852500D01*
X117662742Y-184327500D02*
X118137258Y-184327500D01*
X117662742Y-185372500D02*
X118137258Y-185372500D01*
X132652500Y-184642742D02*
X132652500Y-185117258D01*
X131607500Y-184642742D02*
X131607500Y-185117258D01*
X123910000Y-173490000D02*
X123910000Y-171690000D01*
X120690000Y-171690000D02*
X120690000Y-174140000D01*
X117585000Y-143545000D02*
X119085000Y-143545000D01*
X119085000Y-143545000D02*
X119085000Y-143275000D01*
X119085000Y-143275000D02*
X121915000Y-143275000D01*
X117585000Y-136645000D02*
X119085000Y-136645000D01*
X119085000Y-136645000D02*
X119085000Y-136915000D01*
X119085000Y-136915000D02*
X120185000Y-136915000D01*
X103950000Y-188870000D02*
X103570000Y-188870000D01*
X103950000Y-192920000D02*
X103950000Y-193180000D01*
X103950000Y-188870000D02*
X103950000Y-190640000D01*
X96330000Y-188870000D02*
X96710000Y-188870000D01*
X96330000Y-190640000D02*
X96330000Y-188870000D01*
X96330000Y-193180000D02*
X96330000Y-192920000D01*
X120620000Y-184025000D02*
X123105000Y-184025000D01*
X123105000Y-184025000D02*
X123105000Y-182655000D01*
X123105000Y-182655000D02*
X120620000Y-182655000D01*
X120620000Y-185445000D02*
X123105000Y-185445000D01*
X123105000Y-185445000D02*
X123105000Y-184075000D01*
X123105000Y-184075000D02*
X120620000Y-184075000D01*
X78188353Y-57205474D02*
X77975862Y-57417965D01*
X77417965Y-57975862D02*
X77205474Y-58188353D01*
X78807071Y-57824193D02*
X78188353Y-57205474D01*
X77824193Y-58807071D02*
X77205474Y-58188353D01*
X78807071Y-57824193D02*
X78745748Y-57885516D01*
X77885516Y-58745748D02*
X77824193Y-58807071D01*
X79291439Y-58308561D02*
X79775807Y-58792929D01*
X79775807Y-58792929D02*
X79284368Y-59284368D01*
X122894526Y-58188353D02*
X122682035Y-57975862D01*
X122124138Y-57417965D02*
X121911647Y-57205474D01*
X122275807Y-58807071D02*
X122894526Y-58188353D01*
X121292929Y-57824193D02*
X121911647Y-57205474D01*
X122275807Y-58807071D02*
X122214484Y-58745748D01*
X121354252Y-57885516D02*
X121292929Y-57824193D01*
X121791439Y-59291439D02*
X121307071Y-59775807D01*
X121307071Y-59775807D02*
X120815632Y-59284368D01*
X121811647Y-102794526D02*
X122024138Y-102582035D01*
X122582035Y-102024138D02*
X122794526Y-101811647D01*
X121192929Y-102175807D02*
X121811647Y-102794526D01*
X122175807Y-101192929D02*
X122794526Y-101811647D01*
X121192929Y-102175807D02*
X121254252Y-102114484D01*
X122114484Y-101254252D02*
X122175807Y-101192929D01*
X120708561Y-101691439D02*
X120224193Y-101207071D01*
X120224193Y-101207071D02*
X120715632Y-100715632D01*
X77205474Y-101711647D02*
X77417965Y-101924138D01*
X77975862Y-102482035D02*
X78188353Y-102694526D01*
X77824193Y-101092929D02*
X77205474Y-101711647D01*
X78807071Y-102075807D02*
X78188353Y-102694526D01*
X77824193Y-101092929D02*
X77885516Y-101154252D01*
X78745748Y-102014484D02*
X78807071Y-102075807D01*
X78308561Y-100608561D02*
X78792929Y-100124193D01*
X78792929Y-100124193D02*
X79284368Y-100615632D01*
X99200000Y-82955000D02*
X101485000Y-82955000D01*
X101485000Y-82955000D02*
X101485000Y-81485000D01*
X101485000Y-81485000D02*
X99200000Y-81485000D01*
X97890000Y-127865000D02*
X97890000Y-127390000D01*
X97890000Y-127390000D02*
X98365000Y-127390000D01*
X102110000Y-131135000D02*
X102110000Y-131610000D01*
X102110000Y-131610000D02*
X101635000Y-131610000D01*
X102110000Y-127865000D02*
X102110000Y-127390000D01*
X102110000Y-127390000D02*
X101635000Y-127390000D01*
X97890000Y-131135000D02*
X97890000Y-131610000D01*
X100960000Y-69295000D02*
X100960000Y-68994493D01*
X100960000Y-68205507D02*
X100960000Y-67905000D01*
X100085000Y-69295000D02*
X100960000Y-69295000D01*
X100085000Y-67905000D02*
X100960000Y-67905000D01*
X100085000Y-69295000D02*
X100085000Y-69208276D01*
X100085000Y-67991724D02*
X100085000Y-67905000D01*
X99400000Y-69295000D02*
X98715000Y-69295000D01*
X98715000Y-69295000D02*
X98715000Y-68600000D01*
X100960000Y-98995000D02*
X100960000Y-98694493D01*
X100960000Y-97905507D02*
X100960000Y-97605000D01*
X100085000Y-98995000D02*
X100960000Y-98995000D01*
X100085000Y-97605000D02*
X100960000Y-97605000D01*
X100085000Y-98995000D02*
X100085000Y-98908276D01*
X100085000Y-97691724D02*
X100085000Y-97605000D01*
X99400000Y-98995000D02*
X98715000Y-98995000D01*
X98715000Y-98995000D02*
X98715000Y-98300000D01*
X119611647Y-100594526D02*
X119824138Y-100382035D01*
X120382035Y-99824138D02*
X120594526Y-99611647D01*
X118992929Y-99975807D02*
X119611647Y-100594526D01*
X119975807Y-98992929D02*
X120594526Y-99611647D01*
X118992929Y-99975807D02*
X119054252Y-99914484D01*
X119914484Y-99054252D02*
X119975807Y-98992929D01*
X118508561Y-99491439D02*
X118024193Y-99007071D01*
X118024193Y-99007071D02*
X118515632Y-98515632D01*
X80388353Y-59405474D02*
X80175862Y-59617965D01*
X79617965Y-60175862D02*
X79405474Y-60388353D01*
X81007071Y-60024193D02*
X80388353Y-59405474D01*
X80024193Y-61007071D02*
X79405474Y-60388353D01*
X81007071Y-60024193D02*
X80945748Y-60085516D01*
X80085516Y-60945748D02*
X80024193Y-61007071D01*
X81491439Y-60508561D02*
X81975807Y-60992929D01*
X81975807Y-60992929D02*
X81484368Y-61484368D01*
X120694526Y-60388353D02*
X120482035Y-60175862D01*
X119924138Y-59617965D02*
X119711647Y-59405474D01*
X120075807Y-61007071D02*
X120694526Y-60388353D01*
X119092929Y-60024193D02*
X119711647Y-59405474D01*
X120075807Y-61007071D02*
X120014484Y-60945748D01*
X119154252Y-60085516D02*
X119092929Y-60024193D01*
X119591439Y-61491439D02*
X119107071Y-61975807D01*
X119107071Y-61975807D02*
X118615632Y-61484368D01*
X79405474Y-99511647D02*
X79617965Y-99724138D01*
X80175862Y-100282035D02*
X80388353Y-100494526D01*
X80024193Y-98892929D02*
X79405474Y-99511647D01*
X81007071Y-99875807D02*
X80388353Y-100494526D01*
X80024193Y-98892929D02*
X80085516Y-98954252D01*
X80945748Y-99814484D02*
X81007071Y-99875807D01*
X80508561Y-98408561D02*
X80992929Y-97924193D01*
X80992929Y-97924193D02*
X81484368Y-98415632D01*
X87905000Y-80960000D02*
X88205507Y-80960000D01*
X88994493Y-80960000D02*
X89295000Y-80960000D01*
X87905000Y-80085000D02*
X87905000Y-80960000D01*
X89295000Y-80085000D02*
X89295000Y-80960000D01*
X87905000Y-80085000D02*
X87991724Y-80085000D01*
X89208276Y-80085000D02*
X89295000Y-80085000D01*
X87905000Y-79400000D02*
X87905000Y-78715000D01*
X87905000Y-78715000D02*
X88600000Y-78715000D01*
X117605000Y-80960000D02*
X117905507Y-80960000D01*
X118694493Y-80960000D02*
X118995000Y-80960000D01*
X117605000Y-80085000D02*
X117605000Y-80960000D01*
X118995000Y-80085000D02*
X118995000Y-80960000D01*
X117605000Y-80085000D02*
X117691724Y-80085000D01*
X118908276Y-80085000D02*
X118995000Y-80085000D01*
X117605000Y-79400000D02*
X117605000Y-78715000D01*
X117605000Y-78715000D02*
X118300000Y-78715000D01*
X98715000Y-66995000D02*
X98715000Y-66300000D01*
X99400000Y-66995000D02*
X98715000Y-66995000D01*
X100085000Y-65691724D02*
X100085000Y-65605000D01*
X100085000Y-66995000D02*
X100085000Y-66908276D01*
X100085000Y-65605000D02*
X100960000Y-65605000D01*
X100085000Y-66995000D02*
X100960000Y-66995000D01*
X100960000Y-65905507D02*
X100960000Y-65605000D01*
X100960000Y-66995000D02*
X100960000Y-66694493D01*
X98715000Y-96695000D02*
X98715000Y-96000000D01*
X99400000Y-96695000D02*
X98715000Y-96695000D01*
X100085000Y-95391724D02*
X100085000Y-95305000D01*
X100085000Y-96695000D02*
X100085000Y-96608276D01*
X100085000Y-95305000D02*
X100960000Y-95305000D01*
X100085000Y-96695000D02*
X100960000Y-96695000D01*
X100960000Y-95605507D02*
X100960000Y-95305000D01*
X100960000Y-96695000D02*
X100960000Y-96394493D01*
X85605000Y-80960000D02*
X85905507Y-80960000D01*
X86694493Y-80960000D02*
X86995000Y-80960000D01*
X85605000Y-80085000D02*
X85605000Y-80960000D01*
X86995000Y-80085000D02*
X86995000Y-80960000D01*
X85605000Y-80085000D02*
X85691724Y-80085000D01*
X86908276Y-80085000D02*
X86995000Y-80085000D01*
X85605000Y-79400000D02*
X85605000Y-78715000D01*
X85605000Y-78715000D02*
X86300000Y-78715000D01*
X115305000Y-80960000D02*
X115605507Y-80960000D01*
X116394493Y-80960000D02*
X116695000Y-80960000D01*
X115305000Y-80085000D02*
X115305000Y-80960000D01*
X116695000Y-80085000D02*
X116695000Y-80960000D01*
X115305000Y-80085000D02*
X115391724Y-80085000D01*
X116608276Y-80085000D02*
X116695000Y-80085000D01*
X115305000Y-79400000D02*
X115305000Y-78715000D01*
X115305000Y-78715000D02*
X116000000Y-78715000D01*
X101895000Y-48340000D02*
X101594493Y-48340000D01*
X100805507Y-48340000D02*
X100505000Y-48340000D01*
X101895000Y-49215000D02*
X101895000Y-48340000D01*
X100505000Y-49215000D02*
X100505000Y-48340000D01*
X101895000Y-49215000D02*
X101808276Y-49215000D01*
X100591724Y-49215000D02*
X100505000Y-49215000D01*
X101895000Y-49900000D02*
X101895000Y-50585000D01*
X101895000Y-50585000D02*
X101200000Y-50585000D01*
X131560000Y-80695000D02*
X131560000Y-80394493D01*
X131560000Y-79605507D02*
X131560000Y-79305000D01*
X130685000Y-80695000D02*
X131560000Y-80695000D01*
X130685000Y-79305000D02*
X131560000Y-79305000D01*
X130685000Y-80695000D02*
X130685000Y-80608276D01*
X130685000Y-79391724D02*
X130685000Y-79305000D01*
X130000000Y-80695000D02*
X129315000Y-80695000D01*
X129315000Y-80695000D02*
X129315000Y-80000000D01*
X68440000Y-79305000D02*
X68440000Y-79605507D01*
X68440000Y-80394493D02*
X68440000Y-80695000D01*
X69315000Y-79305000D02*
X68440000Y-79305000D01*
X69315000Y-80695000D02*
X68440000Y-80695000D01*
X69315000Y-79305000D02*
X69315000Y-79391724D01*
X69315000Y-80608276D02*
X69315000Y-80695000D01*
X70000000Y-79305000D02*
X70685000Y-79305000D01*
X70685000Y-79305000D02*
X70685000Y-80000000D01*
X98105000Y-80960000D02*
X98405507Y-80960000D01*
X99194493Y-80960000D02*
X99495000Y-80960000D01*
X98105000Y-80085000D02*
X98105000Y-80960000D01*
X99495000Y-80085000D02*
X99495000Y-80960000D01*
X98105000Y-80085000D02*
X98191724Y-80085000D01*
X99408276Y-80085000D02*
X99495000Y-80085000D01*
X98105000Y-79400000D02*
X98105000Y-78715000D01*
X98105000Y-78715000D02*
X98800000Y-78715000D01*
D10*
X103022380Y-129966666D02*
X102546190Y-130300000D01*
X103022380Y-130538095D02*
X102022380Y-130538095D01*
X102022380Y-130157142D01*
X102070000Y-130061904D01*
X102117619Y-130014285D01*
X102212857Y-129966666D01*
X102355714Y-129966666D01*
X102450952Y-130014285D01*
X102498571Y-130061904D01*
X102546190Y-130157142D01*
X102546190Y-130538095D01*
X102117619Y-129585714D02*
X102070000Y-129538095D01*
X102022380Y-129442857D01*
X102022380Y-129204761D01*
X102070000Y-129109523D01*
X102117619Y-129061904D01*
X102212857Y-129014285D01*
X102308095Y-129014285D01*
X102450952Y-129061904D01*
X103022380Y-129633333D01*
X103022380Y-129014285D01*
X100182380Y-124866666D02*
X99706190Y-125200000D01*
X100182380Y-125438095D02*
X99182380Y-125438095D01*
X99182380Y-125057142D01*
X99230000Y-124961904D01*
X99277619Y-124914285D01*
X99372857Y-124866666D01*
X99515714Y-124866666D01*
X99610952Y-124914285D01*
X99658571Y-124961904D01*
X99706190Y-125057142D01*
X99706190Y-125438095D01*
X100182380Y-123914285D02*
X100182380Y-124485714D01*
X100182380Y-124200000D02*
X99182380Y-124200000D01*
X99325238Y-124295238D01*
X99420476Y-124390476D01*
X99468095Y-124485714D01*
X98066666Y-114752380D02*
X98066666Y-115466666D01*
X98019047Y-115609523D01*
X97923809Y-115704761D01*
X97780952Y-115752380D01*
X97685714Y-115752380D01*
X98542857Y-115752380D02*
X98542857Y-114752380D01*
X98923809Y-114752380D01*
X99019047Y-114800000D01*
X99066666Y-114847619D01*
X99114285Y-114942857D01*
X99114285Y-115085714D01*
X99066666Y-115180952D01*
X99019047Y-115228571D01*
X98923809Y-115276190D01*
X98542857Y-115276190D01*
X99495238Y-114847619D02*
X99542857Y-114800000D01*
X99638095Y-114752380D01*
X99876190Y-114752380D01*
X99971428Y-114800000D01*
X100019047Y-114847619D01*
X100066666Y-114942857D01*
X100066666Y-115038095D01*
X100019047Y-115180952D01*
X99447619Y-115752380D01*
X100066666Y-115752380D01*
X96585714Y-117552380D02*
X96014285Y-117552380D01*
X96300000Y-117552380D02*
X96300000Y-116552380D01*
X96204761Y-116695238D01*
X96109523Y-116790476D01*
X96014285Y-116838095D01*
X101166666Y-116552380D02*
X101785714Y-116552380D01*
X101452380Y-116933333D01*
X101595238Y-116933333D01*
X101690476Y-116980952D01*
X101738095Y-117028571D01*
X101785714Y-117123809D01*
X101785714Y-117361904D01*
X101738095Y-117457142D01*
X101690476Y-117504761D01*
X101595238Y-117552380D01*
X101309523Y-117552380D01*
X101214285Y-117504761D01*
X101166666Y-117457142D01*
X105552380Y-114233333D02*
X106266666Y-114233333D01*
X106409523Y-114280952D01*
X106504761Y-114376190D01*
X106552380Y-114519047D01*
X106552380Y-114614285D01*
X106552380Y-113757142D02*
X105552380Y-113757142D01*
X105552380Y-113376190D01*
X105600000Y-113280952D01*
X105647619Y-113233333D01*
X105742857Y-113185714D01*
X105885714Y-113185714D01*
X105980952Y-113233333D01*
X106028571Y-113280952D01*
X106076190Y-113376190D01*
X106076190Y-113757142D01*
X106552380Y-112233333D02*
X106552380Y-112804761D01*
X106552380Y-112519047D02*
X105552380Y-112519047D01*
X105695238Y-112614285D01*
X105790476Y-112709523D01*
X105838095Y-112804761D01*
X104752380Y-110514285D02*
X104752380Y-111085714D01*
X104752380Y-110800000D02*
X103752380Y-110800000D01*
X103895238Y-110895238D01*
X103990476Y-110990476D01*
X104038095Y-111085714D01*
X103752380Y-116333333D02*
X103752380Y-115714285D01*
X104133333Y-116047619D01*
X104133333Y-115904761D01*
X104180952Y-115809523D01*
X104228571Y-115761904D01*
X104323809Y-115714285D01*
X104561904Y-115714285D01*
X104657142Y-115761904D01*
X104704761Y-115809523D01*
X104752380Y-115904761D01*
X104752380Y-116190476D01*
X104704761Y-116285714D01*
X104657142Y-116333333D01*
X89966666Y-126882380D02*
X89966666Y-127596666D01*
X89919047Y-127739523D01*
X89823809Y-127834761D01*
X89680952Y-127882380D01*
X89585714Y-127882380D01*
X90347619Y-126882380D02*
X90966666Y-126882380D01*
X90633333Y-127263333D01*
X90776190Y-127263333D01*
X90871428Y-127310952D01*
X90919047Y-127358571D01*
X90966666Y-127453809D01*
X90966666Y-127691904D01*
X90919047Y-127787142D01*
X90871428Y-127834761D01*
X90776190Y-127882380D01*
X90490476Y-127882380D01*
X90395238Y-127834761D01*
X90347619Y-127787142D01*
X105068095Y-125482380D02*
X105068095Y-126291904D01*
X105115714Y-126387142D01*
X105163333Y-126434761D01*
X105258571Y-126482380D01*
X105449047Y-126482380D01*
X105544285Y-126434761D01*
X105591904Y-126387142D01*
X105639523Y-126291904D01*
X105639523Y-125482380D01*
X106068095Y-125577619D02*
X106115714Y-125530000D01*
X106210952Y-125482380D01*
X106449047Y-125482380D01*
X106544285Y-125530000D01*
X106591904Y-125577619D01*
X106639523Y-125672857D01*
X106639523Y-125768095D01*
X106591904Y-125910952D01*
X106020476Y-126482380D01*
X106639523Y-126482380D01*
X105633333Y-129257142D02*
X105585714Y-129304761D01*
X105442857Y-129352380D01*
X105347619Y-129352380D01*
X105204761Y-129304761D01*
X105109523Y-129209523D01*
X105061904Y-129114285D01*
X105014285Y-128923809D01*
X105014285Y-128780952D01*
X105061904Y-128590476D01*
X105109523Y-128495238D01*
X105204761Y-128400000D01*
X105347619Y-128352380D01*
X105442857Y-128352380D01*
X105585714Y-128400000D01*
X105633333Y-128447619D01*
X106585714Y-129352380D02*
X106014285Y-129352380D01*
X106300000Y-129352380D02*
X106300000Y-128352380D01*
X106204761Y-128495238D01*
X106109523Y-128590476D01*
X106014285Y-128638095D01*
X99823333Y-133937142D02*
X99775714Y-133984761D01*
X99632857Y-134032380D01*
X99537619Y-134032380D01*
X99394761Y-133984761D01*
X99299523Y-133889523D01*
X99251904Y-133794285D01*
X99204285Y-133603809D01*
X99204285Y-133460952D01*
X99251904Y-133270476D01*
X99299523Y-133175238D01*
X99394761Y-133080000D01*
X99537619Y-133032380D01*
X99632857Y-133032380D01*
X99775714Y-133080000D01*
X99823333Y-133127619D01*
X100204285Y-133127619D02*
X100251904Y-133080000D01*
X100347142Y-133032380D01*
X100585238Y-133032380D01*
X100680476Y-133080000D01*
X100728095Y-133127619D01*
X100775714Y-133222857D01*
X100775714Y-133318095D01*
X100728095Y-133460952D01*
X100156666Y-134032380D01*
X100775714Y-134032380D01*
X101268095Y-109242380D02*
X101268095Y-110051904D01*
X101315714Y-110147142D01*
X101363333Y-110194761D01*
X101458571Y-110242380D01*
X101649047Y-110242380D01*
X101744285Y-110194761D01*
X101791904Y-110147142D01*
X101839523Y-110051904D01*
X101839523Y-109242380D01*
X102744285Y-109242380D02*
X102553809Y-109242380D01*
X102458571Y-109290000D01*
X102410952Y-109337619D01*
X102315714Y-109480476D01*
X102268095Y-109670952D01*
X102268095Y-110051904D01*
X102315714Y-110147142D01*
X102363333Y-110194761D01*
X102458571Y-110242380D01*
X102649047Y-110242380D01*
X102744285Y-110194761D01*
X102791904Y-110147142D01*
X102839523Y-110051904D01*
X102839523Y-109813809D01*
X102791904Y-109718571D01*
X102744285Y-109670952D01*
X102649047Y-109623333D01*
X102458571Y-109623333D01*
X102363333Y-109670952D01*
X102315714Y-109718571D01*
X102268095Y-109813809D01*
X95820952Y-107792380D02*
X96392380Y-107792380D01*
X96106666Y-108792380D02*
X96106666Y-107792380D01*
X96868571Y-108792380D02*
X96773333Y-108744761D01*
X96725714Y-108697142D01*
X96678095Y-108601904D01*
X96678095Y-108316190D01*
X96725714Y-108220952D01*
X96773333Y-108173333D01*
X96868571Y-108125714D01*
X97011428Y-108125714D01*
X97106666Y-108173333D01*
X97154285Y-108220952D01*
X97201904Y-108316190D01*
X97201904Y-108601904D01*
X97154285Y-108697142D01*
X97106666Y-108744761D01*
X97011428Y-108792380D01*
X96868571Y-108792380D01*
X98059047Y-108125714D02*
X98059047Y-108792380D01*
X97630476Y-108125714D02*
X97630476Y-108649523D01*
X97678095Y-108744761D01*
X97773333Y-108792380D01*
X97916190Y-108792380D01*
X98011428Y-108744761D01*
X98059047Y-108697142D01*
X98963809Y-108744761D02*
X98868571Y-108792380D01*
X98678095Y-108792380D01*
X98582857Y-108744761D01*
X98535238Y-108697142D01*
X98487619Y-108601904D01*
X98487619Y-108316190D01*
X98535238Y-108220952D01*
X98582857Y-108173333D01*
X98678095Y-108125714D01*
X98868571Y-108125714D01*
X98963809Y-108173333D01*
X99392380Y-108792380D02*
X99392380Y-107792380D01*
X99820952Y-108792380D02*
X99820952Y-108268571D01*
X99773333Y-108173333D01*
X99678095Y-108125714D01*
X99535238Y-108125714D01*
X99440000Y-108173333D01*
X99392380Y-108220952D01*
X100059047Y-108887619D02*
X100820952Y-108887619D01*
X101059047Y-108792380D02*
X101059047Y-107792380D01*
X101440000Y-107792380D01*
X101535238Y-107840000D01*
X101582857Y-107887619D01*
X101630476Y-107982857D01*
X101630476Y-108125714D01*
X101582857Y-108220952D01*
X101535238Y-108268571D01*
X101440000Y-108316190D01*
X101059047Y-108316190D01*
X102059047Y-108792380D02*
X102059047Y-108125714D01*
X102059047Y-107792380D02*
X102011428Y-107840000D01*
X102059047Y-107887619D01*
X102106666Y-107840000D01*
X102059047Y-107792380D01*
X102059047Y-107887619D01*
X102535238Y-108125714D02*
X102535238Y-108792380D01*
X102535238Y-108220952D02*
X102582857Y-108173333D01*
X102678095Y-108125714D01*
X102820952Y-108125714D01*
X102916190Y-108173333D01*
X102963809Y-108268571D01*
X102963809Y-108792380D01*
X103963809Y-108792380D02*
X103392380Y-108792380D01*
X103678095Y-108792380D02*
X103678095Y-107792380D01*
X103582857Y-107935238D01*
X103487619Y-108030476D01*
X103392380Y-108078095D01*
X96567142Y-113916666D02*
X96614761Y-113964285D01*
X96662380Y-114107142D01*
X96662380Y-114202380D01*
X96614761Y-114345238D01*
X96519523Y-114440476D01*
X96424285Y-114488095D01*
X96233809Y-114535714D01*
X96090952Y-114535714D01*
X95900476Y-114488095D01*
X95805238Y-114440476D01*
X95710000Y-114345238D01*
X95662380Y-114202380D01*
X95662380Y-114107142D01*
X95710000Y-113964285D01*
X95757619Y-113916666D01*
X95662380Y-113011904D02*
X95662380Y-113488095D01*
X96138571Y-113535714D01*
X96090952Y-113488095D01*
X96043333Y-113392857D01*
X96043333Y-113154761D01*
X96090952Y-113059523D01*
X96138571Y-113011904D01*
X96233809Y-112964285D01*
X96471904Y-112964285D01*
X96567142Y-113011904D01*
X96614761Y-113059523D01*
X96662380Y-113154761D01*
X96662380Y-113392857D01*
X96614761Y-113488095D01*
X96567142Y-113535714D01*
X96567142Y-110836666D02*
X96614761Y-110884285D01*
X96662380Y-111027142D01*
X96662380Y-111122380D01*
X96614761Y-111265238D01*
X96519523Y-111360476D01*
X96424285Y-111408095D01*
X96233809Y-111455714D01*
X96090952Y-111455714D01*
X95900476Y-111408095D01*
X95805238Y-111360476D01*
X95710000Y-111265238D01*
X95662380Y-111122380D01*
X95662380Y-111027142D01*
X95710000Y-110884285D01*
X95757619Y-110836666D01*
X95995714Y-109979523D02*
X96662380Y-109979523D01*
X95614761Y-110217619D02*
X96329047Y-110455714D01*
X96329047Y-109836666D01*
X93437142Y-129252380D02*
X93103809Y-128776190D01*
X92865714Y-129252380D02*
X92865714Y-128252380D01*
X93246666Y-128252380D01*
X93341904Y-128300000D01*
X93389523Y-128347619D01*
X93437142Y-128442857D01*
X93437142Y-128585714D01*
X93389523Y-128680952D01*
X93341904Y-128728571D01*
X93246666Y-128776190D01*
X92865714Y-128776190D01*
X94389523Y-129252380D02*
X93818095Y-129252380D01*
X94103809Y-129252380D02*
X94103809Y-128252380D01*
X94008571Y-128395238D01*
X93913333Y-128490476D01*
X93818095Y-128538095D01*
X95008571Y-128252380D02*
X95103809Y-128252380D01*
X95199047Y-128300000D01*
X95246666Y-128347619D01*
X95294285Y-128442857D01*
X95341904Y-128633333D01*
X95341904Y-128871428D01*
X95294285Y-129061904D01*
X95246666Y-129157142D01*
X95199047Y-129204761D01*
X95103809Y-129252380D01*
X95008571Y-129252380D01*
X94913333Y-129204761D01*
X94865714Y-129157142D01*
X94818095Y-129061904D01*
X94770476Y-128871428D01*
X94770476Y-128633333D01*
X94818095Y-128442857D01*
X94865714Y-128347619D01*
X94913333Y-128300000D01*
X95008571Y-128252380D01*
X126072380Y-177903333D02*
X126786666Y-177903333D01*
X126929523Y-177950952D01*
X127024761Y-178046190D01*
X127072380Y-178189047D01*
X127072380Y-178284285D01*
X126167619Y-177474761D02*
X126120000Y-177427142D01*
X126072380Y-177331904D01*
X126072380Y-177093809D01*
X126120000Y-176998571D01*
X126167619Y-176950952D01*
X126262857Y-176903333D01*
X126358095Y-176903333D01*
X126500952Y-176950952D01*
X127072380Y-177522380D01*
X127072380Y-176903333D01*
X122878095Y-174712380D02*
X122878095Y-175521904D01*
X122925714Y-175617142D01*
X122973333Y-175664761D01*
X123068571Y-175712380D01*
X123259047Y-175712380D01*
X123354285Y-175664761D01*
X123401904Y-175617142D01*
X123449523Y-175521904D01*
X123449523Y-174712380D01*
X124401904Y-174712380D02*
X123925714Y-174712380D01*
X123878095Y-175188571D01*
X123925714Y-175140952D01*
X124020952Y-175093333D01*
X124259047Y-175093333D01*
X124354285Y-175140952D01*
X124401904Y-175188571D01*
X124449523Y-175283809D01*
X124449523Y-175521904D01*
X124401904Y-175617142D01*
X124354285Y-175664761D01*
X124259047Y-175712380D01*
X124020952Y-175712380D01*
X123925714Y-175664761D01*
X123878095Y-175617142D01*
X126518095Y-186972380D02*
X126518095Y-187781904D01*
X126565714Y-187877142D01*
X126613333Y-187924761D01*
X126708571Y-187972380D01*
X126899047Y-187972380D01*
X126994285Y-187924761D01*
X127041904Y-187877142D01*
X127089523Y-187781904D01*
X127089523Y-186972380D01*
X127994285Y-187305714D02*
X127994285Y-187972380D01*
X127756190Y-186924761D02*
X127518095Y-187639047D01*
X128137142Y-187639047D01*
X125427364Y-156241925D02*
X125420966Y-156392373D01*
X125486594Y-156621245D01*
X125558620Y-156699668D01*
X125617520Y-156732317D01*
X125722194Y-156751840D01*
X125813743Y-156725589D01*
X125892166Y-156653564D01*
X125924815Y-156594664D01*
X125944338Y-156489989D01*
X125937610Y-156293766D01*
X125957133Y-156189092D01*
X125989782Y-156130192D01*
X126068205Y-156058167D01*
X126159754Y-156031915D01*
X126264428Y-156051439D01*
X126323328Y-156084087D01*
X126395354Y-156162510D01*
X126460982Y-156391382D01*
X126454584Y-156541831D01*
X126592237Y-156849126D02*
X125696604Y-157353635D01*
X126435722Y-157339849D01*
X125801608Y-157719830D01*
X126828498Y-157673065D01*
X126116622Y-158818415D02*
X125959115Y-158269122D01*
X126037869Y-158543769D02*
X126999131Y-158268131D01*
X126835556Y-158215959D01*
X126717756Y-158150662D01*
X126645731Y-158072239D01*
X119483333Y-180022380D02*
X119150000Y-179546190D01*
X118911904Y-180022380D02*
X118911904Y-179022380D01*
X119292857Y-179022380D01*
X119388095Y-179070000D01*
X119435714Y-179117619D01*
X119483333Y-179212857D01*
X119483333Y-179355714D01*
X119435714Y-179450952D01*
X119388095Y-179498571D01*
X119292857Y-179546190D01*
X118911904Y-179546190D01*
X119959523Y-180022380D02*
X120150000Y-180022380D01*
X120245238Y-179974761D01*
X120292857Y-179927142D01*
X120388095Y-179784285D01*
X120435714Y-179593809D01*
X120435714Y-179212857D01*
X120388095Y-179117619D01*
X120340476Y-179070000D01*
X120245238Y-179022380D01*
X120054761Y-179022380D01*
X119959523Y-179070000D01*
X119911904Y-179117619D01*
X119864285Y-179212857D01*
X119864285Y-179450952D01*
X119911904Y-179546190D01*
X119959523Y-179593809D01*
X120054761Y-179641428D01*
X120245238Y-179641428D01*
X120340476Y-179593809D01*
X120388095Y-179546190D01*
X120435714Y-179450952D01*
X118778333Y-147952380D02*
X118445000Y-147476190D01*
X118206904Y-147952380D02*
X118206904Y-146952380D01*
X118587857Y-146952380D01*
X118683095Y-147000000D01*
X118730714Y-147047619D01*
X118778333Y-147142857D01*
X118778333Y-147285714D01*
X118730714Y-147380952D01*
X118683095Y-147428571D01*
X118587857Y-147476190D01*
X118206904Y-147476190D01*
X119349761Y-147380952D02*
X119254523Y-147333333D01*
X119206904Y-147285714D01*
X119159285Y-147190476D01*
X119159285Y-147142857D01*
X119206904Y-147047619D01*
X119254523Y-147000000D01*
X119349761Y-146952380D01*
X119540238Y-146952380D01*
X119635476Y-147000000D01*
X119683095Y-147047619D01*
X119730714Y-147142857D01*
X119730714Y-147190476D01*
X119683095Y-147285714D01*
X119635476Y-147333333D01*
X119540238Y-147380952D01*
X119349761Y-147380952D01*
X119254523Y-147428571D01*
X119206904Y-147476190D01*
X119159285Y-147571428D01*
X119159285Y-147761904D01*
X119206904Y-147857142D01*
X119254523Y-147904761D01*
X119349761Y-147952380D01*
X119540238Y-147952380D01*
X119635476Y-147904761D01*
X119683095Y-147857142D01*
X119730714Y-147761904D01*
X119730714Y-147571428D01*
X119683095Y-147476190D01*
X119635476Y-147428571D01*
X119540238Y-147380952D01*
X117733333Y-182352380D02*
X117400000Y-181876190D01*
X117161904Y-182352380D02*
X117161904Y-181352380D01*
X117542857Y-181352380D01*
X117638095Y-181400000D01*
X117685714Y-181447619D01*
X117733333Y-181542857D01*
X117733333Y-181685714D01*
X117685714Y-181780952D01*
X117638095Y-181828571D01*
X117542857Y-181876190D01*
X117161904Y-181876190D01*
X118066666Y-181352380D02*
X118733333Y-181352380D01*
X118304761Y-182352380D01*
X117733333Y-183872380D02*
X117400000Y-183396190D01*
X117161904Y-183872380D02*
X117161904Y-182872380D01*
X117542857Y-182872380D01*
X117638095Y-182920000D01*
X117685714Y-182967619D01*
X117733333Y-183062857D01*
X117733333Y-183205714D01*
X117685714Y-183300952D01*
X117638095Y-183348571D01*
X117542857Y-183396190D01*
X117161904Y-183396190D01*
X118590476Y-182872380D02*
X118400000Y-182872380D01*
X118304761Y-182920000D01*
X118257142Y-182967619D01*
X118161904Y-183110476D01*
X118114285Y-183300952D01*
X118114285Y-183681904D01*
X118161904Y-183777142D01*
X118209523Y-183824761D01*
X118304761Y-183872380D01*
X118495238Y-183872380D01*
X118590476Y-183824761D01*
X118638095Y-183777142D01*
X118685714Y-183681904D01*
X118685714Y-183443809D01*
X118638095Y-183348571D01*
X118590476Y-183300952D01*
X118495238Y-183253333D01*
X118304761Y-183253333D01*
X118209523Y-183300952D01*
X118161904Y-183348571D01*
X118114285Y-183443809D01*
X134012380Y-185046666D02*
X133536190Y-185380000D01*
X134012380Y-185618095D02*
X133012380Y-185618095D01*
X133012380Y-185237142D01*
X133060000Y-185141904D01*
X133107619Y-185094285D01*
X133202857Y-185046666D01*
X133345714Y-185046666D01*
X133440952Y-185094285D01*
X133488571Y-185141904D01*
X133536190Y-185237142D01*
X133536190Y-185618095D01*
X133012380Y-184141904D02*
X133012380Y-184618095D01*
X133488571Y-184665714D01*
X133440952Y-184618095D01*
X133393333Y-184522857D01*
X133393333Y-184284761D01*
X133440952Y-184189523D01*
X133488571Y-184141904D01*
X133583809Y-184094285D01*
X133821904Y-184094285D01*
X133917142Y-184141904D01*
X133964761Y-184189523D01*
X134012380Y-184284761D01*
X134012380Y-184522857D01*
X133964761Y-184618095D01*
X133917142Y-184665714D01*
X119947619Y-172685238D02*
X119900000Y-172780476D01*
X119804761Y-172875714D01*
X119661904Y-173018571D01*
X119614285Y-173113809D01*
X119614285Y-173209047D01*
X119852380Y-173161428D02*
X119804761Y-173256666D01*
X119709523Y-173351904D01*
X119519047Y-173399523D01*
X119185714Y-173399523D01*
X118995238Y-173351904D01*
X118900000Y-173256666D01*
X118852380Y-173161428D01*
X118852380Y-172970952D01*
X118900000Y-172875714D01*
X118995238Y-172780476D01*
X119185714Y-172732857D01*
X119519047Y-172732857D01*
X119709523Y-172780476D01*
X119804761Y-172875714D01*
X119852380Y-172970952D01*
X119852380Y-173161428D01*
X118947619Y-172351904D02*
X118900000Y-172304285D01*
X118852380Y-172209047D01*
X118852380Y-171970952D01*
X118900000Y-171875714D01*
X118947619Y-171828095D01*
X119042857Y-171780476D01*
X119138095Y-171780476D01*
X119280952Y-171828095D01*
X119852380Y-172399523D01*
X119852380Y-171780476D01*
X116519761Y-145142619D02*
X116424523Y-145095000D01*
X116329285Y-144999761D01*
X116186428Y-144856904D01*
X116091190Y-144809285D01*
X115995952Y-144809285D01*
X116043571Y-145047380D02*
X115948333Y-144999761D01*
X115853095Y-144904523D01*
X115805476Y-144714047D01*
X115805476Y-144380714D01*
X115853095Y-144190238D01*
X115948333Y-144095000D01*
X116043571Y-144047380D01*
X116234047Y-144047380D01*
X116329285Y-144095000D01*
X116424523Y-144190238D01*
X116472142Y-144380714D01*
X116472142Y-144714047D01*
X116424523Y-144904523D01*
X116329285Y-144999761D01*
X116234047Y-145047380D01*
X116043571Y-145047380D01*
X117424523Y-145047380D02*
X116853095Y-145047380D01*
X117138809Y-145047380D02*
X117138809Y-144047380D01*
X117043571Y-144190238D01*
X116948333Y-144285476D01*
X116853095Y-144333095D01*
X99806666Y-186732380D02*
X99806666Y-187446666D01*
X99759047Y-187589523D01*
X99663809Y-187684761D01*
X99520952Y-187732380D01*
X99425714Y-187732380D01*
X100806666Y-187732380D02*
X100235238Y-187732380D01*
X100520952Y-187732380D02*
X100520952Y-186732380D01*
X100425714Y-186875238D01*
X100330476Y-186970476D01*
X100235238Y-187018095D01*
X120205714Y-182482380D02*
X120205714Y-181482380D01*
X120443809Y-181482380D01*
X120586666Y-181530000D01*
X120681904Y-181625238D01*
X120729523Y-181720476D01*
X120777142Y-181910952D01*
X120777142Y-182053809D01*
X120729523Y-182244285D01*
X120681904Y-182339523D01*
X120586666Y-182434761D01*
X120443809Y-182482380D01*
X120205714Y-182482380D01*
X121110476Y-181482380D02*
X121729523Y-181482380D01*
X121396190Y-181863333D01*
X121539047Y-181863333D01*
X121634285Y-181910952D01*
X121681904Y-181958571D01*
X121729523Y-182053809D01*
X121729523Y-182291904D01*
X121681904Y-182387142D01*
X121634285Y-182434761D01*
X121539047Y-182482380D01*
X121253333Y-182482380D01*
X121158095Y-182434761D01*
X121110476Y-182387142D01*
X122586666Y-181815714D02*
X122586666Y-182482380D01*
X122348571Y-181434761D02*
X122110476Y-182149047D01*
X122729523Y-182149047D01*
X120205714Y-186592380D02*
X120205714Y-185592380D01*
X120443809Y-185592380D01*
X120586666Y-185640000D01*
X120681904Y-185735238D01*
X120729523Y-185830476D01*
X120777142Y-186020952D01*
X120777142Y-186163809D01*
X120729523Y-186354285D01*
X120681904Y-186449523D01*
X120586666Y-186544761D01*
X120443809Y-186592380D01*
X120205714Y-186592380D01*
X121110476Y-185592380D02*
X121729523Y-185592380D01*
X121396190Y-185973333D01*
X121539047Y-185973333D01*
X121634285Y-186020952D01*
X121681904Y-186068571D01*
X121729523Y-186163809D01*
X121729523Y-186401904D01*
X121681904Y-186497142D01*
X121634285Y-186544761D01*
X121539047Y-186592380D01*
X121253333Y-186592380D01*
X121158095Y-186544761D01*
X121110476Y-186497142D01*
X122062857Y-185592380D02*
X122681904Y-185592380D01*
X122348571Y-185973333D01*
X122491428Y-185973333D01*
X122586666Y-186020952D01*
X122634285Y-186068571D01*
X122681904Y-186163809D01*
X122681904Y-186401904D01*
X122634285Y-186497142D01*
X122586666Y-186544761D01*
X122491428Y-186592380D01*
X122205714Y-186592380D01*
X122110476Y-186544761D01*
X122062857Y-186497142D01*
X80061251Y-58278511D02*
X79354145Y-57571404D01*
X79522503Y-57403045D01*
X79657190Y-57335702D01*
X79791877Y-57335702D01*
X79892893Y-57369374D01*
X80061251Y-57470389D01*
X80162267Y-57571404D01*
X80263282Y-57739763D01*
X80296954Y-57840778D01*
X80296954Y-57975465D01*
X80229610Y-58110152D01*
X80061251Y-58278511D01*
X81138748Y-57201015D02*
X80734687Y-57605076D01*
X80936717Y-57403045D02*
X80229610Y-56695938D01*
X80263282Y-56864297D01*
X80263282Y-56998984D01*
X80229610Y-57100000D01*
X80667343Y-56258206D02*
X81105076Y-55820473D01*
X81138748Y-56325549D01*
X81239763Y-56224534D01*
X81340778Y-56190862D01*
X81408122Y-56190862D01*
X81509137Y-56224534D01*
X81677496Y-56392893D01*
X81711167Y-56493908D01*
X81711167Y-56561251D01*
X81677496Y-56662267D01*
X81475465Y-56864297D01*
X81374450Y-56897969D01*
X81307106Y-56897969D01*
X118321488Y-56461251D02*
X119028595Y-55754145D01*
X119196954Y-55922503D01*
X119264297Y-56057190D01*
X119264297Y-56191877D01*
X119230625Y-56292893D01*
X119129610Y-56461251D01*
X119028595Y-56562267D01*
X118860236Y-56663282D01*
X118759221Y-56696954D01*
X118624534Y-56696954D01*
X118489847Y-56629610D01*
X118321488Y-56461251D01*
X119398984Y-57538748D02*
X118994923Y-57134687D01*
X119196954Y-57336717D02*
X119904061Y-56629610D01*
X119735702Y-56663282D01*
X119601015Y-56663282D01*
X119500000Y-56629610D01*
X120072419Y-58212183D02*
X119668358Y-57808122D01*
X119870389Y-58010152D02*
X120577496Y-57303045D01*
X120409137Y-57336717D01*
X120274450Y-57336717D01*
X120173435Y-57303045D01*
X122461251Y-100578511D02*
X121754145Y-99871404D01*
X121922503Y-99703045D01*
X122057190Y-99635702D01*
X122191877Y-99635702D01*
X122292893Y-99669374D01*
X122461251Y-99770389D01*
X122562267Y-99871404D01*
X122663282Y-100039763D01*
X122696954Y-100140778D01*
X122696954Y-100275465D01*
X122629610Y-100410152D01*
X122461251Y-100578511D01*
X123538748Y-99501015D02*
X123134687Y-99905076D01*
X123336717Y-99703045D02*
X122629610Y-98995938D01*
X122663282Y-99164297D01*
X122663282Y-99298984D01*
X122629610Y-99400000D01*
X123673435Y-98423519D02*
X124144839Y-98894923D01*
X123235702Y-98322503D02*
X123572419Y-98995938D01*
X124010152Y-98558206D01*
X75521488Y-99061251D02*
X76228595Y-98354145D01*
X76396954Y-98522503D01*
X76464297Y-98657190D01*
X76464297Y-98791877D01*
X76430625Y-98892893D01*
X76329610Y-99061251D01*
X76228595Y-99162267D01*
X76060236Y-99263282D01*
X75959221Y-99296954D01*
X75824534Y-99296954D01*
X75689847Y-99229610D01*
X75521488Y-99061251D01*
X76598984Y-100138748D02*
X76194923Y-99734687D01*
X76396954Y-99936717D02*
X77104061Y-99229610D01*
X76935702Y-99263282D01*
X76801015Y-99263282D01*
X76700000Y-99229610D01*
X77508122Y-99768358D02*
X77575465Y-99768358D01*
X77676480Y-99802030D01*
X77844839Y-99970389D01*
X77878511Y-100071404D01*
X77878511Y-100138748D01*
X77844839Y-100239763D01*
X77777496Y-100307106D01*
X77642809Y-100374450D01*
X76834687Y-100374450D01*
X77272419Y-100812183D01*
X101785714Y-82672380D02*
X101785714Y-81672380D01*
X102023809Y-81672380D01*
X102166666Y-81720000D01*
X102261904Y-81815238D01*
X102309523Y-81910476D01*
X102357142Y-82100952D01*
X102357142Y-82243809D01*
X102309523Y-82434285D01*
X102261904Y-82529523D01*
X102166666Y-82624761D01*
X102023809Y-82672380D01*
X101785714Y-82672380D01*
X102690476Y-81672380D02*
X103309523Y-81672380D01*
X102976190Y-82053333D01*
X103119047Y-82053333D01*
X103214285Y-82100952D01*
X103261904Y-82148571D01*
X103309523Y-82243809D01*
X103309523Y-82481904D01*
X103261904Y-82577142D01*
X103214285Y-82624761D01*
X103119047Y-82672380D01*
X102833333Y-82672380D01*
X102738095Y-82624761D01*
X102690476Y-82577142D01*
X104261904Y-82672380D02*
X103690476Y-82672380D01*
X103976190Y-82672380D02*
X103976190Y-81672380D01*
X103880952Y-81815238D01*
X103785714Y-81910476D01*
X103690476Y-81958095D01*
X96152380Y-130261904D02*
X96961904Y-130261904D01*
X97057142Y-130214285D01*
X97104761Y-130166666D01*
X97152380Y-130071428D01*
X97152380Y-129880952D01*
X97104761Y-129785714D01*
X97057142Y-129738095D01*
X96961904Y-129690476D01*
X96152380Y-129690476D01*
X97152380Y-128690476D02*
X97152380Y-129261904D01*
X97152380Y-128976190D02*
X96152380Y-128976190D01*
X96295238Y-129071428D01*
X96390476Y-129166666D01*
X96438095Y-129261904D01*
X95785714Y-69052380D02*
X95785714Y-68052380D01*
X96023809Y-68052380D01*
X96166666Y-68100000D01*
X96261904Y-68195238D01*
X96309523Y-68290476D01*
X96357142Y-68480952D01*
X96357142Y-68623809D01*
X96309523Y-68814285D01*
X96261904Y-68909523D01*
X96166666Y-69004761D01*
X96023809Y-69052380D01*
X95785714Y-69052380D01*
X96738095Y-68147619D02*
X96785714Y-68100000D01*
X96880952Y-68052380D01*
X97119047Y-68052380D01*
X97214285Y-68100000D01*
X97261904Y-68147619D01*
X97309523Y-68242857D01*
X97309523Y-68338095D01*
X97261904Y-68480952D01*
X96690476Y-69052380D01*
X97309523Y-69052380D01*
X97785714Y-69052380D02*
X97976190Y-69052380D01*
X98071428Y-69004761D01*
X98119047Y-68957142D01*
X98214285Y-68814285D01*
X98261904Y-68623809D01*
X98261904Y-68242857D01*
X98214285Y-68147619D01*
X98166666Y-68100000D01*
X98071428Y-68052380D01*
X97880952Y-68052380D01*
X97785714Y-68100000D01*
X97738095Y-68147619D01*
X97690476Y-68242857D01*
X97690476Y-68480952D01*
X97738095Y-68576190D01*
X97785714Y-68623809D01*
X97880952Y-68671428D01*
X98071428Y-68671428D01*
X98166666Y-68623809D01*
X98214285Y-68576190D01*
X98261904Y-68480952D01*
X95785714Y-98752380D02*
X95785714Y-97752380D01*
X96023809Y-97752380D01*
X96166666Y-97800000D01*
X96261904Y-97895238D01*
X96309523Y-97990476D01*
X96357142Y-98180952D01*
X96357142Y-98323809D01*
X96309523Y-98514285D01*
X96261904Y-98609523D01*
X96166666Y-98704761D01*
X96023809Y-98752380D01*
X95785714Y-98752380D01*
X96738095Y-97847619D02*
X96785714Y-97800000D01*
X96880952Y-97752380D01*
X97119047Y-97752380D01*
X97214285Y-97800000D01*
X97261904Y-97847619D01*
X97309523Y-97942857D01*
X97309523Y-98038095D01*
X97261904Y-98180952D01*
X96690476Y-98752380D01*
X97309523Y-98752380D01*
X97642857Y-97752380D02*
X98309523Y-97752380D01*
X97880952Y-98752380D01*
X120229018Y-98410744D02*
X119521912Y-97703637D01*
X119690270Y-97535278D01*
X119824957Y-97467935D01*
X119959644Y-97467935D01*
X120060660Y-97501607D01*
X120229018Y-97602622D01*
X120330034Y-97703637D01*
X120431049Y-97871996D01*
X120464721Y-97973011D01*
X120464721Y-98107698D01*
X120397377Y-98242385D01*
X120229018Y-98410744D01*
X120262690Y-97097545D02*
X120262690Y-97030202D01*
X120296362Y-96929187D01*
X120464721Y-96760828D01*
X120565736Y-96727156D01*
X120633079Y-96727156D01*
X120734095Y-96760828D01*
X120801438Y-96828171D01*
X120868782Y-96962858D01*
X120868782Y-97770981D01*
X121306515Y-97333248D01*
X121205499Y-96020049D02*
X121070812Y-96154736D01*
X121037141Y-96255752D01*
X121037141Y-96323095D01*
X121070812Y-96491454D01*
X121171828Y-96659813D01*
X121441202Y-96929187D01*
X121542217Y-96962858D01*
X121609560Y-96962858D01*
X121710576Y-96929187D01*
X121845263Y-96794500D01*
X121878934Y-96693484D01*
X121878934Y-96626141D01*
X121845263Y-96525126D01*
X121676904Y-96356767D01*
X121575889Y-96323095D01*
X121508545Y-96323095D01*
X121407530Y-96356767D01*
X121272843Y-96491454D01*
X121239171Y-96592469D01*
X121239171Y-96659813D01*
X121272843Y-96760828D01*
X82261251Y-60478511D02*
X81554145Y-59771404D01*
X81722503Y-59603045D01*
X81857190Y-59535702D01*
X81991877Y-59535702D01*
X82092893Y-59569374D01*
X82261251Y-59670389D01*
X82362267Y-59771404D01*
X82463282Y-59939763D01*
X82496954Y-60040778D01*
X82496954Y-60175465D01*
X82429610Y-60310152D01*
X82261251Y-60478511D01*
X82294923Y-59165312D02*
X82294923Y-59097969D01*
X82328595Y-58996954D01*
X82496954Y-58828595D01*
X82597969Y-58794923D01*
X82665312Y-58794923D01*
X82766328Y-58828595D01*
X82833671Y-58895938D01*
X82901015Y-59030625D01*
X82901015Y-59838748D01*
X83338748Y-59401015D01*
X83271404Y-58054145D02*
X82934687Y-58390862D01*
X83237732Y-58761251D01*
X83237732Y-58693908D01*
X83271404Y-58592893D01*
X83439763Y-58424534D01*
X83540778Y-58390862D01*
X83608122Y-58390862D01*
X83709137Y-58424534D01*
X83877496Y-58592893D01*
X83911167Y-58693908D01*
X83911167Y-58761251D01*
X83877496Y-58862267D01*
X83709137Y-59030625D01*
X83608122Y-59064297D01*
X83540778Y-59064297D01*
X116021488Y-58661251D02*
X116728595Y-57954145D01*
X116896954Y-58122503D01*
X116964297Y-58257190D01*
X116964297Y-58391877D01*
X116930625Y-58492893D01*
X116829610Y-58661251D01*
X116728595Y-58762267D01*
X116560236Y-58863282D01*
X116459221Y-58896954D01*
X116324534Y-58896954D01*
X116189847Y-58829610D01*
X116021488Y-58661251D01*
X117334687Y-58694923D02*
X117402030Y-58694923D01*
X117503045Y-58728595D01*
X117671404Y-58896954D01*
X117705076Y-58997969D01*
X117705076Y-59065312D01*
X117671404Y-59166328D01*
X117604061Y-59233671D01*
X117469374Y-59301015D01*
X116661251Y-59301015D01*
X117098984Y-59738748D01*
X118176480Y-59873435D02*
X117705076Y-60344839D01*
X118277496Y-59435702D02*
X117604061Y-59772419D01*
X118041793Y-60210152D01*
X80924575Y-97258164D02*
X81631682Y-96551058D01*
X81800041Y-96719416D01*
X81867384Y-96854103D01*
X81867384Y-96988790D01*
X81833712Y-97089806D01*
X81732697Y-97258164D01*
X81631682Y-97359180D01*
X81463323Y-97460195D01*
X81362308Y-97493867D01*
X81227621Y-97493867D01*
X81092934Y-97426523D01*
X80924575Y-97258164D01*
X82237774Y-97291836D02*
X82305117Y-97291836D01*
X82406132Y-97325508D01*
X82574491Y-97493867D01*
X82608163Y-97594882D01*
X82608163Y-97662225D01*
X82574491Y-97763241D01*
X82507148Y-97830584D01*
X82372461Y-97897928D01*
X81564338Y-97897928D01*
X82002071Y-98335661D01*
X82944880Y-97864256D02*
X83382613Y-98301989D01*
X82877537Y-98335661D01*
X82978552Y-98436676D01*
X83012224Y-98537691D01*
X83012224Y-98605035D01*
X82978552Y-98706050D01*
X82810193Y-98874409D01*
X82709178Y-98908080D01*
X82641835Y-98908080D01*
X82540819Y-98874409D01*
X82338789Y-98672378D01*
X82305117Y-98571363D01*
X82305117Y-98504019D01*
X87385714Y-78292380D02*
X87385714Y-77292380D01*
X87623809Y-77292380D01*
X87766666Y-77340000D01*
X87861904Y-77435238D01*
X87909523Y-77530476D01*
X87957142Y-77720952D01*
X87957142Y-77863809D01*
X87909523Y-78054285D01*
X87861904Y-78149523D01*
X87766666Y-78244761D01*
X87623809Y-78292380D01*
X87385714Y-78292380D01*
X88338095Y-77387619D02*
X88385714Y-77340000D01*
X88480952Y-77292380D01*
X88719047Y-77292380D01*
X88814285Y-77340000D01*
X88861904Y-77387619D01*
X88909523Y-77482857D01*
X88909523Y-77578095D01*
X88861904Y-77720952D01*
X88290476Y-78292380D01*
X88909523Y-78292380D01*
X89861904Y-78292380D02*
X89290476Y-78292380D01*
X89576190Y-78292380D02*
X89576190Y-77292380D01*
X89480952Y-77435238D01*
X89385714Y-77530476D01*
X89290476Y-77578095D01*
X117085714Y-78292380D02*
X117085714Y-77292380D01*
X117323809Y-77292380D01*
X117466666Y-77340000D01*
X117561904Y-77435238D01*
X117609523Y-77530476D01*
X117657142Y-77720952D01*
X117657142Y-77863809D01*
X117609523Y-78054285D01*
X117561904Y-78149523D01*
X117466666Y-78244761D01*
X117323809Y-78292380D01*
X117085714Y-78292380D01*
X118609523Y-78292380D02*
X118038095Y-78292380D01*
X118323809Y-78292380D02*
X118323809Y-77292380D01*
X118228571Y-77435238D01*
X118133333Y-77530476D01*
X118038095Y-77578095D01*
X119085714Y-78292380D02*
X119276190Y-78292380D01*
X119371428Y-78244761D01*
X119419047Y-78197142D01*
X119514285Y-78054285D01*
X119561904Y-77863809D01*
X119561904Y-77482857D01*
X119514285Y-77387619D01*
X119466666Y-77340000D01*
X119371428Y-77292380D01*
X119180952Y-77292380D01*
X119085714Y-77340000D01*
X119038095Y-77387619D01*
X118990476Y-77482857D01*
X118990476Y-77720952D01*
X119038095Y-77816190D01*
X119085714Y-77863809D01*
X119180952Y-77911428D01*
X119371428Y-77911428D01*
X119466666Y-77863809D01*
X119514285Y-77816190D01*
X119561904Y-77720952D01*
X95785714Y-66752380D02*
X95785714Y-65752380D01*
X96023809Y-65752380D01*
X96166666Y-65800000D01*
X96261904Y-65895238D01*
X96309523Y-65990476D01*
X96357142Y-66180952D01*
X96357142Y-66323809D01*
X96309523Y-66514285D01*
X96261904Y-66609523D01*
X96166666Y-66704761D01*
X96023809Y-66752380D01*
X95785714Y-66752380D01*
X97309523Y-66752380D02*
X96738095Y-66752380D01*
X97023809Y-66752380D02*
X97023809Y-65752380D01*
X96928571Y-65895238D01*
X96833333Y-65990476D01*
X96738095Y-66038095D01*
X97642857Y-65752380D02*
X98309523Y-65752380D01*
X97880952Y-66752380D01*
X95785714Y-96452380D02*
X95785714Y-95452380D01*
X96023809Y-95452380D01*
X96166666Y-95500000D01*
X96261904Y-95595238D01*
X96309523Y-95690476D01*
X96357142Y-95880952D01*
X96357142Y-96023809D01*
X96309523Y-96214285D01*
X96261904Y-96309523D01*
X96166666Y-96404761D01*
X96023809Y-96452380D01*
X95785714Y-96452380D01*
X97309523Y-96452380D02*
X96738095Y-96452380D01*
X97023809Y-96452380D02*
X97023809Y-95452380D01*
X96928571Y-95595238D01*
X96833333Y-95690476D01*
X96738095Y-95738095D01*
X98214285Y-95452380D02*
X97738095Y-95452380D01*
X97690476Y-95928571D01*
X97738095Y-95880952D01*
X97833333Y-95833333D01*
X98071428Y-95833333D01*
X98166666Y-95880952D01*
X98214285Y-95928571D01*
X98261904Y-96023809D01*
X98261904Y-96261904D01*
X98214285Y-96357142D01*
X98166666Y-96404761D01*
X98071428Y-96452380D01*
X97833333Y-96452380D01*
X97738095Y-96404761D01*
X97690476Y-96357142D01*
X85561904Y-78292380D02*
X85561904Y-77292380D01*
X85800000Y-77292380D01*
X85942857Y-77340000D01*
X86038095Y-77435238D01*
X86085714Y-77530476D01*
X86133333Y-77720952D01*
X86133333Y-77863809D01*
X86085714Y-78054285D01*
X86038095Y-78149523D01*
X85942857Y-78244761D01*
X85800000Y-78292380D01*
X85561904Y-78292380D01*
X86609523Y-78292380D02*
X86800000Y-78292380D01*
X86895238Y-78244761D01*
X86942857Y-78197142D01*
X87038095Y-78054285D01*
X87085714Y-77863809D01*
X87085714Y-77482857D01*
X87038095Y-77387619D01*
X86990476Y-77340000D01*
X86895238Y-77292380D01*
X86704761Y-77292380D01*
X86609523Y-77340000D01*
X86561904Y-77387619D01*
X86514285Y-77482857D01*
X86514285Y-77720952D01*
X86561904Y-77816190D01*
X86609523Y-77863809D01*
X86704761Y-77911428D01*
X86895238Y-77911428D01*
X86990476Y-77863809D01*
X87038095Y-77816190D01*
X87085714Y-77720952D01*
X115261904Y-78292380D02*
X115261904Y-77292380D01*
X115500000Y-77292380D01*
X115642857Y-77340000D01*
X115738095Y-77435238D01*
X115785714Y-77530476D01*
X115833333Y-77720952D01*
X115833333Y-77863809D01*
X115785714Y-78054285D01*
X115738095Y-78149523D01*
X115642857Y-78244761D01*
X115500000Y-78292380D01*
X115261904Y-78292380D01*
X116166666Y-77292380D02*
X116833333Y-77292380D01*
X116404761Y-78292380D01*
X100461904Y-51912380D02*
X100461904Y-50912380D01*
X100700000Y-50912380D01*
X100842857Y-50960000D01*
X100938095Y-51055238D01*
X100985714Y-51150476D01*
X101033333Y-51340952D01*
X101033333Y-51483809D01*
X100985714Y-51674285D01*
X100938095Y-51769523D01*
X100842857Y-51864761D01*
X100700000Y-51912380D01*
X100461904Y-51912380D01*
X101938095Y-50912380D02*
X101461904Y-50912380D01*
X101414285Y-51388571D01*
X101461904Y-51340952D01*
X101557142Y-51293333D01*
X101795238Y-51293333D01*
X101890476Y-51340952D01*
X101938095Y-51388571D01*
X101985714Y-51483809D01*
X101985714Y-51721904D01*
X101938095Y-51817142D01*
X101890476Y-51864761D01*
X101795238Y-51912380D01*
X101557142Y-51912380D01*
X101461904Y-51864761D01*
X101414285Y-51817142D01*
X128892380Y-80738095D02*
X127892380Y-80738095D01*
X127892380Y-80500000D01*
X127940000Y-80357142D01*
X128035238Y-80261904D01*
X128130476Y-80214285D01*
X128320952Y-80166666D01*
X128463809Y-80166666D01*
X128654285Y-80214285D01*
X128749523Y-80261904D01*
X128844761Y-80357142D01*
X128892380Y-80500000D01*
X128892380Y-80738095D01*
X128225714Y-79309523D02*
X128892380Y-79309523D01*
X127844761Y-79547619D02*
X128559047Y-79785714D01*
X128559047Y-79166666D01*
X72012380Y-80738095D02*
X71012380Y-80738095D01*
X71012380Y-80500000D01*
X71060000Y-80357142D01*
X71155238Y-80261904D01*
X71250476Y-80214285D01*
X71440952Y-80166666D01*
X71583809Y-80166666D01*
X71774285Y-80214285D01*
X71869523Y-80261904D01*
X71964761Y-80357142D01*
X72012380Y-80500000D01*
X72012380Y-80738095D01*
X71012380Y-79833333D02*
X71012380Y-79214285D01*
X71393333Y-79547619D01*
X71393333Y-79404761D01*
X71440952Y-79309523D01*
X71488571Y-79261904D01*
X71583809Y-79214285D01*
X71821904Y-79214285D01*
X71917142Y-79261904D01*
X71964761Y-79309523D01*
X72012380Y-79404761D01*
X72012380Y-79690476D01*
X71964761Y-79785714D01*
X71917142Y-79833333D01*
X98061904Y-78292380D02*
X98061904Y-77292380D01*
X98300000Y-77292380D01*
X98442857Y-77340000D01*
X98538095Y-77435238D01*
X98585714Y-77530476D01*
X98633333Y-77720952D01*
X98633333Y-77863809D01*
X98585714Y-78054285D01*
X98538095Y-78149523D01*
X98442857Y-78244761D01*
X98300000Y-78292380D01*
X98061904Y-78292380D01*
X99585714Y-78292380D02*
X99014285Y-78292380D01*
X99300000Y-78292380D02*
X99300000Y-77292380D01*
X99204761Y-77435238D01*
X99109523Y-77530476D01*
X99014285Y-77578095D01*
M02*
