G04 #@! TF.GenerationSoftware,KiCad,Pcbnew,(5.1.6-0)*
G04 #@! TF.CreationDate,2021-01-08T20:23:25+00:00*
G04 #@! TF.ProjectId,XMAS_Star_21,584d4153-5f53-4746-9172-5f32312e6b69,rev?*
G04 #@! TF.SameCoordinates,Original*
G04 #@! TF.FileFunction,Copper,L4,Bot*
G04 #@! TF.FilePolarity,Positive*
%FSLAX46Y46*%
G04 Gerber Fmt 4.6, Leading zero omitted, Abs format (unit mm)*
G04 Created by KiCad (PCBNEW (5.1.6-0)) date 2021-01-08 20:23:25*
%MOMM*%
%LPD*%
G01*
G04 APERTURE LIST*
G04 #@! TA.AperFunction,ComponentPad*
%ADD10O,1.700000X1.700000*%
G04 #@! TD*
G04 #@! TA.AperFunction,ComponentPad*
%ADD11R,1.700000X1.700000*%
G04 #@! TD*
G04 #@! TA.AperFunction,Conductor*
%ADD12R,2.700000X2.700000*%
G04 #@! TD*
G04 #@! TA.AperFunction,ViaPad*
%ADD13C,0.500000*%
G04 #@! TD*
G04 #@! TA.AperFunction,ComponentPad*
%ADD14R,0.850000X0.850000*%
G04 #@! TD*
G04 #@! TA.AperFunction,ComponentPad*
%ADD15C,0.100000*%
G04 #@! TD*
G04 #@! TA.AperFunction,ComponentPad*
%ADD16O,0.850000X0.850000*%
G04 #@! TD*
G04 #@! TA.AperFunction,ViaPad*
%ADD17C,0.800000*%
G04 #@! TD*
G04 #@! TA.AperFunction,Conductor*
%ADD18C,0.254000*%
G04 #@! TD*
G04 APERTURE END LIST*
D10*
X90300000Y-135280000D03*
X90300000Y-132740000D03*
D11*
X90300000Y-130200000D03*
D12*
X105830000Y-122710000D03*
D13*
X104730000Y-121610000D03*
X105830000Y-121610000D03*
X106930000Y-121610000D03*
X104730000Y-122710000D03*
X105830000Y-122710000D03*
X106930000Y-122710000D03*
X104730000Y-123810000D03*
X105830000Y-123810000D03*
X106930000Y-123810000D03*
D14*
X99940000Y-109900000D03*
G04 #@! TA.AperFunction,ComponentPad*
G36*
G01*
X78393413Y-57792373D02*
X78393413Y-57792373D01*
G75*
G02*
X78393413Y-58393413I-300520J-300520D01*
G01*
X78393413Y-58393413D01*
G75*
G02*
X77792373Y-58393413I-300520J300520D01*
G01*
X77792373Y-58393413D01*
G75*
G02*
X77792373Y-57792373I300520J300520D01*
G01*
X77792373Y-57792373D01*
G75*
G02*
X78393413Y-57792373I300520J-300520D01*
G01*
G37*
G04 #@! TD.AperFunction*
G04 #@! TA.AperFunction,ComponentPad*
D15*
G36*
X78800000Y-58198959D02*
G01*
X79401041Y-58800000D01*
X78800000Y-59401041D01*
X78198959Y-58800000D01*
X78800000Y-58198959D01*
G37*
G04 #@! TD.AperFunction*
G04 #@! TA.AperFunction,ComponentPad*
G36*
G01*
X122307627Y-58393413D02*
X122307627Y-58393413D01*
G75*
G02*
X121706587Y-58393413I-300520J300520D01*
G01*
X121706587Y-58393413D01*
G75*
G02*
X121706587Y-57792373I300520J300520D01*
G01*
X121706587Y-57792373D01*
G75*
G02*
X122307627Y-57792373I300520J-300520D01*
G01*
X122307627Y-57792373D01*
G75*
G02*
X122307627Y-58393413I-300520J-300520D01*
G01*
G37*
G04 #@! TD.AperFunction*
G04 #@! TA.AperFunction,ComponentPad*
G36*
X121901041Y-58800000D02*
G01*
X121300000Y-59401041D01*
X120698959Y-58800000D01*
X121300000Y-58198959D01*
X121901041Y-58800000D01*
G37*
G04 #@! TD.AperFunction*
G04 #@! TA.AperFunction,ComponentPad*
G36*
G01*
X121606587Y-102207627D02*
X121606587Y-102207627D01*
G75*
G02*
X121606587Y-101606587I300520J300520D01*
G01*
X121606587Y-101606587D01*
G75*
G02*
X122207627Y-101606587I300520J-300520D01*
G01*
X122207627Y-101606587D01*
G75*
G02*
X122207627Y-102207627I-300520J-300520D01*
G01*
X122207627Y-102207627D01*
G75*
G02*
X121606587Y-102207627I-300520J300520D01*
G01*
G37*
G04 #@! TD.AperFunction*
G04 #@! TA.AperFunction,ComponentPad*
G36*
X121200000Y-101801041D02*
G01*
X120598959Y-101200000D01*
X121200000Y-100598959D01*
X121801041Y-101200000D01*
X121200000Y-101801041D01*
G37*
G04 #@! TD.AperFunction*
G04 #@! TA.AperFunction,ComponentPad*
G36*
G01*
X77792373Y-101506587D02*
X77792373Y-101506587D01*
G75*
G02*
X78393413Y-101506587I300520J-300520D01*
G01*
X78393413Y-101506587D01*
G75*
G02*
X78393413Y-102107627I-300520J-300520D01*
G01*
X78393413Y-102107627D01*
G75*
G02*
X77792373Y-102107627I-300520J300520D01*
G01*
X77792373Y-102107627D01*
G75*
G02*
X77792373Y-101506587I300520J300520D01*
G01*
G37*
G04 #@! TD.AperFunction*
G04 #@! TA.AperFunction,ComponentPad*
G36*
X78198959Y-101100000D02*
G01*
X78800000Y-100498959D01*
X79401041Y-101100000D01*
X78800000Y-101701041D01*
X78198959Y-101100000D01*
G37*
G04 #@! TD.AperFunction*
G04 #@! TA.AperFunction,SMDPad,CuDef*
G36*
G01*
X99650000Y-81963750D02*
X99650000Y-82476250D01*
G75*
G02*
X99431250Y-82695000I-218750J0D01*
G01*
X98993750Y-82695000D01*
G75*
G02*
X98775000Y-82476250I0J218750D01*
G01*
X98775000Y-81963750D01*
G75*
G02*
X98993750Y-81745000I218750J0D01*
G01*
X99431250Y-81745000D01*
G75*
G02*
X99650000Y-81963750I0J-218750D01*
G01*
G37*
G04 #@! TD.AperFunction*
G04 #@! TA.AperFunction,SMDPad,CuDef*
G36*
G01*
X101225000Y-81963750D02*
X101225000Y-82476250D01*
G75*
G02*
X101006250Y-82695000I-218750J0D01*
G01*
X100568750Y-82695000D01*
G75*
G02*
X100350000Y-82476250I0J218750D01*
G01*
X100350000Y-81963750D01*
G75*
G02*
X100568750Y-81745000I218750J0D01*
G01*
X101006250Y-81745000D01*
G75*
G02*
X101225000Y-81963750I0J-218750D01*
G01*
G37*
G04 #@! TD.AperFunction*
D16*
X100400000Y-91400000D03*
D14*
X99400000Y-91400000D03*
D16*
X100400000Y-68600000D03*
D14*
X99400000Y-68600000D03*
D16*
X100400000Y-61700000D03*
D14*
X99400000Y-61700000D03*
D16*
X100400000Y-98300000D03*
D14*
X99400000Y-98300000D03*
G04 #@! TA.AperFunction,ComponentPad*
G36*
G01*
X119406587Y-100007627D02*
X119406587Y-100007627D01*
G75*
G02*
X119406587Y-99406587I300520J300520D01*
G01*
X119406587Y-99406587D01*
G75*
G02*
X120007627Y-99406587I300520J-300520D01*
G01*
X120007627Y-99406587D01*
G75*
G02*
X120007627Y-100007627I-300520J-300520D01*
G01*
X120007627Y-100007627D01*
G75*
G02*
X119406587Y-100007627I-300520J300520D01*
G01*
G37*
G04 #@! TD.AperFunction*
G04 #@! TA.AperFunction,ComponentPad*
D15*
G36*
X119000000Y-99601041D02*
G01*
X118398959Y-99000000D01*
X119000000Y-98398959D01*
X119601041Y-99000000D01*
X119000000Y-99601041D01*
G37*
G04 #@! TD.AperFunction*
G04 #@! TA.AperFunction,ComponentPad*
G36*
G01*
X80593413Y-59992373D02*
X80593413Y-59992373D01*
G75*
G02*
X80593413Y-60593413I-300520J-300520D01*
G01*
X80593413Y-60593413D01*
G75*
G02*
X79992373Y-60593413I-300520J300520D01*
G01*
X79992373Y-60593413D01*
G75*
G02*
X79992373Y-59992373I300520J300520D01*
G01*
X79992373Y-59992373D01*
G75*
G02*
X80593413Y-59992373I300520J-300520D01*
G01*
G37*
G04 #@! TD.AperFunction*
G04 #@! TA.AperFunction,ComponentPad*
G36*
X81000000Y-60398959D02*
G01*
X81601041Y-61000000D01*
X81000000Y-61601041D01*
X80398959Y-61000000D01*
X81000000Y-60398959D01*
G37*
G04 #@! TD.AperFunction*
G04 #@! TA.AperFunction,ComponentPad*
G36*
G01*
X120107627Y-60593413D02*
X120107627Y-60593413D01*
G75*
G02*
X119506587Y-60593413I-300520J300520D01*
G01*
X119506587Y-60593413D01*
G75*
G02*
X119506587Y-59992373I300520J300520D01*
G01*
X119506587Y-59992373D01*
G75*
G02*
X120107627Y-59992373I300520J-300520D01*
G01*
X120107627Y-59992373D01*
G75*
G02*
X120107627Y-60593413I-300520J-300520D01*
G01*
G37*
G04 #@! TD.AperFunction*
G04 #@! TA.AperFunction,ComponentPad*
G36*
X119701041Y-61000000D02*
G01*
X119100000Y-61601041D01*
X118498959Y-61000000D01*
X119100000Y-60398959D01*
X119701041Y-61000000D01*
G37*
G04 #@! TD.AperFunction*
G04 #@! TA.AperFunction,ComponentPad*
G36*
G01*
X79992373Y-99306587D02*
X79992373Y-99306587D01*
G75*
G02*
X80593413Y-99306587I300520J-300520D01*
G01*
X80593413Y-99306587D01*
G75*
G02*
X80593413Y-99907627I-300520J-300520D01*
G01*
X80593413Y-99907627D01*
G75*
G02*
X79992373Y-99907627I-300520J300520D01*
G01*
X79992373Y-99907627D01*
G75*
G02*
X79992373Y-99306587I300520J300520D01*
G01*
G37*
G04 #@! TD.AperFunction*
G04 #@! TA.AperFunction,ComponentPad*
G36*
X80398959Y-98900000D02*
G01*
X81000000Y-98298959D01*
X81601041Y-98900000D01*
X81000000Y-99501041D01*
X80398959Y-98900000D01*
G37*
G04 #@! TD.AperFunction*
D16*
X111400000Y-80400000D03*
D14*
X111400000Y-79400000D03*
D16*
X88600000Y-80400000D03*
D14*
X88600000Y-79400000D03*
D16*
X81700000Y-80400000D03*
D14*
X81700000Y-79400000D03*
D16*
X118300000Y-80400000D03*
D14*
X118300000Y-79400000D03*
X99400000Y-93700000D03*
D16*
X100400000Y-93700000D03*
D14*
X99400000Y-66300000D03*
D16*
X100400000Y-66300000D03*
D14*
X99400000Y-64000000D03*
D16*
X100400000Y-64000000D03*
D14*
X99400000Y-96000000D03*
D16*
X100400000Y-96000000D03*
X113700000Y-80400000D03*
D14*
X113700000Y-79400000D03*
D16*
X86300000Y-80400000D03*
D14*
X86300000Y-79400000D03*
D16*
X84000000Y-80400000D03*
D14*
X84000000Y-79400000D03*
D16*
X116000000Y-80400000D03*
D14*
X116000000Y-79400000D03*
D16*
X98900000Y-48900000D03*
D14*
X98900000Y-49900000D03*
D16*
X101200000Y-48900000D03*
D14*
X101200000Y-49900000D03*
D16*
X131000000Y-80000000D03*
D14*
X130000000Y-80000000D03*
D16*
X69000000Y-80000000D03*
D14*
X70000000Y-80000000D03*
D16*
X101200000Y-80400000D03*
D14*
X101200000Y-79400000D03*
D16*
X98800000Y-80400000D03*
D14*
X98800000Y-79400000D03*
D17*
X84662336Y-87205933D03*
X110148426Y-120343369D03*
X109313264Y-120958599D03*
X107830427Y-117454957D03*
X104000000Y-130600000D03*
X99250000Y-82210000D03*
X105025000Y-127475000D03*
X100787500Y-135000000D03*
X108145000Y-124955000D03*
X98300000Y-123912500D03*
X86025000Y-111215000D03*
X104825963Y-117707262D03*
X108332604Y-120762820D03*
X106103588Y-117454957D03*
X103704067Y-117803838D03*
X102727241Y-117589748D03*
X111110000Y-104050000D03*
X110867413Y-114492587D03*
X97640000Y-111450000D03*
X97680000Y-191100000D03*
X126780000Y-183130000D03*
X99212500Y-135000000D03*
X99510000Y-128960000D03*
X127780000Y-183130000D03*
X126780000Y-184130000D03*
X127780000Y-184130000D03*
X126780000Y-185130000D03*
X127780000Y-185130000D03*
X129930000Y-186025000D03*
X132130000Y-185705000D03*
X98680000Y-191100000D03*
X99680000Y-191100000D03*
X100680000Y-191100000D03*
X101680000Y-191100000D03*
X102680000Y-191100000D03*
X100510000Y-128960000D03*
X99510000Y-129960000D03*
X100510000Y-129960000D03*
X100890000Y-114720000D03*
X97652500Y-114512500D03*
X97652500Y-117067500D03*
X128354806Y-150665739D03*
X128112882Y-149695444D03*
X127870961Y-148725148D03*
X127629039Y-147754852D03*
X127387118Y-146784556D03*
X127145194Y-145814261D03*
X126854806Y-144775739D03*
X126612882Y-143805444D03*
X126370961Y-142835148D03*
X125887118Y-140894556D03*
X126129039Y-141864852D03*
X131737118Y-162534556D03*
X132462882Y-165445444D03*
X131979039Y-163504852D03*
X132704806Y-166415739D03*
X132220961Y-164475148D03*
X131495194Y-161564261D03*
X133972882Y-171325444D03*
X133730961Y-170355148D03*
X133005194Y-167444261D03*
X134214806Y-172295739D03*
X133489039Y-169384852D03*
X133247118Y-168414556D03*
X129930000Y-183485000D03*
X103680000Y-191100000D03*
X104680000Y-191100000D03*
X105680000Y-191100000D03*
X106680000Y-191100000D03*
X107680000Y-191100000D03*
X108680000Y-191100000D03*
X109680000Y-191100000D03*
X110680000Y-191100000D03*
X111680000Y-191100000D03*
X112680000Y-191100000D03*
X96680000Y-191100000D03*
X95680000Y-191100000D03*
X94680000Y-191100000D03*
X93680000Y-191100000D03*
X92680000Y-191100000D03*
X91680000Y-191100000D03*
X90680000Y-191100000D03*
X89680000Y-191100000D03*
X88680000Y-191100000D03*
X87680000Y-191100000D03*
X135192882Y-176215444D03*
X135434806Y-177185739D03*
X136190961Y-180125148D03*
X136432882Y-181095444D03*
X135707118Y-178184556D03*
X136674806Y-182065739D03*
X135949039Y-179154852D03*
X136947118Y-183124556D03*
X137189039Y-184094852D03*
X137430961Y-185065148D03*
X104300000Y-114700000D03*
X106575000Y-127470000D03*
X109622578Y-115941979D03*
X110571367Y-116911250D03*
X109732088Y-117454957D03*
X101835010Y-122571003D03*
X102378105Y-123410689D03*
X102083542Y-124366333D03*
X100787500Y-82220000D03*
X101590000Y-121360000D03*
X103050000Y-127530000D03*
X101840000Y-112520000D03*
X107250000Y-126010000D03*
X101988436Y-126845030D03*
D18*
G36*
X102276611Y-45729257D02*
G01*
X104542867Y-45955483D01*
X106789125Y-46331401D01*
X109005560Y-46855367D01*
X111182388Y-47525072D01*
X113310041Y-48337568D01*
X115379166Y-49289285D01*
X117380676Y-50376043D01*
X119305762Y-51593058D01*
X121145948Y-52934973D01*
X122893164Y-54395902D01*
X124539716Y-55969414D01*
X126078371Y-57648594D01*
X127502350Y-59426047D01*
X128805402Y-61293970D01*
X129981797Y-63244148D01*
X131026356Y-65267992D01*
X131934486Y-67356608D01*
X132702208Y-69500842D01*
X133326132Y-71691227D01*
X133803517Y-73918139D01*
X134132268Y-76171803D01*
X134310936Y-78442297D01*
X134338737Y-80719643D01*
X134215548Y-82993827D01*
X133941912Y-85254843D01*
X133519032Y-87492746D01*
X132948765Y-89697714D01*
X132233618Y-91860044D01*
X131376744Y-93970207D01*
X130381901Y-96018954D01*
X129253468Y-97997260D01*
X127996408Y-99896429D01*
X126616230Y-101708134D01*
X125119036Y-103424363D01*
X123511387Y-105037600D01*
X121800363Y-106540741D01*
X119993467Y-107927193D01*
X118088720Y-109197628D01*
X118039134Y-109229409D01*
X117945467Y-109319567D01*
X117871188Y-109426268D01*
X117819153Y-109545409D01*
X117791361Y-109672412D01*
X117788879Y-109802395D01*
X117806061Y-109898302D01*
X139197031Y-185585609D01*
X135878657Y-186768823D01*
X131942113Y-188011855D01*
X127962726Y-189109787D01*
X123945771Y-190061163D01*
X119896627Y-190864709D01*
X115820754Y-191519340D01*
X111723668Y-192024173D01*
X107610796Y-192378537D01*
X103487728Y-192581950D01*
X99359978Y-192634142D01*
X95233055Y-192535042D01*
X91112554Y-192284785D01*
X87004002Y-191883706D01*
X82912882Y-191332340D01*
X78844742Y-190631436D01*
X74805001Y-189781928D01*
X70799100Y-188784958D01*
X66832434Y-187641871D01*
X62908553Y-186353617D01*
X60802039Y-185588990D01*
X68664349Y-157774069D01*
X128905672Y-157774069D01*
X128905672Y-157987795D01*
X128947368Y-158197415D01*
X129029157Y-158394872D01*
X129147897Y-158572579D01*
X129299025Y-158723707D01*
X129476732Y-158842447D01*
X129674189Y-158924236D01*
X129883809Y-158965932D01*
X130097535Y-158965932D01*
X130307155Y-158924236D01*
X130504612Y-158842447D01*
X130682319Y-158723707D01*
X130833447Y-158572579D01*
X130952187Y-158394872D01*
X131033976Y-158197415D01*
X131075672Y-157987795D01*
X131075672Y-157774069D01*
X131033976Y-157564449D01*
X130952187Y-157366992D01*
X130833447Y-157189285D01*
X130682319Y-157038157D01*
X130504612Y-156919417D01*
X130307155Y-156837628D01*
X130097535Y-156795932D01*
X129883809Y-156795932D01*
X129674189Y-156837628D01*
X129476732Y-156919417D01*
X129299025Y-157038157D01*
X129147897Y-157189285D01*
X129029157Y-157366992D01*
X128947368Y-157564449D01*
X128905672Y-157774069D01*
X68664349Y-157774069D01*
X69479495Y-154890284D01*
X128078760Y-154890284D01*
X128078760Y-155104010D01*
X128120456Y-155313630D01*
X128202245Y-155511087D01*
X128320985Y-155688794D01*
X128472113Y-155839922D01*
X128649820Y-155958662D01*
X128847277Y-156040451D01*
X129056897Y-156082147D01*
X129270623Y-156082147D01*
X129480243Y-156040451D01*
X129677700Y-155958662D01*
X129855407Y-155839922D01*
X130006535Y-155688794D01*
X130125275Y-155511087D01*
X130207064Y-155313630D01*
X130248760Y-155104010D01*
X130248760Y-154890284D01*
X130207064Y-154680664D01*
X130125275Y-154483207D01*
X130006535Y-154305500D01*
X129855407Y-154154372D01*
X129677700Y-154035632D01*
X129480243Y-153953843D01*
X129270623Y-153912147D01*
X129056897Y-153912147D01*
X128847277Y-153953843D01*
X128649820Y-154035632D01*
X128472113Y-154154372D01*
X128320985Y-154305500D01*
X128202245Y-154483207D01*
X128120456Y-154680664D01*
X128078760Y-154890284D01*
X69479495Y-154890284D01*
X75130602Y-134898061D01*
X99752500Y-134898061D01*
X99752500Y-135101939D01*
X99792274Y-135301898D01*
X99870295Y-135490256D01*
X99983563Y-135659774D01*
X100127726Y-135803937D01*
X100297244Y-135917205D01*
X100485602Y-135995226D01*
X100685561Y-136035000D01*
X100889439Y-136035000D01*
X101089398Y-135995226D01*
X101277756Y-135917205D01*
X101447274Y-135803937D01*
X101591437Y-135659774D01*
X101704705Y-135490256D01*
X101782726Y-135301898D01*
X101822500Y-135101939D01*
X101822500Y-134898061D01*
X101782726Y-134698102D01*
X101704705Y-134509744D01*
X101591437Y-134340226D01*
X101447274Y-134196063D01*
X101277756Y-134082795D01*
X101089398Y-134004774D01*
X100889439Y-133965000D01*
X100685561Y-133965000D01*
X100485602Y-134004774D01*
X100297244Y-134082795D01*
X100127726Y-134196063D01*
X99983563Y-134340226D01*
X99870295Y-134509744D01*
X99792274Y-134698102D01*
X99752500Y-134898061D01*
X75130602Y-134898061D01*
X76698847Y-129350000D01*
X88811928Y-129350000D01*
X88811928Y-131050000D01*
X88824188Y-131174482D01*
X88860498Y-131294180D01*
X88919463Y-131404494D01*
X88998815Y-131501185D01*
X89095506Y-131580537D01*
X89205820Y-131639502D01*
X89278380Y-131661513D01*
X89146525Y-131793368D01*
X88984010Y-132036589D01*
X88872068Y-132306842D01*
X88815000Y-132593740D01*
X88815000Y-132886260D01*
X88872068Y-133173158D01*
X88984010Y-133443411D01*
X89146525Y-133686632D01*
X89353368Y-133893475D01*
X89596589Y-134055990D01*
X89866842Y-134167932D01*
X90153740Y-134225000D01*
X90446260Y-134225000D01*
X90733158Y-134167932D01*
X91003411Y-134055990D01*
X91246632Y-133893475D01*
X91453475Y-133686632D01*
X91615990Y-133443411D01*
X91727932Y-133173158D01*
X91785000Y-132886260D01*
X91785000Y-132593740D01*
X91727932Y-132306842D01*
X91615990Y-132036589D01*
X91453475Y-131793368D01*
X91321620Y-131661513D01*
X91394180Y-131639502D01*
X91504494Y-131580537D01*
X91601185Y-131501185D01*
X91680537Y-131404494D01*
X91739502Y-131294180D01*
X91775812Y-131174482D01*
X91788072Y-131050000D01*
X91788072Y-130498061D01*
X102965000Y-130498061D01*
X102965000Y-130701939D01*
X103004774Y-130901898D01*
X103082795Y-131090256D01*
X103196063Y-131259774D01*
X103340226Y-131403937D01*
X103509744Y-131517205D01*
X103698102Y-131595226D01*
X103898061Y-131635000D01*
X104101939Y-131635000D01*
X104301898Y-131595226D01*
X104490256Y-131517205D01*
X104659774Y-131403937D01*
X104803937Y-131259774D01*
X104917205Y-131090256D01*
X104995226Y-130901898D01*
X105035000Y-130701939D01*
X105035000Y-130498061D01*
X104995226Y-130298102D01*
X104917205Y-130109744D01*
X104803937Y-129940226D01*
X104659774Y-129796063D01*
X104490256Y-129682795D01*
X104301898Y-129604774D01*
X104101939Y-129565000D01*
X103898061Y-129565000D01*
X103698102Y-129604774D01*
X103509744Y-129682795D01*
X103340226Y-129796063D01*
X103196063Y-129940226D01*
X103082795Y-130109744D01*
X103004774Y-130298102D01*
X102965000Y-130498061D01*
X91788072Y-130498061D01*
X91788072Y-129350000D01*
X91775812Y-129225518D01*
X91739502Y-129105820D01*
X91680537Y-128995506D01*
X91601185Y-128898815D01*
X91504494Y-128819463D01*
X91394180Y-128760498D01*
X91274482Y-128724188D01*
X91150000Y-128711928D01*
X89450000Y-128711928D01*
X89325518Y-128724188D01*
X89205820Y-128760498D01*
X89095506Y-128819463D01*
X88998815Y-128898815D01*
X88919463Y-128995506D01*
X88860498Y-129105820D01*
X88824188Y-129225518D01*
X88811928Y-129350000D01*
X76698847Y-129350000D01*
X77435729Y-126743091D01*
X100953436Y-126743091D01*
X100953436Y-126946969D01*
X100993210Y-127146928D01*
X101071231Y-127335286D01*
X101184499Y-127504804D01*
X101328662Y-127648967D01*
X101498180Y-127762235D01*
X101686538Y-127840256D01*
X101886497Y-127880030D01*
X102074711Y-127880030D01*
X102132795Y-128020256D01*
X102246063Y-128189774D01*
X102390226Y-128333937D01*
X102559744Y-128447205D01*
X102748102Y-128525226D01*
X102948061Y-128565000D01*
X103151939Y-128565000D01*
X103351898Y-128525226D01*
X103540256Y-128447205D01*
X103709774Y-128333937D01*
X103853937Y-128189774D01*
X103967205Y-128020256D01*
X104045226Y-127831898D01*
X104047604Y-127819943D01*
X104107795Y-127965256D01*
X104221063Y-128134774D01*
X104365226Y-128278937D01*
X104534744Y-128392205D01*
X104723102Y-128470226D01*
X104923061Y-128510000D01*
X105126939Y-128510000D01*
X105326898Y-128470226D01*
X105515256Y-128392205D01*
X105684774Y-128278937D01*
X105828937Y-128134774D01*
X105942205Y-127965256D01*
X106020226Y-127776898D01*
X106060000Y-127576939D01*
X106060000Y-127373061D01*
X106020226Y-127173102D01*
X105942205Y-126984744D01*
X105828937Y-126815226D01*
X105684774Y-126671063D01*
X105515256Y-126557795D01*
X105326898Y-126479774D01*
X105126939Y-126440000D01*
X104923061Y-126440000D01*
X104723102Y-126479774D01*
X104534744Y-126557795D01*
X104365226Y-126671063D01*
X104221063Y-126815226D01*
X104107795Y-126984744D01*
X104029774Y-127173102D01*
X104027396Y-127185057D01*
X103967205Y-127039744D01*
X103853937Y-126870226D01*
X103709774Y-126726063D01*
X103540256Y-126612795D01*
X103351898Y-126534774D01*
X103151939Y-126495000D01*
X102963725Y-126495000D01*
X102905641Y-126354774D01*
X102792373Y-126185256D01*
X102648210Y-126041093D01*
X102478692Y-125927825D01*
X102430978Y-125908061D01*
X106215000Y-125908061D01*
X106215000Y-126111939D01*
X106254774Y-126311898D01*
X106332795Y-126500256D01*
X106446063Y-126669774D01*
X106590226Y-126813937D01*
X106759744Y-126927205D01*
X106948102Y-127005226D01*
X107148061Y-127045000D01*
X107351939Y-127045000D01*
X107551898Y-127005226D01*
X107740256Y-126927205D01*
X107909774Y-126813937D01*
X108053937Y-126669774D01*
X108167205Y-126500256D01*
X108245226Y-126311898D01*
X108285000Y-126111939D01*
X108285000Y-125982429D01*
X108446898Y-125950226D01*
X108635256Y-125872205D01*
X108804774Y-125758937D01*
X108948937Y-125614774D01*
X109062205Y-125445256D01*
X109140226Y-125256898D01*
X109180000Y-125056939D01*
X109180000Y-124853061D01*
X109140226Y-124653102D01*
X109062205Y-124464744D01*
X108948937Y-124295226D01*
X108804774Y-124151063D01*
X108635256Y-124037795D01*
X108446898Y-123959774D01*
X108246939Y-123920000D01*
X108043061Y-123920000D01*
X107843102Y-123959774D01*
X107654744Y-124037795D01*
X107485226Y-124151063D01*
X107341063Y-124295226D01*
X107227795Y-124464744D01*
X107149774Y-124653102D01*
X107110000Y-124853061D01*
X107110000Y-124982571D01*
X106948102Y-125014774D01*
X106759744Y-125092795D01*
X106590226Y-125206063D01*
X106446063Y-125350226D01*
X106332795Y-125519744D01*
X106254774Y-125708102D01*
X106215000Y-125908061D01*
X102430978Y-125908061D01*
X102290334Y-125849804D01*
X102090375Y-125810030D01*
X101886497Y-125810030D01*
X101686538Y-125849804D01*
X101498180Y-125927825D01*
X101328662Y-126041093D01*
X101184499Y-126185256D01*
X101071231Y-126354774D01*
X100993210Y-126543132D01*
X100953436Y-126743091D01*
X77435729Y-126743091D01*
X78264653Y-123810561D01*
X97265000Y-123810561D01*
X97265000Y-124014439D01*
X97304774Y-124214398D01*
X97382795Y-124402756D01*
X97496063Y-124572274D01*
X97640226Y-124716437D01*
X97809744Y-124829705D01*
X97998102Y-124907726D01*
X98198061Y-124947500D01*
X98401939Y-124947500D01*
X98601898Y-124907726D01*
X98790256Y-124829705D01*
X98959774Y-124716437D01*
X99103937Y-124572274D01*
X99217205Y-124402756D01*
X99295226Y-124214398D01*
X99335000Y-124014439D01*
X99335000Y-123810561D01*
X99295226Y-123610602D01*
X99217205Y-123422244D01*
X99103937Y-123252726D01*
X98959774Y-123108563D01*
X98790256Y-122995295D01*
X98601898Y-122917274D01*
X98401939Y-122877500D01*
X98198061Y-122877500D01*
X97998102Y-122917274D01*
X97809744Y-122995295D01*
X97640226Y-123108563D01*
X97496063Y-123252726D01*
X97382795Y-123422244D01*
X97304774Y-123610602D01*
X97265000Y-123810561D01*
X78264653Y-123810561D01*
X78986156Y-121258061D01*
X100555000Y-121258061D01*
X100555000Y-121461939D01*
X100594774Y-121661898D01*
X100672795Y-121850256D01*
X100786063Y-122019774D01*
X100897077Y-122130788D01*
X100839784Y-122269105D01*
X100800010Y-122469064D01*
X100800010Y-122672942D01*
X100839784Y-122872901D01*
X100917805Y-123061259D01*
X101031073Y-123230777D01*
X101175236Y-123374940D01*
X101343105Y-123487106D01*
X101343105Y-123512628D01*
X101364745Y-123621419D01*
X101279605Y-123706559D01*
X101166337Y-123876077D01*
X101088316Y-124064435D01*
X101048542Y-124264394D01*
X101048542Y-124468272D01*
X101088316Y-124668231D01*
X101166337Y-124856589D01*
X101279605Y-125026107D01*
X101423768Y-125170270D01*
X101593286Y-125283538D01*
X101781644Y-125361559D01*
X101981603Y-125401333D01*
X102185481Y-125401333D01*
X102385440Y-125361559D01*
X102573798Y-125283538D01*
X102743316Y-125170270D01*
X102887479Y-125026107D01*
X103000747Y-124856589D01*
X103078768Y-124668231D01*
X103118542Y-124468272D01*
X103118542Y-124264394D01*
X103096902Y-124155603D01*
X103182042Y-124070463D01*
X103295310Y-123900945D01*
X103373331Y-123712587D01*
X103413105Y-123512628D01*
X103413105Y-123308750D01*
X103373331Y-123108791D01*
X103295310Y-122920433D01*
X103182042Y-122750915D01*
X103037879Y-122606752D01*
X102870010Y-122494586D01*
X102870010Y-122469064D01*
X102830236Y-122269105D01*
X102752215Y-122080747D01*
X102638947Y-121911229D01*
X102527933Y-121800215D01*
X102585226Y-121661898D01*
X102625000Y-121461939D01*
X102625000Y-121258061D01*
X102585226Y-121058102D01*
X102507205Y-120869744D01*
X102393937Y-120700226D01*
X102354592Y-120660881D01*
X107297604Y-120660881D01*
X107297604Y-120864759D01*
X107337378Y-121064718D01*
X107415399Y-121253076D01*
X107528667Y-121422594D01*
X107672830Y-121566757D01*
X107842348Y-121680025D01*
X108030706Y-121758046D01*
X108230665Y-121797820D01*
X108434543Y-121797820D01*
X108634502Y-121758046D01*
X108644754Y-121753800D01*
X108653490Y-121762536D01*
X108823008Y-121875804D01*
X109011366Y-121953825D01*
X109211325Y-121993599D01*
X109415203Y-121993599D01*
X109615162Y-121953825D01*
X109803520Y-121875804D01*
X109973038Y-121762536D01*
X110117201Y-121618373D01*
X110230469Y-121448855D01*
X110260501Y-121376353D01*
X110450324Y-121338595D01*
X110638682Y-121260574D01*
X110808200Y-121147306D01*
X110952363Y-121003143D01*
X111065631Y-120833625D01*
X111143652Y-120645267D01*
X111183426Y-120445308D01*
X111183426Y-120241430D01*
X111143652Y-120041471D01*
X111065631Y-119853113D01*
X110952363Y-119683595D01*
X110808200Y-119539432D01*
X110638682Y-119426164D01*
X110450324Y-119348143D01*
X110250365Y-119308369D01*
X110046487Y-119308369D01*
X109846528Y-119348143D01*
X109658170Y-119426164D01*
X109488652Y-119539432D01*
X109344489Y-119683595D01*
X109231221Y-119853113D01*
X109201189Y-119925615D01*
X109011366Y-119963373D01*
X109001114Y-119967619D01*
X108992378Y-119958883D01*
X108822860Y-119845615D01*
X108634502Y-119767594D01*
X108434543Y-119727820D01*
X108230665Y-119727820D01*
X108030706Y-119767594D01*
X107842348Y-119845615D01*
X107672830Y-119958883D01*
X107528667Y-120103046D01*
X107415399Y-120272564D01*
X107337378Y-120460922D01*
X107297604Y-120660881D01*
X102354592Y-120660881D01*
X102249774Y-120556063D01*
X102080256Y-120442795D01*
X101891898Y-120364774D01*
X101691939Y-120325000D01*
X101488061Y-120325000D01*
X101288102Y-120364774D01*
X101099744Y-120442795D01*
X100930226Y-120556063D01*
X100786063Y-120700226D01*
X100672795Y-120869744D01*
X100594774Y-121058102D01*
X100555000Y-121258061D01*
X78986156Y-121258061D01*
X80051875Y-117487809D01*
X101692241Y-117487809D01*
X101692241Y-117691687D01*
X101732015Y-117891646D01*
X101810036Y-118080004D01*
X101923304Y-118249522D01*
X102067467Y-118393685D01*
X102236985Y-118506953D01*
X102425343Y-118584974D01*
X102625302Y-118624748D01*
X102829180Y-118624748D01*
X103022761Y-118586243D01*
X103044293Y-118607775D01*
X103213811Y-118721043D01*
X103402169Y-118799064D01*
X103602128Y-118838838D01*
X103806006Y-118838838D01*
X104005965Y-118799064D01*
X104194323Y-118721043D01*
X104337653Y-118625273D01*
X104524065Y-118702488D01*
X104724024Y-118742262D01*
X104927902Y-118742262D01*
X105127861Y-118702488D01*
X105316219Y-118624467D01*
X105485737Y-118511199D01*
X105621423Y-118375513D01*
X105801690Y-118450183D01*
X106001649Y-118489957D01*
X106205527Y-118489957D01*
X106405486Y-118450183D01*
X106593844Y-118372162D01*
X106763362Y-118258894D01*
X106907525Y-118114731D01*
X106967008Y-118025709D01*
X107026490Y-118114731D01*
X107170653Y-118258894D01*
X107340171Y-118372162D01*
X107528529Y-118450183D01*
X107728488Y-118489957D01*
X107932366Y-118489957D01*
X108132325Y-118450183D01*
X108320683Y-118372162D01*
X108490201Y-118258894D01*
X108634364Y-118114731D01*
X108747632Y-117945213D01*
X108781258Y-117864034D01*
X108814883Y-117945213D01*
X108928151Y-118114731D01*
X109072314Y-118258894D01*
X109241832Y-118372162D01*
X109430190Y-118450183D01*
X109630149Y-118489957D01*
X109834027Y-118489957D01*
X110033986Y-118450183D01*
X110222344Y-118372162D01*
X110391862Y-118258894D01*
X110536025Y-118114731D01*
X110648600Y-117946250D01*
X110673306Y-117946250D01*
X110873265Y-117906476D01*
X111061623Y-117828455D01*
X111231141Y-117715187D01*
X111375304Y-117571024D01*
X111488572Y-117401506D01*
X111566593Y-117213148D01*
X111606367Y-117013189D01*
X111606367Y-116809311D01*
X111566593Y-116609352D01*
X111488572Y-116420994D01*
X111375304Y-116251476D01*
X111231141Y-116107313D01*
X111061623Y-115994045D01*
X110873265Y-115916024D01*
X110673306Y-115876250D01*
X110657578Y-115876250D01*
X110657578Y-115840040D01*
X110617804Y-115640081D01*
X110552499Y-115482421D01*
X110565515Y-115487813D01*
X110765474Y-115527587D01*
X110969352Y-115527587D01*
X111169311Y-115487813D01*
X111357669Y-115409792D01*
X111527187Y-115296524D01*
X111671350Y-115152361D01*
X111784618Y-114982843D01*
X111862639Y-114794485D01*
X111902413Y-114594526D01*
X111902413Y-114390648D01*
X111862639Y-114190689D01*
X111784618Y-114002331D01*
X111671350Y-113832813D01*
X111527187Y-113688650D01*
X111357669Y-113575382D01*
X111169311Y-113497361D01*
X110969352Y-113457587D01*
X110765474Y-113457587D01*
X110565515Y-113497361D01*
X110377157Y-113575382D01*
X110207639Y-113688650D01*
X110063476Y-113832813D01*
X109950208Y-114002331D01*
X109872187Y-114190689D01*
X109832413Y-114390648D01*
X109832413Y-114594526D01*
X109872187Y-114794485D01*
X109937492Y-114952145D01*
X109924476Y-114946753D01*
X109724517Y-114906979D01*
X109520639Y-114906979D01*
X109320680Y-114946753D01*
X109132322Y-115024774D01*
X108962804Y-115138042D01*
X108818641Y-115282205D01*
X108705373Y-115451723D01*
X108627352Y-115640081D01*
X108587578Y-115840040D01*
X108587578Y-116043918D01*
X108627352Y-116243877D01*
X108705373Y-116432235D01*
X108818641Y-116601753D01*
X108962804Y-116745916D01*
X108971564Y-116751770D01*
X108928151Y-116795183D01*
X108814883Y-116964701D01*
X108781258Y-117045880D01*
X108747632Y-116964701D01*
X108634364Y-116795183D01*
X108490201Y-116651020D01*
X108320683Y-116537752D01*
X108132325Y-116459731D01*
X107932366Y-116419957D01*
X107728488Y-116419957D01*
X107528529Y-116459731D01*
X107340171Y-116537752D01*
X107170653Y-116651020D01*
X107026490Y-116795183D01*
X106967008Y-116884205D01*
X106907525Y-116795183D01*
X106763362Y-116651020D01*
X106593844Y-116537752D01*
X106405486Y-116459731D01*
X106205527Y-116419957D01*
X106001649Y-116419957D01*
X105801690Y-116459731D01*
X105613332Y-116537752D01*
X105443814Y-116651020D01*
X105308128Y-116786706D01*
X105127861Y-116712036D01*
X104927902Y-116672262D01*
X104724024Y-116672262D01*
X104524065Y-116712036D01*
X104335707Y-116790057D01*
X104192377Y-116885827D01*
X104005965Y-116808612D01*
X103806006Y-116768838D01*
X103602128Y-116768838D01*
X103408547Y-116807343D01*
X103387015Y-116785811D01*
X103217497Y-116672543D01*
X103029139Y-116594522D01*
X102829180Y-116554748D01*
X102625302Y-116554748D01*
X102425343Y-116594522D01*
X102236985Y-116672543D01*
X102067467Y-116785811D01*
X101923304Y-116929974D01*
X101810036Y-117099492D01*
X101732015Y-117287850D01*
X101692241Y-117487809D01*
X80051875Y-117487809D01*
X81484917Y-112418061D01*
X100805000Y-112418061D01*
X100805000Y-112621939D01*
X100844774Y-112821898D01*
X100922795Y-113010256D01*
X101036063Y-113179774D01*
X101180226Y-113323937D01*
X101349744Y-113437205D01*
X101538102Y-113515226D01*
X101738061Y-113555000D01*
X101941939Y-113555000D01*
X102141898Y-113515226D01*
X102330256Y-113437205D01*
X102499774Y-113323937D01*
X102643937Y-113179774D01*
X102757205Y-113010256D01*
X102835226Y-112821898D01*
X102875000Y-112621939D01*
X102875000Y-112418061D01*
X102835226Y-112218102D01*
X102757205Y-112029744D01*
X102643937Y-111860226D01*
X102499774Y-111716063D01*
X102330256Y-111602795D01*
X102141898Y-111524774D01*
X101941939Y-111485000D01*
X101738061Y-111485000D01*
X101538102Y-111524774D01*
X101349744Y-111602795D01*
X101180226Y-111716063D01*
X101036063Y-111860226D01*
X100922795Y-112029744D01*
X100844774Y-112218102D01*
X100805000Y-112418061D01*
X81484917Y-112418061D01*
X81853796Y-111113061D01*
X84990000Y-111113061D01*
X84990000Y-111316939D01*
X85029774Y-111516898D01*
X85107795Y-111705256D01*
X85221063Y-111874774D01*
X85365226Y-112018937D01*
X85534744Y-112132205D01*
X85723102Y-112210226D01*
X85923061Y-112250000D01*
X86126939Y-112250000D01*
X86326898Y-112210226D01*
X86515256Y-112132205D01*
X86684774Y-112018937D01*
X86828937Y-111874774D01*
X86942205Y-111705256D01*
X87020226Y-111516898D01*
X87060000Y-111316939D01*
X87060000Y-111113061D01*
X87020226Y-110913102D01*
X86942205Y-110724744D01*
X86828937Y-110555226D01*
X86684774Y-110411063D01*
X86515256Y-110297795D01*
X86326898Y-110219774D01*
X86126939Y-110180000D01*
X85923061Y-110180000D01*
X85723102Y-110219774D01*
X85534744Y-110297795D01*
X85365226Y-110411063D01*
X85221063Y-110555226D01*
X85107795Y-110724744D01*
X85029774Y-110913102D01*
X84990000Y-111113061D01*
X81853796Y-111113061D01*
X82196678Y-109900029D01*
X82213863Y-109804123D01*
X82211386Y-109674138D01*
X82183599Y-109547134D01*
X82152098Y-109475000D01*
X98876928Y-109475000D01*
X98876928Y-110325000D01*
X98889188Y-110449482D01*
X98925498Y-110569180D01*
X98984463Y-110679494D01*
X99063815Y-110776185D01*
X99160506Y-110855537D01*
X99270820Y-110914502D01*
X99390518Y-110950812D01*
X99515000Y-110963072D01*
X100365000Y-110963072D01*
X100489482Y-110950812D01*
X100609180Y-110914502D01*
X100719494Y-110855537D01*
X100816185Y-110776185D01*
X100895537Y-110679494D01*
X100954502Y-110569180D01*
X100990812Y-110449482D01*
X101003072Y-110325000D01*
X101003072Y-109475000D01*
X100990812Y-109350518D01*
X100954502Y-109230820D01*
X100895537Y-109120506D01*
X100816185Y-109023815D01*
X100719494Y-108944463D01*
X100609180Y-108885498D01*
X100489482Y-108849188D01*
X100365000Y-108836928D01*
X99515000Y-108836928D01*
X99390518Y-108849188D01*
X99270820Y-108885498D01*
X99160506Y-108944463D01*
X99063815Y-109023815D01*
X98984463Y-109120506D01*
X98925498Y-109230820D01*
X98889188Y-109350518D01*
X98876928Y-109475000D01*
X82152098Y-109475000D01*
X82131568Y-109427991D01*
X82057294Y-109321288D01*
X81963630Y-109231126D01*
X81914020Y-109199327D01*
X80005958Y-107926780D01*
X78199100Y-106540299D01*
X76488097Y-105037116D01*
X75402859Y-103948061D01*
X110075000Y-103948061D01*
X110075000Y-104151939D01*
X110114774Y-104351898D01*
X110192795Y-104540256D01*
X110306063Y-104709774D01*
X110450226Y-104853937D01*
X110619744Y-104967205D01*
X110808102Y-105045226D01*
X111008061Y-105085000D01*
X111211939Y-105085000D01*
X111411898Y-105045226D01*
X111600256Y-104967205D01*
X111769774Y-104853937D01*
X111913937Y-104709774D01*
X112027205Y-104540256D01*
X112105226Y-104351898D01*
X112145000Y-104151939D01*
X112145000Y-103948061D01*
X112105226Y-103748102D01*
X112027205Y-103559744D01*
X111913937Y-103390226D01*
X111769774Y-103246063D01*
X111600256Y-103132795D01*
X111411898Y-103054774D01*
X111211939Y-103015000D01*
X111008061Y-103015000D01*
X110808102Y-103054774D01*
X110619744Y-103132795D01*
X110450226Y-103246063D01*
X110306063Y-103390226D01*
X110192795Y-103559744D01*
X110114774Y-103748102D01*
X110075000Y-103948061D01*
X75402859Y-103948061D01*
X74880489Y-103423854D01*
X73383330Y-101707593D01*
X73379608Y-101702706D01*
X77032893Y-101702706D01*
X77032893Y-101911508D01*
X77073628Y-102116298D01*
X77153533Y-102309205D01*
X77269537Y-102482818D01*
X77417182Y-102630463D01*
X77590795Y-102746467D01*
X77783702Y-102826372D01*
X77988492Y-102867107D01*
X78197294Y-102867107D01*
X78402084Y-102826372D01*
X78594991Y-102746467D01*
X78768604Y-102630463D01*
X78916249Y-102482818D01*
X79032253Y-102309205D01*
X79039380Y-102291999D01*
X79044180Y-102290543D01*
X79154494Y-102231578D01*
X79251185Y-102152226D01*
X79852226Y-101551185D01*
X79931578Y-101454494D01*
X79990543Y-101344180D01*
X80026853Y-101224482D01*
X80039113Y-101100000D01*
X80026853Y-100975518D01*
X79990543Y-100855820D01*
X79931578Y-100745506D01*
X79852226Y-100648815D01*
X79667486Y-100464075D01*
X79790795Y-100546467D01*
X79983702Y-100626372D01*
X80188492Y-100667107D01*
X80397294Y-100667107D01*
X80602084Y-100626372D01*
X80794991Y-100546467D01*
X80968604Y-100430463D01*
X81116249Y-100282818D01*
X81232253Y-100109205D01*
X81239380Y-100091999D01*
X81244180Y-100090543D01*
X81354494Y-100031578D01*
X81451185Y-99952226D01*
X82052226Y-99351185D01*
X82131578Y-99254494D01*
X82190543Y-99144180D01*
X82226853Y-99024482D01*
X82239113Y-98900000D01*
X82226853Y-98775518D01*
X82190543Y-98655820D01*
X82131578Y-98545506D01*
X82052226Y-98448815D01*
X81478411Y-97875000D01*
X98336928Y-97875000D01*
X98336928Y-98725000D01*
X98349188Y-98849482D01*
X98385498Y-98969180D01*
X98444463Y-99079494D01*
X98523815Y-99176185D01*
X98620506Y-99255537D01*
X98730820Y-99314502D01*
X98850518Y-99350812D01*
X98975000Y-99363072D01*
X99825000Y-99363072D01*
X99949482Y-99350812D01*
X100069180Y-99314502D01*
X100073603Y-99312138D01*
X100090809Y-99319265D01*
X100295599Y-99360000D01*
X100504401Y-99360000D01*
X100709191Y-99319265D01*
X100902098Y-99239360D01*
X101075711Y-99123356D01*
X101199067Y-99000000D01*
X117760887Y-99000000D01*
X117773147Y-99124482D01*
X117809457Y-99244180D01*
X117868422Y-99354494D01*
X117947774Y-99451185D01*
X118548815Y-100052226D01*
X118645506Y-100131578D01*
X118755820Y-100190543D01*
X118760620Y-100191999D01*
X118767747Y-100209205D01*
X118883751Y-100382818D01*
X119031396Y-100530463D01*
X119205009Y-100646467D01*
X119397916Y-100726372D01*
X119602706Y-100767107D01*
X119811508Y-100767107D01*
X120016298Y-100726372D01*
X120209205Y-100646467D01*
X120332514Y-100564075D01*
X120147774Y-100748815D01*
X120068422Y-100845506D01*
X120009457Y-100955820D01*
X119973147Y-101075518D01*
X119960887Y-101200000D01*
X119973147Y-101324482D01*
X120009457Y-101444180D01*
X120068422Y-101554494D01*
X120147774Y-101651185D01*
X120748815Y-102252226D01*
X120845506Y-102331578D01*
X120955820Y-102390543D01*
X120960620Y-102391999D01*
X120967747Y-102409205D01*
X121083751Y-102582818D01*
X121231396Y-102730463D01*
X121405009Y-102846467D01*
X121597916Y-102926372D01*
X121802706Y-102967107D01*
X122011508Y-102967107D01*
X122216298Y-102926372D01*
X122409205Y-102846467D01*
X122582818Y-102730463D01*
X122730463Y-102582818D01*
X122846467Y-102409205D01*
X122926372Y-102216298D01*
X122967107Y-102011508D01*
X122967107Y-101802706D01*
X122926372Y-101597916D01*
X122846467Y-101405009D01*
X122730463Y-101231396D01*
X122582818Y-101083751D01*
X122409205Y-100967747D01*
X122391999Y-100960620D01*
X122390543Y-100955820D01*
X122331578Y-100845506D01*
X122252226Y-100748815D01*
X121651185Y-100147774D01*
X121554494Y-100068422D01*
X121444180Y-100009457D01*
X121324482Y-99973147D01*
X121200000Y-99960887D01*
X121075518Y-99973147D01*
X120955820Y-100009457D01*
X120845506Y-100068422D01*
X120748815Y-100147774D01*
X120564075Y-100332514D01*
X120646467Y-100209205D01*
X120726372Y-100016298D01*
X120767107Y-99811508D01*
X120767107Y-99602706D01*
X120726372Y-99397916D01*
X120646467Y-99205009D01*
X120530463Y-99031396D01*
X120382818Y-98883751D01*
X120209205Y-98767747D01*
X120191999Y-98760620D01*
X120190543Y-98755820D01*
X120131578Y-98645506D01*
X120052226Y-98548815D01*
X119451185Y-97947774D01*
X119354494Y-97868422D01*
X119244180Y-97809457D01*
X119124482Y-97773147D01*
X119000000Y-97760887D01*
X118875518Y-97773147D01*
X118755820Y-97809457D01*
X118645506Y-97868422D01*
X118548815Y-97947774D01*
X117947774Y-98548815D01*
X117868422Y-98645506D01*
X117809457Y-98755820D01*
X117773147Y-98875518D01*
X117760887Y-99000000D01*
X101199067Y-99000000D01*
X101223356Y-98975711D01*
X101339360Y-98802098D01*
X101419265Y-98609191D01*
X101460000Y-98404401D01*
X101460000Y-98195599D01*
X101419265Y-97990809D01*
X101339360Y-97797902D01*
X101223356Y-97624289D01*
X101075711Y-97476644D01*
X100902098Y-97360640D01*
X100709191Y-97280735D01*
X100504401Y-97240000D01*
X100295599Y-97240000D01*
X100090809Y-97280735D01*
X100073603Y-97287862D01*
X100069180Y-97285498D01*
X99949482Y-97249188D01*
X99825000Y-97236928D01*
X98975000Y-97236928D01*
X98850518Y-97249188D01*
X98730820Y-97285498D01*
X98620506Y-97344463D01*
X98523815Y-97423815D01*
X98444463Y-97520506D01*
X98385498Y-97630820D01*
X98349188Y-97750518D01*
X98336928Y-97875000D01*
X81478411Y-97875000D01*
X81451185Y-97847774D01*
X81354494Y-97768422D01*
X81244180Y-97709457D01*
X81124482Y-97673147D01*
X81000000Y-97660887D01*
X80875518Y-97673147D01*
X80755820Y-97709457D01*
X80645506Y-97768422D01*
X80548815Y-97847774D01*
X79947774Y-98448815D01*
X79868422Y-98545506D01*
X79809457Y-98655820D01*
X79808001Y-98660620D01*
X79790795Y-98667747D01*
X79617182Y-98783751D01*
X79469537Y-98931396D01*
X79353533Y-99105009D01*
X79273628Y-99297916D01*
X79232893Y-99502706D01*
X79232893Y-99711508D01*
X79273628Y-99916298D01*
X79353533Y-100109205D01*
X79435925Y-100232514D01*
X79251185Y-100047774D01*
X79154494Y-99968422D01*
X79044180Y-99909457D01*
X78924482Y-99873147D01*
X78800000Y-99860887D01*
X78675518Y-99873147D01*
X78555820Y-99909457D01*
X78445506Y-99968422D01*
X78348815Y-100047774D01*
X77747774Y-100648815D01*
X77668422Y-100745506D01*
X77609457Y-100855820D01*
X77608001Y-100860620D01*
X77590795Y-100867747D01*
X77417182Y-100983751D01*
X77269537Y-101131396D01*
X77153533Y-101305009D01*
X77073628Y-101497916D01*
X77032893Y-101702706D01*
X73379608Y-101702706D01*
X72003188Y-99895860D01*
X70746168Y-97996670D01*
X69617773Y-96018335D01*
X69402507Y-95575000D01*
X98336928Y-95575000D01*
X98336928Y-96425000D01*
X98349188Y-96549482D01*
X98385498Y-96669180D01*
X98444463Y-96779494D01*
X98523815Y-96876185D01*
X98620506Y-96955537D01*
X98730820Y-97014502D01*
X98850518Y-97050812D01*
X98975000Y-97063072D01*
X99825000Y-97063072D01*
X99949482Y-97050812D01*
X100069180Y-97014502D01*
X100073603Y-97012138D01*
X100090809Y-97019265D01*
X100295599Y-97060000D01*
X100504401Y-97060000D01*
X100709191Y-97019265D01*
X100902098Y-96939360D01*
X101075711Y-96823356D01*
X101223356Y-96675711D01*
X101339360Y-96502098D01*
X101419265Y-96309191D01*
X101460000Y-96104401D01*
X101460000Y-95895599D01*
X101419265Y-95690809D01*
X101339360Y-95497902D01*
X101223356Y-95324289D01*
X101075711Y-95176644D01*
X100902098Y-95060640D01*
X100709191Y-94980735D01*
X100504401Y-94940000D01*
X100295599Y-94940000D01*
X100090809Y-94980735D01*
X100073603Y-94987862D01*
X100069180Y-94985498D01*
X99949482Y-94949188D01*
X99825000Y-94936928D01*
X98975000Y-94936928D01*
X98850518Y-94949188D01*
X98730820Y-94985498D01*
X98620506Y-95044463D01*
X98523815Y-95123815D01*
X98444463Y-95220506D01*
X98385498Y-95330820D01*
X98349188Y-95450518D01*
X98336928Y-95575000D01*
X69402507Y-95575000D01*
X68622975Y-93969575D01*
X68340946Y-93275000D01*
X98336928Y-93275000D01*
X98336928Y-94125000D01*
X98349188Y-94249482D01*
X98385498Y-94369180D01*
X98444463Y-94479494D01*
X98523815Y-94576185D01*
X98620506Y-94655537D01*
X98730820Y-94714502D01*
X98850518Y-94750812D01*
X98975000Y-94763072D01*
X99825000Y-94763072D01*
X99949482Y-94750812D01*
X100069180Y-94714502D01*
X100073603Y-94712138D01*
X100090809Y-94719265D01*
X100295599Y-94760000D01*
X100504401Y-94760000D01*
X100709191Y-94719265D01*
X100902098Y-94639360D01*
X101075711Y-94523356D01*
X101223356Y-94375711D01*
X101339360Y-94202098D01*
X101419265Y-94009191D01*
X101460000Y-93804401D01*
X101460000Y-93595599D01*
X101419265Y-93390809D01*
X101339360Y-93197902D01*
X101223356Y-93024289D01*
X101075711Y-92876644D01*
X100902098Y-92760640D01*
X100709191Y-92680735D01*
X100504401Y-92640000D01*
X100295599Y-92640000D01*
X100090809Y-92680735D01*
X100073603Y-92687862D01*
X100069180Y-92685498D01*
X99949482Y-92649188D01*
X99825000Y-92636928D01*
X98975000Y-92636928D01*
X98850518Y-92649188D01*
X98730820Y-92685498D01*
X98620506Y-92744463D01*
X98523815Y-92823815D01*
X98444463Y-92920506D01*
X98385498Y-93030820D01*
X98349188Y-93150518D01*
X98336928Y-93275000D01*
X68340946Y-93275000D01*
X67766140Y-91859386D01*
X67473668Y-90975000D01*
X98336928Y-90975000D01*
X98336928Y-91825000D01*
X98349188Y-91949482D01*
X98385498Y-92069180D01*
X98444463Y-92179494D01*
X98523815Y-92276185D01*
X98620506Y-92355537D01*
X98730820Y-92414502D01*
X98850518Y-92450812D01*
X98975000Y-92463072D01*
X99825000Y-92463072D01*
X99949482Y-92450812D01*
X100069180Y-92414502D01*
X100073603Y-92412138D01*
X100090809Y-92419265D01*
X100295599Y-92460000D01*
X100504401Y-92460000D01*
X100709191Y-92419265D01*
X100902098Y-92339360D01*
X101075711Y-92223356D01*
X101223356Y-92075711D01*
X101339360Y-91902098D01*
X101419265Y-91709191D01*
X101460000Y-91504401D01*
X101460000Y-91295599D01*
X101419265Y-91090809D01*
X101339360Y-90897902D01*
X101223356Y-90724289D01*
X101075711Y-90576644D01*
X100902098Y-90460640D01*
X100709191Y-90380735D01*
X100504401Y-90340000D01*
X100295599Y-90340000D01*
X100090809Y-90380735D01*
X100073603Y-90387862D01*
X100069180Y-90385498D01*
X99949482Y-90349188D01*
X99825000Y-90336928D01*
X98975000Y-90336928D01*
X98850518Y-90349188D01*
X98730820Y-90385498D01*
X98620506Y-90444463D01*
X98523815Y-90523815D01*
X98444463Y-90620506D01*
X98385498Y-90730820D01*
X98349188Y-90850518D01*
X98336928Y-90975000D01*
X67473668Y-90975000D01*
X67051036Y-89697037D01*
X66480817Y-87492073D01*
X66407493Y-87103994D01*
X83627336Y-87103994D01*
X83627336Y-87307872D01*
X83667110Y-87507831D01*
X83745131Y-87696189D01*
X83858399Y-87865707D01*
X84002562Y-88009870D01*
X84172080Y-88123138D01*
X84360438Y-88201159D01*
X84560397Y-88240933D01*
X84764275Y-88240933D01*
X84964234Y-88201159D01*
X85152592Y-88123138D01*
X85322110Y-88009870D01*
X85466273Y-87865707D01*
X85579541Y-87696189D01*
X85657562Y-87507831D01*
X85697336Y-87307872D01*
X85697336Y-87103994D01*
X85657562Y-86904035D01*
X85579541Y-86715677D01*
X85466273Y-86546159D01*
X85322110Y-86401996D01*
X85152592Y-86288728D01*
X84964234Y-86210707D01*
X84764275Y-86170933D01*
X84560397Y-86170933D01*
X84360438Y-86210707D01*
X84172080Y-86288728D01*
X84002562Y-86401996D01*
X83858399Y-86546159D01*
X83745131Y-86715677D01*
X83667110Y-86904035D01*
X83627336Y-87103994D01*
X66407493Y-87103994D01*
X66057981Y-85254149D01*
X65784390Y-82993128D01*
X65661249Y-80718943D01*
X65671316Y-79895599D01*
X67940000Y-79895599D01*
X67940000Y-80104401D01*
X67980735Y-80309191D01*
X68060640Y-80502098D01*
X68176644Y-80675711D01*
X68324289Y-80823356D01*
X68497902Y-80939360D01*
X68690809Y-81019265D01*
X68895599Y-81060000D01*
X69104401Y-81060000D01*
X69309191Y-81019265D01*
X69326397Y-81012138D01*
X69330820Y-81014502D01*
X69450518Y-81050812D01*
X69575000Y-81063072D01*
X70425000Y-81063072D01*
X70549482Y-81050812D01*
X70669180Y-81014502D01*
X70779494Y-80955537D01*
X70876185Y-80876185D01*
X70955537Y-80779494D01*
X71014502Y-80669180D01*
X71050812Y-80549482D01*
X71063072Y-80425000D01*
X71063072Y-79575000D01*
X71050812Y-79450518D01*
X71014502Y-79330820D01*
X70955537Y-79220506D01*
X70876185Y-79123815D01*
X70779494Y-79044463D01*
X70669180Y-78985498D01*
X70634573Y-78975000D01*
X80636928Y-78975000D01*
X80636928Y-79825000D01*
X80649188Y-79949482D01*
X80685498Y-80069180D01*
X80687862Y-80073603D01*
X80680735Y-80090809D01*
X80640000Y-80295599D01*
X80640000Y-80504401D01*
X80680735Y-80709191D01*
X80760640Y-80902098D01*
X80876644Y-81075711D01*
X81024289Y-81223356D01*
X81197902Y-81339360D01*
X81390809Y-81419265D01*
X81595599Y-81460000D01*
X81804401Y-81460000D01*
X82009191Y-81419265D01*
X82202098Y-81339360D01*
X82375711Y-81223356D01*
X82523356Y-81075711D01*
X82639360Y-80902098D01*
X82719265Y-80709191D01*
X82760000Y-80504401D01*
X82760000Y-80295599D01*
X82719265Y-80090809D01*
X82712138Y-80073603D01*
X82714502Y-80069180D01*
X82750812Y-79949482D01*
X82763072Y-79825000D01*
X82763072Y-78975000D01*
X82936928Y-78975000D01*
X82936928Y-79825000D01*
X82949188Y-79949482D01*
X82985498Y-80069180D01*
X82987862Y-80073603D01*
X82980735Y-80090809D01*
X82940000Y-80295599D01*
X82940000Y-80504401D01*
X82980735Y-80709191D01*
X83060640Y-80902098D01*
X83176644Y-81075711D01*
X83324289Y-81223356D01*
X83497902Y-81339360D01*
X83690809Y-81419265D01*
X83895599Y-81460000D01*
X84104401Y-81460000D01*
X84309191Y-81419265D01*
X84502098Y-81339360D01*
X84675711Y-81223356D01*
X84823356Y-81075711D01*
X84939360Y-80902098D01*
X85019265Y-80709191D01*
X85060000Y-80504401D01*
X85060000Y-80295599D01*
X85019265Y-80090809D01*
X85012138Y-80073603D01*
X85014502Y-80069180D01*
X85050812Y-79949482D01*
X85063072Y-79825000D01*
X85063072Y-78975000D01*
X85236928Y-78975000D01*
X85236928Y-79825000D01*
X85249188Y-79949482D01*
X85285498Y-80069180D01*
X85287862Y-80073603D01*
X85280735Y-80090809D01*
X85240000Y-80295599D01*
X85240000Y-80504401D01*
X85280735Y-80709191D01*
X85360640Y-80902098D01*
X85476644Y-81075711D01*
X85624289Y-81223356D01*
X85797902Y-81339360D01*
X85990809Y-81419265D01*
X86195599Y-81460000D01*
X86404401Y-81460000D01*
X86609191Y-81419265D01*
X86802098Y-81339360D01*
X86975711Y-81223356D01*
X87123356Y-81075711D01*
X87239360Y-80902098D01*
X87319265Y-80709191D01*
X87360000Y-80504401D01*
X87360000Y-80295599D01*
X87319265Y-80090809D01*
X87312138Y-80073603D01*
X87314502Y-80069180D01*
X87350812Y-79949482D01*
X87363072Y-79825000D01*
X87363072Y-78975000D01*
X87536928Y-78975000D01*
X87536928Y-79825000D01*
X87549188Y-79949482D01*
X87585498Y-80069180D01*
X87587862Y-80073603D01*
X87580735Y-80090809D01*
X87540000Y-80295599D01*
X87540000Y-80504401D01*
X87580735Y-80709191D01*
X87660640Y-80902098D01*
X87776644Y-81075711D01*
X87924289Y-81223356D01*
X88097902Y-81339360D01*
X88290809Y-81419265D01*
X88495599Y-81460000D01*
X88704401Y-81460000D01*
X88909191Y-81419265D01*
X89102098Y-81339360D01*
X89275711Y-81223356D01*
X89423356Y-81075711D01*
X89539360Y-80902098D01*
X89619265Y-80709191D01*
X89660000Y-80504401D01*
X89660000Y-80295599D01*
X89619265Y-80090809D01*
X89612138Y-80073603D01*
X89614502Y-80069180D01*
X89650812Y-79949482D01*
X89663072Y-79825000D01*
X89663072Y-78975000D01*
X97736928Y-78975000D01*
X97736928Y-79825000D01*
X97749188Y-79949482D01*
X97785498Y-80069180D01*
X97787862Y-80073603D01*
X97780735Y-80090809D01*
X97740000Y-80295599D01*
X97740000Y-80504401D01*
X97780735Y-80709191D01*
X97860640Y-80902098D01*
X97976644Y-81075711D01*
X98124289Y-81223356D01*
X98297902Y-81339360D01*
X98376403Y-81371876D01*
X98281329Y-81487725D01*
X98202150Y-81635858D01*
X98153392Y-81796592D01*
X98136928Y-81963750D01*
X98136928Y-82476250D01*
X98153392Y-82643408D01*
X98202150Y-82804142D01*
X98281329Y-82952275D01*
X98387885Y-83082115D01*
X98517725Y-83188671D01*
X98665858Y-83267850D01*
X98826592Y-83316608D01*
X98993750Y-83333072D01*
X99431250Y-83333072D01*
X99598408Y-83316608D01*
X99759142Y-83267850D01*
X99907275Y-83188671D01*
X100000000Y-83112574D01*
X100092725Y-83188671D01*
X100240858Y-83267850D01*
X100401592Y-83316608D01*
X100568750Y-83333072D01*
X101006250Y-83333072D01*
X101173408Y-83316608D01*
X101334142Y-83267850D01*
X101482275Y-83188671D01*
X101612115Y-83082115D01*
X101718671Y-82952275D01*
X101797850Y-82804142D01*
X101846608Y-82643408D01*
X101863072Y-82476250D01*
X101863072Y-81963750D01*
X101846608Y-81796592D01*
X101797850Y-81635858D01*
X101718671Y-81487725D01*
X101623597Y-81371876D01*
X101702098Y-81339360D01*
X101875711Y-81223356D01*
X102023356Y-81075711D01*
X102139360Y-80902098D01*
X102219265Y-80709191D01*
X102260000Y-80504401D01*
X102260000Y-80295599D01*
X102219265Y-80090809D01*
X102212138Y-80073603D01*
X102214502Y-80069180D01*
X102250812Y-79949482D01*
X102263072Y-79825000D01*
X102263072Y-78975000D01*
X110336928Y-78975000D01*
X110336928Y-79825000D01*
X110349188Y-79949482D01*
X110385498Y-80069180D01*
X110387862Y-80073603D01*
X110380735Y-80090809D01*
X110340000Y-80295599D01*
X110340000Y-80504401D01*
X110380735Y-80709191D01*
X110460640Y-80902098D01*
X110576644Y-81075711D01*
X110724289Y-81223356D01*
X110897902Y-81339360D01*
X111090809Y-81419265D01*
X111295599Y-81460000D01*
X111504401Y-81460000D01*
X111709191Y-81419265D01*
X111902098Y-81339360D01*
X112075711Y-81223356D01*
X112223356Y-81075711D01*
X112339360Y-80902098D01*
X112419265Y-80709191D01*
X112460000Y-80504401D01*
X112460000Y-80295599D01*
X112419265Y-80090809D01*
X112412138Y-80073603D01*
X112414502Y-80069180D01*
X112450812Y-79949482D01*
X112463072Y-79825000D01*
X112463072Y-78975000D01*
X112636928Y-78975000D01*
X112636928Y-79825000D01*
X112649188Y-79949482D01*
X112685498Y-80069180D01*
X112687862Y-80073603D01*
X112680735Y-80090809D01*
X112640000Y-80295599D01*
X112640000Y-80504401D01*
X112680735Y-80709191D01*
X112760640Y-80902098D01*
X112876644Y-81075711D01*
X113024289Y-81223356D01*
X113197902Y-81339360D01*
X113390809Y-81419265D01*
X113595599Y-81460000D01*
X113804401Y-81460000D01*
X114009191Y-81419265D01*
X114202098Y-81339360D01*
X114375711Y-81223356D01*
X114523356Y-81075711D01*
X114639360Y-80902098D01*
X114719265Y-80709191D01*
X114760000Y-80504401D01*
X114760000Y-80295599D01*
X114719265Y-80090809D01*
X114712138Y-80073603D01*
X114714502Y-80069180D01*
X114750812Y-79949482D01*
X114763072Y-79825000D01*
X114763072Y-78975000D01*
X114936928Y-78975000D01*
X114936928Y-79825000D01*
X114949188Y-79949482D01*
X114985498Y-80069180D01*
X114987862Y-80073603D01*
X114980735Y-80090809D01*
X114940000Y-80295599D01*
X114940000Y-80504401D01*
X114980735Y-80709191D01*
X115060640Y-80902098D01*
X115176644Y-81075711D01*
X115324289Y-81223356D01*
X115497902Y-81339360D01*
X115690809Y-81419265D01*
X115895599Y-81460000D01*
X116104401Y-81460000D01*
X116309191Y-81419265D01*
X116502098Y-81339360D01*
X116675711Y-81223356D01*
X116823356Y-81075711D01*
X116939360Y-80902098D01*
X117019265Y-80709191D01*
X117060000Y-80504401D01*
X117060000Y-80295599D01*
X117019265Y-80090809D01*
X117012138Y-80073603D01*
X117014502Y-80069180D01*
X117050812Y-79949482D01*
X117063072Y-79825000D01*
X117063072Y-78975000D01*
X117236928Y-78975000D01*
X117236928Y-79825000D01*
X117249188Y-79949482D01*
X117285498Y-80069180D01*
X117287862Y-80073603D01*
X117280735Y-80090809D01*
X117240000Y-80295599D01*
X117240000Y-80504401D01*
X117280735Y-80709191D01*
X117360640Y-80902098D01*
X117476644Y-81075711D01*
X117624289Y-81223356D01*
X117797902Y-81339360D01*
X117990809Y-81419265D01*
X118195599Y-81460000D01*
X118404401Y-81460000D01*
X118609191Y-81419265D01*
X118802098Y-81339360D01*
X118975711Y-81223356D01*
X119123356Y-81075711D01*
X119239360Y-80902098D01*
X119319265Y-80709191D01*
X119360000Y-80504401D01*
X119360000Y-80295599D01*
X119319265Y-80090809D01*
X119312138Y-80073603D01*
X119314502Y-80069180D01*
X119350812Y-79949482D01*
X119363072Y-79825000D01*
X119363072Y-79575000D01*
X128936928Y-79575000D01*
X128936928Y-80425000D01*
X128949188Y-80549482D01*
X128985498Y-80669180D01*
X129044463Y-80779494D01*
X129123815Y-80876185D01*
X129220506Y-80955537D01*
X129330820Y-81014502D01*
X129450518Y-81050812D01*
X129575000Y-81063072D01*
X130425000Y-81063072D01*
X130549482Y-81050812D01*
X130669180Y-81014502D01*
X130673603Y-81012138D01*
X130690809Y-81019265D01*
X130895599Y-81060000D01*
X131104401Y-81060000D01*
X131309191Y-81019265D01*
X131502098Y-80939360D01*
X131675711Y-80823356D01*
X131823356Y-80675711D01*
X131939360Y-80502098D01*
X132019265Y-80309191D01*
X132060000Y-80104401D01*
X132060000Y-79895599D01*
X132019265Y-79690809D01*
X131939360Y-79497902D01*
X131823356Y-79324289D01*
X131675711Y-79176644D01*
X131502098Y-79060640D01*
X131309191Y-78980735D01*
X131104401Y-78940000D01*
X130895599Y-78940000D01*
X130690809Y-78980735D01*
X130673603Y-78987862D01*
X130669180Y-78985498D01*
X130549482Y-78949188D01*
X130425000Y-78936928D01*
X129575000Y-78936928D01*
X129450518Y-78949188D01*
X129330820Y-78985498D01*
X129220506Y-79044463D01*
X129123815Y-79123815D01*
X129044463Y-79220506D01*
X128985498Y-79330820D01*
X128949188Y-79450518D01*
X128936928Y-79575000D01*
X119363072Y-79575000D01*
X119363072Y-78975000D01*
X119350812Y-78850518D01*
X119314502Y-78730820D01*
X119255537Y-78620506D01*
X119176185Y-78523815D01*
X119079494Y-78444463D01*
X118969180Y-78385498D01*
X118849482Y-78349188D01*
X118725000Y-78336928D01*
X117875000Y-78336928D01*
X117750518Y-78349188D01*
X117630820Y-78385498D01*
X117520506Y-78444463D01*
X117423815Y-78523815D01*
X117344463Y-78620506D01*
X117285498Y-78730820D01*
X117249188Y-78850518D01*
X117236928Y-78975000D01*
X117063072Y-78975000D01*
X117050812Y-78850518D01*
X117014502Y-78730820D01*
X116955537Y-78620506D01*
X116876185Y-78523815D01*
X116779494Y-78444463D01*
X116669180Y-78385498D01*
X116549482Y-78349188D01*
X116425000Y-78336928D01*
X115575000Y-78336928D01*
X115450518Y-78349188D01*
X115330820Y-78385498D01*
X115220506Y-78444463D01*
X115123815Y-78523815D01*
X115044463Y-78620506D01*
X114985498Y-78730820D01*
X114949188Y-78850518D01*
X114936928Y-78975000D01*
X114763072Y-78975000D01*
X114750812Y-78850518D01*
X114714502Y-78730820D01*
X114655537Y-78620506D01*
X114576185Y-78523815D01*
X114479494Y-78444463D01*
X114369180Y-78385498D01*
X114249482Y-78349188D01*
X114125000Y-78336928D01*
X113275000Y-78336928D01*
X113150518Y-78349188D01*
X113030820Y-78385498D01*
X112920506Y-78444463D01*
X112823815Y-78523815D01*
X112744463Y-78620506D01*
X112685498Y-78730820D01*
X112649188Y-78850518D01*
X112636928Y-78975000D01*
X112463072Y-78975000D01*
X112450812Y-78850518D01*
X112414502Y-78730820D01*
X112355537Y-78620506D01*
X112276185Y-78523815D01*
X112179494Y-78444463D01*
X112069180Y-78385498D01*
X111949482Y-78349188D01*
X111825000Y-78336928D01*
X110975000Y-78336928D01*
X110850518Y-78349188D01*
X110730820Y-78385498D01*
X110620506Y-78444463D01*
X110523815Y-78523815D01*
X110444463Y-78620506D01*
X110385498Y-78730820D01*
X110349188Y-78850518D01*
X110336928Y-78975000D01*
X102263072Y-78975000D01*
X102250812Y-78850518D01*
X102214502Y-78730820D01*
X102155537Y-78620506D01*
X102076185Y-78523815D01*
X101979494Y-78444463D01*
X101869180Y-78385498D01*
X101749482Y-78349188D01*
X101625000Y-78336928D01*
X100775000Y-78336928D01*
X100650518Y-78349188D01*
X100530820Y-78385498D01*
X100420506Y-78444463D01*
X100323815Y-78523815D01*
X100244463Y-78620506D01*
X100185498Y-78730820D01*
X100149188Y-78850518D01*
X100136928Y-78975000D01*
X100136928Y-79825000D01*
X100149188Y-79949482D01*
X100185498Y-80069180D01*
X100187862Y-80073603D01*
X100180735Y-80090809D01*
X100140000Y-80295599D01*
X100140000Y-80504401D01*
X100180735Y-80709191D01*
X100260640Y-80902098D01*
X100376644Y-81075711D01*
X100422287Y-81121354D01*
X100401592Y-81123392D01*
X100240858Y-81172150D01*
X100092725Y-81251329D01*
X100000000Y-81327426D01*
X99907275Y-81251329D01*
X99759142Y-81172150D01*
X99598408Y-81123392D01*
X99577713Y-81121354D01*
X99623356Y-81075711D01*
X99739360Y-80902098D01*
X99819265Y-80709191D01*
X99860000Y-80504401D01*
X99860000Y-80295599D01*
X99819265Y-80090809D01*
X99812138Y-80073603D01*
X99814502Y-80069180D01*
X99850812Y-79949482D01*
X99863072Y-79825000D01*
X99863072Y-78975000D01*
X99850812Y-78850518D01*
X99814502Y-78730820D01*
X99755537Y-78620506D01*
X99676185Y-78523815D01*
X99579494Y-78444463D01*
X99469180Y-78385498D01*
X99349482Y-78349188D01*
X99225000Y-78336928D01*
X98375000Y-78336928D01*
X98250518Y-78349188D01*
X98130820Y-78385498D01*
X98020506Y-78444463D01*
X97923815Y-78523815D01*
X97844463Y-78620506D01*
X97785498Y-78730820D01*
X97749188Y-78850518D01*
X97736928Y-78975000D01*
X89663072Y-78975000D01*
X89650812Y-78850518D01*
X89614502Y-78730820D01*
X89555537Y-78620506D01*
X89476185Y-78523815D01*
X89379494Y-78444463D01*
X89269180Y-78385498D01*
X89149482Y-78349188D01*
X89025000Y-78336928D01*
X88175000Y-78336928D01*
X88050518Y-78349188D01*
X87930820Y-78385498D01*
X87820506Y-78444463D01*
X87723815Y-78523815D01*
X87644463Y-78620506D01*
X87585498Y-78730820D01*
X87549188Y-78850518D01*
X87536928Y-78975000D01*
X87363072Y-78975000D01*
X87350812Y-78850518D01*
X87314502Y-78730820D01*
X87255537Y-78620506D01*
X87176185Y-78523815D01*
X87079494Y-78444463D01*
X86969180Y-78385498D01*
X86849482Y-78349188D01*
X86725000Y-78336928D01*
X85875000Y-78336928D01*
X85750518Y-78349188D01*
X85630820Y-78385498D01*
X85520506Y-78444463D01*
X85423815Y-78523815D01*
X85344463Y-78620506D01*
X85285498Y-78730820D01*
X85249188Y-78850518D01*
X85236928Y-78975000D01*
X85063072Y-78975000D01*
X85050812Y-78850518D01*
X85014502Y-78730820D01*
X84955537Y-78620506D01*
X84876185Y-78523815D01*
X84779494Y-78444463D01*
X84669180Y-78385498D01*
X84549482Y-78349188D01*
X84425000Y-78336928D01*
X83575000Y-78336928D01*
X83450518Y-78349188D01*
X83330820Y-78385498D01*
X83220506Y-78444463D01*
X83123815Y-78523815D01*
X83044463Y-78620506D01*
X82985498Y-78730820D01*
X82949188Y-78850518D01*
X82936928Y-78975000D01*
X82763072Y-78975000D01*
X82750812Y-78850518D01*
X82714502Y-78730820D01*
X82655537Y-78620506D01*
X82576185Y-78523815D01*
X82479494Y-78444463D01*
X82369180Y-78385498D01*
X82249482Y-78349188D01*
X82125000Y-78336928D01*
X81275000Y-78336928D01*
X81150518Y-78349188D01*
X81030820Y-78385498D01*
X80920506Y-78444463D01*
X80823815Y-78523815D01*
X80744463Y-78620506D01*
X80685498Y-78730820D01*
X80649188Y-78850518D01*
X80636928Y-78975000D01*
X70634573Y-78975000D01*
X70549482Y-78949188D01*
X70425000Y-78936928D01*
X69575000Y-78936928D01*
X69450518Y-78949188D01*
X69330820Y-78985498D01*
X69326397Y-78987862D01*
X69309191Y-78980735D01*
X69104401Y-78940000D01*
X68895599Y-78940000D01*
X68690809Y-78980735D01*
X68497902Y-79060640D01*
X68324289Y-79176644D01*
X68176644Y-79324289D01*
X68060640Y-79497902D01*
X67980735Y-79690809D01*
X67940000Y-79895599D01*
X65671316Y-79895599D01*
X65689096Y-78441598D01*
X65867811Y-76171107D01*
X66196607Y-73917447D01*
X66674038Y-71690547D01*
X67298007Y-69500170D01*
X67772501Y-68175000D01*
X98336928Y-68175000D01*
X98336928Y-69025000D01*
X98349188Y-69149482D01*
X98385498Y-69269180D01*
X98444463Y-69379494D01*
X98523815Y-69476185D01*
X98620506Y-69555537D01*
X98730820Y-69614502D01*
X98850518Y-69650812D01*
X98975000Y-69663072D01*
X99825000Y-69663072D01*
X99949482Y-69650812D01*
X100069180Y-69614502D01*
X100073603Y-69612138D01*
X100090809Y-69619265D01*
X100295599Y-69660000D01*
X100504401Y-69660000D01*
X100709191Y-69619265D01*
X100902098Y-69539360D01*
X101075711Y-69423356D01*
X101223356Y-69275711D01*
X101339360Y-69102098D01*
X101419265Y-68909191D01*
X101460000Y-68704401D01*
X101460000Y-68495599D01*
X101419265Y-68290809D01*
X101339360Y-68097902D01*
X101223356Y-67924289D01*
X101075711Y-67776644D01*
X100902098Y-67660640D01*
X100709191Y-67580735D01*
X100504401Y-67540000D01*
X100295599Y-67540000D01*
X100090809Y-67580735D01*
X100073603Y-67587862D01*
X100069180Y-67585498D01*
X99949482Y-67549188D01*
X99825000Y-67536928D01*
X98975000Y-67536928D01*
X98850518Y-67549188D01*
X98730820Y-67585498D01*
X98620506Y-67644463D01*
X98523815Y-67723815D01*
X98444463Y-67820506D01*
X98385498Y-67930820D01*
X98349188Y-68050518D01*
X98336928Y-68175000D01*
X67772501Y-68175000D01*
X68065766Y-67355970D01*
X68709728Y-65875000D01*
X98336928Y-65875000D01*
X98336928Y-66725000D01*
X98349188Y-66849482D01*
X98385498Y-66969180D01*
X98444463Y-67079494D01*
X98523815Y-67176185D01*
X98620506Y-67255537D01*
X98730820Y-67314502D01*
X98850518Y-67350812D01*
X98975000Y-67363072D01*
X99825000Y-67363072D01*
X99949482Y-67350812D01*
X100069180Y-67314502D01*
X100073603Y-67312138D01*
X100090809Y-67319265D01*
X100295599Y-67360000D01*
X100504401Y-67360000D01*
X100709191Y-67319265D01*
X100902098Y-67239360D01*
X101075711Y-67123356D01*
X101223356Y-66975711D01*
X101339360Y-66802098D01*
X101419265Y-66609191D01*
X101460000Y-66404401D01*
X101460000Y-66195599D01*
X101419265Y-65990809D01*
X101339360Y-65797902D01*
X101223356Y-65624289D01*
X101075711Y-65476644D01*
X100902098Y-65360640D01*
X100709191Y-65280735D01*
X100504401Y-65240000D01*
X100295599Y-65240000D01*
X100090809Y-65280735D01*
X100073603Y-65287862D01*
X100069180Y-65285498D01*
X99949482Y-65249188D01*
X99825000Y-65236928D01*
X98975000Y-65236928D01*
X98850518Y-65249188D01*
X98730820Y-65285498D01*
X98620506Y-65344463D01*
X98523815Y-65423815D01*
X98444463Y-65520506D01*
X98385498Y-65630820D01*
X98349188Y-65750518D01*
X98336928Y-65875000D01*
X68709728Y-65875000D01*
X68973947Y-65267355D01*
X69847458Y-63575000D01*
X98336928Y-63575000D01*
X98336928Y-64425000D01*
X98349188Y-64549482D01*
X98385498Y-64669180D01*
X98444463Y-64779494D01*
X98523815Y-64876185D01*
X98620506Y-64955537D01*
X98730820Y-65014502D01*
X98850518Y-65050812D01*
X98975000Y-65063072D01*
X99825000Y-65063072D01*
X99949482Y-65050812D01*
X100069180Y-65014502D01*
X100073603Y-65012138D01*
X100090809Y-65019265D01*
X100295599Y-65060000D01*
X100504401Y-65060000D01*
X100709191Y-65019265D01*
X100902098Y-64939360D01*
X101075711Y-64823356D01*
X101223356Y-64675711D01*
X101339360Y-64502098D01*
X101419265Y-64309191D01*
X101460000Y-64104401D01*
X101460000Y-63895599D01*
X101419265Y-63690809D01*
X101339360Y-63497902D01*
X101223356Y-63324289D01*
X101075711Y-63176644D01*
X100902098Y-63060640D01*
X100709191Y-62980735D01*
X100504401Y-62940000D01*
X100295599Y-62940000D01*
X100090809Y-62980735D01*
X100073603Y-62987862D01*
X100069180Y-62985498D01*
X99949482Y-62949188D01*
X99825000Y-62936928D01*
X98975000Y-62936928D01*
X98850518Y-62949188D01*
X98730820Y-62985498D01*
X98620506Y-63044463D01*
X98523815Y-63123815D01*
X98444463Y-63220506D01*
X98385498Y-63330820D01*
X98349188Y-63450518D01*
X98336928Y-63575000D01*
X69847458Y-63575000D01*
X70018544Y-63243537D01*
X71194978Y-61293383D01*
X72498067Y-59425490D01*
X73649343Y-57988492D01*
X77032893Y-57988492D01*
X77032893Y-58197294D01*
X77073628Y-58402084D01*
X77153533Y-58594991D01*
X77269537Y-58768604D01*
X77417182Y-58916249D01*
X77590795Y-59032253D01*
X77608001Y-59039380D01*
X77609457Y-59044180D01*
X77668422Y-59154494D01*
X77747774Y-59251185D01*
X78348815Y-59852226D01*
X78445506Y-59931578D01*
X78555820Y-59990543D01*
X78675518Y-60026853D01*
X78800000Y-60039113D01*
X78924482Y-60026853D01*
X79044180Y-59990543D01*
X79154494Y-59931578D01*
X79251185Y-59852226D01*
X79435925Y-59667486D01*
X79353533Y-59790795D01*
X79273628Y-59983702D01*
X79232893Y-60188492D01*
X79232893Y-60397294D01*
X79273628Y-60602084D01*
X79353533Y-60794991D01*
X79469537Y-60968604D01*
X79617182Y-61116249D01*
X79790795Y-61232253D01*
X79808001Y-61239380D01*
X79809457Y-61244180D01*
X79868422Y-61354494D01*
X79947774Y-61451185D01*
X80548815Y-62052226D01*
X80645506Y-62131578D01*
X80755820Y-62190543D01*
X80875518Y-62226853D01*
X81000000Y-62239113D01*
X81124482Y-62226853D01*
X81244180Y-62190543D01*
X81354494Y-62131578D01*
X81451185Y-62052226D01*
X82052226Y-61451185D01*
X82131578Y-61354494D01*
X82174069Y-61275000D01*
X98336928Y-61275000D01*
X98336928Y-62125000D01*
X98349188Y-62249482D01*
X98385498Y-62369180D01*
X98444463Y-62479494D01*
X98523815Y-62576185D01*
X98620506Y-62655537D01*
X98730820Y-62714502D01*
X98850518Y-62750812D01*
X98975000Y-62763072D01*
X99825000Y-62763072D01*
X99949482Y-62750812D01*
X100069180Y-62714502D01*
X100073603Y-62712138D01*
X100090809Y-62719265D01*
X100295599Y-62760000D01*
X100504401Y-62760000D01*
X100709191Y-62719265D01*
X100902098Y-62639360D01*
X101075711Y-62523356D01*
X101223356Y-62375711D01*
X101339360Y-62202098D01*
X101419265Y-62009191D01*
X101460000Y-61804401D01*
X101460000Y-61595599D01*
X101419265Y-61390809D01*
X101339360Y-61197902D01*
X101223356Y-61024289D01*
X101199067Y-61000000D01*
X117860887Y-61000000D01*
X117873147Y-61124482D01*
X117909457Y-61244180D01*
X117968422Y-61354494D01*
X118047774Y-61451185D01*
X118648815Y-62052226D01*
X118745506Y-62131578D01*
X118855820Y-62190543D01*
X118975518Y-62226853D01*
X119100000Y-62239113D01*
X119224482Y-62226853D01*
X119344180Y-62190543D01*
X119454494Y-62131578D01*
X119551185Y-62052226D01*
X120152226Y-61451185D01*
X120231578Y-61354494D01*
X120290543Y-61244180D01*
X120291999Y-61239380D01*
X120309205Y-61232253D01*
X120482818Y-61116249D01*
X120630463Y-60968604D01*
X120746467Y-60794991D01*
X120826372Y-60602084D01*
X120867107Y-60397294D01*
X120867107Y-60188492D01*
X120826372Y-59983702D01*
X120746467Y-59790795D01*
X120664075Y-59667486D01*
X120848815Y-59852226D01*
X120945506Y-59931578D01*
X121055820Y-59990543D01*
X121175518Y-60026853D01*
X121300000Y-60039113D01*
X121424482Y-60026853D01*
X121544180Y-59990543D01*
X121654494Y-59931578D01*
X121751185Y-59852226D01*
X122352226Y-59251185D01*
X122431578Y-59154494D01*
X122490543Y-59044180D01*
X122491999Y-59039380D01*
X122509205Y-59032253D01*
X122682818Y-58916249D01*
X122830463Y-58768604D01*
X122946467Y-58594991D01*
X123026372Y-58402084D01*
X123067107Y-58197294D01*
X123067107Y-57988492D01*
X123026372Y-57783702D01*
X122946467Y-57590795D01*
X122830463Y-57417182D01*
X122682818Y-57269537D01*
X122509205Y-57153533D01*
X122316298Y-57073628D01*
X122111508Y-57032893D01*
X121902706Y-57032893D01*
X121697916Y-57073628D01*
X121505009Y-57153533D01*
X121331396Y-57269537D01*
X121183751Y-57417182D01*
X121067747Y-57590795D01*
X121060620Y-57608001D01*
X121055820Y-57609457D01*
X120945506Y-57668422D01*
X120848815Y-57747774D01*
X120247774Y-58348815D01*
X120168422Y-58445506D01*
X120109457Y-58555820D01*
X120073147Y-58675518D01*
X120060887Y-58800000D01*
X120073147Y-58924482D01*
X120109457Y-59044180D01*
X120168422Y-59154494D01*
X120247774Y-59251185D01*
X120432514Y-59435925D01*
X120309205Y-59353533D01*
X120116298Y-59273628D01*
X119911508Y-59232893D01*
X119702706Y-59232893D01*
X119497916Y-59273628D01*
X119305009Y-59353533D01*
X119131396Y-59469537D01*
X118983751Y-59617182D01*
X118867747Y-59790795D01*
X118860620Y-59808001D01*
X118855820Y-59809457D01*
X118745506Y-59868422D01*
X118648815Y-59947774D01*
X118047774Y-60548815D01*
X117968422Y-60645506D01*
X117909457Y-60755820D01*
X117873147Y-60875518D01*
X117860887Y-61000000D01*
X101199067Y-61000000D01*
X101075711Y-60876644D01*
X100902098Y-60760640D01*
X100709191Y-60680735D01*
X100504401Y-60640000D01*
X100295599Y-60640000D01*
X100090809Y-60680735D01*
X100073603Y-60687862D01*
X100069180Y-60685498D01*
X99949482Y-60649188D01*
X99825000Y-60636928D01*
X98975000Y-60636928D01*
X98850518Y-60649188D01*
X98730820Y-60685498D01*
X98620506Y-60744463D01*
X98523815Y-60823815D01*
X98444463Y-60920506D01*
X98385498Y-61030820D01*
X98349188Y-61150518D01*
X98336928Y-61275000D01*
X82174069Y-61275000D01*
X82190543Y-61244180D01*
X82226853Y-61124482D01*
X82239113Y-61000000D01*
X82226853Y-60875518D01*
X82190543Y-60755820D01*
X82131578Y-60645506D01*
X82052226Y-60548815D01*
X81451185Y-59947774D01*
X81354494Y-59868422D01*
X81244180Y-59809457D01*
X81239380Y-59808001D01*
X81232253Y-59790795D01*
X81116249Y-59617182D01*
X80968604Y-59469537D01*
X80794991Y-59353533D01*
X80602084Y-59273628D01*
X80397294Y-59232893D01*
X80188492Y-59232893D01*
X79983702Y-59273628D01*
X79790795Y-59353533D01*
X79667486Y-59435925D01*
X79852226Y-59251185D01*
X79931578Y-59154494D01*
X79990543Y-59044180D01*
X80026853Y-58924482D01*
X80039113Y-58800000D01*
X80026853Y-58675518D01*
X79990543Y-58555820D01*
X79931578Y-58445506D01*
X79852226Y-58348815D01*
X79251185Y-57747774D01*
X79154494Y-57668422D01*
X79044180Y-57609457D01*
X79039380Y-57608001D01*
X79032253Y-57590795D01*
X78916249Y-57417182D01*
X78768604Y-57269537D01*
X78594991Y-57153533D01*
X78402084Y-57073628D01*
X78197294Y-57032893D01*
X77988492Y-57032893D01*
X77783702Y-57073628D01*
X77590795Y-57153533D01*
X77417182Y-57269537D01*
X77269537Y-57417182D01*
X77153533Y-57590795D01*
X77073628Y-57783702D01*
X77032893Y-57988492D01*
X73649343Y-57988492D01*
X73922083Y-57648064D01*
X75460764Y-55968922D01*
X77107355Y-54395438D01*
X78854592Y-52934551D01*
X80694817Y-51592665D01*
X82619926Y-50375689D01*
X84278829Y-49475000D01*
X97836928Y-49475000D01*
X97836928Y-50325000D01*
X97849188Y-50449482D01*
X97885498Y-50569180D01*
X97944463Y-50679494D01*
X98023815Y-50776185D01*
X98120506Y-50855537D01*
X98230820Y-50914502D01*
X98350518Y-50950812D01*
X98475000Y-50963072D01*
X99325000Y-50963072D01*
X99449482Y-50950812D01*
X99569180Y-50914502D01*
X99679494Y-50855537D01*
X99776185Y-50776185D01*
X99855537Y-50679494D01*
X99914502Y-50569180D01*
X99950812Y-50449482D01*
X99963072Y-50325000D01*
X99963072Y-49475000D01*
X100136928Y-49475000D01*
X100136928Y-50325000D01*
X100149188Y-50449482D01*
X100185498Y-50569180D01*
X100244463Y-50679494D01*
X100323815Y-50776185D01*
X100420506Y-50855537D01*
X100530820Y-50914502D01*
X100650518Y-50950812D01*
X100775000Y-50963072D01*
X101625000Y-50963072D01*
X101749482Y-50950812D01*
X101869180Y-50914502D01*
X101979494Y-50855537D01*
X102076185Y-50776185D01*
X102155537Y-50679494D01*
X102214502Y-50569180D01*
X102250812Y-50449482D01*
X102263072Y-50325000D01*
X102263072Y-49475000D01*
X102250812Y-49350518D01*
X102214502Y-49230820D01*
X102212138Y-49226397D01*
X102219265Y-49209191D01*
X102260000Y-49004401D01*
X102260000Y-48795599D01*
X102219265Y-48590809D01*
X102139360Y-48397902D01*
X102023356Y-48224289D01*
X101875711Y-48076644D01*
X101702098Y-47960640D01*
X101509191Y-47880735D01*
X101304401Y-47840000D01*
X101095599Y-47840000D01*
X100890809Y-47880735D01*
X100697902Y-47960640D01*
X100524289Y-48076644D01*
X100376644Y-48224289D01*
X100260640Y-48397902D01*
X100180735Y-48590809D01*
X100140000Y-48795599D01*
X100140000Y-49004401D01*
X100180735Y-49209191D01*
X100187862Y-49226397D01*
X100185498Y-49230820D01*
X100149188Y-49350518D01*
X100136928Y-49475000D01*
X99963072Y-49475000D01*
X99950812Y-49350518D01*
X99914502Y-49230820D01*
X99912138Y-49226397D01*
X99919265Y-49209191D01*
X99960000Y-49004401D01*
X99960000Y-48795599D01*
X99919265Y-48590809D01*
X99839360Y-48397902D01*
X99723356Y-48224289D01*
X99575711Y-48076644D01*
X99402098Y-47960640D01*
X99209191Y-47880735D01*
X99004401Y-47840000D01*
X98795599Y-47840000D01*
X98590809Y-47880735D01*
X98397902Y-47960640D01*
X98224289Y-48076644D01*
X98076644Y-48224289D01*
X97960640Y-48397902D01*
X97880735Y-48590809D01*
X97840000Y-48795599D01*
X97840000Y-49004401D01*
X97880735Y-49209191D01*
X97887862Y-49226397D01*
X97885498Y-49230820D01*
X97849188Y-49350518D01*
X97836928Y-49475000D01*
X84278829Y-49475000D01*
X84621453Y-49288975D01*
X86690605Y-48337297D01*
X88818279Y-47524842D01*
X90995105Y-46855187D01*
X93211537Y-46331268D01*
X95457841Y-45955389D01*
X97724087Y-45729210D01*
X100000342Y-45653723D01*
X102276611Y-45729257D01*
G37*
X102276611Y-45729257D02*
X104542867Y-45955483D01*
X106789125Y-46331401D01*
X109005560Y-46855367D01*
X111182388Y-47525072D01*
X113310041Y-48337568D01*
X115379166Y-49289285D01*
X117380676Y-50376043D01*
X119305762Y-51593058D01*
X121145948Y-52934973D01*
X122893164Y-54395902D01*
X124539716Y-55969414D01*
X126078371Y-57648594D01*
X127502350Y-59426047D01*
X128805402Y-61293970D01*
X129981797Y-63244148D01*
X131026356Y-65267992D01*
X131934486Y-67356608D01*
X132702208Y-69500842D01*
X133326132Y-71691227D01*
X133803517Y-73918139D01*
X134132268Y-76171803D01*
X134310936Y-78442297D01*
X134338737Y-80719643D01*
X134215548Y-82993827D01*
X133941912Y-85254843D01*
X133519032Y-87492746D01*
X132948765Y-89697714D01*
X132233618Y-91860044D01*
X131376744Y-93970207D01*
X130381901Y-96018954D01*
X129253468Y-97997260D01*
X127996408Y-99896429D01*
X126616230Y-101708134D01*
X125119036Y-103424363D01*
X123511387Y-105037600D01*
X121800363Y-106540741D01*
X119993467Y-107927193D01*
X118088720Y-109197628D01*
X118039134Y-109229409D01*
X117945467Y-109319567D01*
X117871188Y-109426268D01*
X117819153Y-109545409D01*
X117791361Y-109672412D01*
X117788879Y-109802395D01*
X117806061Y-109898302D01*
X139197031Y-185585609D01*
X135878657Y-186768823D01*
X131942113Y-188011855D01*
X127962726Y-189109787D01*
X123945771Y-190061163D01*
X119896627Y-190864709D01*
X115820754Y-191519340D01*
X111723668Y-192024173D01*
X107610796Y-192378537D01*
X103487728Y-192581950D01*
X99359978Y-192634142D01*
X95233055Y-192535042D01*
X91112554Y-192284785D01*
X87004002Y-191883706D01*
X82912882Y-191332340D01*
X78844742Y-190631436D01*
X74805001Y-189781928D01*
X70799100Y-188784958D01*
X66832434Y-187641871D01*
X62908553Y-186353617D01*
X60802039Y-185588990D01*
X68664349Y-157774069D01*
X128905672Y-157774069D01*
X128905672Y-157987795D01*
X128947368Y-158197415D01*
X129029157Y-158394872D01*
X129147897Y-158572579D01*
X129299025Y-158723707D01*
X129476732Y-158842447D01*
X129674189Y-158924236D01*
X129883809Y-158965932D01*
X130097535Y-158965932D01*
X130307155Y-158924236D01*
X130504612Y-158842447D01*
X130682319Y-158723707D01*
X130833447Y-158572579D01*
X130952187Y-158394872D01*
X131033976Y-158197415D01*
X131075672Y-157987795D01*
X131075672Y-157774069D01*
X131033976Y-157564449D01*
X130952187Y-157366992D01*
X130833447Y-157189285D01*
X130682319Y-157038157D01*
X130504612Y-156919417D01*
X130307155Y-156837628D01*
X130097535Y-156795932D01*
X129883809Y-156795932D01*
X129674189Y-156837628D01*
X129476732Y-156919417D01*
X129299025Y-157038157D01*
X129147897Y-157189285D01*
X129029157Y-157366992D01*
X128947368Y-157564449D01*
X128905672Y-157774069D01*
X68664349Y-157774069D01*
X69479495Y-154890284D01*
X128078760Y-154890284D01*
X128078760Y-155104010D01*
X128120456Y-155313630D01*
X128202245Y-155511087D01*
X128320985Y-155688794D01*
X128472113Y-155839922D01*
X128649820Y-155958662D01*
X128847277Y-156040451D01*
X129056897Y-156082147D01*
X129270623Y-156082147D01*
X129480243Y-156040451D01*
X129677700Y-155958662D01*
X129855407Y-155839922D01*
X130006535Y-155688794D01*
X130125275Y-155511087D01*
X130207064Y-155313630D01*
X130248760Y-155104010D01*
X130248760Y-154890284D01*
X130207064Y-154680664D01*
X130125275Y-154483207D01*
X130006535Y-154305500D01*
X129855407Y-154154372D01*
X129677700Y-154035632D01*
X129480243Y-153953843D01*
X129270623Y-153912147D01*
X129056897Y-153912147D01*
X128847277Y-153953843D01*
X128649820Y-154035632D01*
X128472113Y-154154372D01*
X128320985Y-154305500D01*
X128202245Y-154483207D01*
X128120456Y-154680664D01*
X128078760Y-154890284D01*
X69479495Y-154890284D01*
X75130602Y-134898061D01*
X99752500Y-134898061D01*
X99752500Y-135101939D01*
X99792274Y-135301898D01*
X99870295Y-135490256D01*
X99983563Y-135659774D01*
X100127726Y-135803937D01*
X100297244Y-135917205D01*
X100485602Y-135995226D01*
X100685561Y-136035000D01*
X100889439Y-136035000D01*
X101089398Y-135995226D01*
X101277756Y-135917205D01*
X101447274Y-135803937D01*
X101591437Y-135659774D01*
X101704705Y-135490256D01*
X101782726Y-135301898D01*
X101822500Y-135101939D01*
X101822500Y-134898061D01*
X101782726Y-134698102D01*
X101704705Y-134509744D01*
X101591437Y-134340226D01*
X101447274Y-134196063D01*
X101277756Y-134082795D01*
X101089398Y-134004774D01*
X100889439Y-133965000D01*
X100685561Y-133965000D01*
X100485602Y-134004774D01*
X100297244Y-134082795D01*
X100127726Y-134196063D01*
X99983563Y-134340226D01*
X99870295Y-134509744D01*
X99792274Y-134698102D01*
X99752500Y-134898061D01*
X75130602Y-134898061D01*
X76698847Y-129350000D01*
X88811928Y-129350000D01*
X88811928Y-131050000D01*
X88824188Y-131174482D01*
X88860498Y-131294180D01*
X88919463Y-131404494D01*
X88998815Y-131501185D01*
X89095506Y-131580537D01*
X89205820Y-131639502D01*
X89278380Y-131661513D01*
X89146525Y-131793368D01*
X88984010Y-132036589D01*
X88872068Y-132306842D01*
X88815000Y-132593740D01*
X88815000Y-132886260D01*
X88872068Y-133173158D01*
X88984010Y-133443411D01*
X89146525Y-133686632D01*
X89353368Y-133893475D01*
X89596589Y-134055990D01*
X89866842Y-134167932D01*
X90153740Y-134225000D01*
X90446260Y-134225000D01*
X90733158Y-134167932D01*
X91003411Y-134055990D01*
X91246632Y-133893475D01*
X91453475Y-133686632D01*
X91615990Y-133443411D01*
X91727932Y-133173158D01*
X91785000Y-132886260D01*
X91785000Y-132593740D01*
X91727932Y-132306842D01*
X91615990Y-132036589D01*
X91453475Y-131793368D01*
X91321620Y-131661513D01*
X91394180Y-131639502D01*
X91504494Y-131580537D01*
X91601185Y-131501185D01*
X91680537Y-131404494D01*
X91739502Y-131294180D01*
X91775812Y-131174482D01*
X91788072Y-131050000D01*
X91788072Y-130498061D01*
X102965000Y-130498061D01*
X102965000Y-130701939D01*
X103004774Y-130901898D01*
X103082795Y-131090256D01*
X103196063Y-131259774D01*
X103340226Y-131403937D01*
X103509744Y-131517205D01*
X103698102Y-131595226D01*
X103898061Y-131635000D01*
X104101939Y-131635000D01*
X104301898Y-131595226D01*
X104490256Y-131517205D01*
X104659774Y-131403937D01*
X104803937Y-131259774D01*
X104917205Y-131090256D01*
X104995226Y-130901898D01*
X105035000Y-130701939D01*
X105035000Y-130498061D01*
X104995226Y-130298102D01*
X104917205Y-130109744D01*
X104803937Y-129940226D01*
X104659774Y-129796063D01*
X104490256Y-129682795D01*
X104301898Y-129604774D01*
X104101939Y-129565000D01*
X103898061Y-129565000D01*
X103698102Y-129604774D01*
X103509744Y-129682795D01*
X103340226Y-129796063D01*
X103196063Y-129940226D01*
X103082795Y-130109744D01*
X103004774Y-130298102D01*
X102965000Y-130498061D01*
X91788072Y-130498061D01*
X91788072Y-129350000D01*
X91775812Y-129225518D01*
X91739502Y-129105820D01*
X91680537Y-128995506D01*
X91601185Y-128898815D01*
X91504494Y-128819463D01*
X91394180Y-128760498D01*
X91274482Y-128724188D01*
X91150000Y-128711928D01*
X89450000Y-128711928D01*
X89325518Y-128724188D01*
X89205820Y-128760498D01*
X89095506Y-128819463D01*
X88998815Y-128898815D01*
X88919463Y-128995506D01*
X88860498Y-129105820D01*
X88824188Y-129225518D01*
X88811928Y-129350000D01*
X76698847Y-129350000D01*
X77435729Y-126743091D01*
X100953436Y-126743091D01*
X100953436Y-126946969D01*
X100993210Y-127146928D01*
X101071231Y-127335286D01*
X101184499Y-127504804D01*
X101328662Y-127648967D01*
X101498180Y-127762235D01*
X101686538Y-127840256D01*
X101886497Y-127880030D01*
X102074711Y-127880030D01*
X102132795Y-128020256D01*
X102246063Y-128189774D01*
X102390226Y-128333937D01*
X102559744Y-128447205D01*
X102748102Y-128525226D01*
X102948061Y-128565000D01*
X103151939Y-128565000D01*
X103351898Y-128525226D01*
X103540256Y-128447205D01*
X103709774Y-128333937D01*
X103853937Y-128189774D01*
X103967205Y-128020256D01*
X104045226Y-127831898D01*
X104047604Y-127819943D01*
X104107795Y-127965256D01*
X104221063Y-128134774D01*
X104365226Y-128278937D01*
X104534744Y-128392205D01*
X104723102Y-128470226D01*
X104923061Y-128510000D01*
X105126939Y-128510000D01*
X105326898Y-128470226D01*
X105515256Y-128392205D01*
X105684774Y-128278937D01*
X105828937Y-128134774D01*
X105942205Y-127965256D01*
X106020226Y-127776898D01*
X106060000Y-127576939D01*
X106060000Y-127373061D01*
X106020226Y-127173102D01*
X105942205Y-126984744D01*
X105828937Y-126815226D01*
X105684774Y-126671063D01*
X105515256Y-126557795D01*
X105326898Y-126479774D01*
X105126939Y-126440000D01*
X104923061Y-126440000D01*
X104723102Y-126479774D01*
X104534744Y-126557795D01*
X104365226Y-126671063D01*
X104221063Y-126815226D01*
X104107795Y-126984744D01*
X104029774Y-127173102D01*
X104027396Y-127185057D01*
X103967205Y-127039744D01*
X103853937Y-126870226D01*
X103709774Y-126726063D01*
X103540256Y-126612795D01*
X103351898Y-126534774D01*
X103151939Y-126495000D01*
X102963725Y-126495000D01*
X102905641Y-126354774D01*
X102792373Y-126185256D01*
X102648210Y-126041093D01*
X102478692Y-125927825D01*
X102430978Y-125908061D01*
X106215000Y-125908061D01*
X106215000Y-126111939D01*
X106254774Y-126311898D01*
X106332795Y-126500256D01*
X106446063Y-126669774D01*
X106590226Y-126813937D01*
X106759744Y-126927205D01*
X106948102Y-127005226D01*
X107148061Y-127045000D01*
X107351939Y-127045000D01*
X107551898Y-127005226D01*
X107740256Y-126927205D01*
X107909774Y-126813937D01*
X108053937Y-126669774D01*
X108167205Y-126500256D01*
X108245226Y-126311898D01*
X108285000Y-126111939D01*
X108285000Y-125982429D01*
X108446898Y-125950226D01*
X108635256Y-125872205D01*
X108804774Y-125758937D01*
X108948937Y-125614774D01*
X109062205Y-125445256D01*
X109140226Y-125256898D01*
X109180000Y-125056939D01*
X109180000Y-124853061D01*
X109140226Y-124653102D01*
X109062205Y-124464744D01*
X108948937Y-124295226D01*
X108804774Y-124151063D01*
X108635256Y-124037795D01*
X108446898Y-123959774D01*
X108246939Y-123920000D01*
X108043061Y-123920000D01*
X107843102Y-123959774D01*
X107654744Y-124037795D01*
X107485226Y-124151063D01*
X107341063Y-124295226D01*
X107227795Y-124464744D01*
X107149774Y-124653102D01*
X107110000Y-124853061D01*
X107110000Y-124982571D01*
X106948102Y-125014774D01*
X106759744Y-125092795D01*
X106590226Y-125206063D01*
X106446063Y-125350226D01*
X106332795Y-125519744D01*
X106254774Y-125708102D01*
X106215000Y-125908061D01*
X102430978Y-125908061D01*
X102290334Y-125849804D01*
X102090375Y-125810030D01*
X101886497Y-125810030D01*
X101686538Y-125849804D01*
X101498180Y-125927825D01*
X101328662Y-126041093D01*
X101184499Y-126185256D01*
X101071231Y-126354774D01*
X100993210Y-126543132D01*
X100953436Y-126743091D01*
X77435729Y-126743091D01*
X78264653Y-123810561D01*
X97265000Y-123810561D01*
X97265000Y-124014439D01*
X97304774Y-124214398D01*
X97382795Y-124402756D01*
X97496063Y-124572274D01*
X97640226Y-124716437D01*
X97809744Y-124829705D01*
X97998102Y-124907726D01*
X98198061Y-124947500D01*
X98401939Y-124947500D01*
X98601898Y-124907726D01*
X98790256Y-124829705D01*
X98959774Y-124716437D01*
X99103937Y-124572274D01*
X99217205Y-124402756D01*
X99295226Y-124214398D01*
X99335000Y-124014439D01*
X99335000Y-123810561D01*
X99295226Y-123610602D01*
X99217205Y-123422244D01*
X99103937Y-123252726D01*
X98959774Y-123108563D01*
X98790256Y-122995295D01*
X98601898Y-122917274D01*
X98401939Y-122877500D01*
X98198061Y-122877500D01*
X97998102Y-122917274D01*
X97809744Y-122995295D01*
X97640226Y-123108563D01*
X97496063Y-123252726D01*
X97382795Y-123422244D01*
X97304774Y-123610602D01*
X97265000Y-123810561D01*
X78264653Y-123810561D01*
X78986156Y-121258061D01*
X100555000Y-121258061D01*
X100555000Y-121461939D01*
X100594774Y-121661898D01*
X100672795Y-121850256D01*
X100786063Y-122019774D01*
X100897077Y-122130788D01*
X100839784Y-122269105D01*
X100800010Y-122469064D01*
X100800010Y-122672942D01*
X100839784Y-122872901D01*
X100917805Y-123061259D01*
X101031073Y-123230777D01*
X101175236Y-123374940D01*
X101343105Y-123487106D01*
X101343105Y-123512628D01*
X101364745Y-123621419D01*
X101279605Y-123706559D01*
X101166337Y-123876077D01*
X101088316Y-124064435D01*
X101048542Y-124264394D01*
X101048542Y-124468272D01*
X101088316Y-124668231D01*
X101166337Y-124856589D01*
X101279605Y-125026107D01*
X101423768Y-125170270D01*
X101593286Y-125283538D01*
X101781644Y-125361559D01*
X101981603Y-125401333D01*
X102185481Y-125401333D01*
X102385440Y-125361559D01*
X102573798Y-125283538D01*
X102743316Y-125170270D01*
X102887479Y-125026107D01*
X103000747Y-124856589D01*
X103078768Y-124668231D01*
X103118542Y-124468272D01*
X103118542Y-124264394D01*
X103096902Y-124155603D01*
X103182042Y-124070463D01*
X103295310Y-123900945D01*
X103373331Y-123712587D01*
X103413105Y-123512628D01*
X103413105Y-123308750D01*
X103373331Y-123108791D01*
X103295310Y-122920433D01*
X103182042Y-122750915D01*
X103037879Y-122606752D01*
X102870010Y-122494586D01*
X102870010Y-122469064D01*
X102830236Y-122269105D01*
X102752215Y-122080747D01*
X102638947Y-121911229D01*
X102527933Y-121800215D01*
X102585226Y-121661898D01*
X102625000Y-121461939D01*
X102625000Y-121258061D01*
X102585226Y-121058102D01*
X102507205Y-120869744D01*
X102393937Y-120700226D01*
X102354592Y-120660881D01*
X107297604Y-120660881D01*
X107297604Y-120864759D01*
X107337378Y-121064718D01*
X107415399Y-121253076D01*
X107528667Y-121422594D01*
X107672830Y-121566757D01*
X107842348Y-121680025D01*
X108030706Y-121758046D01*
X108230665Y-121797820D01*
X108434543Y-121797820D01*
X108634502Y-121758046D01*
X108644754Y-121753800D01*
X108653490Y-121762536D01*
X108823008Y-121875804D01*
X109011366Y-121953825D01*
X109211325Y-121993599D01*
X109415203Y-121993599D01*
X109615162Y-121953825D01*
X109803520Y-121875804D01*
X109973038Y-121762536D01*
X110117201Y-121618373D01*
X110230469Y-121448855D01*
X110260501Y-121376353D01*
X110450324Y-121338595D01*
X110638682Y-121260574D01*
X110808200Y-121147306D01*
X110952363Y-121003143D01*
X111065631Y-120833625D01*
X111143652Y-120645267D01*
X111183426Y-120445308D01*
X111183426Y-120241430D01*
X111143652Y-120041471D01*
X111065631Y-119853113D01*
X110952363Y-119683595D01*
X110808200Y-119539432D01*
X110638682Y-119426164D01*
X110450324Y-119348143D01*
X110250365Y-119308369D01*
X110046487Y-119308369D01*
X109846528Y-119348143D01*
X109658170Y-119426164D01*
X109488652Y-119539432D01*
X109344489Y-119683595D01*
X109231221Y-119853113D01*
X109201189Y-119925615D01*
X109011366Y-119963373D01*
X109001114Y-119967619D01*
X108992378Y-119958883D01*
X108822860Y-119845615D01*
X108634502Y-119767594D01*
X108434543Y-119727820D01*
X108230665Y-119727820D01*
X108030706Y-119767594D01*
X107842348Y-119845615D01*
X107672830Y-119958883D01*
X107528667Y-120103046D01*
X107415399Y-120272564D01*
X107337378Y-120460922D01*
X107297604Y-120660881D01*
X102354592Y-120660881D01*
X102249774Y-120556063D01*
X102080256Y-120442795D01*
X101891898Y-120364774D01*
X101691939Y-120325000D01*
X101488061Y-120325000D01*
X101288102Y-120364774D01*
X101099744Y-120442795D01*
X100930226Y-120556063D01*
X100786063Y-120700226D01*
X100672795Y-120869744D01*
X100594774Y-121058102D01*
X100555000Y-121258061D01*
X78986156Y-121258061D01*
X80051875Y-117487809D01*
X101692241Y-117487809D01*
X101692241Y-117691687D01*
X101732015Y-117891646D01*
X101810036Y-118080004D01*
X101923304Y-118249522D01*
X102067467Y-118393685D01*
X102236985Y-118506953D01*
X102425343Y-118584974D01*
X102625302Y-118624748D01*
X102829180Y-118624748D01*
X103022761Y-118586243D01*
X103044293Y-118607775D01*
X103213811Y-118721043D01*
X103402169Y-118799064D01*
X103602128Y-118838838D01*
X103806006Y-118838838D01*
X104005965Y-118799064D01*
X104194323Y-118721043D01*
X104337653Y-118625273D01*
X104524065Y-118702488D01*
X104724024Y-118742262D01*
X104927902Y-118742262D01*
X105127861Y-118702488D01*
X105316219Y-118624467D01*
X105485737Y-118511199D01*
X105621423Y-118375513D01*
X105801690Y-118450183D01*
X106001649Y-118489957D01*
X106205527Y-118489957D01*
X106405486Y-118450183D01*
X106593844Y-118372162D01*
X106763362Y-118258894D01*
X106907525Y-118114731D01*
X106967008Y-118025709D01*
X107026490Y-118114731D01*
X107170653Y-118258894D01*
X107340171Y-118372162D01*
X107528529Y-118450183D01*
X107728488Y-118489957D01*
X107932366Y-118489957D01*
X108132325Y-118450183D01*
X108320683Y-118372162D01*
X108490201Y-118258894D01*
X108634364Y-118114731D01*
X108747632Y-117945213D01*
X108781258Y-117864034D01*
X108814883Y-117945213D01*
X108928151Y-118114731D01*
X109072314Y-118258894D01*
X109241832Y-118372162D01*
X109430190Y-118450183D01*
X109630149Y-118489957D01*
X109834027Y-118489957D01*
X110033986Y-118450183D01*
X110222344Y-118372162D01*
X110391862Y-118258894D01*
X110536025Y-118114731D01*
X110648600Y-117946250D01*
X110673306Y-117946250D01*
X110873265Y-117906476D01*
X111061623Y-117828455D01*
X111231141Y-117715187D01*
X111375304Y-117571024D01*
X111488572Y-117401506D01*
X111566593Y-117213148D01*
X111606367Y-117013189D01*
X111606367Y-116809311D01*
X111566593Y-116609352D01*
X111488572Y-116420994D01*
X111375304Y-116251476D01*
X111231141Y-116107313D01*
X111061623Y-115994045D01*
X110873265Y-115916024D01*
X110673306Y-115876250D01*
X110657578Y-115876250D01*
X110657578Y-115840040D01*
X110617804Y-115640081D01*
X110552499Y-115482421D01*
X110565515Y-115487813D01*
X110765474Y-115527587D01*
X110969352Y-115527587D01*
X111169311Y-115487813D01*
X111357669Y-115409792D01*
X111527187Y-115296524D01*
X111671350Y-115152361D01*
X111784618Y-114982843D01*
X111862639Y-114794485D01*
X111902413Y-114594526D01*
X111902413Y-114390648D01*
X111862639Y-114190689D01*
X111784618Y-114002331D01*
X111671350Y-113832813D01*
X111527187Y-113688650D01*
X111357669Y-113575382D01*
X111169311Y-113497361D01*
X110969352Y-113457587D01*
X110765474Y-113457587D01*
X110565515Y-113497361D01*
X110377157Y-113575382D01*
X110207639Y-113688650D01*
X110063476Y-113832813D01*
X109950208Y-114002331D01*
X109872187Y-114190689D01*
X109832413Y-114390648D01*
X109832413Y-114594526D01*
X109872187Y-114794485D01*
X109937492Y-114952145D01*
X109924476Y-114946753D01*
X109724517Y-114906979D01*
X109520639Y-114906979D01*
X109320680Y-114946753D01*
X109132322Y-115024774D01*
X108962804Y-115138042D01*
X108818641Y-115282205D01*
X108705373Y-115451723D01*
X108627352Y-115640081D01*
X108587578Y-115840040D01*
X108587578Y-116043918D01*
X108627352Y-116243877D01*
X108705373Y-116432235D01*
X108818641Y-116601753D01*
X108962804Y-116745916D01*
X108971564Y-116751770D01*
X108928151Y-116795183D01*
X108814883Y-116964701D01*
X108781258Y-117045880D01*
X108747632Y-116964701D01*
X108634364Y-116795183D01*
X108490201Y-116651020D01*
X108320683Y-116537752D01*
X108132325Y-116459731D01*
X107932366Y-116419957D01*
X107728488Y-116419957D01*
X107528529Y-116459731D01*
X107340171Y-116537752D01*
X107170653Y-116651020D01*
X107026490Y-116795183D01*
X106967008Y-116884205D01*
X106907525Y-116795183D01*
X106763362Y-116651020D01*
X106593844Y-116537752D01*
X106405486Y-116459731D01*
X106205527Y-116419957D01*
X106001649Y-116419957D01*
X105801690Y-116459731D01*
X105613332Y-116537752D01*
X105443814Y-116651020D01*
X105308128Y-116786706D01*
X105127861Y-116712036D01*
X104927902Y-116672262D01*
X104724024Y-116672262D01*
X104524065Y-116712036D01*
X104335707Y-116790057D01*
X104192377Y-116885827D01*
X104005965Y-116808612D01*
X103806006Y-116768838D01*
X103602128Y-116768838D01*
X103408547Y-116807343D01*
X103387015Y-116785811D01*
X103217497Y-116672543D01*
X103029139Y-116594522D01*
X102829180Y-116554748D01*
X102625302Y-116554748D01*
X102425343Y-116594522D01*
X102236985Y-116672543D01*
X102067467Y-116785811D01*
X101923304Y-116929974D01*
X101810036Y-117099492D01*
X101732015Y-117287850D01*
X101692241Y-117487809D01*
X80051875Y-117487809D01*
X81484917Y-112418061D01*
X100805000Y-112418061D01*
X100805000Y-112621939D01*
X100844774Y-112821898D01*
X100922795Y-113010256D01*
X101036063Y-113179774D01*
X101180226Y-113323937D01*
X101349744Y-113437205D01*
X101538102Y-113515226D01*
X101738061Y-113555000D01*
X101941939Y-113555000D01*
X102141898Y-113515226D01*
X102330256Y-113437205D01*
X102499774Y-113323937D01*
X102643937Y-113179774D01*
X102757205Y-113010256D01*
X102835226Y-112821898D01*
X102875000Y-112621939D01*
X102875000Y-112418061D01*
X102835226Y-112218102D01*
X102757205Y-112029744D01*
X102643937Y-111860226D01*
X102499774Y-111716063D01*
X102330256Y-111602795D01*
X102141898Y-111524774D01*
X101941939Y-111485000D01*
X101738061Y-111485000D01*
X101538102Y-111524774D01*
X101349744Y-111602795D01*
X101180226Y-111716063D01*
X101036063Y-111860226D01*
X100922795Y-112029744D01*
X100844774Y-112218102D01*
X100805000Y-112418061D01*
X81484917Y-112418061D01*
X81853796Y-111113061D01*
X84990000Y-111113061D01*
X84990000Y-111316939D01*
X85029774Y-111516898D01*
X85107795Y-111705256D01*
X85221063Y-111874774D01*
X85365226Y-112018937D01*
X85534744Y-112132205D01*
X85723102Y-112210226D01*
X85923061Y-112250000D01*
X86126939Y-112250000D01*
X86326898Y-112210226D01*
X86515256Y-112132205D01*
X86684774Y-112018937D01*
X86828937Y-111874774D01*
X86942205Y-111705256D01*
X87020226Y-111516898D01*
X87060000Y-111316939D01*
X87060000Y-111113061D01*
X87020226Y-110913102D01*
X86942205Y-110724744D01*
X86828937Y-110555226D01*
X86684774Y-110411063D01*
X86515256Y-110297795D01*
X86326898Y-110219774D01*
X86126939Y-110180000D01*
X85923061Y-110180000D01*
X85723102Y-110219774D01*
X85534744Y-110297795D01*
X85365226Y-110411063D01*
X85221063Y-110555226D01*
X85107795Y-110724744D01*
X85029774Y-110913102D01*
X84990000Y-111113061D01*
X81853796Y-111113061D01*
X82196678Y-109900029D01*
X82213863Y-109804123D01*
X82211386Y-109674138D01*
X82183599Y-109547134D01*
X82152098Y-109475000D01*
X98876928Y-109475000D01*
X98876928Y-110325000D01*
X98889188Y-110449482D01*
X98925498Y-110569180D01*
X98984463Y-110679494D01*
X99063815Y-110776185D01*
X99160506Y-110855537D01*
X99270820Y-110914502D01*
X99390518Y-110950812D01*
X99515000Y-110963072D01*
X100365000Y-110963072D01*
X100489482Y-110950812D01*
X100609180Y-110914502D01*
X100719494Y-110855537D01*
X100816185Y-110776185D01*
X100895537Y-110679494D01*
X100954502Y-110569180D01*
X100990812Y-110449482D01*
X101003072Y-110325000D01*
X101003072Y-109475000D01*
X100990812Y-109350518D01*
X100954502Y-109230820D01*
X100895537Y-109120506D01*
X100816185Y-109023815D01*
X100719494Y-108944463D01*
X100609180Y-108885498D01*
X100489482Y-108849188D01*
X100365000Y-108836928D01*
X99515000Y-108836928D01*
X99390518Y-108849188D01*
X99270820Y-108885498D01*
X99160506Y-108944463D01*
X99063815Y-109023815D01*
X98984463Y-109120506D01*
X98925498Y-109230820D01*
X98889188Y-109350518D01*
X98876928Y-109475000D01*
X82152098Y-109475000D01*
X82131568Y-109427991D01*
X82057294Y-109321288D01*
X81963630Y-109231126D01*
X81914020Y-109199327D01*
X80005958Y-107926780D01*
X78199100Y-106540299D01*
X76488097Y-105037116D01*
X75402859Y-103948061D01*
X110075000Y-103948061D01*
X110075000Y-104151939D01*
X110114774Y-104351898D01*
X110192795Y-104540256D01*
X110306063Y-104709774D01*
X110450226Y-104853937D01*
X110619744Y-104967205D01*
X110808102Y-105045226D01*
X111008061Y-105085000D01*
X111211939Y-105085000D01*
X111411898Y-105045226D01*
X111600256Y-104967205D01*
X111769774Y-104853937D01*
X111913937Y-104709774D01*
X112027205Y-104540256D01*
X112105226Y-104351898D01*
X112145000Y-104151939D01*
X112145000Y-103948061D01*
X112105226Y-103748102D01*
X112027205Y-103559744D01*
X111913937Y-103390226D01*
X111769774Y-103246063D01*
X111600256Y-103132795D01*
X111411898Y-103054774D01*
X111211939Y-103015000D01*
X111008061Y-103015000D01*
X110808102Y-103054774D01*
X110619744Y-103132795D01*
X110450226Y-103246063D01*
X110306063Y-103390226D01*
X110192795Y-103559744D01*
X110114774Y-103748102D01*
X110075000Y-103948061D01*
X75402859Y-103948061D01*
X74880489Y-103423854D01*
X73383330Y-101707593D01*
X73379608Y-101702706D01*
X77032893Y-101702706D01*
X77032893Y-101911508D01*
X77073628Y-102116298D01*
X77153533Y-102309205D01*
X77269537Y-102482818D01*
X77417182Y-102630463D01*
X77590795Y-102746467D01*
X77783702Y-102826372D01*
X77988492Y-102867107D01*
X78197294Y-102867107D01*
X78402084Y-102826372D01*
X78594991Y-102746467D01*
X78768604Y-102630463D01*
X78916249Y-102482818D01*
X79032253Y-102309205D01*
X79039380Y-102291999D01*
X79044180Y-102290543D01*
X79154494Y-102231578D01*
X79251185Y-102152226D01*
X79852226Y-101551185D01*
X79931578Y-101454494D01*
X79990543Y-101344180D01*
X80026853Y-101224482D01*
X80039113Y-101100000D01*
X80026853Y-100975518D01*
X79990543Y-100855820D01*
X79931578Y-100745506D01*
X79852226Y-100648815D01*
X79667486Y-100464075D01*
X79790795Y-100546467D01*
X79983702Y-100626372D01*
X80188492Y-100667107D01*
X80397294Y-100667107D01*
X80602084Y-100626372D01*
X80794991Y-100546467D01*
X80968604Y-100430463D01*
X81116249Y-100282818D01*
X81232253Y-100109205D01*
X81239380Y-100091999D01*
X81244180Y-100090543D01*
X81354494Y-100031578D01*
X81451185Y-99952226D01*
X82052226Y-99351185D01*
X82131578Y-99254494D01*
X82190543Y-99144180D01*
X82226853Y-99024482D01*
X82239113Y-98900000D01*
X82226853Y-98775518D01*
X82190543Y-98655820D01*
X82131578Y-98545506D01*
X82052226Y-98448815D01*
X81478411Y-97875000D01*
X98336928Y-97875000D01*
X98336928Y-98725000D01*
X98349188Y-98849482D01*
X98385498Y-98969180D01*
X98444463Y-99079494D01*
X98523815Y-99176185D01*
X98620506Y-99255537D01*
X98730820Y-99314502D01*
X98850518Y-99350812D01*
X98975000Y-99363072D01*
X99825000Y-99363072D01*
X99949482Y-99350812D01*
X100069180Y-99314502D01*
X100073603Y-99312138D01*
X100090809Y-99319265D01*
X100295599Y-99360000D01*
X100504401Y-99360000D01*
X100709191Y-99319265D01*
X100902098Y-99239360D01*
X101075711Y-99123356D01*
X101199067Y-99000000D01*
X117760887Y-99000000D01*
X117773147Y-99124482D01*
X117809457Y-99244180D01*
X117868422Y-99354494D01*
X117947774Y-99451185D01*
X118548815Y-100052226D01*
X118645506Y-100131578D01*
X118755820Y-100190543D01*
X118760620Y-100191999D01*
X118767747Y-100209205D01*
X118883751Y-100382818D01*
X119031396Y-100530463D01*
X119205009Y-100646467D01*
X119397916Y-100726372D01*
X119602706Y-100767107D01*
X119811508Y-100767107D01*
X120016298Y-100726372D01*
X120209205Y-100646467D01*
X120332514Y-100564075D01*
X120147774Y-100748815D01*
X120068422Y-100845506D01*
X120009457Y-100955820D01*
X119973147Y-101075518D01*
X119960887Y-101200000D01*
X119973147Y-101324482D01*
X120009457Y-101444180D01*
X120068422Y-101554494D01*
X120147774Y-101651185D01*
X120748815Y-102252226D01*
X120845506Y-102331578D01*
X120955820Y-102390543D01*
X120960620Y-102391999D01*
X120967747Y-102409205D01*
X121083751Y-102582818D01*
X121231396Y-102730463D01*
X121405009Y-102846467D01*
X121597916Y-102926372D01*
X121802706Y-102967107D01*
X122011508Y-102967107D01*
X122216298Y-102926372D01*
X122409205Y-102846467D01*
X122582818Y-102730463D01*
X122730463Y-102582818D01*
X122846467Y-102409205D01*
X122926372Y-102216298D01*
X122967107Y-102011508D01*
X122967107Y-101802706D01*
X122926372Y-101597916D01*
X122846467Y-101405009D01*
X122730463Y-101231396D01*
X122582818Y-101083751D01*
X122409205Y-100967747D01*
X122391999Y-100960620D01*
X122390543Y-100955820D01*
X122331578Y-100845506D01*
X122252226Y-100748815D01*
X121651185Y-100147774D01*
X121554494Y-100068422D01*
X121444180Y-100009457D01*
X121324482Y-99973147D01*
X121200000Y-99960887D01*
X121075518Y-99973147D01*
X120955820Y-100009457D01*
X120845506Y-100068422D01*
X120748815Y-100147774D01*
X120564075Y-100332514D01*
X120646467Y-100209205D01*
X120726372Y-100016298D01*
X120767107Y-99811508D01*
X120767107Y-99602706D01*
X120726372Y-99397916D01*
X120646467Y-99205009D01*
X120530463Y-99031396D01*
X120382818Y-98883751D01*
X120209205Y-98767747D01*
X120191999Y-98760620D01*
X120190543Y-98755820D01*
X120131578Y-98645506D01*
X120052226Y-98548815D01*
X119451185Y-97947774D01*
X119354494Y-97868422D01*
X119244180Y-97809457D01*
X119124482Y-97773147D01*
X119000000Y-97760887D01*
X118875518Y-97773147D01*
X118755820Y-97809457D01*
X118645506Y-97868422D01*
X118548815Y-97947774D01*
X117947774Y-98548815D01*
X117868422Y-98645506D01*
X117809457Y-98755820D01*
X117773147Y-98875518D01*
X117760887Y-99000000D01*
X101199067Y-99000000D01*
X101223356Y-98975711D01*
X101339360Y-98802098D01*
X101419265Y-98609191D01*
X101460000Y-98404401D01*
X101460000Y-98195599D01*
X101419265Y-97990809D01*
X101339360Y-97797902D01*
X101223356Y-97624289D01*
X101075711Y-97476644D01*
X100902098Y-97360640D01*
X100709191Y-97280735D01*
X100504401Y-97240000D01*
X100295599Y-97240000D01*
X100090809Y-97280735D01*
X100073603Y-97287862D01*
X100069180Y-97285498D01*
X99949482Y-97249188D01*
X99825000Y-97236928D01*
X98975000Y-97236928D01*
X98850518Y-97249188D01*
X98730820Y-97285498D01*
X98620506Y-97344463D01*
X98523815Y-97423815D01*
X98444463Y-97520506D01*
X98385498Y-97630820D01*
X98349188Y-97750518D01*
X98336928Y-97875000D01*
X81478411Y-97875000D01*
X81451185Y-97847774D01*
X81354494Y-97768422D01*
X81244180Y-97709457D01*
X81124482Y-97673147D01*
X81000000Y-97660887D01*
X80875518Y-97673147D01*
X80755820Y-97709457D01*
X80645506Y-97768422D01*
X80548815Y-97847774D01*
X79947774Y-98448815D01*
X79868422Y-98545506D01*
X79809457Y-98655820D01*
X79808001Y-98660620D01*
X79790795Y-98667747D01*
X79617182Y-98783751D01*
X79469537Y-98931396D01*
X79353533Y-99105009D01*
X79273628Y-99297916D01*
X79232893Y-99502706D01*
X79232893Y-99711508D01*
X79273628Y-99916298D01*
X79353533Y-100109205D01*
X79435925Y-100232514D01*
X79251185Y-100047774D01*
X79154494Y-99968422D01*
X79044180Y-99909457D01*
X78924482Y-99873147D01*
X78800000Y-99860887D01*
X78675518Y-99873147D01*
X78555820Y-99909457D01*
X78445506Y-99968422D01*
X78348815Y-100047774D01*
X77747774Y-100648815D01*
X77668422Y-100745506D01*
X77609457Y-100855820D01*
X77608001Y-100860620D01*
X77590795Y-100867747D01*
X77417182Y-100983751D01*
X77269537Y-101131396D01*
X77153533Y-101305009D01*
X77073628Y-101497916D01*
X77032893Y-101702706D01*
X73379608Y-101702706D01*
X72003188Y-99895860D01*
X70746168Y-97996670D01*
X69617773Y-96018335D01*
X69402507Y-95575000D01*
X98336928Y-95575000D01*
X98336928Y-96425000D01*
X98349188Y-96549482D01*
X98385498Y-96669180D01*
X98444463Y-96779494D01*
X98523815Y-96876185D01*
X98620506Y-96955537D01*
X98730820Y-97014502D01*
X98850518Y-97050812D01*
X98975000Y-97063072D01*
X99825000Y-97063072D01*
X99949482Y-97050812D01*
X100069180Y-97014502D01*
X100073603Y-97012138D01*
X100090809Y-97019265D01*
X100295599Y-97060000D01*
X100504401Y-97060000D01*
X100709191Y-97019265D01*
X100902098Y-96939360D01*
X101075711Y-96823356D01*
X101223356Y-96675711D01*
X101339360Y-96502098D01*
X101419265Y-96309191D01*
X101460000Y-96104401D01*
X101460000Y-95895599D01*
X101419265Y-95690809D01*
X101339360Y-95497902D01*
X101223356Y-95324289D01*
X101075711Y-95176644D01*
X100902098Y-95060640D01*
X100709191Y-94980735D01*
X100504401Y-94940000D01*
X100295599Y-94940000D01*
X100090809Y-94980735D01*
X100073603Y-94987862D01*
X100069180Y-94985498D01*
X99949482Y-94949188D01*
X99825000Y-94936928D01*
X98975000Y-94936928D01*
X98850518Y-94949188D01*
X98730820Y-94985498D01*
X98620506Y-95044463D01*
X98523815Y-95123815D01*
X98444463Y-95220506D01*
X98385498Y-95330820D01*
X98349188Y-95450518D01*
X98336928Y-95575000D01*
X69402507Y-95575000D01*
X68622975Y-93969575D01*
X68340946Y-93275000D01*
X98336928Y-93275000D01*
X98336928Y-94125000D01*
X98349188Y-94249482D01*
X98385498Y-94369180D01*
X98444463Y-94479494D01*
X98523815Y-94576185D01*
X98620506Y-94655537D01*
X98730820Y-94714502D01*
X98850518Y-94750812D01*
X98975000Y-94763072D01*
X99825000Y-94763072D01*
X99949482Y-94750812D01*
X100069180Y-94714502D01*
X100073603Y-94712138D01*
X100090809Y-94719265D01*
X100295599Y-94760000D01*
X100504401Y-94760000D01*
X100709191Y-94719265D01*
X100902098Y-94639360D01*
X101075711Y-94523356D01*
X101223356Y-94375711D01*
X101339360Y-94202098D01*
X101419265Y-94009191D01*
X101460000Y-93804401D01*
X101460000Y-93595599D01*
X101419265Y-93390809D01*
X101339360Y-93197902D01*
X101223356Y-93024289D01*
X101075711Y-92876644D01*
X100902098Y-92760640D01*
X100709191Y-92680735D01*
X100504401Y-92640000D01*
X100295599Y-92640000D01*
X100090809Y-92680735D01*
X100073603Y-92687862D01*
X100069180Y-92685498D01*
X99949482Y-92649188D01*
X99825000Y-92636928D01*
X98975000Y-92636928D01*
X98850518Y-92649188D01*
X98730820Y-92685498D01*
X98620506Y-92744463D01*
X98523815Y-92823815D01*
X98444463Y-92920506D01*
X98385498Y-93030820D01*
X98349188Y-93150518D01*
X98336928Y-93275000D01*
X68340946Y-93275000D01*
X67766140Y-91859386D01*
X67473668Y-90975000D01*
X98336928Y-90975000D01*
X98336928Y-91825000D01*
X98349188Y-91949482D01*
X98385498Y-92069180D01*
X98444463Y-92179494D01*
X98523815Y-92276185D01*
X98620506Y-92355537D01*
X98730820Y-92414502D01*
X98850518Y-92450812D01*
X98975000Y-92463072D01*
X99825000Y-92463072D01*
X99949482Y-92450812D01*
X100069180Y-92414502D01*
X100073603Y-92412138D01*
X100090809Y-92419265D01*
X100295599Y-92460000D01*
X100504401Y-92460000D01*
X100709191Y-92419265D01*
X100902098Y-92339360D01*
X101075711Y-92223356D01*
X101223356Y-92075711D01*
X101339360Y-91902098D01*
X101419265Y-91709191D01*
X101460000Y-91504401D01*
X101460000Y-91295599D01*
X101419265Y-91090809D01*
X101339360Y-90897902D01*
X101223356Y-90724289D01*
X101075711Y-90576644D01*
X100902098Y-90460640D01*
X100709191Y-90380735D01*
X100504401Y-90340000D01*
X100295599Y-90340000D01*
X100090809Y-90380735D01*
X100073603Y-90387862D01*
X100069180Y-90385498D01*
X99949482Y-90349188D01*
X99825000Y-90336928D01*
X98975000Y-90336928D01*
X98850518Y-90349188D01*
X98730820Y-90385498D01*
X98620506Y-90444463D01*
X98523815Y-90523815D01*
X98444463Y-90620506D01*
X98385498Y-90730820D01*
X98349188Y-90850518D01*
X98336928Y-90975000D01*
X67473668Y-90975000D01*
X67051036Y-89697037D01*
X66480817Y-87492073D01*
X66407493Y-87103994D01*
X83627336Y-87103994D01*
X83627336Y-87307872D01*
X83667110Y-87507831D01*
X83745131Y-87696189D01*
X83858399Y-87865707D01*
X84002562Y-88009870D01*
X84172080Y-88123138D01*
X84360438Y-88201159D01*
X84560397Y-88240933D01*
X84764275Y-88240933D01*
X84964234Y-88201159D01*
X85152592Y-88123138D01*
X85322110Y-88009870D01*
X85466273Y-87865707D01*
X85579541Y-87696189D01*
X85657562Y-87507831D01*
X85697336Y-87307872D01*
X85697336Y-87103994D01*
X85657562Y-86904035D01*
X85579541Y-86715677D01*
X85466273Y-86546159D01*
X85322110Y-86401996D01*
X85152592Y-86288728D01*
X84964234Y-86210707D01*
X84764275Y-86170933D01*
X84560397Y-86170933D01*
X84360438Y-86210707D01*
X84172080Y-86288728D01*
X84002562Y-86401996D01*
X83858399Y-86546159D01*
X83745131Y-86715677D01*
X83667110Y-86904035D01*
X83627336Y-87103994D01*
X66407493Y-87103994D01*
X66057981Y-85254149D01*
X65784390Y-82993128D01*
X65661249Y-80718943D01*
X65671316Y-79895599D01*
X67940000Y-79895599D01*
X67940000Y-80104401D01*
X67980735Y-80309191D01*
X68060640Y-80502098D01*
X68176644Y-80675711D01*
X68324289Y-80823356D01*
X68497902Y-80939360D01*
X68690809Y-81019265D01*
X68895599Y-81060000D01*
X69104401Y-81060000D01*
X69309191Y-81019265D01*
X69326397Y-81012138D01*
X69330820Y-81014502D01*
X69450518Y-81050812D01*
X69575000Y-81063072D01*
X70425000Y-81063072D01*
X70549482Y-81050812D01*
X70669180Y-81014502D01*
X70779494Y-80955537D01*
X70876185Y-80876185D01*
X70955537Y-80779494D01*
X71014502Y-80669180D01*
X71050812Y-80549482D01*
X71063072Y-80425000D01*
X71063072Y-79575000D01*
X71050812Y-79450518D01*
X71014502Y-79330820D01*
X70955537Y-79220506D01*
X70876185Y-79123815D01*
X70779494Y-79044463D01*
X70669180Y-78985498D01*
X70634573Y-78975000D01*
X80636928Y-78975000D01*
X80636928Y-79825000D01*
X80649188Y-79949482D01*
X80685498Y-80069180D01*
X80687862Y-80073603D01*
X80680735Y-80090809D01*
X80640000Y-80295599D01*
X80640000Y-80504401D01*
X80680735Y-80709191D01*
X80760640Y-80902098D01*
X80876644Y-81075711D01*
X81024289Y-81223356D01*
X81197902Y-81339360D01*
X81390809Y-81419265D01*
X81595599Y-81460000D01*
X81804401Y-81460000D01*
X82009191Y-81419265D01*
X82202098Y-81339360D01*
X82375711Y-81223356D01*
X82523356Y-81075711D01*
X82639360Y-80902098D01*
X82719265Y-80709191D01*
X82760000Y-80504401D01*
X82760000Y-80295599D01*
X82719265Y-80090809D01*
X82712138Y-80073603D01*
X82714502Y-80069180D01*
X82750812Y-79949482D01*
X82763072Y-79825000D01*
X82763072Y-78975000D01*
X82936928Y-78975000D01*
X82936928Y-79825000D01*
X82949188Y-79949482D01*
X82985498Y-80069180D01*
X82987862Y-80073603D01*
X82980735Y-80090809D01*
X82940000Y-80295599D01*
X82940000Y-80504401D01*
X82980735Y-80709191D01*
X83060640Y-80902098D01*
X83176644Y-81075711D01*
X83324289Y-81223356D01*
X83497902Y-81339360D01*
X83690809Y-81419265D01*
X83895599Y-81460000D01*
X84104401Y-81460000D01*
X84309191Y-81419265D01*
X84502098Y-81339360D01*
X84675711Y-81223356D01*
X84823356Y-81075711D01*
X84939360Y-80902098D01*
X85019265Y-80709191D01*
X85060000Y-80504401D01*
X85060000Y-80295599D01*
X85019265Y-80090809D01*
X85012138Y-80073603D01*
X85014502Y-80069180D01*
X85050812Y-79949482D01*
X85063072Y-79825000D01*
X85063072Y-78975000D01*
X85236928Y-78975000D01*
X85236928Y-79825000D01*
X85249188Y-79949482D01*
X85285498Y-80069180D01*
X85287862Y-80073603D01*
X85280735Y-80090809D01*
X85240000Y-80295599D01*
X85240000Y-80504401D01*
X85280735Y-80709191D01*
X85360640Y-80902098D01*
X85476644Y-81075711D01*
X85624289Y-81223356D01*
X85797902Y-81339360D01*
X85990809Y-81419265D01*
X86195599Y-81460000D01*
X86404401Y-81460000D01*
X86609191Y-81419265D01*
X86802098Y-81339360D01*
X86975711Y-81223356D01*
X87123356Y-81075711D01*
X87239360Y-80902098D01*
X87319265Y-80709191D01*
X87360000Y-80504401D01*
X87360000Y-80295599D01*
X87319265Y-80090809D01*
X87312138Y-80073603D01*
X87314502Y-80069180D01*
X87350812Y-79949482D01*
X87363072Y-79825000D01*
X87363072Y-78975000D01*
X87536928Y-78975000D01*
X87536928Y-79825000D01*
X87549188Y-79949482D01*
X87585498Y-80069180D01*
X87587862Y-80073603D01*
X87580735Y-80090809D01*
X87540000Y-80295599D01*
X87540000Y-80504401D01*
X87580735Y-80709191D01*
X87660640Y-80902098D01*
X87776644Y-81075711D01*
X87924289Y-81223356D01*
X88097902Y-81339360D01*
X88290809Y-81419265D01*
X88495599Y-81460000D01*
X88704401Y-81460000D01*
X88909191Y-81419265D01*
X89102098Y-81339360D01*
X89275711Y-81223356D01*
X89423356Y-81075711D01*
X89539360Y-80902098D01*
X89619265Y-80709191D01*
X89660000Y-80504401D01*
X89660000Y-80295599D01*
X89619265Y-80090809D01*
X89612138Y-80073603D01*
X89614502Y-80069180D01*
X89650812Y-79949482D01*
X89663072Y-79825000D01*
X89663072Y-78975000D01*
X97736928Y-78975000D01*
X97736928Y-79825000D01*
X97749188Y-79949482D01*
X97785498Y-80069180D01*
X97787862Y-80073603D01*
X97780735Y-80090809D01*
X97740000Y-80295599D01*
X97740000Y-80504401D01*
X97780735Y-80709191D01*
X97860640Y-80902098D01*
X97976644Y-81075711D01*
X98124289Y-81223356D01*
X98297902Y-81339360D01*
X98376403Y-81371876D01*
X98281329Y-81487725D01*
X98202150Y-81635858D01*
X98153392Y-81796592D01*
X98136928Y-81963750D01*
X98136928Y-82476250D01*
X98153392Y-82643408D01*
X98202150Y-82804142D01*
X98281329Y-82952275D01*
X98387885Y-83082115D01*
X98517725Y-83188671D01*
X98665858Y-83267850D01*
X98826592Y-83316608D01*
X98993750Y-83333072D01*
X99431250Y-83333072D01*
X99598408Y-83316608D01*
X99759142Y-83267850D01*
X99907275Y-83188671D01*
X100000000Y-83112574D01*
X100092725Y-83188671D01*
X100240858Y-83267850D01*
X100401592Y-83316608D01*
X100568750Y-83333072D01*
X101006250Y-83333072D01*
X101173408Y-83316608D01*
X101334142Y-83267850D01*
X101482275Y-83188671D01*
X101612115Y-83082115D01*
X101718671Y-82952275D01*
X101797850Y-82804142D01*
X101846608Y-82643408D01*
X101863072Y-82476250D01*
X101863072Y-81963750D01*
X101846608Y-81796592D01*
X101797850Y-81635858D01*
X101718671Y-81487725D01*
X101623597Y-81371876D01*
X101702098Y-81339360D01*
X101875711Y-81223356D01*
X102023356Y-81075711D01*
X102139360Y-80902098D01*
X102219265Y-80709191D01*
X102260000Y-80504401D01*
X102260000Y-80295599D01*
X102219265Y-80090809D01*
X102212138Y-80073603D01*
X102214502Y-80069180D01*
X102250812Y-79949482D01*
X102263072Y-79825000D01*
X102263072Y-78975000D01*
X110336928Y-78975000D01*
X110336928Y-79825000D01*
X110349188Y-79949482D01*
X110385498Y-80069180D01*
X110387862Y-80073603D01*
X110380735Y-80090809D01*
X110340000Y-80295599D01*
X110340000Y-80504401D01*
X110380735Y-80709191D01*
X110460640Y-80902098D01*
X110576644Y-81075711D01*
X110724289Y-81223356D01*
X110897902Y-81339360D01*
X111090809Y-81419265D01*
X111295599Y-81460000D01*
X111504401Y-81460000D01*
X111709191Y-81419265D01*
X111902098Y-81339360D01*
X112075711Y-81223356D01*
X112223356Y-81075711D01*
X112339360Y-80902098D01*
X112419265Y-80709191D01*
X112460000Y-80504401D01*
X112460000Y-80295599D01*
X112419265Y-80090809D01*
X112412138Y-80073603D01*
X112414502Y-80069180D01*
X112450812Y-79949482D01*
X112463072Y-79825000D01*
X112463072Y-78975000D01*
X112636928Y-78975000D01*
X112636928Y-79825000D01*
X112649188Y-79949482D01*
X112685498Y-80069180D01*
X112687862Y-80073603D01*
X112680735Y-80090809D01*
X112640000Y-80295599D01*
X112640000Y-80504401D01*
X112680735Y-80709191D01*
X112760640Y-80902098D01*
X112876644Y-81075711D01*
X113024289Y-81223356D01*
X113197902Y-81339360D01*
X113390809Y-81419265D01*
X113595599Y-81460000D01*
X113804401Y-81460000D01*
X114009191Y-81419265D01*
X114202098Y-81339360D01*
X114375711Y-81223356D01*
X114523356Y-81075711D01*
X114639360Y-80902098D01*
X114719265Y-80709191D01*
X114760000Y-80504401D01*
X114760000Y-80295599D01*
X114719265Y-80090809D01*
X114712138Y-80073603D01*
X114714502Y-80069180D01*
X114750812Y-79949482D01*
X114763072Y-79825000D01*
X114763072Y-78975000D01*
X114936928Y-78975000D01*
X114936928Y-79825000D01*
X114949188Y-79949482D01*
X114985498Y-80069180D01*
X114987862Y-80073603D01*
X114980735Y-80090809D01*
X114940000Y-80295599D01*
X114940000Y-80504401D01*
X114980735Y-80709191D01*
X115060640Y-80902098D01*
X115176644Y-81075711D01*
X115324289Y-81223356D01*
X115497902Y-81339360D01*
X115690809Y-81419265D01*
X115895599Y-81460000D01*
X116104401Y-81460000D01*
X116309191Y-81419265D01*
X116502098Y-81339360D01*
X116675711Y-81223356D01*
X116823356Y-81075711D01*
X116939360Y-80902098D01*
X117019265Y-80709191D01*
X117060000Y-80504401D01*
X117060000Y-80295599D01*
X117019265Y-80090809D01*
X117012138Y-80073603D01*
X117014502Y-80069180D01*
X117050812Y-79949482D01*
X117063072Y-79825000D01*
X117063072Y-78975000D01*
X117236928Y-78975000D01*
X117236928Y-79825000D01*
X117249188Y-79949482D01*
X117285498Y-80069180D01*
X117287862Y-80073603D01*
X117280735Y-80090809D01*
X117240000Y-80295599D01*
X117240000Y-80504401D01*
X117280735Y-80709191D01*
X117360640Y-80902098D01*
X117476644Y-81075711D01*
X117624289Y-81223356D01*
X117797902Y-81339360D01*
X117990809Y-81419265D01*
X118195599Y-81460000D01*
X118404401Y-81460000D01*
X118609191Y-81419265D01*
X118802098Y-81339360D01*
X118975711Y-81223356D01*
X119123356Y-81075711D01*
X119239360Y-80902098D01*
X119319265Y-80709191D01*
X119360000Y-80504401D01*
X119360000Y-80295599D01*
X119319265Y-80090809D01*
X119312138Y-80073603D01*
X119314502Y-80069180D01*
X119350812Y-79949482D01*
X119363072Y-79825000D01*
X119363072Y-79575000D01*
X128936928Y-79575000D01*
X128936928Y-80425000D01*
X128949188Y-80549482D01*
X128985498Y-80669180D01*
X129044463Y-80779494D01*
X129123815Y-80876185D01*
X129220506Y-80955537D01*
X129330820Y-81014502D01*
X129450518Y-81050812D01*
X129575000Y-81063072D01*
X130425000Y-81063072D01*
X130549482Y-81050812D01*
X130669180Y-81014502D01*
X130673603Y-81012138D01*
X130690809Y-81019265D01*
X130895599Y-81060000D01*
X131104401Y-81060000D01*
X131309191Y-81019265D01*
X131502098Y-80939360D01*
X131675711Y-80823356D01*
X131823356Y-80675711D01*
X131939360Y-80502098D01*
X132019265Y-80309191D01*
X132060000Y-80104401D01*
X132060000Y-79895599D01*
X132019265Y-79690809D01*
X131939360Y-79497902D01*
X131823356Y-79324289D01*
X131675711Y-79176644D01*
X131502098Y-79060640D01*
X131309191Y-78980735D01*
X131104401Y-78940000D01*
X130895599Y-78940000D01*
X130690809Y-78980735D01*
X130673603Y-78987862D01*
X130669180Y-78985498D01*
X130549482Y-78949188D01*
X130425000Y-78936928D01*
X129575000Y-78936928D01*
X129450518Y-78949188D01*
X129330820Y-78985498D01*
X129220506Y-79044463D01*
X129123815Y-79123815D01*
X129044463Y-79220506D01*
X128985498Y-79330820D01*
X128949188Y-79450518D01*
X128936928Y-79575000D01*
X119363072Y-79575000D01*
X119363072Y-78975000D01*
X119350812Y-78850518D01*
X119314502Y-78730820D01*
X119255537Y-78620506D01*
X119176185Y-78523815D01*
X119079494Y-78444463D01*
X118969180Y-78385498D01*
X118849482Y-78349188D01*
X118725000Y-78336928D01*
X117875000Y-78336928D01*
X117750518Y-78349188D01*
X117630820Y-78385498D01*
X117520506Y-78444463D01*
X117423815Y-78523815D01*
X117344463Y-78620506D01*
X117285498Y-78730820D01*
X117249188Y-78850518D01*
X117236928Y-78975000D01*
X117063072Y-78975000D01*
X117050812Y-78850518D01*
X117014502Y-78730820D01*
X116955537Y-78620506D01*
X116876185Y-78523815D01*
X116779494Y-78444463D01*
X116669180Y-78385498D01*
X116549482Y-78349188D01*
X116425000Y-78336928D01*
X115575000Y-78336928D01*
X115450518Y-78349188D01*
X115330820Y-78385498D01*
X115220506Y-78444463D01*
X115123815Y-78523815D01*
X115044463Y-78620506D01*
X114985498Y-78730820D01*
X114949188Y-78850518D01*
X114936928Y-78975000D01*
X114763072Y-78975000D01*
X114750812Y-78850518D01*
X114714502Y-78730820D01*
X114655537Y-78620506D01*
X114576185Y-78523815D01*
X114479494Y-78444463D01*
X114369180Y-78385498D01*
X114249482Y-78349188D01*
X114125000Y-78336928D01*
X113275000Y-78336928D01*
X113150518Y-78349188D01*
X113030820Y-78385498D01*
X112920506Y-78444463D01*
X112823815Y-78523815D01*
X112744463Y-78620506D01*
X112685498Y-78730820D01*
X112649188Y-78850518D01*
X112636928Y-78975000D01*
X112463072Y-78975000D01*
X112450812Y-78850518D01*
X112414502Y-78730820D01*
X112355537Y-78620506D01*
X112276185Y-78523815D01*
X112179494Y-78444463D01*
X112069180Y-78385498D01*
X111949482Y-78349188D01*
X111825000Y-78336928D01*
X110975000Y-78336928D01*
X110850518Y-78349188D01*
X110730820Y-78385498D01*
X110620506Y-78444463D01*
X110523815Y-78523815D01*
X110444463Y-78620506D01*
X110385498Y-78730820D01*
X110349188Y-78850518D01*
X110336928Y-78975000D01*
X102263072Y-78975000D01*
X102250812Y-78850518D01*
X102214502Y-78730820D01*
X102155537Y-78620506D01*
X102076185Y-78523815D01*
X101979494Y-78444463D01*
X101869180Y-78385498D01*
X101749482Y-78349188D01*
X101625000Y-78336928D01*
X100775000Y-78336928D01*
X100650518Y-78349188D01*
X100530820Y-78385498D01*
X100420506Y-78444463D01*
X100323815Y-78523815D01*
X100244463Y-78620506D01*
X100185498Y-78730820D01*
X100149188Y-78850518D01*
X100136928Y-78975000D01*
X100136928Y-79825000D01*
X100149188Y-79949482D01*
X100185498Y-80069180D01*
X100187862Y-80073603D01*
X100180735Y-80090809D01*
X100140000Y-80295599D01*
X100140000Y-80504401D01*
X100180735Y-80709191D01*
X100260640Y-80902098D01*
X100376644Y-81075711D01*
X100422287Y-81121354D01*
X100401592Y-81123392D01*
X100240858Y-81172150D01*
X100092725Y-81251329D01*
X100000000Y-81327426D01*
X99907275Y-81251329D01*
X99759142Y-81172150D01*
X99598408Y-81123392D01*
X99577713Y-81121354D01*
X99623356Y-81075711D01*
X99739360Y-80902098D01*
X99819265Y-80709191D01*
X99860000Y-80504401D01*
X99860000Y-80295599D01*
X99819265Y-80090809D01*
X99812138Y-80073603D01*
X99814502Y-80069180D01*
X99850812Y-79949482D01*
X99863072Y-79825000D01*
X99863072Y-78975000D01*
X99850812Y-78850518D01*
X99814502Y-78730820D01*
X99755537Y-78620506D01*
X99676185Y-78523815D01*
X99579494Y-78444463D01*
X99469180Y-78385498D01*
X99349482Y-78349188D01*
X99225000Y-78336928D01*
X98375000Y-78336928D01*
X98250518Y-78349188D01*
X98130820Y-78385498D01*
X98020506Y-78444463D01*
X97923815Y-78523815D01*
X97844463Y-78620506D01*
X97785498Y-78730820D01*
X97749188Y-78850518D01*
X97736928Y-78975000D01*
X89663072Y-78975000D01*
X89650812Y-78850518D01*
X89614502Y-78730820D01*
X89555537Y-78620506D01*
X89476185Y-78523815D01*
X89379494Y-78444463D01*
X89269180Y-78385498D01*
X89149482Y-78349188D01*
X89025000Y-78336928D01*
X88175000Y-78336928D01*
X88050518Y-78349188D01*
X87930820Y-78385498D01*
X87820506Y-78444463D01*
X87723815Y-78523815D01*
X87644463Y-78620506D01*
X87585498Y-78730820D01*
X87549188Y-78850518D01*
X87536928Y-78975000D01*
X87363072Y-78975000D01*
X87350812Y-78850518D01*
X87314502Y-78730820D01*
X87255537Y-78620506D01*
X87176185Y-78523815D01*
X87079494Y-78444463D01*
X86969180Y-78385498D01*
X86849482Y-78349188D01*
X86725000Y-78336928D01*
X85875000Y-78336928D01*
X85750518Y-78349188D01*
X85630820Y-78385498D01*
X85520506Y-78444463D01*
X85423815Y-78523815D01*
X85344463Y-78620506D01*
X85285498Y-78730820D01*
X85249188Y-78850518D01*
X85236928Y-78975000D01*
X85063072Y-78975000D01*
X85050812Y-78850518D01*
X85014502Y-78730820D01*
X84955537Y-78620506D01*
X84876185Y-78523815D01*
X84779494Y-78444463D01*
X84669180Y-78385498D01*
X84549482Y-78349188D01*
X84425000Y-78336928D01*
X83575000Y-78336928D01*
X83450518Y-78349188D01*
X83330820Y-78385498D01*
X83220506Y-78444463D01*
X83123815Y-78523815D01*
X83044463Y-78620506D01*
X82985498Y-78730820D01*
X82949188Y-78850518D01*
X82936928Y-78975000D01*
X82763072Y-78975000D01*
X82750812Y-78850518D01*
X82714502Y-78730820D01*
X82655537Y-78620506D01*
X82576185Y-78523815D01*
X82479494Y-78444463D01*
X82369180Y-78385498D01*
X82249482Y-78349188D01*
X82125000Y-78336928D01*
X81275000Y-78336928D01*
X81150518Y-78349188D01*
X81030820Y-78385498D01*
X80920506Y-78444463D01*
X80823815Y-78523815D01*
X80744463Y-78620506D01*
X80685498Y-78730820D01*
X80649188Y-78850518D01*
X80636928Y-78975000D01*
X70634573Y-78975000D01*
X70549482Y-78949188D01*
X70425000Y-78936928D01*
X69575000Y-78936928D01*
X69450518Y-78949188D01*
X69330820Y-78985498D01*
X69326397Y-78987862D01*
X69309191Y-78980735D01*
X69104401Y-78940000D01*
X68895599Y-78940000D01*
X68690809Y-78980735D01*
X68497902Y-79060640D01*
X68324289Y-79176644D01*
X68176644Y-79324289D01*
X68060640Y-79497902D01*
X67980735Y-79690809D01*
X67940000Y-79895599D01*
X65671316Y-79895599D01*
X65689096Y-78441598D01*
X65867811Y-76171107D01*
X66196607Y-73917447D01*
X66674038Y-71690547D01*
X67298007Y-69500170D01*
X67772501Y-68175000D01*
X98336928Y-68175000D01*
X98336928Y-69025000D01*
X98349188Y-69149482D01*
X98385498Y-69269180D01*
X98444463Y-69379494D01*
X98523815Y-69476185D01*
X98620506Y-69555537D01*
X98730820Y-69614502D01*
X98850518Y-69650812D01*
X98975000Y-69663072D01*
X99825000Y-69663072D01*
X99949482Y-69650812D01*
X100069180Y-69614502D01*
X100073603Y-69612138D01*
X100090809Y-69619265D01*
X100295599Y-69660000D01*
X100504401Y-69660000D01*
X100709191Y-69619265D01*
X100902098Y-69539360D01*
X101075711Y-69423356D01*
X101223356Y-69275711D01*
X101339360Y-69102098D01*
X101419265Y-68909191D01*
X101460000Y-68704401D01*
X101460000Y-68495599D01*
X101419265Y-68290809D01*
X101339360Y-68097902D01*
X101223356Y-67924289D01*
X101075711Y-67776644D01*
X100902098Y-67660640D01*
X100709191Y-67580735D01*
X100504401Y-67540000D01*
X100295599Y-67540000D01*
X100090809Y-67580735D01*
X100073603Y-67587862D01*
X100069180Y-67585498D01*
X99949482Y-67549188D01*
X99825000Y-67536928D01*
X98975000Y-67536928D01*
X98850518Y-67549188D01*
X98730820Y-67585498D01*
X98620506Y-67644463D01*
X98523815Y-67723815D01*
X98444463Y-67820506D01*
X98385498Y-67930820D01*
X98349188Y-68050518D01*
X98336928Y-68175000D01*
X67772501Y-68175000D01*
X68065766Y-67355970D01*
X68709728Y-65875000D01*
X98336928Y-65875000D01*
X98336928Y-66725000D01*
X98349188Y-66849482D01*
X98385498Y-66969180D01*
X98444463Y-67079494D01*
X98523815Y-67176185D01*
X98620506Y-67255537D01*
X98730820Y-67314502D01*
X98850518Y-67350812D01*
X98975000Y-67363072D01*
X99825000Y-67363072D01*
X99949482Y-67350812D01*
X100069180Y-67314502D01*
X100073603Y-67312138D01*
X100090809Y-67319265D01*
X100295599Y-67360000D01*
X100504401Y-67360000D01*
X100709191Y-67319265D01*
X100902098Y-67239360D01*
X101075711Y-67123356D01*
X101223356Y-66975711D01*
X101339360Y-66802098D01*
X101419265Y-66609191D01*
X101460000Y-66404401D01*
X101460000Y-66195599D01*
X101419265Y-65990809D01*
X101339360Y-65797902D01*
X101223356Y-65624289D01*
X101075711Y-65476644D01*
X100902098Y-65360640D01*
X100709191Y-65280735D01*
X100504401Y-65240000D01*
X100295599Y-65240000D01*
X100090809Y-65280735D01*
X100073603Y-65287862D01*
X100069180Y-65285498D01*
X99949482Y-65249188D01*
X99825000Y-65236928D01*
X98975000Y-65236928D01*
X98850518Y-65249188D01*
X98730820Y-65285498D01*
X98620506Y-65344463D01*
X98523815Y-65423815D01*
X98444463Y-65520506D01*
X98385498Y-65630820D01*
X98349188Y-65750518D01*
X98336928Y-65875000D01*
X68709728Y-65875000D01*
X68973947Y-65267355D01*
X69847458Y-63575000D01*
X98336928Y-63575000D01*
X98336928Y-64425000D01*
X98349188Y-64549482D01*
X98385498Y-64669180D01*
X98444463Y-64779494D01*
X98523815Y-64876185D01*
X98620506Y-64955537D01*
X98730820Y-65014502D01*
X98850518Y-65050812D01*
X98975000Y-65063072D01*
X99825000Y-65063072D01*
X99949482Y-65050812D01*
X100069180Y-65014502D01*
X100073603Y-65012138D01*
X100090809Y-65019265D01*
X100295599Y-65060000D01*
X100504401Y-65060000D01*
X100709191Y-65019265D01*
X100902098Y-64939360D01*
X101075711Y-64823356D01*
X101223356Y-64675711D01*
X101339360Y-64502098D01*
X101419265Y-64309191D01*
X101460000Y-64104401D01*
X101460000Y-63895599D01*
X101419265Y-63690809D01*
X101339360Y-63497902D01*
X101223356Y-63324289D01*
X101075711Y-63176644D01*
X100902098Y-63060640D01*
X100709191Y-62980735D01*
X100504401Y-62940000D01*
X100295599Y-62940000D01*
X100090809Y-62980735D01*
X100073603Y-62987862D01*
X100069180Y-62985498D01*
X99949482Y-62949188D01*
X99825000Y-62936928D01*
X98975000Y-62936928D01*
X98850518Y-62949188D01*
X98730820Y-62985498D01*
X98620506Y-63044463D01*
X98523815Y-63123815D01*
X98444463Y-63220506D01*
X98385498Y-63330820D01*
X98349188Y-63450518D01*
X98336928Y-63575000D01*
X69847458Y-63575000D01*
X70018544Y-63243537D01*
X71194978Y-61293383D01*
X72498067Y-59425490D01*
X73649343Y-57988492D01*
X77032893Y-57988492D01*
X77032893Y-58197294D01*
X77073628Y-58402084D01*
X77153533Y-58594991D01*
X77269537Y-58768604D01*
X77417182Y-58916249D01*
X77590795Y-59032253D01*
X77608001Y-59039380D01*
X77609457Y-59044180D01*
X77668422Y-59154494D01*
X77747774Y-59251185D01*
X78348815Y-59852226D01*
X78445506Y-59931578D01*
X78555820Y-59990543D01*
X78675518Y-60026853D01*
X78800000Y-60039113D01*
X78924482Y-60026853D01*
X79044180Y-59990543D01*
X79154494Y-59931578D01*
X79251185Y-59852226D01*
X79435925Y-59667486D01*
X79353533Y-59790795D01*
X79273628Y-59983702D01*
X79232893Y-60188492D01*
X79232893Y-60397294D01*
X79273628Y-60602084D01*
X79353533Y-60794991D01*
X79469537Y-60968604D01*
X79617182Y-61116249D01*
X79790795Y-61232253D01*
X79808001Y-61239380D01*
X79809457Y-61244180D01*
X79868422Y-61354494D01*
X79947774Y-61451185D01*
X80548815Y-62052226D01*
X80645506Y-62131578D01*
X80755820Y-62190543D01*
X80875518Y-62226853D01*
X81000000Y-62239113D01*
X81124482Y-62226853D01*
X81244180Y-62190543D01*
X81354494Y-62131578D01*
X81451185Y-62052226D01*
X82052226Y-61451185D01*
X82131578Y-61354494D01*
X82174069Y-61275000D01*
X98336928Y-61275000D01*
X98336928Y-62125000D01*
X98349188Y-62249482D01*
X98385498Y-62369180D01*
X98444463Y-62479494D01*
X98523815Y-62576185D01*
X98620506Y-62655537D01*
X98730820Y-62714502D01*
X98850518Y-62750812D01*
X98975000Y-62763072D01*
X99825000Y-62763072D01*
X99949482Y-62750812D01*
X100069180Y-62714502D01*
X100073603Y-62712138D01*
X100090809Y-62719265D01*
X100295599Y-62760000D01*
X100504401Y-62760000D01*
X100709191Y-62719265D01*
X100902098Y-62639360D01*
X101075711Y-62523356D01*
X101223356Y-62375711D01*
X101339360Y-62202098D01*
X101419265Y-62009191D01*
X101460000Y-61804401D01*
X101460000Y-61595599D01*
X101419265Y-61390809D01*
X101339360Y-61197902D01*
X101223356Y-61024289D01*
X101199067Y-61000000D01*
X117860887Y-61000000D01*
X117873147Y-61124482D01*
X117909457Y-61244180D01*
X117968422Y-61354494D01*
X118047774Y-61451185D01*
X118648815Y-62052226D01*
X118745506Y-62131578D01*
X118855820Y-62190543D01*
X118975518Y-62226853D01*
X119100000Y-62239113D01*
X119224482Y-62226853D01*
X119344180Y-62190543D01*
X119454494Y-62131578D01*
X119551185Y-62052226D01*
X120152226Y-61451185D01*
X120231578Y-61354494D01*
X120290543Y-61244180D01*
X120291999Y-61239380D01*
X120309205Y-61232253D01*
X120482818Y-61116249D01*
X120630463Y-60968604D01*
X120746467Y-60794991D01*
X120826372Y-60602084D01*
X120867107Y-60397294D01*
X120867107Y-60188492D01*
X120826372Y-59983702D01*
X120746467Y-59790795D01*
X120664075Y-59667486D01*
X120848815Y-59852226D01*
X120945506Y-59931578D01*
X121055820Y-59990543D01*
X121175518Y-60026853D01*
X121300000Y-60039113D01*
X121424482Y-60026853D01*
X121544180Y-59990543D01*
X121654494Y-59931578D01*
X121751185Y-59852226D01*
X122352226Y-59251185D01*
X122431578Y-59154494D01*
X122490543Y-59044180D01*
X122491999Y-59039380D01*
X122509205Y-59032253D01*
X122682818Y-58916249D01*
X122830463Y-58768604D01*
X122946467Y-58594991D01*
X123026372Y-58402084D01*
X123067107Y-58197294D01*
X123067107Y-57988492D01*
X123026372Y-57783702D01*
X122946467Y-57590795D01*
X122830463Y-57417182D01*
X122682818Y-57269537D01*
X122509205Y-57153533D01*
X122316298Y-57073628D01*
X122111508Y-57032893D01*
X121902706Y-57032893D01*
X121697916Y-57073628D01*
X121505009Y-57153533D01*
X121331396Y-57269537D01*
X121183751Y-57417182D01*
X121067747Y-57590795D01*
X121060620Y-57608001D01*
X121055820Y-57609457D01*
X120945506Y-57668422D01*
X120848815Y-57747774D01*
X120247774Y-58348815D01*
X120168422Y-58445506D01*
X120109457Y-58555820D01*
X120073147Y-58675518D01*
X120060887Y-58800000D01*
X120073147Y-58924482D01*
X120109457Y-59044180D01*
X120168422Y-59154494D01*
X120247774Y-59251185D01*
X120432514Y-59435925D01*
X120309205Y-59353533D01*
X120116298Y-59273628D01*
X119911508Y-59232893D01*
X119702706Y-59232893D01*
X119497916Y-59273628D01*
X119305009Y-59353533D01*
X119131396Y-59469537D01*
X118983751Y-59617182D01*
X118867747Y-59790795D01*
X118860620Y-59808001D01*
X118855820Y-59809457D01*
X118745506Y-59868422D01*
X118648815Y-59947774D01*
X118047774Y-60548815D01*
X117968422Y-60645506D01*
X117909457Y-60755820D01*
X117873147Y-60875518D01*
X117860887Y-61000000D01*
X101199067Y-61000000D01*
X101075711Y-60876644D01*
X100902098Y-60760640D01*
X100709191Y-60680735D01*
X100504401Y-60640000D01*
X100295599Y-60640000D01*
X100090809Y-60680735D01*
X100073603Y-60687862D01*
X100069180Y-60685498D01*
X99949482Y-60649188D01*
X99825000Y-60636928D01*
X98975000Y-60636928D01*
X98850518Y-60649188D01*
X98730820Y-60685498D01*
X98620506Y-60744463D01*
X98523815Y-60823815D01*
X98444463Y-60920506D01*
X98385498Y-61030820D01*
X98349188Y-61150518D01*
X98336928Y-61275000D01*
X82174069Y-61275000D01*
X82190543Y-61244180D01*
X82226853Y-61124482D01*
X82239113Y-61000000D01*
X82226853Y-60875518D01*
X82190543Y-60755820D01*
X82131578Y-60645506D01*
X82052226Y-60548815D01*
X81451185Y-59947774D01*
X81354494Y-59868422D01*
X81244180Y-59809457D01*
X81239380Y-59808001D01*
X81232253Y-59790795D01*
X81116249Y-59617182D01*
X80968604Y-59469537D01*
X80794991Y-59353533D01*
X80602084Y-59273628D01*
X80397294Y-59232893D01*
X80188492Y-59232893D01*
X79983702Y-59273628D01*
X79790795Y-59353533D01*
X79667486Y-59435925D01*
X79852226Y-59251185D01*
X79931578Y-59154494D01*
X79990543Y-59044180D01*
X80026853Y-58924482D01*
X80039113Y-58800000D01*
X80026853Y-58675518D01*
X79990543Y-58555820D01*
X79931578Y-58445506D01*
X79852226Y-58348815D01*
X79251185Y-57747774D01*
X79154494Y-57668422D01*
X79044180Y-57609457D01*
X79039380Y-57608001D01*
X79032253Y-57590795D01*
X78916249Y-57417182D01*
X78768604Y-57269537D01*
X78594991Y-57153533D01*
X78402084Y-57073628D01*
X78197294Y-57032893D01*
X77988492Y-57032893D01*
X77783702Y-57073628D01*
X77590795Y-57153533D01*
X77417182Y-57269537D01*
X77269537Y-57417182D01*
X77153533Y-57590795D01*
X77073628Y-57783702D01*
X77032893Y-57988492D01*
X73649343Y-57988492D01*
X73922083Y-57648064D01*
X75460764Y-55968922D01*
X77107355Y-54395438D01*
X78854592Y-52934551D01*
X80694817Y-51592665D01*
X82619926Y-50375689D01*
X84278829Y-49475000D01*
X97836928Y-49475000D01*
X97836928Y-50325000D01*
X97849188Y-50449482D01*
X97885498Y-50569180D01*
X97944463Y-50679494D01*
X98023815Y-50776185D01*
X98120506Y-50855537D01*
X98230820Y-50914502D01*
X98350518Y-50950812D01*
X98475000Y-50963072D01*
X99325000Y-50963072D01*
X99449482Y-50950812D01*
X99569180Y-50914502D01*
X99679494Y-50855537D01*
X99776185Y-50776185D01*
X99855537Y-50679494D01*
X99914502Y-50569180D01*
X99950812Y-50449482D01*
X99963072Y-50325000D01*
X99963072Y-49475000D01*
X100136928Y-49475000D01*
X100136928Y-50325000D01*
X100149188Y-50449482D01*
X100185498Y-50569180D01*
X100244463Y-50679494D01*
X100323815Y-50776185D01*
X100420506Y-50855537D01*
X100530820Y-50914502D01*
X100650518Y-50950812D01*
X100775000Y-50963072D01*
X101625000Y-50963072D01*
X101749482Y-50950812D01*
X101869180Y-50914502D01*
X101979494Y-50855537D01*
X102076185Y-50776185D01*
X102155537Y-50679494D01*
X102214502Y-50569180D01*
X102250812Y-50449482D01*
X102263072Y-50325000D01*
X102263072Y-49475000D01*
X102250812Y-49350518D01*
X102214502Y-49230820D01*
X102212138Y-49226397D01*
X102219265Y-49209191D01*
X102260000Y-49004401D01*
X102260000Y-48795599D01*
X102219265Y-48590809D01*
X102139360Y-48397902D01*
X102023356Y-48224289D01*
X101875711Y-48076644D01*
X101702098Y-47960640D01*
X101509191Y-47880735D01*
X101304401Y-47840000D01*
X101095599Y-47840000D01*
X100890809Y-47880735D01*
X100697902Y-47960640D01*
X100524289Y-48076644D01*
X100376644Y-48224289D01*
X100260640Y-48397902D01*
X100180735Y-48590809D01*
X100140000Y-48795599D01*
X100140000Y-49004401D01*
X100180735Y-49209191D01*
X100187862Y-49226397D01*
X100185498Y-49230820D01*
X100149188Y-49350518D01*
X100136928Y-49475000D01*
X99963072Y-49475000D01*
X99950812Y-49350518D01*
X99914502Y-49230820D01*
X99912138Y-49226397D01*
X99919265Y-49209191D01*
X99960000Y-49004401D01*
X99960000Y-48795599D01*
X99919265Y-48590809D01*
X99839360Y-48397902D01*
X99723356Y-48224289D01*
X99575711Y-48076644D01*
X99402098Y-47960640D01*
X99209191Y-47880735D01*
X99004401Y-47840000D01*
X98795599Y-47840000D01*
X98590809Y-47880735D01*
X98397902Y-47960640D01*
X98224289Y-48076644D01*
X98076644Y-48224289D01*
X97960640Y-48397902D01*
X97880735Y-48590809D01*
X97840000Y-48795599D01*
X97840000Y-49004401D01*
X97880735Y-49209191D01*
X97887862Y-49226397D01*
X97885498Y-49230820D01*
X97849188Y-49350518D01*
X97836928Y-49475000D01*
X84278829Y-49475000D01*
X84621453Y-49288975D01*
X86690605Y-48337297D01*
X88818279Y-47524842D01*
X90995105Y-46855187D01*
X93211537Y-46331268D01*
X95457841Y-45955389D01*
X97724087Y-45729210D01*
X100000342Y-45653723D01*
X102276611Y-45729257D01*
M02*
