G04 #@! TF.GenerationSoftware,KiCad,Pcbnew,(5.1.6-0)*
G04 #@! TF.CreationDate,2021-01-08T20:23:25+00:00*
G04 #@! TF.ProjectId,XMAS_Star_21,584d4153-5f53-4746-9172-5f32312e6b69,rev?*
G04 #@! TF.SameCoordinates,Original*
G04 #@! TF.FileFunction,Legend,Bot*
G04 #@! TF.FilePolarity,Positive*
%FSLAX46Y46*%
G04 Gerber Fmt 4.6, Leading zero omitted, Abs format (unit mm)*
G04 Created by KiCad (PCBNEW (5.1.6-0)) date 2021-01-08 20:23:25*
%MOMM*%
%LPD*%
G01*
G04 APERTURE LIST*
%ADD10C,0.100000*%
%ADD11C,0.150000*%
%ADD12C,0.300000*%
%ADD13C,0.120000*%
G04 APERTURE END LIST*
D10*
G36*
X120940000Y-186830000D02*
G01*
X78940000Y-186830000D01*
X78940000Y-126830000D01*
X120940000Y-126830000D01*
X120940000Y-186830000D01*
G37*
X120940000Y-186830000D02*
X78940000Y-186830000D01*
X78940000Y-126830000D01*
X120940000Y-126830000D01*
X120940000Y-186830000D01*
D11*
X98690476Y-90952380D02*
X98023809Y-90952380D01*
X98690476Y-91952380D01*
X98023809Y-91952380D01*
X97738095Y-90952380D02*
X97071428Y-91952380D01*
X97071428Y-90952380D02*
X97738095Y-91952380D01*
X96166666Y-91952380D02*
X96738095Y-91952380D01*
X96452380Y-91952380D02*
X96452380Y-90952380D01*
X96547619Y-91095238D01*
X96642857Y-91190476D01*
X96738095Y-91238095D01*
X95785714Y-91904761D02*
X95690476Y-91952380D01*
X95500000Y-91952380D01*
X95404761Y-91904761D01*
X95357142Y-91809523D01*
X95357142Y-91761904D01*
X95404761Y-91666666D01*
X95500000Y-91619047D01*
X95642857Y-91619047D01*
X95738095Y-91571428D01*
X95785714Y-91476190D01*
X95785714Y-91428571D01*
X95738095Y-91333333D01*
X95642857Y-91285714D01*
X95500000Y-91285714D01*
X95404761Y-91333333D01*
X98690476Y-61152380D02*
X98023809Y-61152380D01*
X98690476Y-62152380D01*
X98023809Y-62152380D01*
X97738095Y-61152380D02*
X97071428Y-62152380D01*
X97071428Y-61152380D02*
X97738095Y-62152380D01*
X96500000Y-61152380D02*
X96404761Y-61152380D01*
X96309523Y-61200000D01*
X96261904Y-61247619D01*
X96214285Y-61342857D01*
X96166666Y-61533333D01*
X96166666Y-61771428D01*
X96214285Y-61961904D01*
X96261904Y-62057142D01*
X96309523Y-62104761D01*
X96404761Y-62152380D01*
X96500000Y-62152380D01*
X96595238Y-62104761D01*
X96642857Y-62057142D01*
X96690476Y-61961904D01*
X96738095Y-61771428D01*
X96738095Y-61533333D01*
X96690476Y-61342857D01*
X96642857Y-61247619D01*
X96595238Y-61200000D01*
X96500000Y-61152380D01*
X95785714Y-62104761D02*
X95690476Y-62152380D01*
X95500000Y-62152380D01*
X95404761Y-62104761D01*
X95357142Y-62009523D01*
X95357142Y-61961904D01*
X95404761Y-61866666D01*
X95500000Y-61819047D01*
X95642857Y-61819047D01*
X95738095Y-61771428D01*
X95785714Y-61676190D01*
X95785714Y-61628571D01*
X95738095Y-61533333D01*
X95642857Y-61485714D01*
X95500000Y-61485714D01*
X95404761Y-61533333D01*
X111947619Y-84442857D02*
X110947619Y-83776190D01*
X111947619Y-83776190D02*
X110947619Y-84442857D01*
X111423809Y-83204761D02*
X110947619Y-83204761D01*
X111947619Y-83538095D02*
X111423809Y-83204761D01*
X111947619Y-82871428D01*
X110947619Y-82014285D02*
X110947619Y-82585714D01*
X110947619Y-82300000D02*
X111947619Y-82300000D01*
X111804761Y-82395238D01*
X111709523Y-82490476D01*
X111661904Y-82585714D01*
X110995238Y-81633333D02*
X110947619Y-81538095D01*
X110947619Y-81347619D01*
X110995238Y-81252380D01*
X111090476Y-81204761D01*
X111138095Y-81204761D01*
X111233333Y-81252380D01*
X111280952Y-81347619D01*
X111280952Y-81490476D01*
X111328571Y-81585714D01*
X111423809Y-81633333D01*
X111471428Y-81633333D01*
X111566666Y-81585714D01*
X111614285Y-81490476D01*
X111614285Y-81347619D01*
X111566666Y-81252380D01*
X82247619Y-84342857D02*
X81247619Y-83676190D01*
X82247619Y-83676190D02*
X81247619Y-84342857D01*
X81723809Y-83104761D02*
X81247619Y-83104761D01*
X82247619Y-83438095D02*
X81723809Y-83104761D01*
X82247619Y-82771428D01*
X82247619Y-82247619D02*
X82247619Y-82152380D01*
X82200000Y-82057142D01*
X82152380Y-82009523D01*
X82057142Y-81961904D01*
X81866666Y-81914285D01*
X81628571Y-81914285D01*
X81438095Y-81961904D01*
X81342857Y-82009523D01*
X81295238Y-82057142D01*
X81247619Y-82152380D01*
X81247619Y-82247619D01*
X81295238Y-82342857D01*
X81342857Y-82390476D01*
X81438095Y-82438095D01*
X81628571Y-82485714D01*
X81866666Y-82485714D01*
X82057142Y-82438095D01*
X82152380Y-82390476D01*
X82200000Y-82342857D01*
X82247619Y-82247619D01*
X81295238Y-81533333D02*
X81247619Y-81438095D01*
X81247619Y-81247619D01*
X81295238Y-81152380D01*
X81390476Y-81104761D01*
X81438095Y-81104761D01*
X81533333Y-81152380D01*
X81580952Y-81247619D01*
X81580952Y-81390476D01*
X81628571Y-81485714D01*
X81723809Y-81533333D01*
X81771428Y-81533333D01*
X81866666Y-81485714D01*
X81914285Y-81390476D01*
X81914285Y-81247619D01*
X81866666Y-81152380D01*
X98185714Y-93052380D02*
X97519047Y-93052380D01*
X98185714Y-94052380D01*
X97519047Y-94052380D01*
X97233333Y-93052380D02*
X96566666Y-94052380D01*
X96566666Y-93052380D02*
X97233333Y-94052380D01*
X95661904Y-94052380D02*
X96233333Y-94052380D01*
X95947619Y-94052380D02*
X95947619Y-93052380D01*
X96042857Y-93195238D01*
X96138095Y-93290476D01*
X96233333Y-93338095D01*
X98285714Y-63252380D02*
X97619047Y-63252380D01*
X98285714Y-64252380D01*
X97619047Y-64252380D01*
X97333333Y-63252380D02*
X96666666Y-64252380D01*
X96666666Y-63252380D02*
X97333333Y-64252380D01*
X96095238Y-63252380D02*
X96000000Y-63252380D01*
X95904761Y-63300000D01*
X95857142Y-63347619D01*
X95809523Y-63442857D01*
X95761904Y-63633333D01*
X95761904Y-63871428D01*
X95809523Y-64061904D01*
X95857142Y-64157142D01*
X95904761Y-64204761D01*
X96000000Y-64252380D01*
X96095238Y-64252380D01*
X96190476Y-64204761D01*
X96238095Y-64157142D01*
X96285714Y-64061904D01*
X96333333Y-63871428D01*
X96333333Y-63633333D01*
X96285714Y-63442857D01*
X96238095Y-63347619D01*
X96190476Y-63300000D01*
X96095238Y-63252380D01*
X84547619Y-83938095D02*
X83547619Y-83271428D01*
X84547619Y-83271428D02*
X83547619Y-83938095D01*
X84023809Y-82700000D02*
X83547619Y-82700000D01*
X84547619Y-83033333D02*
X84023809Y-82700000D01*
X84547619Y-82366666D01*
X84547619Y-81842857D02*
X84547619Y-81747619D01*
X84500000Y-81652380D01*
X84452380Y-81604761D01*
X84357142Y-81557142D01*
X84166666Y-81509523D01*
X83928571Y-81509523D01*
X83738095Y-81557142D01*
X83642857Y-81604761D01*
X83595238Y-81652380D01*
X83547619Y-81747619D01*
X83547619Y-81842857D01*
X83595238Y-81938095D01*
X83642857Y-81985714D01*
X83738095Y-82033333D01*
X83928571Y-82080952D01*
X84166666Y-82080952D01*
X84357142Y-82033333D01*
X84452380Y-81985714D01*
X84500000Y-81938095D01*
X84547619Y-81842857D01*
X114247619Y-84038095D02*
X113247619Y-83371428D01*
X114247619Y-83371428D02*
X113247619Y-84038095D01*
X113723809Y-82800000D02*
X113247619Y-82800000D01*
X114247619Y-83133333D02*
X113723809Y-82800000D01*
X114247619Y-82466666D01*
X113247619Y-81609523D02*
X113247619Y-82180952D01*
X113247619Y-81895238D02*
X114247619Y-81895238D01*
X114104761Y-81990476D01*
X114009523Y-82085714D01*
X113961904Y-82180952D01*
D12*
X99500000Y-48021428D02*
X100500000Y-48021428D01*
X99500000Y-46521428D01*
X100500000Y-46521428D01*
X99500000Y-77178571D02*
X100500000Y-78678571D01*
X100500000Y-77178571D02*
X99500000Y-78678571D01*
D13*
X99200000Y-81485000D02*
X101485000Y-81485000D01*
X101485000Y-81485000D02*
X101485000Y-82955000D01*
X101485000Y-82955000D02*
X99200000Y-82955000D01*
X100960000Y-90705000D02*
X100960000Y-91005507D01*
X100960000Y-91794493D02*
X100960000Y-92095000D01*
X100085000Y-90705000D02*
X100960000Y-90705000D01*
X100085000Y-92095000D02*
X100960000Y-92095000D01*
X100085000Y-90705000D02*
X100085000Y-90791724D01*
X100085000Y-92008276D02*
X100085000Y-92095000D01*
X99400000Y-90705000D02*
X98715000Y-90705000D01*
X98715000Y-90705000D02*
X98715000Y-91400000D01*
X100960000Y-61005000D02*
X100960000Y-61305507D01*
X100960000Y-62094493D02*
X100960000Y-62395000D01*
X100085000Y-61005000D02*
X100960000Y-61005000D01*
X100085000Y-62395000D02*
X100960000Y-62395000D01*
X100085000Y-61005000D02*
X100085000Y-61091724D01*
X100085000Y-62308276D02*
X100085000Y-62395000D01*
X99400000Y-61005000D02*
X98715000Y-61005000D01*
X98715000Y-61005000D02*
X98715000Y-61700000D01*
X112095000Y-80960000D02*
X111794493Y-80960000D01*
X111005507Y-80960000D02*
X110705000Y-80960000D01*
X112095000Y-80085000D02*
X112095000Y-80960000D01*
X110705000Y-80085000D02*
X110705000Y-80960000D01*
X112095000Y-80085000D02*
X112008276Y-80085000D01*
X110791724Y-80085000D02*
X110705000Y-80085000D01*
X112095000Y-79400000D02*
X112095000Y-78715000D01*
X112095000Y-78715000D02*
X111400000Y-78715000D01*
X82395000Y-80960000D02*
X82094493Y-80960000D01*
X81305507Y-80960000D02*
X81005000Y-80960000D01*
X82395000Y-80085000D02*
X82395000Y-80960000D01*
X81005000Y-80085000D02*
X81005000Y-80960000D01*
X82395000Y-80085000D02*
X82308276Y-80085000D01*
X81091724Y-80085000D02*
X81005000Y-80085000D01*
X82395000Y-79400000D02*
X82395000Y-78715000D01*
X82395000Y-78715000D02*
X81700000Y-78715000D01*
X98715000Y-93005000D02*
X98715000Y-93700000D01*
X99400000Y-93005000D02*
X98715000Y-93005000D01*
X100085000Y-94308276D02*
X100085000Y-94395000D01*
X100085000Y-93005000D02*
X100085000Y-93091724D01*
X100085000Y-94395000D02*
X100960000Y-94395000D01*
X100085000Y-93005000D02*
X100960000Y-93005000D01*
X100960000Y-94094493D02*
X100960000Y-94395000D01*
X100960000Y-93005000D02*
X100960000Y-93305507D01*
X98715000Y-63305000D02*
X98715000Y-64000000D01*
X99400000Y-63305000D02*
X98715000Y-63305000D01*
X100085000Y-64608276D02*
X100085000Y-64695000D01*
X100085000Y-63305000D02*
X100085000Y-63391724D01*
X100085000Y-64695000D02*
X100960000Y-64695000D01*
X100085000Y-63305000D02*
X100960000Y-63305000D01*
X100960000Y-64394493D02*
X100960000Y-64695000D01*
X100960000Y-63305000D02*
X100960000Y-63605507D01*
X114395000Y-80960000D02*
X114094493Y-80960000D01*
X113305507Y-80960000D02*
X113005000Y-80960000D01*
X114395000Y-80085000D02*
X114395000Y-80960000D01*
X113005000Y-80085000D02*
X113005000Y-80960000D01*
X114395000Y-80085000D02*
X114308276Y-80085000D01*
X113091724Y-80085000D02*
X113005000Y-80085000D01*
X114395000Y-79400000D02*
X114395000Y-78715000D01*
X114395000Y-78715000D02*
X113700000Y-78715000D01*
X84695000Y-80960000D02*
X84394493Y-80960000D01*
X83605507Y-80960000D02*
X83305000Y-80960000D01*
X84695000Y-80085000D02*
X84695000Y-80960000D01*
X83305000Y-80085000D02*
X83305000Y-80960000D01*
X84695000Y-80085000D02*
X84608276Y-80085000D01*
X83391724Y-80085000D02*
X83305000Y-80085000D01*
X84695000Y-79400000D02*
X84695000Y-78715000D01*
X84695000Y-78715000D02*
X84000000Y-78715000D01*
X98205000Y-48340000D02*
X98505507Y-48340000D01*
X99294493Y-48340000D02*
X99595000Y-48340000D01*
X98205000Y-49215000D02*
X98205000Y-48340000D01*
X99595000Y-49215000D02*
X99595000Y-48340000D01*
X98205000Y-49215000D02*
X98291724Y-49215000D01*
X99508276Y-49215000D02*
X99595000Y-49215000D01*
X98205000Y-49900000D02*
X98205000Y-50585000D01*
X98205000Y-50585000D02*
X98900000Y-50585000D01*
X101895000Y-80960000D02*
X101594493Y-80960000D01*
X100805507Y-80960000D02*
X100505000Y-80960000D01*
X101895000Y-80085000D02*
X101895000Y-80960000D01*
X100505000Y-80085000D02*
X100505000Y-80960000D01*
X101895000Y-80085000D02*
X101808276Y-80085000D01*
X100591724Y-80085000D02*
X100505000Y-80085000D01*
X101895000Y-79400000D02*
X101895000Y-78715000D01*
X101895000Y-78715000D02*
X101200000Y-78715000D01*
D11*
X104214285Y-82672380D02*
X104214285Y-81672380D01*
X103976190Y-81672380D01*
X103833333Y-81720000D01*
X103738095Y-81815238D01*
X103690476Y-81910476D01*
X103642857Y-82100952D01*
X103642857Y-82243809D01*
X103690476Y-82434285D01*
X103738095Y-82529523D01*
X103833333Y-82624761D01*
X103976190Y-82672380D01*
X104214285Y-82672380D01*
X103309523Y-81672380D02*
X102690476Y-81672380D01*
X103023809Y-82053333D01*
X102880952Y-82053333D01*
X102785714Y-82100952D01*
X102738095Y-82148571D01*
X102690476Y-82243809D01*
X102690476Y-82481904D01*
X102738095Y-82577142D01*
X102785714Y-82624761D01*
X102880952Y-82672380D01*
X103166666Y-82672380D01*
X103261904Y-82624761D01*
X103309523Y-82577142D01*
X102309523Y-81767619D02*
X102261904Y-81720000D01*
X102166666Y-81672380D01*
X101928571Y-81672380D01*
X101833333Y-81720000D01*
X101785714Y-81767619D01*
X101738095Y-81862857D01*
X101738095Y-81958095D01*
X101785714Y-82100952D01*
X102357142Y-82672380D01*
X101738095Y-82672380D01*
X104014285Y-91852380D02*
X104014285Y-90852380D01*
X103776190Y-90852380D01*
X103633333Y-90900000D01*
X103538095Y-90995238D01*
X103490476Y-91090476D01*
X103442857Y-91280952D01*
X103442857Y-91423809D01*
X103490476Y-91614285D01*
X103538095Y-91709523D01*
X103633333Y-91804761D01*
X103776190Y-91852380D01*
X104014285Y-91852380D01*
X103109523Y-90852380D02*
X102490476Y-90852380D01*
X102823809Y-91233333D01*
X102680952Y-91233333D01*
X102585714Y-91280952D01*
X102538095Y-91328571D01*
X102490476Y-91423809D01*
X102490476Y-91661904D01*
X102538095Y-91757142D01*
X102585714Y-91804761D01*
X102680952Y-91852380D01*
X102966666Y-91852380D01*
X103061904Y-91804761D01*
X103109523Y-91757142D01*
X101871428Y-90852380D02*
X101776190Y-90852380D01*
X101680952Y-90900000D01*
X101633333Y-90947619D01*
X101585714Y-91042857D01*
X101538095Y-91233333D01*
X101538095Y-91471428D01*
X101585714Y-91661904D01*
X101633333Y-91757142D01*
X101680952Y-91804761D01*
X101776190Y-91852380D01*
X101871428Y-91852380D01*
X101966666Y-91804761D01*
X102014285Y-91757142D01*
X102061904Y-91661904D01*
X102109523Y-91471428D01*
X102109523Y-91233333D01*
X102061904Y-91042857D01*
X102014285Y-90947619D01*
X101966666Y-90900000D01*
X101871428Y-90852380D01*
X104014285Y-62152380D02*
X104014285Y-61152380D01*
X103776190Y-61152380D01*
X103633333Y-61200000D01*
X103538095Y-61295238D01*
X103490476Y-61390476D01*
X103442857Y-61580952D01*
X103442857Y-61723809D01*
X103490476Y-61914285D01*
X103538095Y-62009523D01*
X103633333Y-62104761D01*
X103776190Y-62152380D01*
X104014285Y-62152380D01*
X103061904Y-61247619D02*
X103014285Y-61200000D01*
X102919047Y-61152380D01*
X102680952Y-61152380D01*
X102585714Y-61200000D01*
X102538095Y-61247619D01*
X102490476Y-61342857D01*
X102490476Y-61438095D01*
X102538095Y-61580952D01*
X103109523Y-62152380D01*
X102490476Y-62152380D01*
X101919047Y-61580952D02*
X102014285Y-61533333D01*
X102061904Y-61485714D01*
X102109523Y-61390476D01*
X102109523Y-61342857D01*
X102061904Y-61247619D01*
X102014285Y-61200000D01*
X101919047Y-61152380D01*
X101728571Y-61152380D01*
X101633333Y-61200000D01*
X101585714Y-61247619D01*
X101538095Y-61342857D01*
X101538095Y-61390476D01*
X101585714Y-61485714D01*
X101633333Y-61533333D01*
X101728571Y-61580952D01*
X101919047Y-61580952D01*
X102014285Y-61628571D01*
X102061904Y-61676190D01*
X102109523Y-61771428D01*
X102109523Y-61961904D01*
X102061904Y-62057142D01*
X102014285Y-62104761D01*
X101919047Y-62152380D01*
X101728571Y-62152380D01*
X101633333Y-62104761D01*
X101585714Y-62057142D01*
X101538095Y-61961904D01*
X101538095Y-61771428D01*
X101585714Y-61676190D01*
X101633333Y-61628571D01*
X101728571Y-61580952D01*
X112614285Y-78292380D02*
X112614285Y-77292380D01*
X112376190Y-77292380D01*
X112233333Y-77340000D01*
X112138095Y-77435238D01*
X112090476Y-77530476D01*
X112042857Y-77720952D01*
X112042857Y-77863809D01*
X112090476Y-78054285D01*
X112138095Y-78149523D01*
X112233333Y-78244761D01*
X112376190Y-78292380D01*
X112614285Y-78292380D01*
X111661904Y-77387619D02*
X111614285Y-77340000D01*
X111519047Y-77292380D01*
X111280952Y-77292380D01*
X111185714Y-77340000D01*
X111138095Y-77387619D01*
X111090476Y-77482857D01*
X111090476Y-77578095D01*
X111138095Y-77720952D01*
X111709523Y-78292380D01*
X111090476Y-78292380D01*
X110709523Y-77387619D02*
X110661904Y-77340000D01*
X110566666Y-77292380D01*
X110328571Y-77292380D01*
X110233333Y-77340000D01*
X110185714Y-77387619D01*
X110138095Y-77482857D01*
X110138095Y-77578095D01*
X110185714Y-77720952D01*
X110757142Y-78292380D01*
X110138095Y-78292380D01*
X82914285Y-78292380D02*
X82914285Y-77292380D01*
X82676190Y-77292380D01*
X82533333Y-77340000D01*
X82438095Y-77435238D01*
X82390476Y-77530476D01*
X82342857Y-77720952D01*
X82342857Y-77863809D01*
X82390476Y-78054285D01*
X82438095Y-78149523D01*
X82533333Y-78244761D01*
X82676190Y-78292380D01*
X82914285Y-78292380D01*
X81961904Y-77387619D02*
X81914285Y-77340000D01*
X81819047Y-77292380D01*
X81580952Y-77292380D01*
X81485714Y-77340000D01*
X81438095Y-77387619D01*
X81390476Y-77482857D01*
X81390476Y-77578095D01*
X81438095Y-77720952D01*
X82009523Y-78292380D01*
X81390476Y-78292380D01*
X80771428Y-77292380D02*
X80676190Y-77292380D01*
X80580952Y-77340000D01*
X80533333Y-77387619D01*
X80485714Y-77482857D01*
X80438095Y-77673333D01*
X80438095Y-77911428D01*
X80485714Y-78101904D01*
X80533333Y-78197142D01*
X80580952Y-78244761D01*
X80676190Y-78292380D01*
X80771428Y-78292380D01*
X80866666Y-78244761D01*
X80914285Y-78197142D01*
X80961904Y-78101904D01*
X81009523Y-77911428D01*
X81009523Y-77673333D01*
X80961904Y-77482857D01*
X80914285Y-77387619D01*
X80866666Y-77340000D01*
X80771428Y-77292380D01*
X104014285Y-94152380D02*
X104014285Y-93152380D01*
X103776190Y-93152380D01*
X103633333Y-93200000D01*
X103538095Y-93295238D01*
X103490476Y-93390476D01*
X103442857Y-93580952D01*
X103442857Y-93723809D01*
X103490476Y-93914285D01*
X103538095Y-94009523D01*
X103633333Y-94104761D01*
X103776190Y-94152380D01*
X104014285Y-94152380D01*
X102490476Y-94152380D02*
X103061904Y-94152380D01*
X102776190Y-94152380D02*
X102776190Y-93152380D01*
X102871428Y-93295238D01*
X102966666Y-93390476D01*
X103061904Y-93438095D01*
X101919047Y-93580952D02*
X102014285Y-93533333D01*
X102061904Y-93485714D01*
X102109523Y-93390476D01*
X102109523Y-93342857D01*
X102061904Y-93247619D01*
X102014285Y-93200000D01*
X101919047Y-93152380D01*
X101728571Y-93152380D01*
X101633333Y-93200000D01*
X101585714Y-93247619D01*
X101538095Y-93342857D01*
X101538095Y-93390476D01*
X101585714Y-93485714D01*
X101633333Y-93533333D01*
X101728571Y-93580952D01*
X101919047Y-93580952D01*
X102014285Y-93628571D01*
X102061904Y-93676190D01*
X102109523Y-93771428D01*
X102109523Y-93961904D01*
X102061904Y-94057142D01*
X102014285Y-94104761D01*
X101919047Y-94152380D01*
X101728571Y-94152380D01*
X101633333Y-94104761D01*
X101585714Y-94057142D01*
X101538095Y-93961904D01*
X101538095Y-93771428D01*
X101585714Y-93676190D01*
X101633333Y-93628571D01*
X101728571Y-93580952D01*
X104014285Y-64452380D02*
X104014285Y-63452380D01*
X103776190Y-63452380D01*
X103633333Y-63500000D01*
X103538095Y-63595238D01*
X103490476Y-63690476D01*
X103442857Y-63880952D01*
X103442857Y-64023809D01*
X103490476Y-64214285D01*
X103538095Y-64309523D01*
X103633333Y-64404761D01*
X103776190Y-64452380D01*
X104014285Y-64452380D01*
X102490476Y-64452380D02*
X103061904Y-64452380D01*
X102776190Y-64452380D02*
X102776190Y-63452380D01*
X102871428Y-63595238D01*
X102966666Y-63690476D01*
X103061904Y-63738095D01*
X101633333Y-63452380D02*
X101823809Y-63452380D01*
X101919047Y-63500000D01*
X101966666Y-63547619D01*
X102061904Y-63690476D01*
X102109523Y-63880952D01*
X102109523Y-64261904D01*
X102061904Y-64357142D01*
X102014285Y-64404761D01*
X101919047Y-64452380D01*
X101728571Y-64452380D01*
X101633333Y-64404761D01*
X101585714Y-64357142D01*
X101538095Y-64261904D01*
X101538095Y-64023809D01*
X101585714Y-63928571D01*
X101633333Y-63880952D01*
X101728571Y-63833333D01*
X101919047Y-63833333D01*
X102014285Y-63880952D01*
X102061904Y-63928571D01*
X102109523Y-64023809D01*
X114914285Y-78292380D02*
X114914285Y-77292380D01*
X114676190Y-77292380D01*
X114533333Y-77340000D01*
X114438095Y-77435238D01*
X114390476Y-77530476D01*
X114342857Y-77720952D01*
X114342857Y-77863809D01*
X114390476Y-78054285D01*
X114438095Y-78149523D01*
X114533333Y-78244761D01*
X114676190Y-78292380D01*
X114914285Y-78292380D01*
X113390476Y-78292380D02*
X113961904Y-78292380D01*
X113676190Y-78292380D02*
X113676190Y-77292380D01*
X113771428Y-77435238D01*
X113866666Y-77530476D01*
X113961904Y-77578095D01*
X112771428Y-77292380D02*
X112676190Y-77292380D01*
X112580952Y-77340000D01*
X112533333Y-77387619D01*
X112485714Y-77482857D01*
X112438095Y-77673333D01*
X112438095Y-77911428D01*
X112485714Y-78101904D01*
X112533333Y-78197142D01*
X112580952Y-78244761D01*
X112676190Y-78292380D01*
X112771428Y-78292380D01*
X112866666Y-78244761D01*
X112914285Y-78197142D01*
X112961904Y-78101904D01*
X113009523Y-77911428D01*
X113009523Y-77673333D01*
X112961904Y-77482857D01*
X112914285Y-77387619D01*
X112866666Y-77340000D01*
X112771428Y-77292380D01*
X84738095Y-78292380D02*
X84738095Y-77292380D01*
X84500000Y-77292380D01*
X84357142Y-77340000D01*
X84261904Y-77435238D01*
X84214285Y-77530476D01*
X84166666Y-77720952D01*
X84166666Y-77863809D01*
X84214285Y-78054285D01*
X84261904Y-78149523D01*
X84357142Y-78244761D01*
X84500000Y-78292380D01*
X84738095Y-78292380D01*
X83595238Y-77720952D02*
X83690476Y-77673333D01*
X83738095Y-77625714D01*
X83785714Y-77530476D01*
X83785714Y-77482857D01*
X83738095Y-77387619D01*
X83690476Y-77340000D01*
X83595238Y-77292380D01*
X83404761Y-77292380D01*
X83309523Y-77340000D01*
X83261904Y-77387619D01*
X83214285Y-77482857D01*
X83214285Y-77530476D01*
X83261904Y-77625714D01*
X83309523Y-77673333D01*
X83404761Y-77720952D01*
X83595238Y-77720952D01*
X83690476Y-77768571D01*
X83738095Y-77816190D01*
X83785714Y-77911428D01*
X83785714Y-78101904D01*
X83738095Y-78197142D01*
X83690476Y-78244761D01*
X83595238Y-78292380D01*
X83404761Y-78292380D01*
X83309523Y-78244761D01*
X83261904Y-78197142D01*
X83214285Y-78101904D01*
X83214285Y-77911428D01*
X83261904Y-77816190D01*
X83309523Y-77768571D01*
X83404761Y-77720952D01*
X99638095Y-51912380D02*
X99638095Y-50912380D01*
X99400000Y-50912380D01*
X99257142Y-50960000D01*
X99161904Y-51055238D01*
X99114285Y-51150476D01*
X99066666Y-51340952D01*
X99066666Y-51483809D01*
X99114285Y-51674285D01*
X99161904Y-51769523D01*
X99257142Y-51864761D01*
X99400000Y-51912380D01*
X99638095Y-51912380D01*
X98209523Y-50912380D02*
X98400000Y-50912380D01*
X98495238Y-50960000D01*
X98542857Y-51007619D01*
X98638095Y-51150476D01*
X98685714Y-51340952D01*
X98685714Y-51721904D01*
X98638095Y-51817142D01*
X98590476Y-51864761D01*
X98495238Y-51912380D01*
X98304761Y-51912380D01*
X98209523Y-51864761D01*
X98161904Y-51817142D01*
X98114285Y-51721904D01*
X98114285Y-51483809D01*
X98161904Y-51388571D01*
X98209523Y-51340952D01*
X98304761Y-51293333D01*
X98495238Y-51293333D01*
X98590476Y-51340952D01*
X98638095Y-51388571D01*
X98685714Y-51483809D01*
X101938095Y-78292380D02*
X101938095Y-77292380D01*
X101700000Y-77292380D01*
X101557142Y-77340000D01*
X101461904Y-77435238D01*
X101414285Y-77530476D01*
X101366666Y-77720952D01*
X101366666Y-77863809D01*
X101414285Y-78054285D01*
X101461904Y-78149523D01*
X101557142Y-78244761D01*
X101700000Y-78292380D01*
X101938095Y-78292380D01*
X100985714Y-77387619D02*
X100938095Y-77340000D01*
X100842857Y-77292380D01*
X100604761Y-77292380D01*
X100509523Y-77340000D01*
X100461904Y-77387619D01*
X100414285Y-77482857D01*
X100414285Y-77578095D01*
X100461904Y-77720952D01*
X101033333Y-78292380D01*
X100414285Y-78292380D01*
M02*
