G04 #@! TF.GenerationSoftware,KiCad,Pcbnew,(5.1.6-0)*
G04 #@! TF.CreationDate,2021-01-08T20:23:25+00:00*
G04 #@! TF.ProjectId,XMAS_Star_21,584d4153-5f53-4746-9172-5f32312e6b69,rev?*
G04 #@! TF.SameCoordinates,Original*
G04 #@! TF.FileFunction,Copper,L3,Inr*
G04 #@! TF.FilePolarity,Positive*
%FSLAX46Y46*%
G04 Gerber Fmt 4.6, Leading zero omitted, Abs format (unit mm)*
G04 Created by KiCad (PCBNEW (5.1.6-0)) date 2021-01-08 20:23:25*
%MOMM*%
%LPD*%
G01*
G04 APERTURE LIST*
G04 #@! TA.AperFunction,ViaPad*
%ADD10O,1.700000X1.700000*%
G04 #@! TD*
G04 #@! TA.AperFunction,ViaPad*
%ADD11R,1.700000X1.700000*%
G04 #@! TD*
G04 #@! TA.AperFunction,ViaPad*
%ADD12C,0.500000*%
G04 #@! TD*
G04 #@! TA.AperFunction,ViaPad*
%ADD13R,0.850000X0.850000*%
G04 #@! TD*
G04 #@! TA.AperFunction,ViaPad*
%ADD14C,0.100000*%
G04 #@! TD*
G04 #@! TA.AperFunction,ViaPad*
%ADD15O,0.850000X0.850000*%
G04 #@! TD*
G04 #@! TA.AperFunction,ViaPad*
%ADD16C,0.800000*%
G04 #@! TD*
G04 #@! TA.AperFunction,Conductor*
%ADD17C,0.250000*%
G04 #@! TD*
G04 #@! TA.AperFunction,Conductor*
%ADD18C,0.254000*%
G04 #@! TD*
G04 APERTURE END LIST*
D10*
X90300000Y-135280000D03*
X90300000Y-132740000D03*
D11*
X90300000Y-130200000D03*
D12*
X104730000Y-121610000D03*
X105830000Y-121610000D03*
X106930000Y-121610000D03*
X104730000Y-122710000D03*
X105830000Y-122710000D03*
X106930000Y-122710000D03*
X104730000Y-123810000D03*
X105830000Y-123810000D03*
X106930000Y-123810000D03*
D13*
X99940000Y-109900000D03*
G04 #@! TA.AperFunction,ViaPad*
G36*
G01*
X78393413Y-57792373D02*
X78393413Y-57792373D01*
G75*
G02*
X78393413Y-58393413I-300520J-300520D01*
G01*
X78393413Y-58393413D01*
G75*
G02*
X77792373Y-58393413I-300520J300520D01*
G01*
X77792373Y-58393413D01*
G75*
G02*
X77792373Y-57792373I300520J300520D01*
G01*
X77792373Y-57792373D01*
G75*
G02*
X78393413Y-57792373I300520J-300520D01*
G01*
G37*
G04 #@! TD.AperFunction*
G04 #@! TA.AperFunction,ViaPad*
D14*
G36*
X78800000Y-58198959D02*
G01*
X79401041Y-58800000D01*
X78800000Y-59401041D01*
X78198959Y-58800000D01*
X78800000Y-58198959D01*
G37*
G04 #@! TD.AperFunction*
G04 #@! TA.AperFunction,ViaPad*
G36*
G01*
X122307627Y-58393413D02*
X122307627Y-58393413D01*
G75*
G02*
X121706587Y-58393413I-300520J300520D01*
G01*
X121706587Y-58393413D01*
G75*
G02*
X121706587Y-57792373I300520J300520D01*
G01*
X121706587Y-57792373D01*
G75*
G02*
X122307627Y-57792373I300520J-300520D01*
G01*
X122307627Y-57792373D01*
G75*
G02*
X122307627Y-58393413I-300520J-300520D01*
G01*
G37*
G04 #@! TD.AperFunction*
G04 #@! TA.AperFunction,ViaPad*
G36*
X121901041Y-58800000D02*
G01*
X121300000Y-59401041D01*
X120698959Y-58800000D01*
X121300000Y-58198959D01*
X121901041Y-58800000D01*
G37*
G04 #@! TD.AperFunction*
G04 #@! TA.AperFunction,ViaPad*
G36*
G01*
X121606587Y-102207627D02*
X121606587Y-102207627D01*
G75*
G02*
X121606587Y-101606587I300520J300520D01*
G01*
X121606587Y-101606587D01*
G75*
G02*
X122207627Y-101606587I300520J-300520D01*
G01*
X122207627Y-101606587D01*
G75*
G02*
X122207627Y-102207627I-300520J-300520D01*
G01*
X122207627Y-102207627D01*
G75*
G02*
X121606587Y-102207627I-300520J300520D01*
G01*
G37*
G04 #@! TD.AperFunction*
G04 #@! TA.AperFunction,ViaPad*
G36*
X121200000Y-101801041D02*
G01*
X120598959Y-101200000D01*
X121200000Y-100598959D01*
X121801041Y-101200000D01*
X121200000Y-101801041D01*
G37*
G04 #@! TD.AperFunction*
G04 #@! TA.AperFunction,ViaPad*
G36*
G01*
X77792373Y-101506587D02*
X77792373Y-101506587D01*
G75*
G02*
X78393413Y-101506587I300520J-300520D01*
G01*
X78393413Y-101506587D01*
G75*
G02*
X78393413Y-102107627I-300520J-300520D01*
G01*
X78393413Y-102107627D01*
G75*
G02*
X77792373Y-102107627I-300520J300520D01*
G01*
X77792373Y-102107627D01*
G75*
G02*
X77792373Y-101506587I300520J300520D01*
G01*
G37*
G04 #@! TD.AperFunction*
G04 #@! TA.AperFunction,ViaPad*
G36*
X78198959Y-101100000D02*
G01*
X78800000Y-100498959D01*
X79401041Y-101100000D01*
X78800000Y-101701041D01*
X78198959Y-101100000D01*
G37*
G04 #@! TD.AperFunction*
D15*
X100400000Y-91400000D03*
D13*
X99400000Y-91400000D03*
D15*
X100400000Y-68600000D03*
D13*
X99400000Y-68600000D03*
D15*
X100400000Y-61700000D03*
D13*
X99400000Y-61700000D03*
D15*
X100400000Y-98300000D03*
D13*
X99400000Y-98300000D03*
G04 #@! TA.AperFunction,ViaPad*
G36*
G01*
X119406587Y-100007627D02*
X119406587Y-100007627D01*
G75*
G02*
X119406587Y-99406587I300520J300520D01*
G01*
X119406587Y-99406587D01*
G75*
G02*
X120007627Y-99406587I300520J-300520D01*
G01*
X120007627Y-99406587D01*
G75*
G02*
X120007627Y-100007627I-300520J-300520D01*
G01*
X120007627Y-100007627D01*
G75*
G02*
X119406587Y-100007627I-300520J300520D01*
G01*
G37*
G04 #@! TD.AperFunction*
G04 #@! TA.AperFunction,ViaPad*
D14*
G36*
X119000000Y-99601041D02*
G01*
X118398959Y-99000000D01*
X119000000Y-98398959D01*
X119601041Y-99000000D01*
X119000000Y-99601041D01*
G37*
G04 #@! TD.AperFunction*
G04 #@! TA.AperFunction,ViaPad*
G36*
G01*
X80593413Y-59992373D02*
X80593413Y-59992373D01*
G75*
G02*
X80593413Y-60593413I-300520J-300520D01*
G01*
X80593413Y-60593413D01*
G75*
G02*
X79992373Y-60593413I-300520J300520D01*
G01*
X79992373Y-60593413D01*
G75*
G02*
X79992373Y-59992373I300520J300520D01*
G01*
X79992373Y-59992373D01*
G75*
G02*
X80593413Y-59992373I300520J-300520D01*
G01*
G37*
G04 #@! TD.AperFunction*
G04 #@! TA.AperFunction,ViaPad*
G36*
X81000000Y-60398959D02*
G01*
X81601041Y-61000000D01*
X81000000Y-61601041D01*
X80398959Y-61000000D01*
X81000000Y-60398959D01*
G37*
G04 #@! TD.AperFunction*
G04 #@! TA.AperFunction,ViaPad*
G36*
G01*
X120107627Y-60593413D02*
X120107627Y-60593413D01*
G75*
G02*
X119506587Y-60593413I-300520J300520D01*
G01*
X119506587Y-60593413D01*
G75*
G02*
X119506587Y-59992373I300520J300520D01*
G01*
X119506587Y-59992373D01*
G75*
G02*
X120107627Y-59992373I300520J-300520D01*
G01*
X120107627Y-59992373D01*
G75*
G02*
X120107627Y-60593413I-300520J-300520D01*
G01*
G37*
G04 #@! TD.AperFunction*
G04 #@! TA.AperFunction,ViaPad*
G36*
X119701041Y-61000000D02*
G01*
X119100000Y-61601041D01*
X118498959Y-61000000D01*
X119100000Y-60398959D01*
X119701041Y-61000000D01*
G37*
G04 #@! TD.AperFunction*
G04 #@! TA.AperFunction,ViaPad*
G36*
G01*
X79992373Y-99306587D02*
X79992373Y-99306587D01*
G75*
G02*
X80593413Y-99306587I300520J-300520D01*
G01*
X80593413Y-99306587D01*
G75*
G02*
X80593413Y-99907627I-300520J-300520D01*
G01*
X80593413Y-99907627D01*
G75*
G02*
X79992373Y-99907627I-300520J300520D01*
G01*
X79992373Y-99907627D01*
G75*
G02*
X79992373Y-99306587I300520J300520D01*
G01*
G37*
G04 #@! TD.AperFunction*
G04 #@! TA.AperFunction,ViaPad*
G36*
X80398959Y-98900000D02*
G01*
X81000000Y-98298959D01*
X81601041Y-98900000D01*
X81000000Y-99501041D01*
X80398959Y-98900000D01*
G37*
G04 #@! TD.AperFunction*
D15*
X111400000Y-80400000D03*
D13*
X111400000Y-79400000D03*
D15*
X88600000Y-80400000D03*
D13*
X88600000Y-79400000D03*
D15*
X81700000Y-80400000D03*
D13*
X81700000Y-79400000D03*
D15*
X118300000Y-80400000D03*
D13*
X118300000Y-79400000D03*
X99400000Y-93700000D03*
D15*
X100400000Y-93700000D03*
D13*
X99400000Y-66300000D03*
D15*
X100400000Y-66300000D03*
D13*
X99400000Y-64000000D03*
D15*
X100400000Y-64000000D03*
D13*
X99400000Y-96000000D03*
D15*
X100400000Y-96000000D03*
X113700000Y-80400000D03*
D13*
X113700000Y-79400000D03*
D15*
X86300000Y-80400000D03*
D13*
X86300000Y-79400000D03*
D15*
X84000000Y-80400000D03*
D13*
X84000000Y-79400000D03*
D15*
X116000000Y-80400000D03*
D13*
X116000000Y-79400000D03*
D15*
X98900000Y-48900000D03*
D13*
X98900000Y-49900000D03*
D15*
X101200000Y-48900000D03*
D13*
X101200000Y-49900000D03*
D15*
X131000000Y-80000000D03*
D13*
X130000000Y-80000000D03*
D15*
X69000000Y-80000000D03*
D13*
X70000000Y-80000000D03*
D15*
X101200000Y-80400000D03*
D13*
X101200000Y-79400000D03*
D15*
X98800000Y-80400000D03*
D13*
X98800000Y-79400000D03*
D16*
X84662336Y-87205933D03*
X110148426Y-120343369D03*
X109313264Y-120958599D03*
X107830427Y-117454957D03*
X104000000Y-130600000D03*
X99250000Y-82210000D03*
X105025000Y-127475000D03*
X100787500Y-135000000D03*
X108145000Y-124955000D03*
X98300000Y-123912500D03*
X86025000Y-111215000D03*
X104825963Y-117707262D03*
X108332604Y-120762820D03*
X106103588Y-117454957D03*
X103704067Y-117803838D03*
X102727241Y-117589748D03*
X111110000Y-104050000D03*
X110867413Y-114492587D03*
X97640000Y-111450000D03*
X97680000Y-191100000D03*
X126780000Y-183130000D03*
X99212500Y-135000000D03*
X99510000Y-128960000D03*
X127780000Y-183130000D03*
X126780000Y-184130000D03*
X127780000Y-184130000D03*
X126780000Y-185130000D03*
X127780000Y-185130000D03*
X129930000Y-186025000D03*
X132130000Y-185705000D03*
X98680000Y-191100000D03*
X99680000Y-191100000D03*
X100680000Y-191100000D03*
X101680000Y-191100000D03*
X102680000Y-191100000D03*
X100510000Y-128960000D03*
X99510000Y-129960000D03*
X100510000Y-129960000D03*
X100890000Y-114720000D03*
X97652500Y-114512500D03*
X97652500Y-117067500D03*
X128354806Y-150665739D03*
X128112882Y-149695444D03*
X127870961Y-148725148D03*
X127629039Y-147754852D03*
X127387118Y-146784556D03*
X127145194Y-145814261D03*
X126854806Y-144775739D03*
X126612882Y-143805444D03*
X126370961Y-142835148D03*
X125887118Y-140894556D03*
X126129039Y-141864852D03*
X131737118Y-162534556D03*
X132462882Y-165445444D03*
X131979039Y-163504852D03*
X132704806Y-166415739D03*
X132220961Y-164475148D03*
X131495194Y-161564261D03*
X133972882Y-171325444D03*
X133730961Y-170355148D03*
X133005194Y-167444261D03*
X134214806Y-172295739D03*
X133489039Y-169384852D03*
X133247118Y-168414556D03*
X129930000Y-183485000D03*
X103680000Y-191100000D03*
X104680000Y-191100000D03*
X105680000Y-191100000D03*
X106680000Y-191100000D03*
X107680000Y-191100000D03*
X108680000Y-191100000D03*
X109680000Y-191100000D03*
X110680000Y-191100000D03*
X111680000Y-191100000D03*
X112680000Y-191100000D03*
X96680000Y-191100000D03*
X95680000Y-191100000D03*
X94680000Y-191100000D03*
X93680000Y-191100000D03*
X92680000Y-191100000D03*
X91680000Y-191100000D03*
X90680000Y-191100000D03*
X89680000Y-191100000D03*
X88680000Y-191100000D03*
X87680000Y-191100000D03*
X135192882Y-176215444D03*
X135434806Y-177185739D03*
X136190961Y-180125148D03*
X136432882Y-181095444D03*
X135707118Y-178184556D03*
X136674806Y-182065739D03*
X135949039Y-179154852D03*
X136947118Y-183124556D03*
X137189039Y-184094852D03*
X137430961Y-185065148D03*
X104300000Y-114700000D03*
X106575000Y-127470000D03*
X109622578Y-115941979D03*
X110571367Y-116911250D03*
X109732088Y-117454957D03*
X101835010Y-122571003D03*
X102378105Y-123410689D03*
X102083542Y-124366333D03*
X100787500Y-82220000D03*
X101590000Y-121360000D03*
X103050000Y-127530000D03*
X101840000Y-112520000D03*
X107250000Y-126010000D03*
X101988436Y-126845030D03*
D17*
X84935010Y-87315010D02*
X84771413Y-87315010D01*
X84771413Y-87315010D02*
X84662336Y-87205933D01*
X84339978Y-118806389D02*
X85668566Y-120134977D01*
X85668566Y-120134977D02*
X100469200Y-120134977D01*
X84339978Y-87528291D02*
X84339978Y-118806389D01*
X84662336Y-87205933D02*
X84339978Y-87528291D01*
X102650801Y-119714977D02*
X103070800Y-120134977D01*
X100469200Y-120134977D02*
X100889200Y-119714977D01*
X109748427Y-119943370D02*
X110148426Y-120343369D01*
X108110379Y-119943370D02*
X109748427Y-119943370D01*
X107918772Y-120134977D02*
X108110379Y-119943370D01*
X103070800Y-120134977D02*
X107918772Y-120134977D01*
X100889200Y-119714977D02*
X102650801Y-119714977D01*
X83416296Y-114153704D02*
X83416296Y-115226970D01*
X83416296Y-97451940D02*
X83416296Y-114153704D01*
X70000000Y-84035644D02*
X83416296Y-97451940D01*
X70000000Y-80000000D02*
X70000000Y-84035644D01*
X83416296Y-119509118D02*
X84942177Y-121034999D01*
X102685001Y-121034999D02*
X107503909Y-121034999D01*
X108761874Y-121509989D02*
X109313264Y-120958599D01*
X107978899Y-121509989D02*
X108761874Y-121509989D01*
X107503909Y-121034999D02*
X107978899Y-121509989D01*
X102265001Y-120614999D02*
X102685001Y-121034999D01*
X101284999Y-120614999D02*
X102265001Y-120614999D01*
X100864999Y-121034999D02*
X101284999Y-120614999D01*
X84942177Y-121034999D02*
X100864999Y-121034999D01*
X83416296Y-114153704D02*
X83416296Y-119509118D01*
X105600418Y-119684966D02*
X107830427Y-117454957D01*
X85549999Y-87343589D02*
X84789989Y-88103598D01*
X98900000Y-49900000D02*
X84980104Y-49900000D01*
X84980104Y-49900000D02*
X77210052Y-57670052D01*
X77210052Y-60870052D02*
X85549999Y-69209999D01*
X85549999Y-69209999D02*
X85549999Y-87343589D01*
X102837202Y-119264967D02*
X103257200Y-119684966D01*
X100282799Y-119684966D02*
X100702798Y-119264967D01*
X100702798Y-119264967D02*
X102837202Y-119264967D01*
X103257200Y-119684966D02*
X105600418Y-119684966D01*
X77210052Y-57670052D02*
X77210052Y-60870052D01*
X84789989Y-118619989D02*
X85854966Y-119684966D01*
X85854966Y-119684966D02*
X100282799Y-119684966D01*
X84789989Y-88103598D02*
X84789989Y-118619989D01*
X79171230Y-101471230D02*
X78800000Y-101100000D01*
X86025000Y-111215000D02*
X93174944Y-118364944D01*
X93174944Y-118364944D02*
X103210000Y-118364944D01*
X103210000Y-118364944D02*
X103630000Y-118784944D01*
X103630000Y-118784944D02*
X103748281Y-118784944D01*
X103748281Y-118784944D02*
X104825963Y-117707262D01*
X84210000Y-81300002D02*
X84750001Y-80760001D01*
X84675000Y-79400000D02*
X84000000Y-79400000D01*
X84750001Y-79475001D02*
X84675000Y-79400000D01*
X84750001Y-80760001D02*
X84750001Y-79475001D01*
X100655599Y-120584988D02*
X101075599Y-120164988D01*
X101075599Y-120164988D02*
X102464401Y-120164988D01*
X102884401Y-120584988D02*
X108154772Y-120584988D01*
X84000000Y-86845265D02*
X83879958Y-86965307D01*
X108154772Y-120584988D02*
X108332604Y-120762820D01*
X102464401Y-120164988D02*
X102884401Y-120584988D01*
X85482166Y-120584988D02*
X100655599Y-120584988D01*
X83879958Y-118982780D02*
X85482166Y-120584988D01*
X83879958Y-86965307D02*
X83879958Y-118982780D01*
X84000000Y-81510002D02*
X84000000Y-86845265D01*
X84750001Y-80760001D02*
X84000000Y-81510002D01*
X87050001Y-79475001D02*
X87050001Y-86479997D01*
X103023600Y-118814955D02*
X103443600Y-119234955D01*
X85240000Y-118266411D02*
X86208544Y-119234955D01*
X86300000Y-79400000D02*
X86975000Y-79400000D01*
X103443600Y-119234955D02*
X104323590Y-119234955D01*
X85240000Y-88289998D02*
X85240000Y-118266411D01*
X87050001Y-86479997D02*
X85240000Y-88289998D01*
X100096400Y-119234955D02*
X100516400Y-118814955D01*
X86208544Y-119234955D02*
X100096400Y-119234955D01*
X100516400Y-118814955D02*
X103023600Y-118814955D01*
X104323590Y-119234955D02*
X106103588Y-117454957D01*
X86975000Y-79400000D02*
X87050001Y-79475001D01*
X121200000Y-101200000D02*
X121200000Y-100100000D01*
X110649999Y-89549999D02*
X110649999Y-69649999D01*
X121200000Y-100100000D02*
X110649999Y-89549999D01*
X99800000Y-58800000D02*
X78800000Y-58800000D01*
X110649999Y-69649999D02*
X99800000Y-58800000D01*
X121200000Y-101200000D02*
X112730000Y-101200000D01*
X105660011Y-115847894D02*
X103704067Y-117803838D01*
X105660011Y-108269989D02*
X105660011Y-115847894D01*
X112730000Y-101200000D02*
X105660011Y-108269989D01*
X102727241Y-99517239D02*
X102727241Y-117589748D01*
X99400000Y-96189998D02*
X102727241Y-99517239D01*
X99400000Y-96000000D02*
X99400000Y-96189998D01*
X97099982Y-83122802D02*
X97850011Y-83872831D01*
X97850011Y-83872831D02*
X97850011Y-95125011D01*
X97850011Y-95125011D02*
X98725000Y-96000000D01*
X98725000Y-64000000D02*
X98150009Y-64574991D01*
X98725000Y-96000000D02*
X99400000Y-96000000D01*
X97099982Y-78392194D02*
X97099982Y-83122802D01*
X98150009Y-77342167D02*
X97099982Y-78392194D01*
X98150009Y-64574991D02*
X98150009Y-77342167D01*
X99400000Y-64000000D02*
X98725000Y-64000000D01*
X111110000Y-114250000D02*
X110867413Y-114492587D01*
X111110000Y-107980000D02*
X111110000Y-108321758D01*
X111110000Y-107980000D02*
X111110000Y-114250000D01*
X111110000Y-104050000D02*
X111110000Y-107980000D01*
X98300022Y-83686432D02*
X98300022Y-93275022D01*
X99400000Y-66300000D02*
X98725000Y-66300000D01*
X98725000Y-93700000D02*
X99400000Y-93700000D01*
X98600020Y-77528567D02*
X97549993Y-78578594D01*
X98300022Y-93275022D02*
X98725000Y-93700000D01*
X97549993Y-82936403D02*
X98300022Y-83686432D01*
X97549993Y-78578594D02*
X97549993Y-82936403D01*
X98600020Y-66424980D02*
X98600020Y-77528567D01*
X98725000Y-66300000D02*
X98600020Y-66424980D01*
X99400000Y-98300000D02*
X98725000Y-98300000D01*
X96649971Y-78049971D02*
X97699998Y-76999944D01*
X97400000Y-96975000D02*
X97400000Y-84059232D01*
X97699998Y-76999944D02*
X97699999Y-62725001D01*
X96649971Y-83309203D02*
X96649971Y-78049971D01*
X98725000Y-98300000D02*
X97400000Y-96975000D01*
X97699999Y-62725001D02*
X98725000Y-61700000D01*
X98725000Y-61700000D02*
X99400000Y-61700000D01*
X97400000Y-84059232D02*
X96649971Y-83309203D01*
X99400000Y-77364998D02*
X99400000Y-68600000D01*
X98000003Y-78764995D02*
X99400000Y-77364998D01*
X98000003Y-82750003D02*
X98000003Y-78764995D01*
X99400000Y-84150000D02*
X98000003Y-82750003D01*
X99400000Y-91400000D02*
X99400000Y-84150000D01*
X110049991Y-90049991D02*
X118628770Y-98628770D01*
X81000000Y-61000000D02*
X81371230Y-60628770D01*
X118628770Y-98628770D02*
X119000000Y-99000000D01*
X81371230Y-60628770D02*
X100438772Y-60628770D01*
X110100000Y-89163590D02*
X110049991Y-89213599D01*
X100438772Y-60628770D02*
X110100000Y-70289998D01*
X110100000Y-70289998D02*
X110100000Y-89163590D01*
X110049991Y-89213599D02*
X110049991Y-90049991D01*
D18*
G36*
X102276611Y-45729257D02*
G01*
X104542867Y-45955483D01*
X106789125Y-46331401D01*
X109005560Y-46855367D01*
X111182388Y-47525072D01*
X113310041Y-48337568D01*
X115379166Y-49289285D01*
X117380676Y-50376043D01*
X119305762Y-51593058D01*
X121145948Y-52934973D01*
X122893164Y-54395902D01*
X124539716Y-55969414D01*
X126078371Y-57648594D01*
X127502350Y-59426047D01*
X128805402Y-61293970D01*
X129981797Y-63244148D01*
X131026356Y-65267992D01*
X131934486Y-67356608D01*
X132702208Y-69500842D01*
X133326132Y-71691227D01*
X133803517Y-73918139D01*
X134132268Y-76171803D01*
X134310936Y-78442297D01*
X134338737Y-80719643D01*
X134215548Y-82993827D01*
X133941912Y-85254843D01*
X133519032Y-87492746D01*
X132948765Y-89697714D01*
X132233618Y-91860044D01*
X131376744Y-93970207D01*
X130381901Y-96018954D01*
X129253468Y-97997260D01*
X127996408Y-99896429D01*
X126616230Y-101708134D01*
X125119036Y-103424363D01*
X123511387Y-105037600D01*
X121800363Y-106540741D01*
X119993467Y-107927193D01*
X118088720Y-109197628D01*
X118039134Y-109229409D01*
X117945467Y-109319567D01*
X117871188Y-109426268D01*
X117819153Y-109545409D01*
X117791361Y-109672412D01*
X117788879Y-109802395D01*
X117806061Y-109898302D01*
X139197031Y-185585609D01*
X135878657Y-186768823D01*
X131942113Y-188011855D01*
X127962726Y-189109787D01*
X123945771Y-190061163D01*
X119896627Y-190864709D01*
X115820754Y-191519340D01*
X111723668Y-192024173D01*
X107610796Y-192378537D01*
X103487728Y-192581950D01*
X99359978Y-192634142D01*
X95233055Y-192535042D01*
X91112554Y-192284785D01*
X87004002Y-191883706D01*
X82912882Y-191332340D01*
X78844742Y-190631436D01*
X74805001Y-189781928D01*
X70799100Y-188784958D01*
X66832434Y-187641871D01*
X62908553Y-186353617D01*
X60802039Y-185588990D01*
X68664349Y-157774069D01*
X128905672Y-157774069D01*
X128905672Y-157987795D01*
X128947368Y-158197415D01*
X129029157Y-158394872D01*
X129147897Y-158572579D01*
X129299025Y-158723707D01*
X129476732Y-158842447D01*
X129674189Y-158924236D01*
X129883809Y-158965932D01*
X130097535Y-158965932D01*
X130307155Y-158924236D01*
X130504612Y-158842447D01*
X130682319Y-158723707D01*
X130833447Y-158572579D01*
X130952187Y-158394872D01*
X131033976Y-158197415D01*
X131075672Y-157987795D01*
X131075672Y-157774069D01*
X131033976Y-157564449D01*
X130952187Y-157366992D01*
X130833447Y-157189285D01*
X130682319Y-157038157D01*
X130504612Y-156919417D01*
X130307155Y-156837628D01*
X130097535Y-156795932D01*
X129883809Y-156795932D01*
X129674189Y-156837628D01*
X129476732Y-156919417D01*
X129299025Y-157038157D01*
X129147897Y-157189285D01*
X129029157Y-157366992D01*
X128947368Y-157564449D01*
X128905672Y-157774069D01*
X68664349Y-157774069D01*
X69479495Y-154890284D01*
X128078760Y-154890284D01*
X128078760Y-155104010D01*
X128120456Y-155313630D01*
X128202245Y-155511087D01*
X128320985Y-155688794D01*
X128472113Y-155839922D01*
X128649820Y-155958662D01*
X128847277Y-156040451D01*
X129056897Y-156082147D01*
X129270623Y-156082147D01*
X129480243Y-156040451D01*
X129677700Y-155958662D01*
X129855407Y-155839922D01*
X130006535Y-155688794D01*
X130125275Y-155511087D01*
X130207064Y-155313630D01*
X130248760Y-155104010D01*
X130248760Y-154890284D01*
X130207064Y-154680664D01*
X130125275Y-154483207D01*
X130006535Y-154305500D01*
X129855407Y-154154372D01*
X129677700Y-154035632D01*
X129480243Y-153953843D01*
X129270623Y-153912147D01*
X129056897Y-153912147D01*
X128847277Y-153953843D01*
X128649820Y-154035632D01*
X128472113Y-154154372D01*
X128320985Y-154305500D01*
X128202245Y-154483207D01*
X128120456Y-154680664D01*
X128078760Y-154890284D01*
X69479495Y-154890284D01*
X75130602Y-134898061D01*
X99752500Y-134898061D01*
X99752500Y-135101939D01*
X99792274Y-135301898D01*
X99870295Y-135490256D01*
X99983563Y-135659774D01*
X100127726Y-135803937D01*
X100297244Y-135917205D01*
X100485602Y-135995226D01*
X100685561Y-136035000D01*
X100889439Y-136035000D01*
X101089398Y-135995226D01*
X101277756Y-135917205D01*
X101447274Y-135803937D01*
X101591437Y-135659774D01*
X101704705Y-135490256D01*
X101782726Y-135301898D01*
X101822500Y-135101939D01*
X101822500Y-134898061D01*
X101782726Y-134698102D01*
X101704705Y-134509744D01*
X101591437Y-134340226D01*
X101447274Y-134196063D01*
X101277756Y-134082795D01*
X101089398Y-134004774D01*
X100889439Y-133965000D01*
X100685561Y-133965000D01*
X100485602Y-134004774D01*
X100297244Y-134082795D01*
X100127726Y-134196063D01*
X99983563Y-134340226D01*
X99870295Y-134509744D01*
X99792274Y-134698102D01*
X99752500Y-134898061D01*
X75130602Y-134898061D01*
X76698847Y-129350000D01*
X88811928Y-129350000D01*
X88811928Y-131050000D01*
X88824188Y-131174482D01*
X88860498Y-131294180D01*
X88919463Y-131404494D01*
X88998815Y-131501185D01*
X89095506Y-131580537D01*
X89205820Y-131639502D01*
X89278380Y-131661513D01*
X89146525Y-131793368D01*
X88984010Y-132036589D01*
X88872068Y-132306842D01*
X88815000Y-132593740D01*
X88815000Y-132886260D01*
X88872068Y-133173158D01*
X88984010Y-133443411D01*
X89146525Y-133686632D01*
X89353368Y-133893475D01*
X89596589Y-134055990D01*
X89866842Y-134167932D01*
X90153740Y-134225000D01*
X90446260Y-134225000D01*
X90733158Y-134167932D01*
X91003411Y-134055990D01*
X91246632Y-133893475D01*
X91453475Y-133686632D01*
X91615990Y-133443411D01*
X91727932Y-133173158D01*
X91785000Y-132886260D01*
X91785000Y-132593740D01*
X91727932Y-132306842D01*
X91615990Y-132036589D01*
X91453475Y-131793368D01*
X91321620Y-131661513D01*
X91394180Y-131639502D01*
X91504494Y-131580537D01*
X91601185Y-131501185D01*
X91680537Y-131404494D01*
X91739502Y-131294180D01*
X91775812Y-131174482D01*
X91788072Y-131050000D01*
X91788072Y-130498061D01*
X102965000Y-130498061D01*
X102965000Y-130701939D01*
X103004774Y-130901898D01*
X103082795Y-131090256D01*
X103196063Y-131259774D01*
X103340226Y-131403937D01*
X103509744Y-131517205D01*
X103698102Y-131595226D01*
X103898061Y-131635000D01*
X104101939Y-131635000D01*
X104301898Y-131595226D01*
X104490256Y-131517205D01*
X104659774Y-131403937D01*
X104803937Y-131259774D01*
X104917205Y-131090256D01*
X104995226Y-130901898D01*
X105035000Y-130701939D01*
X105035000Y-130498061D01*
X104995226Y-130298102D01*
X104917205Y-130109744D01*
X104803937Y-129940226D01*
X104659774Y-129796063D01*
X104490256Y-129682795D01*
X104301898Y-129604774D01*
X104101939Y-129565000D01*
X103898061Y-129565000D01*
X103698102Y-129604774D01*
X103509744Y-129682795D01*
X103340226Y-129796063D01*
X103196063Y-129940226D01*
X103082795Y-130109744D01*
X103004774Y-130298102D01*
X102965000Y-130498061D01*
X91788072Y-130498061D01*
X91788072Y-129350000D01*
X91775812Y-129225518D01*
X91739502Y-129105820D01*
X91680537Y-128995506D01*
X91601185Y-128898815D01*
X91504494Y-128819463D01*
X91394180Y-128760498D01*
X91274482Y-128724188D01*
X91150000Y-128711928D01*
X89450000Y-128711928D01*
X89325518Y-128724188D01*
X89205820Y-128760498D01*
X89095506Y-128819463D01*
X88998815Y-128898815D01*
X88919463Y-128995506D01*
X88860498Y-129105820D01*
X88824188Y-129225518D01*
X88811928Y-129350000D01*
X76698847Y-129350000D01*
X77435729Y-126743091D01*
X100953436Y-126743091D01*
X100953436Y-126946969D01*
X100993210Y-127146928D01*
X101071231Y-127335286D01*
X101184499Y-127504804D01*
X101328662Y-127648967D01*
X101498180Y-127762235D01*
X101686538Y-127840256D01*
X101886497Y-127880030D01*
X102074711Y-127880030D01*
X102132795Y-128020256D01*
X102246063Y-128189774D01*
X102390226Y-128333937D01*
X102559744Y-128447205D01*
X102748102Y-128525226D01*
X102948061Y-128565000D01*
X103151939Y-128565000D01*
X103351898Y-128525226D01*
X103540256Y-128447205D01*
X103709774Y-128333937D01*
X103853937Y-128189774D01*
X103967205Y-128020256D01*
X104045226Y-127831898D01*
X104047604Y-127819943D01*
X104107795Y-127965256D01*
X104221063Y-128134774D01*
X104365226Y-128278937D01*
X104534744Y-128392205D01*
X104723102Y-128470226D01*
X104923061Y-128510000D01*
X105126939Y-128510000D01*
X105326898Y-128470226D01*
X105515256Y-128392205D01*
X105684774Y-128278937D01*
X105828937Y-128134774D01*
X105942205Y-127965256D01*
X106020226Y-127776898D01*
X106060000Y-127576939D01*
X106060000Y-127373061D01*
X106020226Y-127173102D01*
X105942205Y-126984744D01*
X105828937Y-126815226D01*
X105684774Y-126671063D01*
X105515256Y-126557795D01*
X105326898Y-126479774D01*
X105126939Y-126440000D01*
X104923061Y-126440000D01*
X104723102Y-126479774D01*
X104534744Y-126557795D01*
X104365226Y-126671063D01*
X104221063Y-126815226D01*
X104107795Y-126984744D01*
X104029774Y-127173102D01*
X104027396Y-127185057D01*
X103967205Y-127039744D01*
X103853937Y-126870226D01*
X103709774Y-126726063D01*
X103540256Y-126612795D01*
X103351898Y-126534774D01*
X103151939Y-126495000D01*
X102963725Y-126495000D01*
X102905641Y-126354774D01*
X102792373Y-126185256D01*
X102648210Y-126041093D01*
X102478692Y-125927825D01*
X102430978Y-125908061D01*
X106215000Y-125908061D01*
X106215000Y-126111939D01*
X106254774Y-126311898D01*
X106332795Y-126500256D01*
X106446063Y-126669774D01*
X106590226Y-126813937D01*
X106759744Y-126927205D01*
X106948102Y-127005226D01*
X107148061Y-127045000D01*
X107351939Y-127045000D01*
X107551898Y-127005226D01*
X107740256Y-126927205D01*
X107909774Y-126813937D01*
X108053937Y-126669774D01*
X108167205Y-126500256D01*
X108245226Y-126311898D01*
X108285000Y-126111939D01*
X108285000Y-125982429D01*
X108446898Y-125950226D01*
X108635256Y-125872205D01*
X108804774Y-125758937D01*
X108948937Y-125614774D01*
X109062205Y-125445256D01*
X109140226Y-125256898D01*
X109180000Y-125056939D01*
X109180000Y-124853061D01*
X109140226Y-124653102D01*
X109062205Y-124464744D01*
X108948937Y-124295226D01*
X108804774Y-124151063D01*
X108635256Y-124037795D01*
X108446898Y-123959774D01*
X108246939Y-123920000D01*
X108043061Y-123920000D01*
X107843102Y-123959774D01*
X107654744Y-124037795D01*
X107485226Y-124151063D01*
X107341063Y-124295226D01*
X107227795Y-124464744D01*
X107149774Y-124653102D01*
X107110000Y-124853061D01*
X107110000Y-124982571D01*
X106948102Y-125014774D01*
X106759744Y-125092795D01*
X106590226Y-125206063D01*
X106446063Y-125350226D01*
X106332795Y-125519744D01*
X106254774Y-125708102D01*
X106215000Y-125908061D01*
X102430978Y-125908061D01*
X102290334Y-125849804D01*
X102090375Y-125810030D01*
X101886497Y-125810030D01*
X101686538Y-125849804D01*
X101498180Y-125927825D01*
X101328662Y-126041093D01*
X101184499Y-126185256D01*
X101071231Y-126354774D01*
X100993210Y-126543132D01*
X100953436Y-126743091D01*
X77435729Y-126743091D01*
X78264653Y-123810561D01*
X97265000Y-123810561D01*
X97265000Y-124014439D01*
X97304774Y-124214398D01*
X97382795Y-124402756D01*
X97496063Y-124572274D01*
X97640226Y-124716437D01*
X97809744Y-124829705D01*
X97998102Y-124907726D01*
X98198061Y-124947500D01*
X98401939Y-124947500D01*
X98601898Y-124907726D01*
X98790256Y-124829705D01*
X98959774Y-124716437D01*
X99103937Y-124572274D01*
X99217205Y-124402756D01*
X99295226Y-124214398D01*
X99335000Y-124014439D01*
X99335000Y-123810561D01*
X99295226Y-123610602D01*
X99217205Y-123422244D01*
X99103937Y-123252726D01*
X98959774Y-123108563D01*
X98790256Y-122995295D01*
X98601898Y-122917274D01*
X98401939Y-122877500D01*
X98198061Y-122877500D01*
X97998102Y-122917274D01*
X97809744Y-122995295D01*
X97640226Y-123108563D01*
X97496063Y-123252726D01*
X97382795Y-123422244D01*
X97304774Y-123610602D01*
X97265000Y-123810561D01*
X78264653Y-123810561D01*
X82196678Y-109900029D01*
X82213863Y-109804123D01*
X82211386Y-109674138D01*
X82183599Y-109547134D01*
X82131568Y-109427991D01*
X82057294Y-109321288D01*
X81963630Y-109231126D01*
X81914020Y-109199327D01*
X80005958Y-107926780D01*
X78199100Y-106540299D01*
X76488097Y-105037116D01*
X74880489Y-103423854D01*
X73383330Y-101707593D01*
X73379608Y-101702706D01*
X77032893Y-101702706D01*
X77032893Y-101911508D01*
X77073628Y-102116298D01*
X77153533Y-102309205D01*
X77269537Y-102482818D01*
X77417182Y-102630463D01*
X77590795Y-102746467D01*
X77783702Y-102826372D01*
X77988492Y-102867107D01*
X78197294Y-102867107D01*
X78402084Y-102826372D01*
X78594991Y-102746467D01*
X78768604Y-102630463D01*
X78916249Y-102482818D01*
X79032253Y-102309205D01*
X79039380Y-102291999D01*
X79044180Y-102290543D01*
X79151839Y-102232997D01*
X79171230Y-102234907D01*
X79320216Y-102220233D01*
X79463476Y-102176776D01*
X79595506Y-102106204D01*
X79711231Y-102011231D01*
X79806204Y-101895506D01*
X79876776Y-101763476D01*
X79920233Y-101620216D01*
X79934907Y-101471230D01*
X79932997Y-101451839D01*
X79990543Y-101344180D01*
X80026853Y-101224482D01*
X80039113Y-101100000D01*
X80026853Y-100975518D01*
X79990543Y-100855820D01*
X79931578Y-100745506D01*
X79852226Y-100648815D01*
X79667486Y-100464075D01*
X79790795Y-100546467D01*
X79983702Y-100626372D01*
X80188492Y-100667107D01*
X80397294Y-100667107D01*
X80602084Y-100626372D01*
X80794991Y-100546467D01*
X80968604Y-100430463D01*
X81116249Y-100282818D01*
X81232253Y-100109205D01*
X81239380Y-100091999D01*
X81244180Y-100090543D01*
X81354494Y-100031578D01*
X81451185Y-99952226D01*
X82052226Y-99351185D01*
X82131578Y-99254494D01*
X82190543Y-99144180D01*
X82226853Y-99024482D01*
X82239113Y-98900000D01*
X82226853Y-98775518D01*
X82190543Y-98655820D01*
X82131578Y-98545506D01*
X82052226Y-98448815D01*
X81451185Y-97847774D01*
X81354494Y-97768422D01*
X81244180Y-97709457D01*
X81124482Y-97673147D01*
X81000000Y-97660887D01*
X80875518Y-97673147D01*
X80755820Y-97709457D01*
X80645506Y-97768422D01*
X80548815Y-97847774D01*
X79947774Y-98448815D01*
X79868422Y-98545506D01*
X79809457Y-98655820D01*
X79808001Y-98660620D01*
X79790795Y-98667747D01*
X79617182Y-98783751D01*
X79469537Y-98931396D01*
X79353533Y-99105009D01*
X79273628Y-99297916D01*
X79232893Y-99502706D01*
X79232893Y-99711508D01*
X79273628Y-99916298D01*
X79353533Y-100109205D01*
X79435925Y-100232514D01*
X79251185Y-100047774D01*
X79154494Y-99968422D01*
X79044180Y-99909457D01*
X78924482Y-99873147D01*
X78800000Y-99860887D01*
X78675518Y-99873147D01*
X78555820Y-99909457D01*
X78445506Y-99968422D01*
X78348815Y-100047774D01*
X77747774Y-100648815D01*
X77668422Y-100745506D01*
X77609457Y-100855820D01*
X77608001Y-100860620D01*
X77590795Y-100867747D01*
X77417182Y-100983751D01*
X77269537Y-101131396D01*
X77153533Y-101305009D01*
X77073628Y-101497916D01*
X77032893Y-101702706D01*
X73379608Y-101702706D01*
X72003188Y-99895860D01*
X70746168Y-97996670D01*
X69617773Y-96018335D01*
X68622975Y-93969575D01*
X67766140Y-91859386D01*
X67051036Y-89697037D01*
X66480817Y-87492073D01*
X66057981Y-85254149D01*
X65784390Y-82993128D01*
X65661249Y-80718943D01*
X65689096Y-78441598D01*
X65867811Y-76171107D01*
X66196607Y-73917447D01*
X66674038Y-71690547D01*
X67298007Y-69500170D01*
X68065766Y-67355970D01*
X68973947Y-65267355D01*
X70018544Y-63243537D01*
X71194978Y-61293383D01*
X72498067Y-59425490D01*
X73922083Y-57648064D01*
X75460764Y-55968922D01*
X77107355Y-54395438D01*
X78854592Y-52934551D01*
X80694817Y-51592665D01*
X82619926Y-50375689D01*
X84391447Y-49413855D01*
X76699055Y-57106248D01*
X76670051Y-57130051D01*
X76626905Y-57182625D01*
X76575078Y-57245776D01*
X76538540Y-57314134D01*
X76504506Y-57377806D01*
X76461049Y-57521067D01*
X76450052Y-57632720D01*
X76450052Y-57632730D01*
X76446376Y-57670052D01*
X76450052Y-57707375D01*
X76450053Y-60832720D01*
X76446376Y-60870052D01*
X76450053Y-60907385D01*
X76461050Y-61019038D01*
X76464624Y-61030820D01*
X76504506Y-61162298D01*
X76575078Y-61294328D01*
X76645552Y-61380200D01*
X76670052Y-61410053D01*
X76699050Y-61433851D01*
X84789999Y-69524801D01*
X84790000Y-78453085D01*
X84779494Y-78444463D01*
X84669180Y-78385498D01*
X84549482Y-78349188D01*
X84425000Y-78336928D01*
X83575000Y-78336928D01*
X83450518Y-78349188D01*
X83330820Y-78385498D01*
X83220506Y-78444463D01*
X83123815Y-78523815D01*
X83044463Y-78620506D01*
X82985498Y-78730820D01*
X82949188Y-78850518D01*
X82936928Y-78975000D01*
X82936928Y-79825000D01*
X82949188Y-79949482D01*
X82985498Y-80069180D01*
X82987862Y-80073603D01*
X82980735Y-80090809D01*
X82940000Y-80295599D01*
X82940000Y-80504401D01*
X82980735Y-80709191D01*
X83060640Y-80902098D01*
X83176644Y-81075711D01*
X83302896Y-81201963D01*
X83294454Y-81217756D01*
X83250997Y-81361017D01*
X83240000Y-81472670D01*
X83240000Y-81472680D01*
X83236324Y-81510002D01*
X83240000Y-81547325D01*
X83240001Y-86550354D01*
X83193130Y-86638043D01*
X83174412Y-86673061D01*
X83130955Y-86816322D01*
X83119958Y-86927975D01*
X83119958Y-86927985D01*
X83116282Y-86965307D01*
X83119958Y-87002629D01*
X83119958Y-96080800D01*
X70760000Y-83720843D01*
X70760000Y-80965957D01*
X70779494Y-80955537D01*
X70876185Y-80876185D01*
X70955537Y-80779494D01*
X71014502Y-80669180D01*
X71050812Y-80549482D01*
X71063072Y-80425000D01*
X71063072Y-79575000D01*
X71050812Y-79450518D01*
X71014502Y-79330820D01*
X70955537Y-79220506D01*
X70876185Y-79123815D01*
X70779494Y-79044463D01*
X70669180Y-78985498D01*
X70634573Y-78975000D01*
X80636928Y-78975000D01*
X80636928Y-79825000D01*
X80649188Y-79949482D01*
X80685498Y-80069180D01*
X80687862Y-80073603D01*
X80680735Y-80090809D01*
X80640000Y-80295599D01*
X80640000Y-80504401D01*
X80680735Y-80709191D01*
X80760640Y-80902098D01*
X80876644Y-81075711D01*
X81024289Y-81223356D01*
X81197902Y-81339360D01*
X81390809Y-81419265D01*
X81595599Y-81460000D01*
X81804401Y-81460000D01*
X82009191Y-81419265D01*
X82202098Y-81339360D01*
X82375711Y-81223356D01*
X82523356Y-81075711D01*
X82639360Y-80902098D01*
X82719265Y-80709191D01*
X82760000Y-80504401D01*
X82760000Y-80295599D01*
X82719265Y-80090809D01*
X82712138Y-80073603D01*
X82714502Y-80069180D01*
X82750812Y-79949482D01*
X82763072Y-79825000D01*
X82763072Y-78975000D01*
X82750812Y-78850518D01*
X82714502Y-78730820D01*
X82655537Y-78620506D01*
X82576185Y-78523815D01*
X82479494Y-78444463D01*
X82369180Y-78385498D01*
X82249482Y-78349188D01*
X82125000Y-78336928D01*
X81275000Y-78336928D01*
X81150518Y-78349188D01*
X81030820Y-78385498D01*
X80920506Y-78444463D01*
X80823815Y-78523815D01*
X80744463Y-78620506D01*
X80685498Y-78730820D01*
X80649188Y-78850518D01*
X80636928Y-78975000D01*
X70634573Y-78975000D01*
X70549482Y-78949188D01*
X70425000Y-78936928D01*
X69575000Y-78936928D01*
X69450518Y-78949188D01*
X69330820Y-78985498D01*
X69326397Y-78987862D01*
X69309191Y-78980735D01*
X69104401Y-78940000D01*
X68895599Y-78940000D01*
X68690809Y-78980735D01*
X68497902Y-79060640D01*
X68324289Y-79176644D01*
X68176644Y-79324289D01*
X68060640Y-79497902D01*
X67980735Y-79690809D01*
X67940000Y-79895599D01*
X67940000Y-80104401D01*
X67980735Y-80309191D01*
X68060640Y-80502098D01*
X68176644Y-80675711D01*
X68324289Y-80823356D01*
X68497902Y-80939360D01*
X68690809Y-81019265D01*
X68895599Y-81060000D01*
X69104401Y-81060000D01*
X69240000Y-81033028D01*
X69240001Y-83998312D01*
X69236324Y-84035644D01*
X69250998Y-84184629D01*
X69294454Y-84327890D01*
X69365026Y-84459920D01*
X69384384Y-84483507D01*
X69460000Y-84575645D01*
X69488998Y-84599443D01*
X82656296Y-97766742D01*
X82656297Y-114116362D01*
X82656296Y-114116372D01*
X82656297Y-119471786D01*
X82652620Y-119509118D01*
X82656297Y-119546451D01*
X82667294Y-119658104D01*
X82676740Y-119689243D01*
X82710750Y-119801364D01*
X82781322Y-119933394D01*
X82849118Y-120016003D01*
X82876296Y-120049119D01*
X82905294Y-120072917D01*
X84378377Y-121546001D01*
X84402176Y-121575000D01*
X84431174Y-121598798D01*
X84517901Y-121669973D01*
X84649930Y-121740545D01*
X84793191Y-121784002D01*
X84942177Y-121798676D01*
X84979510Y-121794999D01*
X100649907Y-121794999D01*
X100672795Y-121850256D01*
X100786063Y-122019774D01*
X100897077Y-122130788D01*
X100839784Y-122269105D01*
X100800010Y-122469064D01*
X100800010Y-122672942D01*
X100839784Y-122872901D01*
X100917805Y-123061259D01*
X101031073Y-123230777D01*
X101175236Y-123374940D01*
X101343105Y-123487106D01*
X101343105Y-123512628D01*
X101364745Y-123621419D01*
X101279605Y-123706559D01*
X101166337Y-123876077D01*
X101088316Y-124064435D01*
X101048542Y-124264394D01*
X101048542Y-124468272D01*
X101088316Y-124668231D01*
X101166337Y-124856589D01*
X101279605Y-125026107D01*
X101423768Y-125170270D01*
X101593286Y-125283538D01*
X101781644Y-125361559D01*
X101981603Y-125401333D01*
X102185481Y-125401333D01*
X102385440Y-125361559D01*
X102573798Y-125283538D01*
X102743316Y-125170270D01*
X102887479Y-125026107D01*
X103000747Y-124856589D01*
X103078768Y-124668231D01*
X103118542Y-124468272D01*
X103118542Y-124264394D01*
X103096902Y-124155603D01*
X103182042Y-124070463D01*
X103295310Y-123900945D01*
X103373331Y-123712587D01*
X103413105Y-123512628D01*
X103413105Y-123308750D01*
X103373331Y-123108791D01*
X103295310Y-122920433D01*
X103182042Y-122750915D01*
X103037879Y-122606752D01*
X102870010Y-122494586D01*
X102870010Y-122469064D01*
X102830236Y-122269105D01*
X102752215Y-122080747D01*
X102638947Y-121911229D01*
X102527933Y-121800215D01*
X102534801Y-121783634D01*
X102536015Y-121784002D01*
X102647668Y-121794999D01*
X102647676Y-121794999D01*
X102685001Y-121798675D01*
X102722326Y-121794999D01*
X107189108Y-121794999D01*
X107415095Y-122020986D01*
X107438898Y-122049990D01*
X107554623Y-122144963D01*
X107686652Y-122215535D01*
X107829913Y-122258992D01*
X107941566Y-122269989D01*
X107941575Y-122269989D01*
X107978898Y-122273665D01*
X108016221Y-122269989D01*
X108724552Y-122269989D01*
X108761874Y-122273665D01*
X108799196Y-122269989D01*
X108799207Y-122269989D01*
X108910860Y-122258992D01*
X109054121Y-122215535D01*
X109186150Y-122144963D01*
X109301875Y-122049990D01*
X109325677Y-122020987D01*
X109353065Y-121993599D01*
X109415203Y-121993599D01*
X109615162Y-121953825D01*
X109803520Y-121875804D01*
X109973038Y-121762536D01*
X110117201Y-121618373D01*
X110230469Y-121448855D01*
X110260501Y-121376353D01*
X110450324Y-121338595D01*
X110638682Y-121260574D01*
X110808200Y-121147306D01*
X110952363Y-121003143D01*
X111065631Y-120833625D01*
X111143652Y-120645267D01*
X111183426Y-120445308D01*
X111183426Y-120241430D01*
X111143652Y-120041471D01*
X111065631Y-119853113D01*
X110952363Y-119683595D01*
X110808200Y-119539432D01*
X110638682Y-119426164D01*
X110450324Y-119348143D01*
X110250365Y-119308369D01*
X110172652Y-119308369D01*
X110040674Y-119237824D01*
X109897413Y-119194367D01*
X109785760Y-119183370D01*
X109785749Y-119183370D01*
X109748427Y-119179694D01*
X109711105Y-119183370D01*
X108147701Y-119183370D01*
X108110378Y-119179694D01*
X108073055Y-119183370D01*
X108073046Y-119183370D01*
X107961393Y-119194367D01*
X107818132Y-119237824D01*
X107686103Y-119308396D01*
X107604974Y-119374977D01*
X106985208Y-119374977D01*
X107870229Y-118489957D01*
X107932366Y-118489957D01*
X108132325Y-118450183D01*
X108320683Y-118372162D01*
X108490201Y-118258894D01*
X108634364Y-118114731D01*
X108747632Y-117945213D01*
X108781258Y-117864034D01*
X108814883Y-117945213D01*
X108928151Y-118114731D01*
X109072314Y-118258894D01*
X109241832Y-118372162D01*
X109430190Y-118450183D01*
X109630149Y-118489957D01*
X109834027Y-118489957D01*
X110033986Y-118450183D01*
X110222344Y-118372162D01*
X110391862Y-118258894D01*
X110536025Y-118114731D01*
X110648600Y-117946250D01*
X110673306Y-117946250D01*
X110873265Y-117906476D01*
X111061623Y-117828455D01*
X111231141Y-117715187D01*
X111375304Y-117571024D01*
X111488572Y-117401506D01*
X111566593Y-117213148D01*
X111606367Y-117013189D01*
X111606367Y-116809311D01*
X111566593Y-116609352D01*
X111488572Y-116420994D01*
X111375304Y-116251476D01*
X111231141Y-116107313D01*
X111061623Y-115994045D01*
X110873265Y-115916024D01*
X110673306Y-115876250D01*
X110657578Y-115876250D01*
X110657578Y-115840040D01*
X110617804Y-115640081D01*
X110552499Y-115482421D01*
X110565515Y-115487813D01*
X110765474Y-115527587D01*
X110969352Y-115527587D01*
X111169311Y-115487813D01*
X111357669Y-115409792D01*
X111527187Y-115296524D01*
X111671350Y-115152361D01*
X111784618Y-114982843D01*
X111862639Y-114794485D01*
X111902413Y-114594526D01*
X111902413Y-114390648D01*
X111872930Y-114242426D01*
X111870000Y-114212677D01*
X111870000Y-104753711D01*
X111913937Y-104709774D01*
X112027205Y-104540256D01*
X112105226Y-104351898D01*
X112145000Y-104151939D01*
X112145000Y-103948061D01*
X112105226Y-103748102D01*
X112027205Y-103559744D01*
X111913937Y-103390226D01*
X111769774Y-103246063D01*
X111763159Y-103241643D01*
X113044802Y-101960000D01*
X120456589Y-101960000D01*
X120748815Y-102252226D01*
X120845506Y-102331578D01*
X120955820Y-102390543D01*
X120960620Y-102391999D01*
X120967747Y-102409205D01*
X121083751Y-102582818D01*
X121231396Y-102730463D01*
X121405009Y-102846467D01*
X121597916Y-102926372D01*
X121802706Y-102967107D01*
X122011508Y-102967107D01*
X122216298Y-102926372D01*
X122409205Y-102846467D01*
X122582818Y-102730463D01*
X122730463Y-102582818D01*
X122846467Y-102409205D01*
X122926372Y-102216298D01*
X122967107Y-102011508D01*
X122967107Y-101802706D01*
X122926372Y-101597916D01*
X122846467Y-101405009D01*
X122730463Y-101231396D01*
X122582818Y-101083751D01*
X122409205Y-100967747D01*
X122391999Y-100960620D01*
X122390543Y-100955820D01*
X122331578Y-100845506D01*
X122252226Y-100748815D01*
X121960000Y-100456589D01*
X121960000Y-100137322D01*
X121963676Y-100099999D01*
X121960000Y-100062676D01*
X121960000Y-100062667D01*
X121949003Y-99951014D01*
X121905546Y-99807753D01*
X121834974Y-99675724D01*
X121818994Y-99656252D01*
X121763799Y-99588996D01*
X121763795Y-99588992D01*
X121740001Y-99559999D01*
X121711008Y-99536205D01*
X111409999Y-89235198D01*
X111409999Y-81460000D01*
X111504401Y-81460000D01*
X111709191Y-81419265D01*
X111902098Y-81339360D01*
X112075711Y-81223356D01*
X112223356Y-81075711D01*
X112339360Y-80902098D01*
X112419265Y-80709191D01*
X112460000Y-80504401D01*
X112460000Y-80295599D01*
X112419265Y-80090809D01*
X112412138Y-80073603D01*
X112414502Y-80069180D01*
X112450812Y-79949482D01*
X112463072Y-79825000D01*
X112463072Y-78975000D01*
X112636928Y-78975000D01*
X112636928Y-79825000D01*
X112649188Y-79949482D01*
X112685498Y-80069180D01*
X112687862Y-80073603D01*
X112680735Y-80090809D01*
X112640000Y-80295599D01*
X112640000Y-80504401D01*
X112680735Y-80709191D01*
X112760640Y-80902098D01*
X112876644Y-81075711D01*
X113024289Y-81223356D01*
X113197902Y-81339360D01*
X113390809Y-81419265D01*
X113595599Y-81460000D01*
X113804401Y-81460000D01*
X114009191Y-81419265D01*
X114202098Y-81339360D01*
X114375711Y-81223356D01*
X114523356Y-81075711D01*
X114639360Y-80902098D01*
X114719265Y-80709191D01*
X114760000Y-80504401D01*
X114760000Y-80295599D01*
X114719265Y-80090809D01*
X114712138Y-80073603D01*
X114714502Y-80069180D01*
X114750812Y-79949482D01*
X114763072Y-79825000D01*
X114763072Y-78975000D01*
X114936928Y-78975000D01*
X114936928Y-79825000D01*
X114949188Y-79949482D01*
X114985498Y-80069180D01*
X114987862Y-80073603D01*
X114980735Y-80090809D01*
X114940000Y-80295599D01*
X114940000Y-80504401D01*
X114980735Y-80709191D01*
X115060640Y-80902098D01*
X115176644Y-81075711D01*
X115324289Y-81223356D01*
X115497902Y-81339360D01*
X115690809Y-81419265D01*
X115895599Y-81460000D01*
X116104401Y-81460000D01*
X116309191Y-81419265D01*
X116502098Y-81339360D01*
X116675711Y-81223356D01*
X116823356Y-81075711D01*
X116939360Y-80902098D01*
X117019265Y-80709191D01*
X117060000Y-80504401D01*
X117060000Y-80295599D01*
X117019265Y-80090809D01*
X117012138Y-80073603D01*
X117014502Y-80069180D01*
X117050812Y-79949482D01*
X117063072Y-79825000D01*
X117063072Y-78975000D01*
X117236928Y-78975000D01*
X117236928Y-79825000D01*
X117249188Y-79949482D01*
X117285498Y-80069180D01*
X117287862Y-80073603D01*
X117280735Y-80090809D01*
X117240000Y-80295599D01*
X117240000Y-80504401D01*
X117280735Y-80709191D01*
X117360640Y-80902098D01*
X117476644Y-81075711D01*
X117624289Y-81223356D01*
X117797902Y-81339360D01*
X117990809Y-81419265D01*
X118195599Y-81460000D01*
X118404401Y-81460000D01*
X118609191Y-81419265D01*
X118802098Y-81339360D01*
X118975711Y-81223356D01*
X119123356Y-81075711D01*
X119239360Y-80902098D01*
X119319265Y-80709191D01*
X119360000Y-80504401D01*
X119360000Y-80295599D01*
X119319265Y-80090809D01*
X119312138Y-80073603D01*
X119314502Y-80069180D01*
X119350812Y-79949482D01*
X119363072Y-79825000D01*
X119363072Y-79575000D01*
X128936928Y-79575000D01*
X128936928Y-80425000D01*
X128949188Y-80549482D01*
X128985498Y-80669180D01*
X129044463Y-80779494D01*
X129123815Y-80876185D01*
X129220506Y-80955537D01*
X129330820Y-81014502D01*
X129450518Y-81050812D01*
X129575000Y-81063072D01*
X130425000Y-81063072D01*
X130549482Y-81050812D01*
X130669180Y-81014502D01*
X130673603Y-81012138D01*
X130690809Y-81019265D01*
X130895599Y-81060000D01*
X131104401Y-81060000D01*
X131309191Y-81019265D01*
X131502098Y-80939360D01*
X131675711Y-80823356D01*
X131823356Y-80675711D01*
X131939360Y-80502098D01*
X132019265Y-80309191D01*
X132060000Y-80104401D01*
X132060000Y-79895599D01*
X132019265Y-79690809D01*
X131939360Y-79497902D01*
X131823356Y-79324289D01*
X131675711Y-79176644D01*
X131502098Y-79060640D01*
X131309191Y-78980735D01*
X131104401Y-78940000D01*
X130895599Y-78940000D01*
X130690809Y-78980735D01*
X130673603Y-78987862D01*
X130669180Y-78985498D01*
X130549482Y-78949188D01*
X130425000Y-78936928D01*
X129575000Y-78936928D01*
X129450518Y-78949188D01*
X129330820Y-78985498D01*
X129220506Y-79044463D01*
X129123815Y-79123815D01*
X129044463Y-79220506D01*
X128985498Y-79330820D01*
X128949188Y-79450518D01*
X128936928Y-79575000D01*
X119363072Y-79575000D01*
X119363072Y-78975000D01*
X119350812Y-78850518D01*
X119314502Y-78730820D01*
X119255537Y-78620506D01*
X119176185Y-78523815D01*
X119079494Y-78444463D01*
X118969180Y-78385498D01*
X118849482Y-78349188D01*
X118725000Y-78336928D01*
X117875000Y-78336928D01*
X117750518Y-78349188D01*
X117630820Y-78385498D01*
X117520506Y-78444463D01*
X117423815Y-78523815D01*
X117344463Y-78620506D01*
X117285498Y-78730820D01*
X117249188Y-78850518D01*
X117236928Y-78975000D01*
X117063072Y-78975000D01*
X117050812Y-78850518D01*
X117014502Y-78730820D01*
X116955537Y-78620506D01*
X116876185Y-78523815D01*
X116779494Y-78444463D01*
X116669180Y-78385498D01*
X116549482Y-78349188D01*
X116425000Y-78336928D01*
X115575000Y-78336928D01*
X115450518Y-78349188D01*
X115330820Y-78385498D01*
X115220506Y-78444463D01*
X115123815Y-78523815D01*
X115044463Y-78620506D01*
X114985498Y-78730820D01*
X114949188Y-78850518D01*
X114936928Y-78975000D01*
X114763072Y-78975000D01*
X114750812Y-78850518D01*
X114714502Y-78730820D01*
X114655537Y-78620506D01*
X114576185Y-78523815D01*
X114479494Y-78444463D01*
X114369180Y-78385498D01*
X114249482Y-78349188D01*
X114125000Y-78336928D01*
X113275000Y-78336928D01*
X113150518Y-78349188D01*
X113030820Y-78385498D01*
X112920506Y-78444463D01*
X112823815Y-78523815D01*
X112744463Y-78620506D01*
X112685498Y-78730820D01*
X112649188Y-78850518D01*
X112636928Y-78975000D01*
X112463072Y-78975000D01*
X112450812Y-78850518D01*
X112414502Y-78730820D01*
X112355537Y-78620506D01*
X112276185Y-78523815D01*
X112179494Y-78444463D01*
X112069180Y-78385498D01*
X111949482Y-78349188D01*
X111825000Y-78336928D01*
X111409999Y-78336928D01*
X111409999Y-69687324D01*
X111413675Y-69649999D01*
X111409999Y-69612674D01*
X111409999Y-69612666D01*
X111399002Y-69501013D01*
X111355545Y-69357752D01*
X111284973Y-69225723D01*
X111190000Y-69109998D01*
X111161002Y-69086200D01*
X103074802Y-61000000D01*
X117860887Y-61000000D01*
X117873147Y-61124482D01*
X117909457Y-61244180D01*
X117968422Y-61354494D01*
X118047774Y-61451185D01*
X118648815Y-62052226D01*
X118745506Y-62131578D01*
X118855820Y-62190543D01*
X118975518Y-62226853D01*
X119100000Y-62239113D01*
X119224482Y-62226853D01*
X119344180Y-62190543D01*
X119454494Y-62131578D01*
X119551185Y-62052226D01*
X120152226Y-61451185D01*
X120231578Y-61354494D01*
X120290543Y-61244180D01*
X120291999Y-61239380D01*
X120309205Y-61232253D01*
X120482818Y-61116249D01*
X120630463Y-60968604D01*
X120746467Y-60794991D01*
X120826372Y-60602084D01*
X120867107Y-60397294D01*
X120867107Y-60188492D01*
X120826372Y-59983702D01*
X120746467Y-59790795D01*
X120664075Y-59667486D01*
X120848815Y-59852226D01*
X120945506Y-59931578D01*
X121055820Y-59990543D01*
X121175518Y-60026853D01*
X121300000Y-60039113D01*
X121424482Y-60026853D01*
X121544180Y-59990543D01*
X121654494Y-59931578D01*
X121751185Y-59852226D01*
X122352226Y-59251185D01*
X122431578Y-59154494D01*
X122490543Y-59044180D01*
X122491999Y-59039380D01*
X122509205Y-59032253D01*
X122682818Y-58916249D01*
X122830463Y-58768604D01*
X122946467Y-58594991D01*
X123026372Y-58402084D01*
X123067107Y-58197294D01*
X123067107Y-57988492D01*
X123026372Y-57783702D01*
X122946467Y-57590795D01*
X122830463Y-57417182D01*
X122682818Y-57269537D01*
X122509205Y-57153533D01*
X122316298Y-57073628D01*
X122111508Y-57032893D01*
X121902706Y-57032893D01*
X121697916Y-57073628D01*
X121505009Y-57153533D01*
X121331396Y-57269537D01*
X121183751Y-57417182D01*
X121067747Y-57590795D01*
X121060620Y-57608001D01*
X121055820Y-57609457D01*
X120945506Y-57668422D01*
X120848815Y-57747774D01*
X120247774Y-58348815D01*
X120168422Y-58445506D01*
X120109457Y-58555820D01*
X120073147Y-58675518D01*
X120060887Y-58800000D01*
X120073147Y-58924482D01*
X120109457Y-59044180D01*
X120168422Y-59154494D01*
X120247774Y-59251185D01*
X120432514Y-59435925D01*
X120309205Y-59353533D01*
X120116298Y-59273628D01*
X119911508Y-59232893D01*
X119702706Y-59232893D01*
X119497916Y-59273628D01*
X119305009Y-59353533D01*
X119131396Y-59469537D01*
X118983751Y-59617182D01*
X118867747Y-59790795D01*
X118860620Y-59808001D01*
X118855820Y-59809457D01*
X118745506Y-59868422D01*
X118648815Y-59947774D01*
X118047774Y-60548815D01*
X117968422Y-60645506D01*
X117909457Y-60755820D01*
X117873147Y-60875518D01*
X117860887Y-61000000D01*
X103074802Y-61000000D01*
X100363804Y-58289003D01*
X100340001Y-58259999D01*
X100224276Y-58165026D01*
X100092247Y-58094454D01*
X99948986Y-58050997D01*
X99837333Y-58040000D01*
X99837322Y-58040000D01*
X99800000Y-58036324D01*
X99762678Y-58040000D01*
X79543411Y-58040000D01*
X79251185Y-57747774D01*
X79154494Y-57668422D01*
X79044180Y-57609457D01*
X79039380Y-57608001D01*
X79032253Y-57590795D01*
X78916249Y-57417182D01*
X78768604Y-57269537D01*
X78718708Y-57236197D01*
X85294906Y-50660000D01*
X97934043Y-50660000D01*
X97944463Y-50679494D01*
X98023815Y-50776185D01*
X98120506Y-50855537D01*
X98230820Y-50914502D01*
X98350518Y-50950812D01*
X98475000Y-50963072D01*
X99325000Y-50963072D01*
X99449482Y-50950812D01*
X99569180Y-50914502D01*
X99679494Y-50855537D01*
X99776185Y-50776185D01*
X99855537Y-50679494D01*
X99914502Y-50569180D01*
X99950812Y-50449482D01*
X99963072Y-50325000D01*
X99963072Y-49475000D01*
X100136928Y-49475000D01*
X100136928Y-50325000D01*
X100149188Y-50449482D01*
X100185498Y-50569180D01*
X100244463Y-50679494D01*
X100323815Y-50776185D01*
X100420506Y-50855537D01*
X100530820Y-50914502D01*
X100650518Y-50950812D01*
X100775000Y-50963072D01*
X101625000Y-50963072D01*
X101749482Y-50950812D01*
X101869180Y-50914502D01*
X101979494Y-50855537D01*
X102076185Y-50776185D01*
X102155537Y-50679494D01*
X102214502Y-50569180D01*
X102250812Y-50449482D01*
X102263072Y-50325000D01*
X102263072Y-49475000D01*
X102250812Y-49350518D01*
X102214502Y-49230820D01*
X102212138Y-49226397D01*
X102219265Y-49209191D01*
X102260000Y-49004401D01*
X102260000Y-48795599D01*
X102219265Y-48590809D01*
X102139360Y-48397902D01*
X102023356Y-48224289D01*
X101875711Y-48076644D01*
X101702098Y-47960640D01*
X101509191Y-47880735D01*
X101304401Y-47840000D01*
X101095599Y-47840000D01*
X100890809Y-47880735D01*
X100697902Y-47960640D01*
X100524289Y-48076644D01*
X100376644Y-48224289D01*
X100260640Y-48397902D01*
X100180735Y-48590809D01*
X100140000Y-48795599D01*
X100140000Y-49004401D01*
X100180735Y-49209191D01*
X100187862Y-49226397D01*
X100185498Y-49230820D01*
X100149188Y-49350518D01*
X100136928Y-49475000D01*
X99963072Y-49475000D01*
X99950812Y-49350518D01*
X99914502Y-49230820D01*
X99912138Y-49226397D01*
X99919265Y-49209191D01*
X99960000Y-49004401D01*
X99960000Y-48795599D01*
X99919265Y-48590809D01*
X99839360Y-48397902D01*
X99723356Y-48224289D01*
X99575711Y-48076644D01*
X99402098Y-47960640D01*
X99209191Y-47880735D01*
X99004401Y-47840000D01*
X98795599Y-47840000D01*
X98590809Y-47880735D01*
X98397902Y-47960640D01*
X98224289Y-48076644D01*
X98076644Y-48224289D01*
X97960640Y-48397902D01*
X97880735Y-48590809D01*
X97840000Y-48795599D01*
X97840000Y-49004401D01*
X97866972Y-49140000D01*
X85017427Y-49140000D01*
X84980104Y-49136324D01*
X84946058Y-49139677D01*
X86690605Y-48337297D01*
X88818279Y-47524842D01*
X90995105Y-46855187D01*
X93211537Y-46331268D01*
X95457841Y-45955389D01*
X97724087Y-45729210D01*
X100000342Y-45653723D01*
X102276611Y-45729257D01*
G37*
X102276611Y-45729257D02*
X104542867Y-45955483D01*
X106789125Y-46331401D01*
X109005560Y-46855367D01*
X111182388Y-47525072D01*
X113310041Y-48337568D01*
X115379166Y-49289285D01*
X117380676Y-50376043D01*
X119305762Y-51593058D01*
X121145948Y-52934973D01*
X122893164Y-54395902D01*
X124539716Y-55969414D01*
X126078371Y-57648594D01*
X127502350Y-59426047D01*
X128805402Y-61293970D01*
X129981797Y-63244148D01*
X131026356Y-65267992D01*
X131934486Y-67356608D01*
X132702208Y-69500842D01*
X133326132Y-71691227D01*
X133803517Y-73918139D01*
X134132268Y-76171803D01*
X134310936Y-78442297D01*
X134338737Y-80719643D01*
X134215548Y-82993827D01*
X133941912Y-85254843D01*
X133519032Y-87492746D01*
X132948765Y-89697714D01*
X132233618Y-91860044D01*
X131376744Y-93970207D01*
X130381901Y-96018954D01*
X129253468Y-97997260D01*
X127996408Y-99896429D01*
X126616230Y-101708134D01*
X125119036Y-103424363D01*
X123511387Y-105037600D01*
X121800363Y-106540741D01*
X119993467Y-107927193D01*
X118088720Y-109197628D01*
X118039134Y-109229409D01*
X117945467Y-109319567D01*
X117871188Y-109426268D01*
X117819153Y-109545409D01*
X117791361Y-109672412D01*
X117788879Y-109802395D01*
X117806061Y-109898302D01*
X139197031Y-185585609D01*
X135878657Y-186768823D01*
X131942113Y-188011855D01*
X127962726Y-189109787D01*
X123945771Y-190061163D01*
X119896627Y-190864709D01*
X115820754Y-191519340D01*
X111723668Y-192024173D01*
X107610796Y-192378537D01*
X103487728Y-192581950D01*
X99359978Y-192634142D01*
X95233055Y-192535042D01*
X91112554Y-192284785D01*
X87004002Y-191883706D01*
X82912882Y-191332340D01*
X78844742Y-190631436D01*
X74805001Y-189781928D01*
X70799100Y-188784958D01*
X66832434Y-187641871D01*
X62908553Y-186353617D01*
X60802039Y-185588990D01*
X68664349Y-157774069D01*
X128905672Y-157774069D01*
X128905672Y-157987795D01*
X128947368Y-158197415D01*
X129029157Y-158394872D01*
X129147897Y-158572579D01*
X129299025Y-158723707D01*
X129476732Y-158842447D01*
X129674189Y-158924236D01*
X129883809Y-158965932D01*
X130097535Y-158965932D01*
X130307155Y-158924236D01*
X130504612Y-158842447D01*
X130682319Y-158723707D01*
X130833447Y-158572579D01*
X130952187Y-158394872D01*
X131033976Y-158197415D01*
X131075672Y-157987795D01*
X131075672Y-157774069D01*
X131033976Y-157564449D01*
X130952187Y-157366992D01*
X130833447Y-157189285D01*
X130682319Y-157038157D01*
X130504612Y-156919417D01*
X130307155Y-156837628D01*
X130097535Y-156795932D01*
X129883809Y-156795932D01*
X129674189Y-156837628D01*
X129476732Y-156919417D01*
X129299025Y-157038157D01*
X129147897Y-157189285D01*
X129029157Y-157366992D01*
X128947368Y-157564449D01*
X128905672Y-157774069D01*
X68664349Y-157774069D01*
X69479495Y-154890284D01*
X128078760Y-154890284D01*
X128078760Y-155104010D01*
X128120456Y-155313630D01*
X128202245Y-155511087D01*
X128320985Y-155688794D01*
X128472113Y-155839922D01*
X128649820Y-155958662D01*
X128847277Y-156040451D01*
X129056897Y-156082147D01*
X129270623Y-156082147D01*
X129480243Y-156040451D01*
X129677700Y-155958662D01*
X129855407Y-155839922D01*
X130006535Y-155688794D01*
X130125275Y-155511087D01*
X130207064Y-155313630D01*
X130248760Y-155104010D01*
X130248760Y-154890284D01*
X130207064Y-154680664D01*
X130125275Y-154483207D01*
X130006535Y-154305500D01*
X129855407Y-154154372D01*
X129677700Y-154035632D01*
X129480243Y-153953843D01*
X129270623Y-153912147D01*
X129056897Y-153912147D01*
X128847277Y-153953843D01*
X128649820Y-154035632D01*
X128472113Y-154154372D01*
X128320985Y-154305500D01*
X128202245Y-154483207D01*
X128120456Y-154680664D01*
X128078760Y-154890284D01*
X69479495Y-154890284D01*
X75130602Y-134898061D01*
X99752500Y-134898061D01*
X99752500Y-135101939D01*
X99792274Y-135301898D01*
X99870295Y-135490256D01*
X99983563Y-135659774D01*
X100127726Y-135803937D01*
X100297244Y-135917205D01*
X100485602Y-135995226D01*
X100685561Y-136035000D01*
X100889439Y-136035000D01*
X101089398Y-135995226D01*
X101277756Y-135917205D01*
X101447274Y-135803937D01*
X101591437Y-135659774D01*
X101704705Y-135490256D01*
X101782726Y-135301898D01*
X101822500Y-135101939D01*
X101822500Y-134898061D01*
X101782726Y-134698102D01*
X101704705Y-134509744D01*
X101591437Y-134340226D01*
X101447274Y-134196063D01*
X101277756Y-134082795D01*
X101089398Y-134004774D01*
X100889439Y-133965000D01*
X100685561Y-133965000D01*
X100485602Y-134004774D01*
X100297244Y-134082795D01*
X100127726Y-134196063D01*
X99983563Y-134340226D01*
X99870295Y-134509744D01*
X99792274Y-134698102D01*
X99752500Y-134898061D01*
X75130602Y-134898061D01*
X76698847Y-129350000D01*
X88811928Y-129350000D01*
X88811928Y-131050000D01*
X88824188Y-131174482D01*
X88860498Y-131294180D01*
X88919463Y-131404494D01*
X88998815Y-131501185D01*
X89095506Y-131580537D01*
X89205820Y-131639502D01*
X89278380Y-131661513D01*
X89146525Y-131793368D01*
X88984010Y-132036589D01*
X88872068Y-132306842D01*
X88815000Y-132593740D01*
X88815000Y-132886260D01*
X88872068Y-133173158D01*
X88984010Y-133443411D01*
X89146525Y-133686632D01*
X89353368Y-133893475D01*
X89596589Y-134055990D01*
X89866842Y-134167932D01*
X90153740Y-134225000D01*
X90446260Y-134225000D01*
X90733158Y-134167932D01*
X91003411Y-134055990D01*
X91246632Y-133893475D01*
X91453475Y-133686632D01*
X91615990Y-133443411D01*
X91727932Y-133173158D01*
X91785000Y-132886260D01*
X91785000Y-132593740D01*
X91727932Y-132306842D01*
X91615990Y-132036589D01*
X91453475Y-131793368D01*
X91321620Y-131661513D01*
X91394180Y-131639502D01*
X91504494Y-131580537D01*
X91601185Y-131501185D01*
X91680537Y-131404494D01*
X91739502Y-131294180D01*
X91775812Y-131174482D01*
X91788072Y-131050000D01*
X91788072Y-130498061D01*
X102965000Y-130498061D01*
X102965000Y-130701939D01*
X103004774Y-130901898D01*
X103082795Y-131090256D01*
X103196063Y-131259774D01*
X103340226Y-131403937D01*
X103509744Y-131517205D01*
X103698102Y-131595226D01*
X103898061Y-131635000D01*
X104101939Y-131635000D01*
X104301898Y-131595226D01*
X104490256Y-131517205D01*
X104659774Y-131403937D01*
X104803937Y-131259774D01*
X104917205Y-131090256D01*
X104995226Y-130901898D01*
X105035000Y-130701939D01*
X105035000Y-130498061D01*
X104995226Y-130298102D01*
X104917205Y-130109744D01*
X104803937Y-129940226D01*
X104659774Y-129796063D01*
X104490256Y-129682795D01*
X104301898Y-129604774D01*
X104101939Y-129565000D01*
X103898061Y-129565000D01*
X103698102Y-129604774D01*
X103509744Y-129682795D01*
X103340226Y-129796063D01*
X103196063Y-129940226D01*
X103082795Y-130109744D01*
X103004774Y-130298102D01*
X102965000Y-130498061D01*
X91788072Y-130498061D01*
X91788072Y-129350000D01*
X91775812Y-129225518D01*
X91739502Y-129105820D01*
X91680537Y-128995506D01*
X91601185Y-128898815D01*
X91504494Y-128819463D01*
X91394180Y-128760498D01*
X91274482Y-128724188D01*
X91150000Y-128711928D01*
X89450000Y-128711928D01*
X89325518Y-128724188D01*
X89205820Y-128760498D01*
X89095506Y-128819463D01*
X88998815Y-128898815D01*
X88919463Y-128995506D01*
X88860498Y-129105820D01*
X88824188Y-129225518D01*
X88811928Y-129350000D01*
X76698847Y-129350000D01*
X77435729Y-126743091D01*
X100953436Y-126743091D01*
X100953436Y-126946969D01*
X100993210Y-127146928D01*
X101071231Y-127335286D01*
X101184499Y-127504804D01*
X101328662Y-127648967D01*
X101498180Y-127762235D01*
X101686538Y-127840256D01*
X101886497Y-127880030D01*
X102074711Y-127880030D01*
X102132795Y-128020256D01*
X102246063Y-128189774D01*
X102390226Y-128333937D01*
X102559744Y-128447205D01*
X102748102Y-128525226D01*
X102948061Y-128565000D01*
X103151939Y-128565000D01*
X103351898Y-128525226D01*
X103540256Y-128447205D01*
X103709774Y-128333937D01*
X103853937Y-128189774D01*
X103967205Y-128020256D01*
X104045226Y-127831898D01*
X104047604Y-127819943D01*
X104107795Y-127965256D01*
X104221063Y-128134774D01*
X104365226Y-128278937D01*
X104534744Y-128392205D01*
X104723102Y-128470226D01*
X104923061Y-128510000D01*
X105126939Y-128510000D01*
X105326898Y-128470226D01*
X105515256Y-128392205D01*
X105684774Y-128278937D01*
X105828937Y-128134774D01*
X105942205Y-127965256D01*
X106020226Y-127776898D01*
X106060000Y-127576939D01*
X106060000Y-127373061D01*
X106020226Y-127173102D01*
X105942205Y-126984744D01*
X105828937Y-126815226D01*
X105684774Y-126671063D01*
X105515256Y-126557795D01*
X105326898Y-126479774D01*
X105126939Y-126440000D01*
X104923061Y-126440000D01*
X104723102Y-126479774D01*
X104534744Y-126557795D01*
X104365226Y-126671063D01*
X104221063Y-126815226D01*
X104107795Y-126984744D01*
X104029774Y-127173102D01*
X104027396Y-127185057D01*
X103967205Y-127039744D01*
X103853937Y-126870226D01*
X103709774Y-126726063D01*
X103540256Y-126612795D01*
X103351898Y-126534774D01*
X103151939Y-126495000D01*
X102963725Y-126495000D01*
X102905641Y-126354774D01*
X102792373Y-126185256D01*
X102648210Y-126041093D01*
X102478692Y-125927825D01*
X102430978Y-125908061D01*
X106215000Y-125908061D01*
X106215000Y-126111939D01*
X106254774Y-126311898D01*
X106332795Y-126500256D01*
X106446063Y-126669774D01*
X106590226Y-126813937D01*
X106759744Y-126927205D01*
X106948102Y-127005226D01*
X107148061Y-127045000D01*
X107351939Y-127045000D01*
X107551898Y-127005226D01*
X107740256Y-126927205D01*
X107909774Y-126813937D01*
X108053937Y-126669774D01*
X108167205Y-126500256D01*
X108245226Y-126311898D01*
X108285000Y-126111939D01*
X108285000Y-125982429D01*
X108446898Y-125950226D01*
X108635256Y-125872205D01*
X108804774Y-125758937D01*
X108948937Y-125614774D01*
X109062205Y-125445256D01*
X109140226Y-125256898D01*
X109180000Y-125056939D01*
X109180000Y-124853061D01*
X109140226Y-124653102D01*
X109062205Y-124464744D01*
X108948937Y-124295226D01*
X108804774Y-124151063D01*
X108635256Y-124037795D01*
X108446898Y-123959774D01*
X108246939Y-123920000D01*
X108043061Y-123920000D01*
X107843102Y-123959774D01*
X107654744Y-124037795D01*
X107485226Y-124151063D01*
X107341063Y-124295226D01*
X107227795Y-124464744D01*
X107149774Y-124653102D01*
X107110000Y-124853061D01*
X107110000Y-124982571D01*
X106948102Y-125014774D01*
X106759744Y-125092795D01*
X106590226Y-125206063D01*
X106446063Y-125350226D01*
X106332795Y-125519744D01*
X106254774Y-125708102D01*
X106215000Y-125908061D01*
X102430978Y-125908061D01*
X102290334Y-125849804D01*
X102090375Y-125810030D01*
X101886497Y-125810030D01*
X101686538Y-125849804D01*
X101498180Y-125927825D01*
X101328662Y-126041093D01*
X101184499Y-126185256D01*
X101071231Y-126354774D01*
X100993210Y-126543132D01*
X100953436Y-126743091D01*
X77435729Y-126743091D01*
X78264653Y-123810561D01*
X97265000Y-123810561D01*
X97265000Y-124014439D01*
X97304774Y-124214398D01*
X97382795Y-124402756D01*
X97496063Y-124572274D01*
X97640226Y-124716437D01*
X97809744Y-124829705D01*
X97998102Y-124907726D01*
X98198061Y-124947500D01*
X98401939Y-124947500D01*
X98601898Y-124907726D01*
X98790256Y-124829705D01*
X98959774Y-124716437D01*
X99103937Y-124572274D01*
X99217205Y-124402756D01*
X99295226Y-124214398D01*
X99335000Y-124014439D01*
X99335000Y-123810561D01*
X99295226Y-123610602D01*
X99217205Y-123422244D01*
X99103937Y-123252726D01*
X98959774Y-123108563D01*
X98790256Y-122995295D01*
X98601898Y-122917274D01*
X98401939Y-122877500D01*
X98198061Y-122877500D01*
X97998102Y-122917274D01*
X97809744Y-122995295D01*
X97640226Y-123108563D01*
X97496063Y-123252726D01*
X97382795Y-123422244D01*
X97304774Y-123610602D01*
X97265000Y-123810561D01*
X78264653Y-123810561D01*
X82196678Y-109900029D01*
X82213863Y-109804123D01*
X82211386Y-109674138D01*
X82183599Y-109547134D01*
X82131568Y-109427991D01*
X82057294Y-109321288D01*
X81963630Y-109231126D01*
X81914020Y-109199327D01*
X80005958Y-107926780D01*
X78199100Y-106540299D01*
X76488097Y-105037116D01*
X74880489Y-103423854D01*
X73383330Y-101707593D01*
X73379608Y-101702706D01*
X77032893Y-101702706D01*
X77032893Y-101911508D01*
X77073628Y-102116298D01*
X77153533Y-102309205D01*
X77269537Y-102482818D01*
X77417182Y-102630463D01*
X77590795Y-102746467D01*
X77783702Y-102826372D01*
X77988492Y-102867107D01*
X78197294Y-102867107D01*
X78402084Y-102826372D01*
X78594991Y-102746467D01*
X78768604Y-102630463D01*
X78916249Y-102482818D01*
X79032253Y-102309205D01*
X79039380Y-102291999D01*
X79044180Y-102290543D01*
X79151839Y-102232997D01*
X79171230Y-102234907D01*
X79320216Y-102220233D01*
X79463476Y-102176776D01*
X79595506Y-102106204D01*
X79711231Y-102011231D01*
X79806204Y-101895506D01*
X79876776Y-101763476D01*
X79920233Y-101620216D01*
X79934907Y-101471230D01*
X79932997Y-101451839D01*
X79990543Y-101344180D01*
X80026853Y-101224482D01*
X80039113Y-101100000D01*
X80026853Y-100975518D01*
X79990543Y-100855820D01*
X79931578Y-100745506D01*
X79852226Y-100648815D01*
X79667486Y-100464075D01*
X79790795Y-100546467D01*
X79983702Y-100626372D01*
X80188492Y-100667107D01*
X80397294Y-100667107D01*
X80602084Y-100626372D01*
X80794991Y-100546467D01*
X80968604Y-100430463D01*
X81116249Y-100282818D01*
X81232253Y-100109205D01*
X81239380Y-100091999D01*
X81244180Y-100090543D01*
X81354494Y-100031578D01*
X81451185Y-99952226D01*
X82052226Y-99351185D01*
X82131578Y-99254494D01*
X82190543Y-99144180D01*
X82226853Y-99024482D01*
X82239113Y-98900000D01*
X82226853Y-98775518D01*
X82190543Y-98655820D01*
X82131578Y-98545506D01*
X82052226Y-98448815D01*
X81451185Y-97847774D01*
X81354494Y-97768422D01*
X81244180Y-97709457D01*
X81124482Y-97673147D01*
X81000000Y-97660887D01*
X80875518Y-97673147D01*
X80755820Y-97709457D01*
X80645506Y-97768422D01*
X80548815Y-97847774D01*
X79947774Y-98448815D01*
X79868422Y-98545506D01*
X79809457Y-98655820D01*
X79808001Y-98660620D01*
X79790795Y-98667747D01*
X79617182Y-98783751D01*
X79469537Y-98931396D01*
X79353533Y-99105009D01*
X79273628Y-99297916D01*
X79232893Y-99502706D01*
X79232893Y-99711508D01*
X79273628Y-99916298D01*
X79353533Y-100109205D01*
X79435925Y-100232514D01*
X79251185Y-100047774D01*
X79154494Y-99968422D01*
X79044180Y-99909457D01*
X78924482Y-99873147D01*
X78800000Y-99860887D01*
X78675518Y-99873147D01*
X78555820Y-99909457D01*
X78445506Y-99968422D01*
X78348815Y-100047774D01*
X77747774Y-100648815D01*
X77668422Y-100745506D01*
X77609457Y-100855820D01*
X77608001Y-100860620D01*
X77590795Y-100867747D01*
X77417182Y-100983751D01*
X77269537Y-101131396D01*
X77153533Y-101305009D01*
X77073628Y-101497916D01*
X77032893Y-101702706D01*
X73379608Y-101702706D01*
X72003188Y-99895860D01*
X70746168Y-97996670D01*
X69617773Y-96018335D01*
X68622975Y-93969575D01*
X67766140Y-91859386D01*
X67051036Y-89697037D01*
X66480817Y-87492073D01*
X66057981Y-85254149D01*
X65784390Y-82993128D01*
X65661249Y-80718943D01*
X65689096Y-78441598D01*
X65867811Y-76171107D01*
X66196607Y-73917447D01*
X66674038Y-71690547D01*
X67298007Y-69500170D01*
X68065766Y-67355970D01*
X68973947Y-65267355D01*
X70018544Y-63243537D01*
X71194978Y-61293383D01*
X72498067Y-59425490D01*
X73922083Y-57648064D01*
X75460764Y-55968922D01*
X77107355Y-54395438D01*
X78854592Y-52934551D01*
X80694817Y-51592665D01*
X82619926Y-50375689D01*
X84391447Y-49413855D01*
X76699055Y-57106248D01*
X76670051Y-57130051D01*
X76626905Y-57182625D01*
X76575078Y-57245776D01*
X76538540Y-57314134D01*
X76504506Y-57377806D01*
X76461049Y-57521067D01*
X76450052Y-57632720D01*
X76450052Y-57632730D01*
X76446376Y-57670052D01*
X76450052Y-57707375D01*
X76450053Y-60832720D01*
X76446376Y-60870052D01*
X76450053Y-60907385D01*
X76461050Y-61019038D01*
X76464624Y-61030820D01*
X76504506Y-61162298D01*
X76575078Y-61294328D01*
X76645552Y-61380200D01*
X76670052Y-61410053D01*
X76699050Y-61433851D01*
X84789999Y-69524801D01*
X84790000Y-78453085D01*
X84779494Y-78444463D01*
X84669180Y-78385498D01*
X84549482Y-78349188D01*
X84425000Y-78336928D01*
X83575000Y-78336928D01*
X83450518Y-78349188D01*
X83330820Y-78385498D01*
X83220506Y-78444463D01*
X83123815Y-78523815D01*
X83044463Y-78620506D01*
X82985498Y-78730820D01*
X82949188Y-78850518D01*
X82936928Y-78975000D01*
X82936928Y-79825000D01*
X82949188Y-79949482D01*
X82985498Y-80069180D01*
X82987862Y-80073603D01*
X82980735Y-80090809D01*
X82940000Y-80295599D01*
X82940000Y-80504401D01*
X82980735Y-80709191D01*
X83060640Y-80902098D01*
X83176644Y-81075711D01*
X83302896Y-81201963D01*
X83294454Y-81217756D01*
X83250997Y-81361017D01*
X83240000Y-81472670D01*
X83240000Y-81472680D01*
X83236324Y-81510002D01*
X83240000Y-81547325D01*
X83240001Y-86550354D01*
X83193130Y-86638043D01*
X83174412Y-86673061D01*
X83130955Y-86816322D01*
X83119958Y-86927975D01*
X83119958Y-86927985D01*
X83116282Y-86965307D01*
X83119958Y-87002629D01*
X83119958Y-96080800D01*
X70760000Y-83720843D01*
X70760000Y-80965957D01*
X70779494Y-80955537D01*
X70876185Y-80876185D01*
X70955537Y-80779494D01*
X71014502Y-80669180D01*
X71050812Y-80549482D01*
X71063072Y-80425000D01*
X71063072Y-79575000D01*
X71050812Y-79450518D01*
X71014502Y-79330820D01*
X70955537Y-79220506D01*
X70876185Y-79123815D01*
X70779494Y-79044463D01*
X70669180Y-78985498D01*
X70634573Y-78975000D01*
X80636928Y-78975000D01*
X80636928Y-79825000D01*
X80649188Y-79949482D01*
X80685498Y-80069180D01*
X80687862Y-80073603D01*
X80680735Y-80090809D01*
X80640000Y-80295599D01*
X80640000Y-80504401D01*
X80680735Y-80709191D01*
X80760640Y-80902098D01*
X80876644Y-81075711D01*
X81024289Y-81223356D01*
X81197902Y-81339360D01*
X81390809Y-81419265D01*
X81595599Y-81460000D01*
X81804401Y-81460000D01*
X82009191Y-81419265D01*
X82202098Y-81339360D01*
X82375711Y-81223356D01*
X82523356Y-81075711D01*
X82639360Y-80902098D01*
X82719265Y-80709191D01*
X82760000Y-80504401D01*
X82760000Y-80295599D01*
X82719265Y-80090809D01*
X82712138Y-80073603D01*
X82714502Y-80069180D01*
X82750812Y-79949482D01*
X82763072Y-79825000D01*
X82763072Y-78975000D01*
X82750812Y-78850518D01*
X82714502Y-78730820D01*
X82655537Y-78620506D01*
X82576185Y-78523815D01*
X82479494Y-78444463D01*
X82369180Y-78385498D01*
X82249482Y-78349188D01*
X82125000Y-78336928D01*
X81275000Y-78336928D01*
X81150518Y-78349188D01*
X81030820Y-78385498D01*
X80920506Y-78444463D01*
X80823815Y-78523815D01*
X80744463Y-78620506D01*
X80685498Y-78730820D01*
X80649188Y-78850518D01*
X80636928Y-78975000D01*
X70634573Y-78975000D01*
X70549482Y-78949188D01*
X70425000Y-78936928D01*
X69575000Y-78936928D01*
X69450518Y-78949188D01*
X69330820Y-78985498D01*
X69326397Y-78987862D01*
X69309191Y-78980735D01*
X69104401Y-78940000D01*
X68895599Y-78940000D01*
X68690809Y-78980735D01*
X68497902Y-79060640D01*
X68324289Y-79176644D01*
X68176644Y-79324289D01*
X68060640Y-79497902D01*
X67980735Y-79690809D01*
X67940000Y-79895599D01*
X67940000Y-80104401D01*
X67980735Y-80309191D01*
X68060640Y-80502098D01*
X68176644Y-80675711D01*
X68324289Y-80823356D01*
X68497902Y-80939360D01*
X68690809Y-81019265D01*
X68895599Y-81060000D01*
X69104401Y-81060000D01*
X69240000Y-81033028D01*
X69240001Y-83998312D01*
X69236324Y-84035644D01*
X69250998Y-84184629D01*
X69294454Y-84327890D01*
X69365026Y-84459920D01*
X69384384Y-84483507D01*
X69460000Y-84575645D01*
X69488998Y-84599443D01*
X82656296Y-97766742D01*
X82656297Y-114116362D01*
X82656296Y-114116372D01*
X82656297Y-119471786D01*
X82652620Y-119509118D01*
X82656297Y-119546451D01*
X82667294Y-119658104D01*
X82676740Y-119689243D01*
X82710750Y-119801364D01*
X82781322Y-119933394D01*
X82849118Y-120016003D01*
X82876296Y-120049119D01*
X82905294Y-120072917D01*
X84378377Y-121546001D01*
X84402176Y-121575000D01*
X84431174Y-121598798D01*
X84517901Y-121669973D01*
X84649930Y-121740545D01*
X84793191Y-121784002D01*
X84942177Y-121798676D01*
X84979510Y-121794999D01*
X100649907Y-121794999D01*
X100672795Y-121850256D01*
X100786063Y-122019774D01*
X100897077Y-122130788D01*
X100839784Y-122269105D01*
X100800010Y-122469064D01*
X100800010Y-122672942D01*
X100839784Y-122872901D01*
X100917805Y-123061259D01*
X101031073Y-123230777D01*
X101175236Y-123374940D01*
X101343105Y-123487106D01*
X101343105Y-123512628D01*
X101364745Y-123621419D01*
X101279605Y-123706559D01*
X101166337Y-123876077D01*
X101088316Y-124064435D01*
X101048542Y-124264394D01*
X101048542Y-124468272D01*
X101088316Y-124668231D01*
X101166337Y-124856589D01*
X101279605Y-125026107D01*
X101423768Y-125170270D01*
X101593286Y-125283538D01*
X101781644Y-125361559D01*
X101981603Y-125401333D01*
X102185481Y-125401333D01*
X102385440Y-125361559D01*
X102573798Y-125283538D01*
X102743316Y-125170270D01*
X102887479Y-125026107D01*
X103000747Y-124856589D01*
X103078768Y-124668231D01*
X103118542Y-124468272D01*
X103118542Y-124264394D01*
X103096902Y-124155603D01*
X103182042Y-124070463D01*
X103295310Y-123900945D01*
X103373331Y-123712587D01*
X103413105Y-123512628D01*
X103413105Y-123308750D01*
X103373331Y-123108791D01*
X103295310Y-122920433D01*
X103182042Y-122750915D01*
X103037879Y-122606752D01*
X102870010Y-122494586D01*
X102870010Y-122469064D01*
X102830236Y-122269105D01*
X102752215Y-122080747D01*
X102638947Y-121911229D01*
X102527933Y-121800215D01*
X102534801Y-121783634D01*
X102536015Y-121784002D01*
X102647668Y-121794999D01*
X102647676Y-121794999D01*
X102685001Y-121798675D01*
X102722326Y-121794999D01*
X107189108Y-121794999D01*
X107415095Y-122020986D01*
X107438898Y-122049990D01*
X107554623Y-122144963D01*
X107686652Y-122215535D01*
X107829913Y-122258992D01*
X107941566Y-122269989D01*
X107941575Y-122269989D01*
X107978898Y-122273665D01*
X108016221Y-122269989D01*
X108724552Y-122269989D01*
X108761874Y-122273665D01*
X108799196Y-122269989D01*
X108799207Y-122269989D01*
X108910860Y-122258992D01*
X109054121Y-122215535D01*
X109186150Y-122144963D01*
X109301875Y-122049990D01*
X109325677Y-122020987D01*
X109353065Y-121993599D01*
X109415203Y-121993599D01*
X109615162Y-121953825D01*
X109803520Y-121875804D01*
X109973038Y-121762536D01*
X110117201Y-121618373D01*
X110230469Y-121448855D01*
X110260501Y-121376353D01*
X110450324Y-121338595D01*
X110638682Y-121260574D01*
X110808200Y-121147306D01*
X110952363Y-121003143D01*
X111065631Y-120833625D01*
X111143652Y-120645267D01*
X111183426Y-120445308D01*
X111183426Y-120241430D01*
X111143652Y-120041471D01*
X111065631Y-119853113D01*
X110952363Y-119683595D01*
X110808200Y-119539432D01*
X110638682Y-119426164D01*
X110450324Y-119348143D01*
X110250365Y-119308369D01*
X110172652Y-119308369D01*
X110040674Y-119237824D01*
X109897413Y-119194367D01*
X109785760Y-119183370D01*
X109785749Y-119183370D01*
X109748427Y-119179694D01*
X109711105Y-119183370D01*
X108147701Y-119183370D01*
X108110378Y-119179694D01*
X108073055Y-119183370D01*
X108073046Y-119183370D01*
X107961393Y-119194367D01*
X107818132Y-119237824D01*
X107686103Y-119308396D01*
X107604974Y-119374977D01*
X106985208Y-119374977D01*
X107870229Y-118489957D01*
X107932366Y-118489957D01*
X108132325Y-118450183D01*
X108320683Y-118372162D01*
X108490201Y-118258894D01*
X108634364Y-118114731D01*
X108747632Y-117945213D01*
X108781258Y-117864034D01*
X108814883Y-117945213D01*
X108928151Y-118114731D01*
X109072314Y-118258894D01*
X109241832Y-118372162D01*
X109430190Y-118450183D01*
X109630149Y-118489957D01*
X109834027Y-118489957D01*
X110033986Y-118450183D01*
X110222344Y-118372162D01*
X110391862Y-118258894D01*
X110536025Y-118114731D01*
X110648600Y-117946250D01*
X110673306Y-117946250D01*
X110873265Y-117906476D01*
X111061623Y-117828455D01*
X111231141Y-117715187D01*
X111375304Y-117571024D01*
X111488572Y-117401506D01*
X111566593Y-117213148D01*
X111606367Y-117013189D01*
X111606367Y-116809311D01*
X111566593Y-116609352D01*
X111488572Y-116420994D01*
X111375304Y-116251476D01*
X111231141Y-116107313D01*
X111061623Y-115994045D01*
X110873265Y-115916024D01*
X110673306Y-115876250D01*
X110657578Y-115876250D01*
X110657578Y-115840040D01*
X110617804Y-115640081D01*
X110552499Y-115482421D01*
X110565515Y-115487813D01*
X110765474Y-115527587D01*
X110969352Y-115527587D01*
X111169311Y-115487813D01*
X111357669Y-115409792D01*
X111527187Y-115296524D01*
X111671350Y-115152361D01*
X111784618Y-114982843D01*
X111862639Y-114794485D01*
X111902413Y-114594526D01*
X111902413Y-114390648D01*
X111872930Y-114242426D01*
X111870000Y-114212677D01*
X111870000Y-104753711D01*
X111913937Y-104709774D01*
X112027205Y-104540256D01*
X112105226Y-104351898D01*
X112145000Y-104151939D01*
X112145000Y-103948061D01*
X112105226Y-103748102D01*
X112027205Y-103559744D01*
X111913937Y-103390226D01*
X111769774Y-103246063D01*
X111763159Y-103241643D01*
X113044802Y-101960000D01*
X120456589Y-101960000D01*
X120748815Y-102252226D01*
X120845506Y-102331578D01*
X120955820Y-102390543D01*
X120960620Y-102391999D01*
X120967747Y-102409205D01*
X121083751Y-102582818D01*
X121231396Y-102730463D01*
X121405009Y-102846467D01*
X121597916Y-102926372D01*
X121802706Y-102967107D01*
X122011508Y-102967107D01*
X122216298Y-102926372D01*
X122409205Y-102846467D01*
X122582818Y-102730463D01*
X122730463Y-102582818D01*
X122846467Y-102409205D01*
X122926372Y-102216298D01*
X122967107Y-102011508D01*
X122967107Y-101802706D01*
X122926372Y-101597916D01*
X122846467Y-101405009D01*
X122730463Y-101231396D01*
X122582818Y-101083751D01*
X122409205Y-100967747D01*
X122391999Y-100960620D01*
X122390543Y-100955820D01*
X122331578Y-100845506D01*
X122252226Y-100748815D01*
X121960000Y-100456589D01*
X121960000Y-100137322D01*
X121963676Y-100099999D01*
X121960000Y-100062676D01*
X121960000Y-100062667D01*
X121949003Y-99951014D01*
X121905546Y-99807753D01*
X121834974Y-99675724D01*
X121818994Y-99656252D01*
X121763799Y-99588996D01*
X121763795Y-99588992D01*
X121740001Y-99559999D01*
X121711008Y-99536205D01*
X111409999Y-89235198D01*
X111409999Y-81460000D01*
X111504401Y-81460000D01*
X111709191Y-81419265D01*
X111902098Y-81339360D01*
X112075711Y-81223356D01*
X112223356Y-81075711D01*
X112339360Y-80902098D01*
X112419265Y-80709191D01*
X112460000Y-80504401D01*
X112460000Y-80295599D01*
X112419265Y-80090809D01*
X112412138Y-80073603D01*
X112414502Y-80069180D01*
X112450812Y-79949482D01*
X112463072Y-79825000D01*
X112463072Y-78975000D01*
X112636928Y-78975000D01*
X112636928Y-79825000D01*
X112649188Y-79949482D01*
X112685498Y-80069180D01*
X112687862Y-80073603D01*
X112680735Y-80090809D01*
X112640000Y-80295599D01*
X112640000Y-80504401D01*
X112680735Y-80709191D01*
X112760640Y-80902098D01*
X112876644Y-81075711D01*
X113024289Y-81223356D01*
X113197902Y-81339360D01*
X113390809Y-81419265D01*
X113595599Y-81460000D01*
X113804401Y-81460000D01*
X114009191Y-81419265D01*
X114202098Y-81339360D01*
X114375711Y-81223356D01*
X114523356Y-81075711D01*
X114639360Y-80902098D01*
X114719265Y-80709191D01*
X114760000Y-80504401D01*
X114760000Y-80295599D01*
X114719265Y-80090809D01*
X114712138Y-80073603D01*
X114714502Y-80069180D01*
X114750812Y-79949482D01*
X114763072Y-79825000D01*
X114763072Y-78975000D01*
X114936928Y-78975000D01*
X114936928Y-79825000D01*
X114949188Y-79949482D01*
X114985498Y-80069180D01*
X114987862Y-80073603D01*
X114980735Y-80090809D01*
X114940000Y-80295599D01*
X114940000Y-80504401D01*
X114980735Y-80709191D01*
X115060640Y-80902098D01*
X115176644Y-81075711D01*
X115324289Y-81223356D01*
X115497902Y-81339360D01*
X115690809Y-81419265D01*
X115895599Y-81460000D01*
X116104401Y-81460000D01*
X116309191Y-81419265D01*
X116502098Y-81339360D01*
X116675711Y-81223356D01*
X116823356Y-81075711D01*
X116939360Y-80902098D01*
X117019265Y-80709191D01*
X117060000Y-80504401D01*
X117060000Y-80295599D01*
X117019265Y-80090809D01*
X117012138Y-80073603D01*
X117014502Y-80069180D01*
X117050812Y-79949482D01*
X117063072Y-79825000D01*
X117063072Y-78975000D01*
X117236928Y-78975000D01*
X117236928Y-79825000D01*
X117249188Y-79949482D01*
X117285498Y-80069180D01*
X117287862Y-80073603D01*
X117280735Y-80090809D01*
X117240000Y-80295599D01*
X117240000Y-80504401D01*
X117280735Y-80709191D01*
X117360640Y-80902098D01*
X117476644Y-81075711D01*
X117624289Y-81223356D01*
X117797902Y-81339360D01*
X117990809Y-81419265D01*
X118195599Y-81460000D01*
X118404401Y-81460000D01*
X118609191Y-81419265D01*
X118802098Y-81339360D01*
X118975711Y-81223356D01*
X119123356Y-81075711D01*
X119239360Y-80902098D01*
X119319265Y-80709191D01*
X119360000Y-80504401D01*
X119360000Y-80295599D01*
X119319265Y-80090809D01*
X119312138Y-80073603D01*
X119314502Y-80069180D01*
X119350812Y-79949482D01*
X119363072Y-79825000D01*
X119363072Y-79575000D01*
X128936928Y-79575000D01*
X128936928Y-80425000D01*
X128949188Y-80549482D01*
X128985498Y-80669180D01*
X129044463Y-80779494D01*
X129123815Y-80876185D01*
X129220506Y-80955537D01*
X129330820Y-81014502D01*
X129450518Y-81050812D01*
X129575000Y-81063072D01*
X130425000Y-81063072D01*
X130549482Y-81050812D01*
X130669180Y-81014502D01*
X130673603Y-81012138D01*
X130690809Y-81019265D01*
X130895599Y-81060000D01*
X131104401Y-81060000D01*
X131309191Y-81019265D01*
X131502098Y-80939360D01*
X131675711Y-80823356D01*
X131823356Y-80675711D01*
X131939360Y-80502098D01*
X132019265Y-80309191D01*
X132060000Y-80104401D01*
X132060000Y-79895599D01*
X132019265Y-79690809D01*
X131939360Y-79497902D01*
X131823356Y-79324289D01*
X131675711Y-79176644D01*
X131502098Y-79060640D01*
X131309191Y-78980735D01*
X131104401Y-78940000D01*
X130895599Y-78940000D01*
X130690809Y-78980735D01*
X130673603Y-78987862D01*
X130669180Y-78985498D01*
X130549482Y-78949188D01*
X130425000Y-78936928D01*
X129575000Y-78936928D01*
X129450518Y-78949188D01*
X129330820Y-78985498D01*
X129220506Y-79044463D01*
X129123815Y-79123815D01*
X129044463Y-79220506D01*
X128985498Y-79330820D01*
X128949188Y-79450518D01*
X128936928Y-79575000D01*
X119363072Y-79575000D01*
X119363072Y-78975000D01*
X119350812Y-78850518D01*
X119314502Y-78730820D01*
X119255537Y-78620506D01*
X119176185Y-78523815D01*
X119079494Y-78444463D01*
X118969180Y-78385498D01*
X118849482Y-78349188D01*
X118725000Y-78336928D01*
X117875000Y-78336928D01*
X117750518Y-78349188D01*
X117630820Y-78385498D01*
X117520506Y-78444463D01*
X117423815Y-78523815D01*
X117344463Y-78620506D01*
X117285498Y-78730820D01*
X117249188Y-78850518D01*
X117236928Y-78975000D01*
X117063072Y-78975000D01*
X117050812Y-78850518D01*
X117014502Y-78730820D01*
X116955537Y-78620506D01*
X116876185Y-78523815D01*
X116779494Y-78444463D01*
X116669180Y-78385498D01*
X116549482Y-78349188D01*
X116425000Y-78336928D01*
X115575000Y-78336928D01*
X115450518Y-78349188D01*
X115330820Y-78385498D01*
X115220506Y-78444463D01*
X115123815Y-78523815D01*
X115044463Y-78620506D01*
X114985498Y-78730820D01*
X114949188Y-78850518D01*
X114936928Y-78975000D01*
X114763072Y-78975000D01*
X114750812Y-78850518D01*
X114714502Y-78730820D01*
X114655537Y-78620506D01*
X114576185Y-78523815D01*
X114479494Y-78444463D01*
X114369180Y-78385498D01*
X114249482Y-78349188D01*
X114125000Y-78336928D01*
X113275000Y-78336928D01*
X113150518Y-78349188D01*
X113030820Y-78385498D01*
X112920506Y-78444463D01*
X112823815Y-78523815D01*
X112744463Y-78620506D01*
X112685498Y-78730820D01*
X112649188Y-78850518D01*
X112636928Y-78975000D01*
X112463072Y-78975000D01*
X112450812Y-78850518D01*
X112414502Y-78730820D01*
X112355537Y-78620506D01*
X112276185Y-78523815D01*
X112179494Y-78444463D01*
X112069180Y-78385498D01*
X111949482Y-78349188D01*
X111825000Y-78336928D01*
X111409999Y-78336928D01*
X111409999Y-69687324D01*
X111413675Y-69649999D01*
X111409999Y-69612674D01*
X111409999Y-69612666D01*
X111399002Y-69501013D01*
X111355545Y-69357752D01*
X111284973Y-69225723D01*
X111190000Y-69109998D01*
X111161002Y-69086200D01*
X103074802Y-61000000D01*
X117860887Y-61000000D01*
X117873147Y-61124482D01*
X117909457Y-61244180D01*
X117968422Y-61354494D01*
X118047774Y-61451185D01*
X118648815Y-62052226D01*
X118745506Y-62131578D01*
X118855820Y-62190543D01*
X118975518Y-62226853D01*
X119100000Y-62239113D01*
X119224482Y-62226853D01*
X119344180Y-62190543D01*
X119454494Y-62131578D01*
X119551185Y-62052226D01*
X120152226Y-61451185D01*
X120231578Y-61354494D01*
X120290543Y-61244180D01*
X120291999Y-61239380D01*
X120309205Y-61232253D01*
X120482818Y-61116249D01*
X120630463Y-60968604D01*
X120746467Y-60794991D01*
X120826372Y-60602084D01*
X120867107Y-60397294D01*
X120867107Y-60188492D01*
X120826372Y-59983702D01*
X120746467Y-59790795D01*
X120664075Y-59667486D01*
X120848815Y-59852226D01*
X120945506Y-59931578D01*
X121055820Y-59990543D01*
X121175518Y-60026853D01*
X121300000Y-60039113D01*
X121424482Y-60026853D01*
X121544180Y-59990543D01*
X121654494Y-59931578D01*
X121751185Y-59852226D01*
X122352226Y-59251185D01*
X122431578Y-59154494D01*
X122490543Y-59044180D01*
X122491999Y-59039380D01*
X122509205Y-59032253D01*
X122682818Y-58916249D01*
X122830463Y-58768604D01*
X122946467Y-58594991D01*
X123026372Y-58402084D01*
X123067107Y-58197294D01*
X123067107Y-57988492D01*
X123026372Y-57783702D01*
X122946467Y-57590795D01*
X122830463Y-57417182D01*
X122682818Y-57269537D01*
X122509205Y-57153533D01*
X122316298Y-57073628D01*
X122111508Y-57032893D01*
X121902706Y-57032893D01*
X121697916Y-57073628D01*
X121505009Y-57153533D01*
X121331396Y-57269537D01*
X121183751Y-57417182D01*
X121067747Y-57590795D01*
X121060620Y-57608001D01*
X121055820Y-57609457D01*
X120945506Y-57668422D01*
X120848815Y-57747774D01*
X120247774Y-58348815D01*
X120168422Y-58445506D01*
X120109457Y-58555820D01*
X120073147Y-58675518D01*
X120060887Y-58800000D01*
X120073147Y-58924482D01*
X120109457Y-59044180D01*
X120168422Y-59154494D01*
X120247774Y-59251185D01*
X120432514Y-59435925D01*
X120309205Y-59353533D01*
X120116298Y-59273628D01*
X119911508Y-59232893D01*
X119702706Y-59232893D01*
X119497916Y-59273628D01*
X119305009Y-59353533D01*
X119131396Y-59469537D01*
X118983751Y-59617182D01*
X118867747Y-59790795D01*
X118860620Y-59808001D01*
X118855820Y-59809457D01*
X118745506Y-59868422D01*
X118648815Y-59947774D01*
X118047774Y-60548815D01*
X117968422Y-60645506D01*
X117909457Y-60755820D01*
X117873147Y-60875518D01*
X117860887Y-61000000D01*
X103074802Y-61000000D01*
X100363804Y-58289003D01*
X100340001Y-58259999D01*
X100224276Y-58165026D01*
X100092247Y-58094454D01*
X99948986Y-58050997D01*
X99837333Y-58040000D01*
X99837322Y-58040000D01*
X99800000Y-58036324D01*
X99762678Y-58040000D01*
X79543411Y-58040000D01*
X79251185Y-57747774D01*
X79154494Y-57668422D01*
X79044180Y-57609457D01*
X79039380Y-57608001D01*
X79032253Y-57590795D01*
X78916249Y-57417182D01*
X78768604Y-57269537D01*
X78718708Y-57236197D01*
X85294906Y-50660000D01*
X97934043Y-50660000D01*
X97944463Y-50679494D01*
X98023815Y-50776185D01*
X98120506Y-50855537D01*
X98230820Y-50914502D01*
X98350518Y-50950812D01*
X98475000Y-50963072D01*
X99325000Y-50963072D01*
X99449482Y-50950812D01*
X99569180Y-50914502D01*
X99679494Y-50855537D01*
X99776185Y-50776185D01*
X99855537Y-50679494D01*
X99914502Y-50569180D01*
X99950812Y-50449482D01*
X99963072Y-50325000D01*
X99963072Y-49475000D01*
X100136928Y-49475000D01*
X100136928Y-50325000D01*
X100149188Y-50449482D01*
X100185498Y-50569180D01*
X100244463Y-50679494D01*
X100323815Y-50776185D01*
X100420506Y-50855537D01*
X100530820Y-50914502D01*
X100650518Y-50950812D01*
X100775000Y-50963072D01*
X101625000Y-50963072D01*
X101749482Y-50950812D01*
X101869180Y-50914502D01*
X101979494Y-50855537D01*
X102076185Y-50776185D01*
X102155537Y-50679494D01*
X102214502Y-50569180D01*
X102250812Y-50449482D01*
X102263072Y-50325000D01*
X102263072Y-49475000D01*
X102250812Y-49350518D01*
X102214502Y-49230820D01*
X102212138Y-49226397D01*
X102219265Y-49209191D01*
X102260000Y-49004401D01*
X102260000Y-48795599D01*
X102219265Y-48590809D01*
X102139360Y-48397902D01*
X102023356Y-48224289D01*
X101875711Y-48076644D01*
X101702098Y-47960640D01*
X101509191Y-47880735D01*
X101304401Y-47840000D01*
X101095599Y-47840000D01*
X100890809Y-47880735D01*
X100697902Y-47960640D01*
X100524289Y-48076644D01*
X100376644Y-48224289D01*
X100260640Y-48397902D01*
X100180735Y-48590809D01*
X100140000Y-48795599D01*
X100140000Y-49004401D01*
X100180735Y-49209191D01*
X100187862Y-49226397D01*
X100185498Y-49230820D01*
X100149188Y-49350518D01*
X100136928Y-49475000D01*
X99963072Y-49475000D01*
X99950812Y-49350518D01*
X99914502Y-49230820D01*
X99912138Y-49226397D01*
X99919265Y-49209191D01*
X99960000Y-49004401D01*
X99960000Y-48795599D01*
X99919265Y-48590809D01*
X99839360Y-48397902D01*
X99723356Y-48224289D01*
X99575711Y-48076644D01*
X99402098Y-47960640D01*
X99209191Y-47880735D01*
X99004401Y-47840000D01*
X98795599Y-47840000D01*
X98590809Y-47880735D01*
X98397902Y-47960640D01*
X98224289Y-48076644D01*
X98076644Y-48224289D01*
X97960640Y-48397902D01*
X97880735Y-48590809D01*
X97840000Y-48795599D01*
X97840000Y-49004401D01*
X97866972Y-49140000D01*
X85017427Y-49140000D01*
X84980104Y-49136324D01*
X84946058Y-49139677D01*
X86690605Y-48337297D01*
X88818279Y-47524842D01*
X90995105Y-46855187D01*
X93211537Y-46331268D01*
X95457841Y-45955389D01*
X97724087Y-45729210D01*
X100000342Y-45653723D01*
X102276611Y-45729257D01*
G36*
X78348815Y-59852226D02*
G01*
X78445506Y-59931578D01*
X78555820Y-59990543D01*
X78675518Y-60026853D01*
X78800000Y-60039113D01*
X78924482Y-60026853D01*
X79044180Y-59990543D01*
X79154494Y-59931578D01*
X79251185Y-59852226D01*
X79435925Y-59667486D01*
X79353533Y-59790795D01*
X79273628Y-59983702D01*
X79232893Y-60188492D01*
X79232893Y-60397294D01*
X79273628Y-60602084D01*
X79353533Y-60794991D01*
X79469537Y-60968604D01*
X79617182Y-61116249D01*
X79790795Y-61232253D01*
X79808001Y-61239380D01*
X79809457Y-61244180D01*
X79868422Y-61354494D01*
X79947774Y-61451185D01*
X80548815Y-62052226D01*
X80645506Y-62131578D01*
X80755820Y-62190543D01*
X80875518Y-62226853D01*
X81000000Y-62239113D01*
X81124482Y-62226853D01*
X81244180Y-62190543D01*
X81354494Y-62131578D01*
X81451185Y-62052226D01*
X82052226Y-61451185D01*
X82103449Y-61388770D01*
X97961428Y-61388770D01*
X97188997Y-62161202D01*
X97159999Y-62185000D01*
X97136201Y-62213998D01*
X97136200Y-62213999D01*
X97065025Y-62300725D01*
X96994453Y-62432755D01*
X96967560Y-62521414D01*
X96950997Y-62576015D01*
X96946798Y-62618646D01*
X96936323Y-62725001D01*
X96940000Y-62762333D01*
X96939998Y-76685141D01*
X96138969Y-77486172D01*
X96109971Y-77509970D01*
X96086173Y-77538968D01*
X96086172Y-77538969D01*
X96014997Y-77625695D01*
X95944425Y-77757725D01*
X95921794Y-77832334D01*
X95900969Y-77900985D01*
X95893468Y-77977141D01*
X95886295Y-78049971D01*
X95889972Y-78087303D01*
X95889971Y-83271880D01*
X95886295Y-83309203D01*
X95889971Y-83346525D01*
X95889971Y-83346535D01*
X95900968Y-83458188D01*
X95931157Y-83557710D01*
X95944425Y-83601449D01*
X96014997Y-83733479D01*
X96042495Y-83766985D01*
X96109970Y-83849204D01*
X96138973Y-83873006D01*
X96640001Y-84374035D01*
X96640000Y-96937678D01*
X96636324Y-96975000D01*
X96640000Y-97012322D01*
X96640000Y-97012332D01*
X96650997Y-97123985D01*
X96686189Y-97240000D01*
X96694454Y-97267246D01*
X96765026Y-97399276D01*
X96777609Y-97414608D01*
X96859999Y-97515001D01*
X96889003Y-97538804D01*
X98161201Y-98811003D01*
X98184999Y-98840001D01*
X98213997Y-98863799D01*
X98300723Y-98934974D01*
X98393810Y-98984730D01*
X98444463Y-99079494D01*
X98523815Y-99176185D01*
X98620506Y-99255537D01*
X98730820Y-99314502D01*
X98850518Y-99350812D01*
X98975000Y-99363072D01*
X99825000Y-99363072D01*
X99949482Y-99350812D01*
X100069180Y-99314502D01*
X100073603Y-99312138D01*
X100090809Y-99319265D01*
X100295599Y-99360000D01*
X100504401Y-99360000D01*
X100709191Y-99319265D01*
X100902098Y-99239360D01*
X101075711Y-99123356D01*
X101167134Y-99031933D01*
X101967241Y-99832041D01*
X101967242Y-111490033D01*
X101941939Y-111485000D01*
X101738061Y-111485000D01*
X101538102Y-111524774D01*
X101349744Y-111602795D01*
X101180226Y-111716063D01*
X101036063Y-111860226D01*
X100922795Y-112029744D01*
X100844774Y-112218102D01*
X100805000Y-112418061D01*
X100805000Y-112621939D01*
X100844774Y-112821898D01*
X100922795Y-113010256D01*
X101036063Y-113179774D01*
X101180226Y-113323937D01*
X101349744Y-113437205D01*
X101538102Y-113515226D01*
X101738061Y-113555000D01*
X101941939Y-113555000D01*
X101967242Y-113549967D01*
X101967242Y-116886036D01*
X101923304Y-116929974D01*
X101810036Y-117099492D01*
X101732015Y-117287850D01*
X101692241Y-117487809D01*
X101692241Y-117604944D01*
X93489746Y-117604944D01*
X87060000Y-111175199D01*
X87060000Y-111113061D01*
X87020226Y-110913102D01*
X86942205Y-110724744D01*
X86828937Y-110555226D01*
X86684774Y-110411063D01*
X86515256Y-110297795D01*
X86326898Y-110219774D01*
X86126939Y-110180000D01*
X86000000Y-110180000D01*
X86000000Y-109475000D01*
X98876928Y-109475000D01*
X98876928Y-110325000D01*
X98889188Y-110449482D01*
X98925498Y-110569180D01*
X98984463Y-110679494D01*
X99063815Y-110776185D01*
X99160506Y-110855537D01*
X99270820Y-110914502D01*
X99390518Y-110950812D01*
X99515000Y-110963072D01*
X100365000Y-110963072D01*
X100489482Y-110950812D01*
X100609180Y-110914502D01*
X100719494Y-110855537D01*
X100816185Y-110776185D01*
X100895537Y-110679494D01*
X100954502Y-110569180D01*
X100990812Y-110449482D01*
X101003072Y-110325000D01*
X101003072Y-109475000D01*
X100990812Y-109350518D01*
X100954502Y-109230820D01*
X100895537Y-109120506D01*
X100816185Y-109023815D01*
X100719494Y-108944463D01*
X100609180Y-108885498D01*
X100489482Y-108849188D01*
X100365000Y-108836928D01*
X99515000Y-108836928D01*
X99390518Y-108849188D01*
X99270820Y-108885498D01*
X99160506Y-108944463D01*
X99063815Y-109023815D01*
X98984463Y-109120506D01*
X98925498Y-109230820D01*
X98889188Y-109350518D01*
X98876928Y-109475000D01*
X86000000Y-109475000D01*
X86000000Y-88604799D01*
X87561004Y-87043796D01*
X87590002Y-87019998D01*
X87634886Y-86965307D01*
X87684975Y-86904274D01*
X87755547Y-86772244D01*
X87774848Y-86708615D01*
X87799004Y-86628983D01*
X87810001Y-86517330D01*
X87810001Y-86517320D01*
X87813677Y-86479997D01*
X87810001Y-86442674D01*
X87810001Y-81109068D01*
X87924289Y-81223356D01*
X88097902Y-81339360D01*
X88290809Y-81419265D01*
X88495599Y-81460000D01*
X88704401Y-81460000D01*
X88909191Y-81419265D01*
X89102098Y-81339360D01*
X89275711Y-81223356D01*
X89423356Y-81075711D01*
X89539360Y-80902098D01*
X89619265Y-80709191D01*
X89660000Y-80504401D01*
X89660000Y-80295599D01*
X89619265Y-80090809D01*
X89612138Y-80073603D01*
X89614502Y-80069180D01*
X89650812Y-79949482D01*
X89663072Y-79825000D01*
X89663072Y-78975000D01*
X89650812Y-78850518D01*
X89614502Y-78730820D01*
X89555537Y-78620506D01*
X89476185Y-78523815D01*
X89379494Y-78444463D01*
X89269180Y-78385498D01*
X89149482Y-78349188D01*
X89025000Y-78336928D01*
X88175000Y-78336928D01*
X88050518Y-78349188D01*
X87930820Y-78385498D01*
X87820506Y-78444463D01*
X87723815Y-78523815D01*
X87644463Y-78620506D01*
X87585498Y-78730820D01*
X87549188Y-78850518D01*
X87544807Y-78895005D01*
X87538802Y-78889000D01*
X87515001Y-78859999D01*
X87399276Y-78765026D01*
X87306190Y-78715270D01*
X87255537Y-78620506D01*
X87176185Y-78523815D01*
X87079494Y-78444463D01*
X86969180Y-78385498D01*
X86849482Y-78349188D01*
X86725000Y-78336928D01*
X86309999Y-78336928D01*
X86309999Y-69247321D01*
X86313675Y-69209998D01*
X86309999Y-69172675D01*
X86309999Y-69172666D01*
X86299002Y-69061013D01*
X86255545Y-68917752D01*
X86238745Y-68886322D01*
X86184973Y-68785722D01*
X86113798Y-68698996D01*
X86090000Y-68669998D01*
X86061003Y-68646201D01*
X77970052Y-60555251D01*
X77970052Y-59473463D01*
X78348815Y-59852226D01*
G37*
X78348815Y-59852226D02*
X78445506Y-59931578D01*
X78555820Y-59990543D01*
X78675518Y-60026853D01*
X78800000Y-60039113D01*
X78924482Y-60026853D01*
X79044180Y-59990543D01*
X79154494Y-59931578D01*
X79251185Y-59852226D01*
X79435925Y-59667486D01*
X79353533Y-59790795D01*
X79273628Y-59983702D01*
X79232893Y-60188492D01*
X79232893Y-60397294D01*
X79273628Y-60602084D01*
X79353533Y-60794991D01*
X79469537Y-60968604D01*
X79617182Y-61116249D01*
X79790795Y-61232253D01*
X79808001Y-61239380D01*
X79809457Y-61244180D01*
X79868422Y-61354494D01*
X79947774Y-61451185D01*
X80548815Y-62052226D01*
X80645506Y-62131578D01*
X80755820Y-62190543D01*
X80875518Y-62226853D01*
X81000000Y-62239113D01*
X81124482Y-62226853D01*
X81244180Y-62190543D01*
X81354494Y-62131578D01*
X81451185Y-62052226D01*
X82052226Y-61451185D01*
X82103449Y-61388770D01*
X97961428Y-61388770D01*
X97188997Y-62161202D01*
X97159999Y-62185000D01*
X97136201Y-62213998D01*
X97136200Y-62213999D01*
X97065025Y-62300725D01*
X96994453Y-62432755D01*
X96967560Y-62521414D01*
X96950997Y-62576015D01*
X96946798Y-62618646D01*
X96936323Y-62725001D01*
X96940000Y-62762333D01*
X96939998Y-76685141D01*
X96138969Y-77486172D01*
X96109971Y-77509970D01*
X96086173Y-77538968D01*
X96086172Y-77538969D01*
X96014997Y-77625695D01*
X95944425Y-77757725D01*
X95921794Y-77832334D01*
X95900969Y-77900985D01*
X95893468Y-77977141D01*
X95886295Y-78049971D01*
X95889972Y-78087303D01*
X95889971Y-83271880D01*
X95886295Y-83309203D01*
X95889971Y-83346525D01*
X95889971Y-83346535D01*
X95900968Y-83458188D01*
X95931157Y-83557710D01*
X95944425Y-83601449D01*
X96014997Y-83733479D01*
X96042495Y-83766985D01*
X96109970Y-83849204D01*
X96138973Y-83873006D01*
X96640001Y-84374035D01*
X96640000Y-96937678D01*
X96636324Y-96975000D01*
X96640000Y-97012322D01*
X96640000Y-97012332D01*
X96650997Y-97123985D01*
X96686189Y-97240000D01*
X96694454Y-97267246D01*
X96765026Y-97399276D01*
X96777609Y-97414608D01*
X96859999Y-97515001D01*
X96889003Y-97538804D01*
X98161201Y-98811003D01*
X98184999Y-98840001D01*
X98213997Y-98863799D01*
X98300723Y-98934974D01*
X98393810Y-98984730D01*
X98444463Y-99079494D01*
X98523815Y-99176185D01*
X98620506Y-99255537D01*
X98730820Y-99314502D01*
X98850518Y-99350812D01*
X98975000Y-99363072D01*
X99825000Y-99363072D01*
X99949482Y-99350812D01*
X100069180Y-99314502D01*
X100073603Y-99312138D01*
X100090809Y-99319265D01*
X100295599Y-99360000D01*
X100504401Y-99360000D01*
X100709191Y-99319265D01*
X100902098Y-99239360D01*
X101075711Y-99123356D01*
X101167134Y-99031933D01*
X101967241Y-99832041D01*
X101967242Y-111490033D01*
X101941939Y-111485000D01*
X101738061Y-111485000D01*
X101538102Y-111524774D01*
X101349744Y-111602795D01*
X101180226Y-111716063D01*
X101036063Y-111860226D01*
X100922795Y-112029744D01*
X100844774Y-112218102D01*
X100805000Y-112418061D01*
X100805000Y-112621939D01*
X100844774Y-112821898D01*
X100922795Y-113010256D01*
X101036063Y-113179774D01*
X101180226Y-113323937D01*
X101349744Y-113437205D01*
X101538102Y-113515226D01*
X101738061Y-113555000D01*
X101941939Y-113555000D01*
X101967242Y-113549967D01*
X101967242Y-116886036D01*
X101923304Y-116929974D01*
X101810036Y-117099492D01*
X101732015Y-117287850D01*
X101692241Y-117487809D01*
X101692241Y-117604944D01*
X93489746Y-117604944D01*
X87060000Y-111175199D01*
X87060000Y-111113061D01*
X87020226Y-110913102D01*
X86942205Y-110724744D01*
X86828937Y-110555226D01*
X86684774Y-110411063D01*
X86515256Y-110297795D01*
X86326898Y-110219774D01*
X86126939Y-110180000D01*
X86000000Y-110180000D01*
X86000000Y-109475000D01*
X98876928Y-109475000D01*
X98876928Y-110325000D01*
X98889188Y-110449482D01*
X98925498Y-110569180D01*
X98984463Y-110679494D01*
X99063815Y-110776185D01*
X99160506Y-110855537D01*
X99270820Y-110914502D01*
X99390518Y-110950812D01*
X99515000Y-110963072D01*
X100365000Y-110963072D01*
X100489482Y-110950812D01*
X100609180Y-110914502D01*
X100719494Y-110855537D01*
X100816185Y-110776185D01*
X100895537Y-110679494D01*
X100954502Y-110569180D01*
X100990812Y-110449482D01*
X101003072Y-110325000D01*
X101003072Y-109475000D01*
X100990812Y-109350518D01*
X100954502Y-109230820D01*
X100895537Y-109120506D01*
X100816185Y-109023815D01*
X100719494Y-108944463D01*
X100609180Y-108885498D01*
X100489482Y-108849188D01*
X100365000Y-108836928D01*
X99515000Y-108836928D01*
X99390518Y-108849188D01*
X99270820Y-108885498D01*
X99160506Y-108944463D01*
X99063815Y-109023815D01*
X98984463Y-109120506D01*
X98925498Y-109230820D01*
X98889188Y-109350518D01*
X98876928Y-109475000D01*
X86000000Y-109475000D01*
X86000000Y-88604799D01*
X87561004Y-87043796D01*
X87590002Y-87019998D01*
X87634886Y-86965307D01*
X87684975Y-86904274D01*
X87755547Y-86772244D01*
X87774848Y-86708615D01*
X87799004Y-86628983D01*
X87810001Y-86517330D01*
X87810001Y-86517320D01*
X87813677Y-86479997D01*
X87810001Y-86442674D01*
X87810001Y-81109068D01*
X87924289Y-81223356D01*
X88097902Y-81339360D01*
X88290809Y-81419265D01*
X88495599Y-81460000D01*
X88704401Y-81460000D01*
X88909191Y-81419265D01*
X89102098Y-81339360D01*
X89275711Y-81223356D01*
X89423356Y-81075711D01*
X89539360Y-80902098D01*
X89619265Y-80709191D01*
X89660000Y-80504401D01*
X89660000Y-80295599D01*
X89619265Y-80090809D01*
X89612138Y-80073603D01*
X89614502Y-80069180D01*
X89650812Y-79949482D01*
X89663072Y-79825000D01*
X89663072Y-78975000D01*
X89650812Y-78850518D01*
X89614502Y-78730820D01*
X89555537Y-78620506D01*
X89476185Y-78523815D01*
X89379494Y-78444463D01*
X89269180Y-78385498D01*
X89149482Y-78349188D01*
X89025000Y-78336928D01*
X88175000Y-78336928D01*
X88050518Y-78349188D01*
X87930820Y-78385498D01*
X87820506Y-78444463D01*
X87723815Y-78523815D01*
X87644463Y-78620506D01*
X87585498Y-78730820D01*
X87549188Y-78850518D01*
X87544807Y-78895005D01*
X87538802Y-78889000D01*
X87515001Y-78859999D01*
X87399276Y-78765026D01*
X87306190Y-78715270D01*
X87255537Y-78620506D01*
X87176185Y-78523815D01*
X87079494Y-78444463D01*
X86969180Y-78385498D01*
X86849482Y-78349188D01*
X86725000Y-78336928D01*
X86309999Y-78336928D01*
X86309999Y-69247321D01*
X86313675Y-69209998D01*
X86309999Y-69172675D01*
X86309999Y-69172666D01*
X86299002Y-69061013D01*
X86255545Y-68917752D01*
X86238745Y-68886322D01*
X86184973Y-68785722D01*
X86113798Y-68698996D01*
X86090000Y-68669998D01*
X86061003Y-68646201D01*
X77970052Y-60555251D01*
X77970052Y-59473463D01*
X78348815Y-59852226D01*
G36*
X109340000Y-70604800D02*
G01*
X109340001Y-88936003D01*
X109300988Y-89064614D01*
X109289991Y-89176267D01*
X109289991Y-89176277D01*
X109286315Y-89213599D01*
X109289991Y-89250921D01*
X109289991Y-90012669D01*
X109286315Y-90049991D01*
X109289991Y-90087313D01*
X109289991Y-90087324D01*
X109295904Y-90147349D01*
X109300989Y-90198976D01*
X109344445Y-90342237D01*
X109415017Y-90474267D01*
X109469706Y-90540905D01*
X109509991Y-90589992D01*
X109538989Y-90613790D01*
X117779564Y-98854366D01*
X117773147Y-98875518D01*
X117760887Y-99000000D01*
X117773147Y-99124482D01*
X117809457Y-99244180D01*
X117868422Y-99354494D01*
X117947774Y-99451185D01*
X118548815Y-100052226D01*
X118645506Y-100131578D01*
X118755820Y-100190543D01*
X118760620Y-100191999D01*
X118767747Y-100209205D01*
X118883751Y-100382818D01*
X118940933Y-100440000D01*
X112767322Y-100440000D01*
X112729999Y-100436324D01*
X112692676Y-100440000D01*
X112692667Y-100440000D01*
X112581014Y-100450997D01*
X112437753Y-100494454D01*
X112305724Y-100565026D01*
X112189999Y-100659999D01*
X112166201Y-100688997D01*
X105149014Y-107706185D01*
X105120010Y-107729988D01*
X105064882Y-107797163D01*
X105025037Y-107845713D01*
X104973214Y-107942667D01*
X104954465Y-107977743D01*
X104911008Y-108121004D01*
X104900011Y-108232657D01*
X104900011Y-108232667D01*
X104896335Y-108269989D01*
X104900011Y-108307311D01*
X104900012Y-115533091D01*
X103664266Y-116768838D01*
X103602128Y-116768838D01*
X103487241Y-116791690D01*
X103487241Y-99554561D01*
X103490917Y-99517238D01*
X103487241Y-99479915D01*
X103487241Y-99479906D01*
X103476244Y-99368253D01*
X103432787Y-99224992D01*
X103362215Y-99092963D01*
X103267242Y-98977238D01*
X103238245Y-98953441D01*
X101091935Y-96807132D01*
X101223356Y-96675711D01*
X101339360Y-96502098D01*
X101419265Y-96309191D01*
X101460000Y-96104401D01*
X101460000Y-95895599D01*
X101419265Y-95690809D01*
X101339360Y-95497902D01*
X101223356Y-95324289D01*
X101075711Y-95176644D01*
X100902098Y-95060640D01*
X100709191Y-94980735D01*
X100504401Y-94940000D01*
X100295599Y-94940000D01*
X100090809Y-94980735D01*
X100073603Y-94987862D01*
X100069180Y-94985498D01*
X99949482Y-94949188D01*
X99825000Y-94936928D01*
X98975000Y-94936928D01*
X98850518Y-94949188D01*
X98772620Y-94972818D01*
X98610011Y-94810210D01*
X98610011Y-94646924D01*
X98620506Y-94655537D01*
X98730820Y-94714502D01*
X98850518Y-94750812D01*
X98975000Y-94763072D01*
X99825000Y-94763072D01*
X99949482Y-94750812D01*
X100069180Y-94714502D01*
X100073603Y-94712138D01*
X100090809Y-94719265D01*
X100295599Y-94760000D01*
X100504401Y-94760000D01*
X100709191Y-94719265D01*
X100902098Y-94639360D01*
X101075711Y-94523356D01*
X101223356Y-94375711D01*
X101339360Y-94202098D01*
X101419265Y-94009191D01*
X101460000Y-93804401D01*
X101460000Y-93595599D01*
X101419265Y-93390809D01*
X101339360Y-93197902D01*
X101223356Y-93024289D01*
X101075711Y-92876644D01*
X100902098Y-92760640D01*
X100709191Y-92680735D01*
X100504401Y-92640000D01*
X100295599Y-92640000D01*
X100090809Y-92680735D01*
X100073603Y-92687862D01*
X100069180Y-92685498D01*
X99949482Y-92649188D01*
X99825000Y-92636928D01*
X99060022Y-92636928D01*
X99060022Y-92463072D01*
X99825000Y-92463072D01*
X99949482Y-92450812D01*
X100069180Y-92414502D01*
X100073603Y-92412138D01*
X100090809Y-92419265D01*
X100295599Y-92460000D01*
X100504401Y-92460000D01*
X100709191Y-92419265D01*
X100902098Y-92339360D01*
X101075711Y-92223356D01*
X101223356Y-92075711D01*
X101339360Y-91902098D01*
X101419265Y-91709191D01*
X101460000Y-91504401D01*
X101460000Y-91295599D01*
X101419265Y-91090809D01*
X101339360Y-90897902D01*
X101223356Y-90724289D01*
X101075711Y-90576644D01*
X100902098Y-90460640D01*
X100709191Y-90380735D01*
X100504401Y-90340000D01*
X100295599Y-90340000D01*
X100160000Y-90366972D01*
X100160000Y-84187325D01*
X100163676Y-84150000D01*
X100160000Y-84112675D01*
X100160000Y-84112667D01*
X100149003Y-84001014D01*
X100105546Y-83857753D01*
X100034974Y-83725724D01*
X99940001Y-83609999D01*
X99911003Y-83586201D01*
X99533656Y-83208854D01*
X99551898Y-83205226D01*
X99740256Y-83127205D01*
X99909774Y-83013937D01*
X100013750Y-82909961D01*
X100127726Y-83023937D01*
X100297244Y-83137205D01*
X100485602Y-83215226D01*
X100685561Y-83255000D01*
X100889439Y-83255000D01*
X101089398Y-83215226D01*
X101277756Y-83137205D01*
X101447274Y-83023937D01*
X101591437Y-82879774D01*
X101704705Y-82710256D01*
X101782726Y-82521898D01*
X101822500Y-82321939D01*
X101822500Y-82118061D01*
X101782726Y-81918102D01*
X101704705Y-81729744D01*
X101591437Y-81560226D01*
X101460217Y-81429006D01*
X101509191Y-81419265D01*
X101702098Y-81339360D01*
X101875711Y-81223356D01*
X102023356Y-81075711D01*
X102139360Y-80902098D01*
X102219265Y-80709191D01*
X102260000Y-80504401D01*
X102260000Y-80295599D01*
X102219265Y-80090809D01*
X102212138Y-80073603D01*
X102214502Y-80069180D01*
X102250812Y-79949482D01*
X102263072Y-79825000D01*
X102263072Y-78975000D01*
X102250812Y-78850518D01*
X102214502Y-78730820D01*
X102155537Y-78620506D01*
X102076185Y-78523815D01*
X101979494Y-78444463D01*
X101869180Y-78385498D01*
X101749482Y-78349188D01*
X101625000Y-78336928D01*
X100775000Y-78336928D01*
X100650518Y-78349188D01*
X100530820Y-78385498D01*
X100420506Y-78444463D01*
X100323815Y-78523815D01*
X100244463Y-78620506D01*
X100185498Y-78730820D01*
X100149188Y-78850518D01*
X100136928Y-78975000D01*
X100136928Y-79825000D01*
X100149188Y-79949482D01*
X100185498Y-80069180D01*
X100187862Y-80073603D01*
X100180735Y-80090809D01*
X100140000Y-80295599D01*
X100140000Y-80504401D01*
X100180735Y-80709191D01*
X100260640Y-80902098D01*
X100376644Y-81075711D01*
X100519053Y-81218120D01*
X100485602Y-81224774D01*
X100297244Y-81302795D01*
X100127726Y-81416063D01*
X100023750Y-81520039D01*
X99909774Y-81406063D01*
X99740256Y-81292795D01*
X99551898Y-81214774D01*
X99495509Y-81203558D01*
X99623356Y-81075711D01*
X99739360Y-80902098D01*
X99819265Y-80709191D01*
X99860000Y-80504401D01*
X99860000Y-80295599D01*
X99819265Y-80090809D01*
X99812138Y-80073603D01*
X99814502Y-80069180D01*
X99850812Y-79949482D01*
X99863072Y-79825000D01*
X99863072Y-78975000D01*
X99850812Y-78850518D01*
X99814502Y-78730820D01*
X99755537Y-78620506D01*
X99676185Y-78523815D01*
X99579494Y-78444463D01*
X99469180Y-78385498D01*
X99457765Y-78382035D01*
X99911004Y-77928796D01*
X99940001Y-77904999D01*
X100034974Y-77789274D01*
X100105546Y-77657245D01*
X100149003Y-77513984D01*
X100160000Y-77402331D01*
X100160000Y-77402323D01*
X100163676Y-77364998D01*
X100160000Y-77327673D01*
X100160000Y-69633028D01*
X100295599Y-69660000D01*
X100504401Y-69660000D01*
X100709191Y-69619265D01*
X100902098Y-69539360D01*
X101075711Y-69423356D01*
X101223356Y-69275711D01*
X101339360Y-69102098D01*
X101419265Y-68909191D01*
X101460000Y-68704401D01*
X101460000Y-68495599D01*
X101419265Y-68290809D01*
X101339360Y-68097902D01*
X101223356Y-67924289D01*
X101075711Y-67776644D01*
X100902098Y-67660640D01*
X100709191Y-67580735D01*
X100504401Y-67540000D01*
X100295599Y-67540000D01*
X100090809Y-67580735D01*
X100073603Y-67587862D01*
X100069180Y-67585498D01*
X99949482Y-67549188D01*
X99825000Y-67536928D01*
X99360020Y-67536928D01*
X99360020Y-67363072D01*
X99825000Y-67363072D01*
X99949482Y-67350812D01*
X100069180Y-67314502D01*
X100073603Y-67312138D01*
X100090809Y-67319265D01*
X100295599Y-67360000D01*
X100504401Y-67360000D01*
X100709191Y-67319265D01*
X100902098Y-67239360D01*
X101075711Y-67123356D01*
X101223356Y-66975711D01*
X101339360Y-66802098D01*
X101419265Y-66609191D01*
X101460000Y-66404401D01*
X101460000Y-66195599D01*
X101419265Y-65990809D01*
X101339360Y-65797902D01*
X101223356Y-65624289D01*
X101075711Y-65476644D01*
X100902098Y-65360640D01*
X100709191Y-65280735D01*
X100504401Y-65240000D01*
X100295599Y-65240000D01*
X100090809Y-65280735D01*
X100073603Y-65287862D01*
X100069180Y-65285498D01*
X99949482Y-65249188D01*
X99825000Y-65236928D01*
X98975000Y-65236928D01*
X98910009Y-65243329D01*
X98910009Y-65056671D01*
X98975000Y-65063072D01*
X99825000Y-65063072D01*
X99949482Y-65050812D01*
X100069180Y-65014502D01*
X100073603Y-65012138D01*
X100090809Y-65019265D01*
X100295599Y-65060000D01*
X100504401Y-65060000D01*
X100709191Y-65019265D01*
X100902098Y-64939360D01*
X101075711Y-64823356D01*
X101223356Y-64675711D01*
X101339360Y-64502098D01*
X101419265Y-64309191D01*
X101460000Y-64104401D01*
X101460000Y-63895599D01*
X101419265Y-63690809D01*
X101339360Y-63497902D01*
X101223356Y-63324289D01*
X101075711Y-63176644D01*
X100902098Y-63060640D01*
X100709191Y-62980735D01*
X100504401Y-62940000D01*
X100295599Y-62940000D01*
X100090809Y-62980735D01*
X100073603Y-62987862D01*
X100069180Y-62985498D01*
X99949482Y-62949188D01*
X99825000Y-62936928D01*
X98975000Y-62936928D01*
X98850518Y-62949188D01*
X98730820Y-62985498D01*
X98620506Y-63044463D01*
X98523815Y-63123815D01*
X98459999Y-63201575D01*
X98459999Y-63039802D01*
X98772620Y-62727182D01*
X98850518Y-62750812D01*
X98975000Y-62763072D01*
X99825000Y-62763072D01*
X99949482Y-62750812D01*
X100069180Y-62714502D01*
X100073603Y-62712138D01*
X100090809Y-62719265D01*
X100295599Y-62760000D01*
X100504401Y-62760000D01*
X100709191Y-62719265D01*
X100902098Y-62639360D01*
X101075711Y-62523356D01*
X101167134Y-62431933D01*
X109340000Y-70604800D01*
G37*
X109340000Y-70604800D02*
X109340001Y-88936003D01*
X109300988Y-89064614D01*
X109289991Y-89176267D01*
X109289991Y-89176277D01*
X109286315Y-89213599D01*
X109289991Y-89250921D01*
X109289991Y-90012669D01*
X109286315Y-90049991D01*
X109289991Y-90087313D01*
X109289991Y-90087324D01*
X109295904Y-90147349D01*
X109300989Y-90198976D01*
X109344445Y-90342237D01*
X109415017Y-90474267D01*
X109469706Y-90540905D01*
X109509991Y-90589992D01*
X109538989Y-90613790D01*
X117779564Y-98854366D01*
X117773147Y-98875518D01*
X117760887Y-99000000D01*
X117773147Y-99124482D01*
X117809457Y-99244180D01*
X117868422Y-99354494D01*
X117947774Y-99451185D01*
X118548815Y-100052226D01*
X118645506Y-100131578D01*
X118755820Y-100190543D01*
X118760620Y-100191999D01*
X118767747Y-100209205D01*
X118883751Y-100382818D01*
X118940933Y-100440000D01*
X112767322Y-100440000D01*
X112729999Y-100436324D01*
X112692676Y-100440000D01*
X112692667Y-100440000D01*
X112581014Y-100450997D01*
X112437753Y-100494454D01*
X112305724Y-100565026D01*
X112189999Y-100659999D01*
X112166201Y-100688997D01*
X105149014Y-107706185D01*
X105120010Y-107729988D01*
X105064882Y-107797163D01*
X105025037Y-107845713D01*
X104973214Y-107942667D01*
X104954465Y-107977743D01*
X104911008Y-108121004D01*
X104900011Y-108232657D01*
X104900011Y-108232667D01*
X104896335Y-108269989D01*
X104900011Y-108307311D01*
X104900012Y-115533091D01*
X103664266Y-116768838D01*
X103602128Y-116768838D01*
X103487241Y-116791690D01*
X103487241Y-99554561D01*
X103490917Y-99517238D01*
X103487241Y-99479915D01*
X103487241Y-99479906D01*
X103476244Y-99368253D01*
X103432787Y-99224992D01*
X103362215Y-99092963D01*
X103267242Y-98977238D01*
X103238245Y-98953441D01*
X101091935Y-96807132D01*
X101223356Y-96675711D01*
X101339360Y-96502098D01*
X101419265Y-96309191D01*
X101460000Y-96104401D01*
X101460000Y-95895599D01*
X101419265Y-95690809D01*
X101339360Y-95497902D01*
X101223356Y-95324289D01*
X101075711Y-95176644D01*
X100902098Y-95060640D01*
X100709191Y-94980735D01*
X100504401Y-94940000D01*
X100295599Y-94940000D01*
X100090809Y-94980735D01*
X100073603Y-94987862D01*
X100069180Y-94985498D01*
X99949482Y-94949188D01*
X99825000Y-94936928D01*
X98975000Y-94936928D01*
X98850518Y-94949188D01*
X98772620Y-94972818D01*
X98610011Y-94810210D01*
X98610011Y-94646924D01*
X98620506Y-94655537D01*
X98730820Y-94714502D01*
X98850518Y-94750812D01*
X98975000Y-94763072D01*
X99825000Y-94763072D01*
X99949482Y-94750812D01*
X100069180Y-94714502D01*
X100073603Y-94712138D01*
X100090809Y-94719265D01*
X100295599Y-94760000D01*
X100504401Y-94760000D01*
X100709191Y-94719265D01*
X100902098Y-94639360D01*
X101075711Y-94523356D01*
X101223356Y-94375711D01*
X101339360Y-94202098D01*
X101419265Y-94009191D01*
X101460000Y-93804401D01*
X101460000Y-93595599D01*
X101419265Y-93390809D01*
X101339360Y-93197902D01*
X101223356Y-93024289D01*
X101075711Y-92876644D01*
X100902098Y-92760640D01*
X100709191Y-92680735D01*
X100504401Y-92640000D01*
X100295599Y-92640000D01*
X100090809Y-92680735D01*
X100073603Y-92687862D01*
X100069180Y-92685498D01*
X99949482Y-92649188D01*
X99825000Y-92636928D01*
X99060022Y-92636928D01*
X99060022Y-92463072D01*
X99825000Y-92463072D01*
X99949482Y-92450812D01*
X100069180Y-92414502D01*
X100073603Y-92412138D01*
X100090809Y-92419265D01*
X100295599Y-92460000D01*
X100504401Y-92460000D01*
X100709191Y-92419265D01*
X100902098Y-92339360D01*
X101075711Y-92223356D01*
X101223356Y-92075711D01*
X101339360Y-91902098D01*
X101419265Y-91709191D01*
X101460000Y-91504401D01*
X101460000Y-91295599D01*
X101419265Y-91090809D01*
X101339360Y-90897902D01*
X101223356Y-90724289D01*
X101075711Y-90576644D01*
X100902098Y-90460640D01*
X100709191Y-90380735D01*
X100504401Y-90340000D01*
X100295599Y-90340000D01*
X100160000Y-90366972D01*
X100160000Y-84187325D01*
X100163676Y-84150000D01*
X100160000Y-84112675D01*
X100160000Y-84112667D01*
X100149003Y-84001014D01*
X100105546Y-83857753D01*
X100034974Y-83725724D01*
X99940001Y-83609999D01*
X99911003Y-83586201D01*
X99533656Y-83208854D01*
X99551898Y-83205226D01*
X99740256Y-83127205D01*
X99909774Y-83013937D01*
X100013750Y-82909961D01*
X100127726Y-83023937D01*
X100297244Y-83137205D01*
X100485602Y-83215226D01*
X100685561Y-83255000D01*
X100889439Y-83255000D01*
X101089398Y-83215226D01*
X101277756Y-83137205D01*
X101447274Y-83023937D01*
X101591437Y-82879774D01*
X101704705Y-82710256D01*
X101782726Y-82521898D01*
X101822500Y-82321939D01*
X101822500Y-82118061D01*
X101782726Y-81918102D01*
X101704705Y-81729744D01*
X101591437Y-81560226D01*
X101460217Y-81429006D01*
X101509191Y-81419265D01*
X101702098Y-81339360D01*
X101875711Y-81223356D01*
X102023356Y-81075711D01*
X102139360Y-80902098D01*
X102219265Y-80709191D01*
X102260000Y-80504401D01*
X102260000Y-80295599D01*
X102219265Y-80090809D01*
X102212138Y-80073603D01*
X102214502Y-80069180D01*
X102250812Y-79949482D01*
X102263072Y-79825000D01*
X102263072Y-78975000D01*
X102250812Y-78850518D01*
X102214502Y-78730820D01*
X102155537Y-78620506D01*
X102076185Y-78523815D01*
X101979494Y-78444463D01*
X101869180Y-78385498D01*
X101749482Y-78349188D01*
X101625000Y-78336928D01*
X100775000Y-78336928D01*
X100650518Y-78349188D01*
X100530820Y-78385498D01*
X100420506Y-78444463D01*
X100323815Y-78523815D01*
X100244463Y-78620506D01*
X100185498Y-78730820D01*
X100149188Y-78850518D01*
X100136928Y-78975000D01*
X100136928Y-79825000D01*
X100149188Y-79949482D01*
X100185498Y-80069180D01*
X100187862Y-80073603D01*
X100180735Y-80090809D01*
X100140000Y-80295599D01*
X100140000Y-80504401D01*
X100180735Y-80709191D01*
X100260640Y-80902098D01*
X100376644Y-81075711D01*
X100519053Y-81218120D01*
X100485602Y-81224774D01*
X100297244Y-81302795D01*
X100127726Y-81416063D01*
X100023750Y-81520039D01*
X99909774Y-81406063D01*
X99740256Y-81292795D01*
X99551898Y-81214774D01*
X99495509Y-81203558D01*
X99623356Y-81075711D01*
X99739360Y-80902098D01*
X99819265Y-80709191D01*
X99860000Y-80504401D01*
X99860000Y-80295599D01*
X99819265Y-80090809D01*
X99812138Y-80073603D01*
X99814502Y-80069180D01*
X99850812Y-79949482D01*
X99863072Y-79825000D01*
X99863072Y-78975000D01*
X99850812Y-78850518D01*
X99814502Y-78730820D01*
X99755537Y-78620506D01*
X99676185Y-78523815D01*
X99579494Y-78444463D01*
X99469180Y-78385498D01*
X99457765Y-78382035D01*
X99911004Y-77928796D01*
X99940001Y-77904999D01*
X100034974Y-77789274D01*
X100105546Y-77657245D01*
X100149003Y-77513984D01*
X100160000Y-77402331D01*
X100160000Y-77402323D01*
X100163676Y-77364998D01*
X100160000Y-77327673D01*
X100160000Y-69633028D01*
X100295599Y-69660000D01*
X100504401Y-69660000D01*
X100709191Y-69619265D01*
X100902098Y-69539360D01*
X101075711Y-69423356D01*
X101223356Y-69275711D01*
X101339360Y-69102098D01*
X101419265Y-68909191D01*
X101460000Y-68704401D01*
X101460000Y-68495599D01*
X101419265Y-68290809D01*
X101339360Y-68097902D01*
X101223356Y-67924289D01*
X101075711Y-67776644D01*
X100902098Y-67660640D01*
X100709191Y-67580735D01*
X100504401Y-67540000D01*
X100295599Y-67540000D01*
X100090809Y-67580735D01*
X100073603Y-67587862D01*
X100069180Y-67585498D01*
X99949482Y-67549188D01*
X99825000Y-67536928D01*
X99360020Y-67536928D01*
X99360020Y-67363072D01*
X99825000Y-67363072D01*
X99949482Y-67350812D01*
X100069180Y-67314502D01*
X100073603Y-67312138D01*
X100090809Y-67319265D01*
X100295599Y-67360000D01*
X100504401Y-67360000D01*
X100709191Y-67319265D01*
X100902098Y-67239360D01*
X101075711Y-67123356D01*
X101223356Y-66975711D01*
X101339360Y-66802098D01*
X101419265Y-66609191D01*
X101460000Y-66404401D01*
X101460000Y-66195599D01*
X101419265Y-65990809D01*
X101339360Y-65797902D01*
X101223356Y-65624289D01*
X101075711Y-65476644D01*
X100902098Y-65360640D01*
X100709191Y-65280735D01*
X100504401Y-65240000D01*
X100295599Y-65240000D01*
X100090809Y-65280735D01*
X100073603Y-65287862D01*
X100069180Y-65285498D01*
X99949482Y-65249188D01*
X99825000Y-65236928D01*
X98975000Y-65236928D01*
X98910009Y-65243329D01*
X98910009Y-65056671D01*
X98975000Y-65063072D01*
X99825000Y-65063072D01*
X99949482Y-65050812D01*
X100069180Y-65014502D01*
X100073603Y-65012138D01*
X100090809Y-65019265D01*
X100295599Y-65060000D01*
X100504401Y-65060000D01*
X100709191Y-65019265D01*
X100902098Y-64939360D01*
X101075711Y-64823356D01*
X101223356Y-64675711D01*
X101339360Y-64502098D01*
X101419265Y-64309191D01*
X101460000Y-64104401D01*
X101460000Y-63895599D01*
X101419265Y-63690809D01*
X101339360Y-63497902D01*
X101223356Y-63324289D01*
X101075711Y-63176644D01*
X100902098Y-63060640D01*
X100709191Y-62980735D01*
X100504401Y-62940000D01*
X100295599Y-62940000D01*
X100090809Y-62980735D01*
X100073603Y-62987862D01*
X100069180Y-62985498D01*
X99949482Y-62949188D01*
X99825000Y-62936928D01*
X98975000Y-62936928D01*
X98850518Y-62949188D01*
X98730820Y-62985498D01*
X98620506Y-63044463D01*
X98523815Y-63123815D01*
X98459999Y-63201575D01*
X98459999Y-63039802D01*
X98772620Y-62727182D01*
X98850518Y-62750812D01*
X98975000Y-62763072D01*
X99825000Y-62763072D01*
X99949482Y-62750812D01*
X100069180Y-62714502D01*
X100073603Y-62712138D01*
X100090809Y-62719265D01*
X100295599Y-62760000D01*
X100504401Y-62760000D01*
X100709191Y-62719265D01*
X100902098Y-62639360D01*
X101075711Y-62523356D01*
X101167134Y-62431933D01*
X109340000Y-70604800D01*
M02*
