G04 #@! TF.GenerationSoftware,KiCad,Pcbnew,(5.1.6-0)*
G04 #@! TF.CreationDate,2021-01-08T20:23:25+00:00*
G04 #@! TF.ProjectId,XMAS_Star_21,584d4153-5f53-4746-9172-5f32312e6b69,rev?*
G04 #@! TF.SameCoordinates,Original*
G04 #@! TF.FileFunction,Soldermask,Top*
G04 #@! TF.FilePolarity,Negative*
%FSLAX46Y46*%
G04 Gerber Fmt 4.6, Leading zero omitted, Abs format (unit mm)*
G04 Created by KiCad (PCBNEW (5.1.6-0)) date 2021-01-08 20:23:25*
%MOMM*%
%LPD*%
G01*
G04 APERTURE LIST*
%ADD10C,0.100000*%
G04 APERTURE END LIST*
D10*
G36*
X102241000Y-192781000D02*
G01*
X101139000Y-192781000D01*
X101139000Y-190779000D01*
X102241000Y-190779000D01*
X102241000Y-192781000D01*
G37*
G36*
X99941000Y-192781000D02*
G01*
X98039000Y-192781000D01*
X98039000Y-190779000D01*
X99941000Y-190779000D01*
X99941000Y-192781000D01*
G37*
G36*
X104391000Y-192481000D02*
G01*
X102639000Y-192481000D01*
X102639000Y-191079000D01*
X104391000Y-191079000D01*
X104391000Y-192481000D01*
G37*
G36*
X97641000Y-192481000D02*
G01*
X95889000Y-192481000D01*
X95889000Y-191079000D01*
X97641000Y-191079000D01*
X97641000Y-192481000D01*
G37*
G36*
X103391000Y-190031000D02*
G01*
X101864000Y-190031000D01*
X101864000Y-189985999D01*
X101861598Y-189961613D01*
X101854485Y-189938164D01*
X101842934Y-189916553D01*
X101827389Y-189897611D01*
X101808447Y-189882066D01*
X101786836Y-189870515D01*
X101763387Y-189863402D01*
X101739001Y-189861000D01*
X98540999Y-189861000D01*
X98516613Y-189863402D01*
X98493164Y-189870515D01*
X98471553Y-189882066D01*
X98452611Y-189897611D01*
X98437066Y-189916553D01*
X98425515Y-189938164D01*
X98418402Y-189961613D01*
X98416000Y-189985999D01*
X98416000Y-190031000D01*
X96889000Y-190031000D01*
X96889000Y-188379000D01*
X103391000Y-188379000D01*
X103391000Y-190031000D01*
G37*
G36*
X130689928Y-185676764D02*
G01*
X130711009Y-185683160D01*
X130730445Y-185693548D01*
X130747476Y-185707524D01*
X130761452Y-185724555D01*
X130771840Y-185743991D01*
X130778236Y-185765072D01*
X130781000Y-185793140D01*
X130781000Y-186256860D01*
X130778236Y-186284928D01*
X130771840Y-186306009D01*
X130761452Y-186325445D01*
X130747476Y-186342476D01*
X130730445Y-186356452D01*
X130711009Y-186366840D01*
X130689928Y-186373236D01*
X130661860Y-186376000D01*
X129198140Y-186376000D01*
X129170072Y-186373236D01*
X129148991Y-186366840D01*
X129129555Y-186356452D01*
X129112524Y-186342476D01*
X129098548Y-186325445D01*
X129088160Y-186306009D01*
X129081764Y-186284928D01*
X129079000Y-186256860D01*
X129079000Y-185793140D01*
X129081764Y-185765072D01*
X129088160Y-185743991D01*
X129098548Y-185724555D01*
X129112524Y-185707524D01*
X129129555Y-185693548D01*
X129148991Y-185683160D01*
X129170072Y-185676764D01*
X129198140Y-185674000D01*
X130661860Y-185674000D01*
X130689928Y-185676764D01*
G37*
G36*
X125389928Y-185676764D02*
G01*
X125411009Y-185683160D01*
X125430445Y-185693548D01*
X125447476Y-185707524D01*
X125461452Y-185724555D01*
X125471840Y-185743991D01*
X125478236Y-185765072D01*
X125481000Y-185793140D01*
X125481000Y-186256860D01*
X125478236Y-186284928D01*
X125471840Y-186306009D01*
X125461452Y-186325445D01*
X125447476Y-186342476D01*
X125430445Y-186356452D01*
X125411009Y-186366840D01*
X125389928Y-186373236D01*
X125361860Y-186376000D01*
X123898140Y-186376000D01*
X123870072Y-186373236D01*
X123848991Y-186366840D01*
X123829555Y-186356452D01*
X123812524Y-186342476D01*
X123798548Y-186325445D01*
X123788160Y-186306009D01*
X123781764Y-186284928D01*
X123779000Y-186256860D01*
X123779000Y-185793140D01*
X123781764Y-185765072D01*
X123788160Y-185743991D01*
X123798548Y-185724555D01*
X123812524Y-185707524D01*
X123829555Y-185693548D01*
X123848991Y-185683160D01*
X123870072Y-185676764D01*
X123898140Y-185674000D01*
X125361860Y-185674000D01*
X125389928Y-185676764D01*
G37*
G36*
X132524683Y-185257725D02*
G01*
X132555143Y-185266966D01*
X132583223Y-185281974D01*
X132607831Y-185302169D01*
X132628026Y-185326777D01*
X132643034Y-185354857D01*
X132652275Y-185385317D01*
X132656000Y-185423140D01*
X132656000Y-185986860D01*
X132652275Y-186024683D01*
X132643034Y-186055143D01*
X132628026Y-186083223D01*
X132607831Y-186107831D01*
X132583223Y-186128026D01*
X132555143Y-186143034D01*
X132524683Y-186152275D01*
X132486860Y-186156000D01*
X131773140Y-186156000D01*
X131735317Y-186152275D01*
X131704857Y-186143034D01*
X131676777Y-186128026D01*
X131652169Y-186107831D01*
X131631974Y-186083223D01*
X131616966Y-186055143D01*
X131607725Y-186024683D01*
X131604000Y-185986860D01*
X131604000Y-185423140D01*
X131607725Y-185385317D01*
X131616966Y-185354857D01*
X131631974Y-185326777D01*
X131652169Y-185302169D01*
X131676777Y-185281974D01*
X131704857Y-185266966D01*
X131735317Y-185257725D01*
X131773140Y-185254000D01*
X132486860Y-185254000D01*
X132524683Y-185257725D01*
G37*
G36*
X128536000Y-185721000D02*
G01*
X126024000Y-185721000D01*
X126024000Y-182519000D01*
X128536000Y-182519000D01*
X128536000Y-185721000D01*
G37*
G36*
X119044683Y-184327725D02*
G01*
X119075143Y-184336966D01*
X119103223Y-184351974D01*
X119127831Y-184372169D01*
X119148026Y-184396777D01*
X119163034Y-184424857D01*
X119172275Y-184455317D01*
X119176000Y-184493140D01*
X119176000Y-185206860D01*
X119172275Y-185244683D01*
X119163034Y-185275143D01*
X119148026Y-185303223D01*
X119127831Y-185327831D01*
X119103223Y-185348026D01*
X119075143Y-185363034D01*
X119044683Y-185372275D01*
X119006860Y-185376000D01*
X118443140Y-185376000D01*
X118405317Y-185372275D01*
X118374857Y-185363034D01*
X118346777Y-185348026D01*
X118322169Y-185327831D01*
X118301974Y-185303223D01*
X118286966Y-185275143D01*
X118277725Y-185244683D01*
X118274000Y-185206860D01*
X118274000Y-184493140D01*
X118277725Y-184455317D01*
X118286966Y-184424857D01*
X118301974Y-184396777D01*
X118322169Y-184372169D01*
X118346777Y-184351974D01*
X118374857Y-184336966D01*
X118405317Y-184327725D01*
X118443140Y-184324000D01*
X119006860Y-184324000D01*
X119044683Y-184327725D01*
G37*
G36*
X117394683Y-184327725D02*
G01*
X117425143Y-184336966D01*
X117453223Y-184351974D01*
X117477831Y-184372169D01*
X117498026Y-184396777D01*
X117513034Y-184424857D01*
X117522275Y-184455317D01*
X117526000Y-184493140D01*
X117526000Y-185206860D01*
X117522275Y-185244683D01*
X117513034Y-185275143D01*
X117498026Y-185303223D01*
X117477831Y-185327831D01*
X117453223Y-185348026D01*
X117425143Y-185363034D01*
X117394683Y-185372275D01*
X117356860Y-185376000D01*
X116793140Y-185376000D01*
X116755317Y-185372275D01*
X116724857Y-185363034D01*
X116696777Y-185348026D01*
X116672169Y-185327831D01*
X116651974Y-185303223D01*
X116636966Y-185275143D01*
X116627725Y-185244683D01*
X116624000Y-185206860D01*
X116624000Y-184493140D01*
X116627725Y-184455317D01*
X116636966Y-184424857D01*
X116651974Y-184396777D01*
X116672169Y-184372169D01*
X116696777Y-184351974D01*
X116724857Y-184336966D01*
X116755317Y-184327725D01*
X116793140Y-184324000D01*
X117356860Y-184324000D01*
X117394683Y-184327725D01*
G37*
G36*
X121129618Y-184287965D02*
G01*
X121162433Y-184297919D01*
X121192665Y-184314079D01*
X121219170Y-184335830D01*
X121240921Y-184362335D01*
X121257081Y-184392567D01*
X121267035Y-184425382D01*
X121271000Y-184465640D01*
X121271000Y-185054360D01*
X121267035Y-185094618D01*
X121257081Y-185127433D01*
X121240921Y-185157665D01*
X121219170Y-185184170D01*
X121192665Y-185205921D01*
X121162433Y-185222081D01*
X121129618Y-185232035D01*
X121089360Y-185236000D01*
X120125640Y-185236000D01*
X120085382Y-185232035D01*
X120052567Y-185222081D01*
X120022335Y-185205921D01*
X119995830Y-185184170D01*
X119974079Y-185157665D01*
X119957919Y-185127433D01*
X119947965Y-185094618D01*
X119944000Y-185054360D01*
X119944000Y-184465640D01*
X119947965Y-184425382D01*
X119957919Y-184392567D01*
X119974079Y-184362335D01*
X119995830Y-184335830D01*
X120022335Y-184314079D01*
X120052567Y-184297919D01*
X120085382Y-184287965D01*
X120125640Y-184284000D01*
X121089360Y-184284000D01*
X121129618Y-184287965D01*
G37*
G36*
X122754618Y-184287965D02*
G01*
X122787433Y-184297919D01*
X122817665Y-184314079D01*
X122844170Y-184335830D01*
X122865921Y-184362335D01*
X122882081Y-184392567D01*
X122892035Y-184425382D01*
X122896000Y-184465640D01*
X122896000Y-185054360D01*
X122892035Y-185094618D01*
X122882081Y-185127433D01*
X122865921Y-185157665D01*
X122844170Y-185184170D01*
X122817665Y-185205921D01*
X122787433Y-185222081D01*
X122754618Y-185232035D01*
X122714360Y-185236000D01*
X121750640Y-185236000D01*
X121710382Y-185232035D01*
X121677567Y-185222081D01*
X121647335Y-185205921D01*
X121620830Y-185184170D01*
X121599079Y-185157665D01*
X121582919Y-185127433D01*
X121572965Y-185094618D01*
X121569000Y-185054360D01*
X121569000Y-184465640D01*
X121572965Y-184425382D01*
X121582919Y-184392567D01*
X121599079Y-184362335D01*
X121620830Y-184335830D01*
X121647335Y-184314079D01*
X121677567Y-184297919D01*
X121710382Y-184287965D01*
X121750640Y-184284000D01*
X122714360Y-184284000D01*
X122754618Y-184287965D01*
G37*
G36*
X125389928Y-184406764D02*
G01*
X125411009Y-184413160D01*
X125430445Y-184423548D01*
X125447476Y-184437524D01*
X125461452Y-184454555D01*
X125471840Y-184473991D01*
X125478236Y-184495072D01*
X125481000Y-184523140D01*
X125481000Y-184986860D01*
X125478236Y-185014928D01*
X125471840Y-185036009D01*
X125461452Y-185055445D01*
X125447476Y-185072476D01*
X125430445Y-185086452D01*
X125411009Y-185096840D01*
X125389928Y-185103236D01*
X125361860Y-185106000D01*
X123898140Y-185106000D01*
X123870072Y-185103236D01*
X123848991Y-185096840D01*
X123829555Y-185086452D01*
X123812524Y-185072476D01*
X123798548Y-185055445D01*
X123788160Y-185036009D01*
X123781764Y-185014928D01*
X123779000Y-184986860D01*
X123779000Y-184523140D01*
X123781764Y-184495072D01*
X123788160Y-184473991D01*
X123798548Y-184454555D01*
X123812524Y-184437524D01*
X123829555Y-184423548D01*
X123848991Y-184413160D01*
X123870072Y-184406764D01*
X123898140Y-184404000D01*
X125361860Y-184404000D01*
X125389928Y-184406764D01*
G37*
G36*
X130689928Y-184406764D02*
G01*
X130711009Y-184413160D01*
X130730445Y-184423548D01*
X130747476Y-184437524D01*
X130761452Y-184454555D01*
X130771840Y-184473991D01*
X130778236Y-184495072D01*
X130781000Y-184523140D01*
X130781000Y-184986860D01*
X130778236Y-185014928D01*
X130771840Y-185036009D01*
X130761452Y-185055445D01*
X130747476Y-185072476D01*
X130730445Y-185086452D01*
X130711009Y-185096840D01*
X130689928Y-185103236D01*
X130661860Y-185106000D01*
X129198140Y-185106000D01*
X129170072Y-185103236D01*
X129148991Y-185096840D01*
X129129555Y-185086452D01*
X129112524Y-185072476D01*
X129098548Y-185055445D01*
X129088160Y-185036009D01*
X129081764Y-185014928D01*
X129079000Y-184986860D01*
X129079000Y-184523140D01*
X129081764Y-184495072D01*
X129088160Y-184473991D01*
X129098548Y-184454555D01*
X129112524Y-184437524D01*
X129129555Y-184423548D01*
X129148991Y-184413160D01*
X129170072Y-184406764D01*
X129198140Y-184404000D01*
X130661860Y-184404000D01*
X130689928Y-184406764D01*
G37*
G36*
X132524683Y-183607725D02*
G01*
X132555143Y-183616966D01*
X132583223Y-183631974D01*
X132607831Y-183652169D01*
X132628026Y-183676777D01*
X132643034Y-183704857D01*
X132652275Y-183735317D01*
X132656000Y-183773140D01*
X132656000Y-184336860D01*
X132652275Y-184374683D01*
X132643034Y-184405143D01*
X132628026Y-184433223D01*
X132607831Y-184457831D01*
X132583223Y-184478026D01*
X132555143Y-184493034D01*
X132524683Y-184502275D01*
X132486860Y-184506000D01*
X131773140Y-184506000D01*
X131735317Y-184502275D01*
X131704857Y-184493034D01*
X131676777Y-184478026D01*
X131652169Y-184457831D01*
X131631974Y-184433223D01*
X131616966Y-184405143D01*
X131607725Y-184374683D01*
X131604000Y-184336860D01*
X131604000Y-183773140D01*
X131607725Y-183735317D01*
X131616966Y-183704857D01*
X131631974Y-183676777D01*
X131652169Y-183652169D01*
X131676777Y-183631974D01*
X131704857Y-183616966D01*
X131735317Y-183607725D01*
X131773140Y-183604000D01*
X132486860Y-183604000D01*
X132524683Y-183607725D01*
G37*
G36*
X119044683Y-182807725D02*
G01*
X119075143Y-182816966D01*
X119103223Y-182831974D01*
X119127831Y-182852169D01*
X119148026Y-182876777D01*
X119163034Y-182904857D01*
X119172275Y-182935317D01*
X119176000Y-182973140D01*
X119176000Y-183686860D01*
X119172275Y-183724683D01*
X119163034Y-183755143D01*
X119148026Y-183783223D01*
X119127831Y-183807831D01*
X119103223Y-183828026D01*
X119075143Y-183843034D01*
X119044683Y-183852275D01*
X119006860Y-183856000D01*
X118443140Y-183856000D01*
X118405317Y-183852275D01*
X118374857Y-183843034D01*
X118346777Y-183828026D01*
X118322169Y-183807831D01*
X118301974Y-183783223D01*
X118286966Y-183755143D01*
X118277725Y-183724683D01*
X118274000Y-183686860D01*
X118274000Y-182973140D01*
X118277725Y-182935317D01*
X118286966Y-182904857D01*
X118301974Y-182876777D01*
X118322169Y-182852169D01*
X118346777Y-182831974D01*
X118374857Y-182816966D01*
X118405317Y-182807725D01*
X118443140Y-182804000D01*
X119006860Y-182804000D01*
X119044683Y-182807725D01*
G37*
G36*
X117394683Y-182807725D02*
G01*
X117425143Y-182816966D01*
X117453223Y-182831974D01*
X117477831Y-182852169D01*
X117498026Y-182876777D01*
X117513034Y-182904857D01*
X117522275Y-182935317D01*
X117526000Y-182973140D01*
X117526000Y-183686860D01*
X117522275Y-183724683D01*
X117513034Y-183755143D01*
X117498026Y-183783223D01*
X117477831Y-183807831D01*
X117453223Y-183828026D01*
X117425143Y-183843034D01*
X117394683Y-183852275D01*
X117356860Y-183856000D01*
X116793140Y-183856000D01*
X116755317Y-183852275D01*
X116724857Y-183843034D01*
X116696777Y-183828026D01*
X116672169Y-183807831D01*
X116651974Y-183783223D01*
X116636966Y-183755143D01*
X116627725Y-183724683D01*
X116624000Y-183686860D01*
X116624000Y-182973140D01*
X116627725Y-182935317D01*
X116636966Y-182904857D01*
X116651974Y-182876777D01*
X116672169Y-182852169D01*
X116696777Y-182831974D01*
X116724857Y-182816966D01*
X116755317Y-182807725D01*
X116793140Y-182804000D01*
X117356860Y-182804000D01*
X117394683Y-182807725D01*
G37*
G36*
X125389928Y-183136764D02*
G01*
X125411009Y-183143160D01*
X125430445Y-183153548D01*
X125447476Y-183167524D01*
X125461452Y-183184555D01*
X125471840Y-183203991D01*
X125478236Y-183225072D01*
X125481000Y-183253140D01*
X125481000Y-183716860D01*
X125478236Y-183744928D01*
X125471840Y-183766009D01*
X125461452Y-183785445D01*
X125447476Y-183802476D01*
X125430445Y-183816452D01*
X125411009Y-183826840D01*
X125389928Y-183833236D01*
X125361860Y-183836000D01*
X123898140Y-183836000D01*
X123870072Y-183833236D01*
X123848991Y-183826840D01*
X123829555Y-183816452D01*
X123812524Y-183802476D01*
X123798548Y-183785445D01*
X123788160Y-183766009D01*
X123781764Y-183744928D01*
X123779000Y-183716860D01*
X123779000Y-183253140D01*
X123781764Y-183225072D01*
X123788160Y-183203991D01*
X123798548Y-183184555D01*
X123812524Y-183167524D01*
X123829555Y-183153548D01*
X123848991Y-183143160D01*
X123870072Y-183136764D01*
X123898140Y-183134000D01*
X125361860Y-183134000D01*
X125389928Y-183136764D01*
G37*
G36*
X130689928Y-183136764D02*
G01*
X130711009Y-183143160D01*
X130730445Y-183153548D01*
X130747476Y-183167524D01*
X130761452Y-183184555D01*
X130771840Y-183203991D01*
X130778236Y-183225072D01*
X130781000Y-183253140D01*
X130781000Y-183716860D01*
X130778236Y-183744928D01*
X130771840Y-183766009D01*
X130761452Y-183785445D01*
X130747476Y-183802476D01*
X130730445Y-183816452D01*
X130711009Y-183826840D01*
X130689928Y-183833236D01*
X130661860Y-183836000D01*
X129198140Y-183836000D01*
X129170072Y-183833236D01*
X129148991Y-183826840D01*
X129129555Y-183816452D01*
X129112524Y-183802476D01*
X129098548Y-183785445D01*
X129088160Y-183766009D01*
X129081764Y-183744928D01*
X129079000Y-183716860D01*
X129079000Y-183253140D01*
X129081764Y-183225072D01*
X129088160Y-183203991D01*
X129098548Y-183184555D01*
X129112524Y-183167524D01*
X129129555Y-183153548D01*
X129148991Y-183143160D01*
X129170072Y-183136764D01*
X129198140Y-183134000D01*
X130661860Y-183134000D01*
X130689928Y-183136764D01*
G37*
G36*
X122754618Y-182867965D02*
G01*
X122787433Y-182877919D01*
X122817665Y-182894079D01*
X122844170Y-182915830D01*
X122865921Y-182942335D01*
X122882081Y-182972567D01*
X122892035Y-183005382D01*
X122896000Y-183045640D01*
X122896000Y-183634360D01*
X122892035Y-183674618D01*
X122882081Y-183707433D01*
X122865921Y-183737665D01*
X122844170Y-183764170D01*
X122817665Y-183785921D01*
X122787433Y-183802081D01*
X122754618Y-183812035D01*
X122714360Y-183816000D01*
X121750640Y-183816000D01*
X121710382Y-183812035D01*
X121677567Y-183802081D01*
X121647335Y-183785921D01*
X121620830Y-183764170D01*
X121599079Y-183737665D01*
X121582919Y-183707433D01*
X121572965Y-183674618D01*
X121569000Y-183634360D01*
X121569000Y-183045640D01*
X121572965Y-183005382D01*
X121582919Y-182972567D01*
X121599079Y-182942335D01*
X121620830Y-182915830D01*
X121647335Y-182894079D01*
X121677567Y-182877919D01*
X121710382Y-182867965D01*
X121750640Y-182864000D01*
X122714360Y-182864000D01*
X122754618Y-182867965D01*
G37*
G36*
X121129618Y-182867965D02*
G01*
X121162433Y-182877919D01*
X121192665Y-182894079D01*
X121219170Y-182915830D01*
X121240921Y-182942335D01*
X121257081Y-182972567D01*
X121267035Y-183005382D01*
X121271000Y-183045640D01*
X121271000Y-183634360D01*
X121267035Y-183674618D01*
X121257081Y-183707433D01*
X121240921Y-183737665D01*
X121219170Y-183764170D01*
X121192665Y-183785921D01*
X121162433Y-183802081D01*
X121129618Y-183812035D01*
X121089360Y-183816000D01*
X120125640Y-183816000D01*
X120085382Y-183812035D01*
X120052567Y-183802081D01*
X120022335Y-183785921D01*
X119995830Y-183764170D01*
X119974079Y-183737665D01*
X119957919Y-183707433D01*
X119947965Y-183674618D01*
X119944000Y-183634360D01*
X119944000Y-183045640D01*
X119947965Y-183005382D01*
X119957919Y-182972567D01*
X119974079Y-182942335D01*
X119995830Y-182915830D01*
X120022335Y-182894079D01*
X120052567Y-182877919D01*
X120085382Y-182867965D01*
X120125640Y-182864000D01*
X121089360Y-182864000D01*
X121129618Y-182867965D01*
G37*
G36*
X130689928Y-181866764D02*
G01*
X130711009Y-181873160D01*
X130730445Y-181883548D01*
X130747476Y-181897524D01*
X130761452Y-181914555D01*
X130771840Y-181933991D01*
X130778236Y-181955072D01*
X130781000Y-181983140D01*
X130781000Y-182446860D01*
X130778236Y-182474928D01*
X130771840Y-182496009D01*
X130761452Y-182515445D01*
X130747476Y-182532476D01*
X130730445Y-182546452D01*
X130711009Y-182556840D01*
X130689928Y-182563236D01*
X130661860Y-182566000D01*
X129198140Y-182566000D01*
X129170072Y-182563236D01*
X129148991Y-182556840D01*
X129129555Y-182546452D01*
X129112524Y-182532476D01*
X129098548Y-182515445D01*
X129088160Y-182496009D01*
X129081764Y-182474928D01*
X129079000Y-182446860D01*
X129079000Y-181983140D01*
X129081764Y-181955072D01*
X129088160Y-181933991D01*
X129098548Y-181914555D01*
X129112524Y-181897524D01*
X129129555Y-181883548D01*
X129148991Y-181873160D01*
X129170072Y-181866764D01*
X129198140Y-181864000D01*
X130661860Y-181864000D01*
X130689928Y-181866764D01*
G37*
G36*
X125389928Y-181866764D02*
G01*
X125411009Y-181873160D01*
X125430445Y-181883548D01*
X125447476Y-181897524D01*
X125461452Y-181914555D01*
X125471840Y-181933991D01*
X125478236Y-181955072D01*
X125481000Y-181983140D01*
X125481000Y-182446860D01*
X125478236Y-182474928D01*
X125471840Y-182496009D01*
X125461452Y-182515445D01*
X125447476Y-182532476D01*
X125430445Y-182546452D01*
X125411009Y-182556840D01*
X125389928Y-182563236D01*
X125361860Y-182566000D01*
X123898140Y-182566000D01*
X123870072Y-182563236D01*
X123848991Y-182556840D01*
X123829555Y-182546452D01*
X123812524Y-182532476D01*
X123798548Y-182515445D01*
X123788160Y-182496009D01*
X123781764Y-182474928D01*
X123779000Y-182446860D01*
X123779000Y-181983140D01*
X123781764Y-181955072D01*
X123788160Y-181933991D01*
X123798548Y-181914555D01*
X123812524Y-181897524D01*
X123829555Y-181883548D01*
X123848991Y-181873160D01*
X123870072Y-181866764D01*
X123898140Y-181864000D01*
X125361860Y-181864000D01*
X125389928Y-181866764D01*
G37*
G36*
X135459192Y-180274646D02*
G01*
X135508414Y-180289578D01*
X135553778Y-180313826D01*
X135593542Y-180346458D01*
X135626174Y-180386222D01*
X135650422Y-180431586D01*
X135665354Y-180480808D01*
X135671000Y-180538140D01*
X135671000Y-181301860D01*
X135665354Y-181359192D01*
X135650422Y-181408414D01*
X135626174Y-181453778D01*
X135593542Y-181493542D01*
X135553778Y-181526174D01*
X135508414Y-181550422D01*
X135459192Y-181565354D01*
X135401860Y-181571000D01*
X132338140Y-181571000D01*
X132280808Y-181565354D01*
X132231586Y-181550422D01*
X132186222Y-181526174D01*
X132146458Y-181493542D01*
X132113826Y-181453778D01*
X132089578Y-181408414D01*
X132074646Y-181359192D01*
X132069000Y-181301860D01*
X132069000Y-180538140D01*
X132074646Y-180480808D01*
X132089578Y-180431586D01*
X132113826Y-180386222D01*
X132146458Y-180346458D01*
X132186222Y-180313826D01*
X132231586Y-180289578D01*
X132280808Y-180274646D01*
X132338140Y-180269000D01*
X135401860Y-180269000D01*
X135459192Y-180274646D01*
G37*
G36*
X123121000Y-179486000D02*
G01*
X121959000Y-179486000D01*
X121959000Y-176834000D01*
X123121000Y-176834000D01*
X123121000Y-179486000D01*
G37*
G36*
X125321000Y-179486000D02*
G01*
X124159000Y-179486000D01*
X124159000Y-176834000D01*
X125321000Y-176834000D01*
X125321000Y-179486000D01*
G37*
G36*
X129811656Y-177923394D02*
G01*
X129848656Y-177934618D01*
X129882748Y-177952840D01*
X129912634Y-177977366D01*
X129937160Y-178007252D01*
X129955382Y-178041344D01*
X129966606Y-178078344D01*
X129971000Y-178122956D01*
X129971000Y-179017044D01*
X129966606Y-179061656D01*
X129955382Y-179098656D01*
X129937160Y-179132748D01*
X129912634Y-179162634D01*
X129882748Y-179187160D01*
X129848656Y-179205382D01*
X129811656Y-179216606D01*
X129767044Y-179221000D01*
X126572956Y-179221000D01*
X126528344Y-179216606D01*
X126491344Y-179205382D01*
X126457252Y-179187160D01*
X126427366Y-179162634D01*
X126402840Y-179132748D01*
X126384618Y-179098656D01*
X126373394Y-179061656D01*
X126369000Y-179017044D01*
X126369000Y-178122956D01*
X126373394Y-178078344D01*
X126384618Y-178041344D01*
X126402840Y-178007252D01*
X126427366Y-177977366D01*
X126457252Y-177952840D01*
X126491344Y-177934618D01*
X126528344Y-177923394D01*
X126572956Y-177919000D01*
X129767044Y-177919000D01*
X129811656Y-177923394D01*
G37*
G36*
X119144683Y-177617725D02*
G01*
X119175143Y-177626966D01*
X119203223Y-177641974D01*
X119227831Y-177662169D01*
X119248026Y-177686777D01*
X119263034Y-177714857D01*
X119272275Y-177745317D01*
X119276000Y-177783140D01*
X119276000Y-178496860D01*
X119272275Y-178534683D01*
X119263034Y-178565143D01*
X119248026Y-178593223D01*
X119227831Y-178617831D01*
X119203223Y-178638026D01*
X119175143Y-178653034D01*
X119144683Y-178662275D01*
X119106860Y-178666000D01*
X118543140Y-178666000D01*
X118505317Y-178662275D01*
X118474857Y-178653034D01*
X118446777Y-178638026D01*
X118422169Y-178617831D01*
X118401974Y-178593223D01*
X118386966Y-178565143D01*
X118377725Y-178534683D01*
X118374000Y-178496860D01*
X118374000Y-177783140D01*
X118377725Y-177745317D01*
X118386966Y-177714857D01*
X118401974Y-177686777D01*
X118422169Y-177662169D01*
X118446777Y-177641974D01*
X118474857Y-177626966D01*
X118505317Y-177617725D01*
X118543140Y-177614000D01*
X119106860Y-177614000D01*
X119144683Y-177617725D01*
G37*
G36*
X120794683Y-177617725D02*
G01*
X120825143Y-177626966D01*
X120853223Y-177641974D01*
X120877831Y-177662169D01*
X120898026Y-177686777D01*
X120913034Y-177714857D01*
X120922275Y-177745317D01*
X120926000Y-177783140D01*
X120926000Y-178496860D01*
X120922275Y-178534683D01*
X120913034Y-178565143D01*
X120898026Y-178593223D01*
X120877831Y-178617831D01*
X120853223Y-178638026D01*
X120825143Y-178653034D01*
X120794683Y-178662275D01*
X120756860Y-178666000D01*
X120193140Y-178666000D01*
X120155317Y-178662275D01*
X120124857Y-178653034D01*
X120096777Y-178638026D01*
X120072169Y-178617831D01*
X120051974Y-178593223D01*
X120036966Y-178565143D01*
X120027725Y-178534683D01*
X120024000Y-178496860D01*
X120024000Y-177783140D01*
X120027725Y-177745317D01*
X120036966Y-177714857D01*
X120051974Y-177686777D01*
X120072169Y-177662169D01*
X120096777Y-177641974D01*
X120124857Y-177626966D01*
X120155317Y-177617725D01*
X120193140Y-177614000D01*
X120756860Y-177614000D01*
X120794683Y-177617725D01*
G37*
G36*
X129759192Y-175924646D02*
G01*
X129808414Y-175939578D01*
X129853778Y-175963826D01*
X129893542Y-175996458D01*
X129926174Y-176036222D01*
X129950422Y-176081586D01*
X129965354Y-176130808D01*
X129971000Y-176188140D01*
X129971000Y-176951860D01*
X129965354Y-177009192D01*
X129950422Y-177058414D01*
X129926174Y-177103778D01*
X129893542Y-177143542D01*
X129853778Y-177176174D01*
X129808414Y-177200422D01*
X129759192Y-177215354D01*
X129701860Y-177221000D01*
X126638140Y-177221000D01*
X126580808Y-177215354D01*
X126531586Y-177200422D01*
X126486222Y-177176174D01*
X126446458Y-177143542D01*
X126413826Y-177103778D01*
X126389578Y-177058414D01*
X126374646Y-177009192D01*
X126369000Y-176951860D01*
X126369000Y-176188140D01*
X126374646Y-176130808D01*
X126389578Y-176081586D01*
X126413826Y-176036222D01*
X126446458Y-175996458D01*
X126486222Y-175963826D01*
X126531586Y-175939578D01*
X126580808Y-175924646D01*
X126638140Y-175919000D01*
X129701860Y-175919000D01*
X129759192Y-175924646D01*
G37*
G36*
X135459192Y-173474646D02*
G01*
X135508414Y-173489578D01*
X135553778Y-173513826D01*
X135593542Y-173546458D01*
X135626174Y-173586222D01*
X135650422Y-173631586D01*
X135665354Y-173680808D01*
X135671000Y-173738140D01*
X135671000Y-174501860D01*
X135665354Y-174559192D01*
X135650422Y-174608414D01*
X135626174Y-174653778D01*
X135593542Y-174693542D01*
X135553778Y-174726174D01*
X135508414Y-174750422D01*
X135459192Y-174765354D01*
X135401860Y-174771000D01*
X132338140Y-174771000D01*
X132280808Y-174765354D01*
X132231586Y-174750422D01*
X132186222Y-174726174D01*
X132146458Y-174693542D01*
X132113826Y-174653778D01*
X132089578Y-174608414D01*
X132074646Y-174559192D01*
X132069000Y-174501860D01*
X132069000Y-173738140D01*
X132074646Y-173680808D01*
X132089578Y-173631586D01*
X132113826Y-173586222D01*
X132146458Y-173546458D01*
X132186222Y-173513826D01*
X132231586Y-173489578D01*
X132280808Y-173474646D01*
X132338140Y-173469000D01*
X135401860Y-173469000D01*
X135459192Y-173474646D01*
G37*
G36*
X123626000Y-174271000D02*
G01*
X120974000Y-174271000D01*
X120974000Y-173109000D01*
X123626000Y-173109000D01*
X123626000Y-174271000D01*
G37*
G36*
X123626000Y-172071000D02*
G01*
X120974000Y-172071000D01*
X120974000Y-170909000D01*
X123626000Y-170909000D01*
X123626000Y-172071000D01*
G37*
G36*
X130101697Y-160658945D02*
G01*
X129234639Y-160907570D01*
X128930887Y-159848259D01*
X129797945Y-159599634D01*
X130101697Y-160658945D01*
G37*
G36*
X132226086Y-160049787D02*
G01*
X131359028Y-160298412D01*
X131055276Y-159239101D01*
X131922334Y-158990476D01*
X132226086Y-160049787D01*
G37*
G36*
X129165020Y-158480749D02*
G01*
X129291639Y-158922320D01*
X129386081Y-159251681D01*
X127846140Y-159693252D01*
X127719522Y-159251681D01*
X127625079Y-158922320D01*
X127625079Y-158922319D01*
X129165020Y-158480748D01*
X129165020Y-158480749D01*
G37*
G36*
X130088412Y-157389559D02*
G01*
X130136808Y-157399185D01*
X130174574Y-157414828D01*
X130227983Y-157436951D01*
X130227984Y-157436952D01*
X130310041Y-157491780D01*
X130379824Y-157561563D01*
X130379825Y-157561565D01*
X130434653Y-157643621D01*
X130472419Y-157734797D01*
X130491672Y-157831587D01*
X130491672Y-157930277D01*
X130472419Y-158027067D01*
X130434653Y-158118243D01*
X130434652Y-158118244D01*
X130379824Y-158200301D01*
X130310041Y-158270084D01*
X130268734Y-158297684D01*
X130227983Y-158324913D01*
X130174574Y-158347036D01*
X130136808Y-158362679D01*
X130088412Y-158372306D01*
X130040017Y-158381932D01*
X129941327Y-158381932D01*
X129892932Y-158372306D01*
X129844536Y-158362679D01*
X129806770Y-158347036D01*
X129753361Y-158324913D01*
X129712610Y-158297684D01*
X129671303Y-158270084D01*
X129601520Y-158200301D01*
X129546692Y-158118244D01*
X129546691Y-158118243D01*
X129508925Y-158027067D01*
X129489672Y-157930277D01*
X129489672Y-157831587D01*
X129508925Y-157734797D01*
X129546691Y-157643621D01*
X129601519Y-157561565D01*
X129601520Y-157561563D01*
X129671303Y-157491780D01*
X129753360Y-157436952D01*
X129753361Y-157436951D01*
X129806770Y-157414828D01*
X129844536Y-157399185D01*
X129892932Y-157389559D01*
X129941327Y-157379932D01*
X130040017Y-157379932D01*
X130088412Y-157389559D01*
G37*
G36*
X128338108Y-155596964D02*
G01*
X128464727Y-156038535D01*
X128559169Y-156367896D01*
X127019228Y-156809467D01*
X126892610Y-156367896D01*
X126798167Y-156038535D01*
X126798167Y-156038534D01*
X128338108Y-155596963D01*
X128338108Y-155596964D01*
G37*
G36*
X129261500Y-154505774D02*
G01*
X129309896Y-154515400D01*
X129347662Y-154531043D01*
X129401071Y-154553166D01*
X129401072Y-154553167D01*
X129483129Y-154607995D01*
X129552912Y-154677778D01*
X129552913Y-154677780D01*
X129607741Y-154759836D01*
X129645507Y-154851012D01*
X129664760Y-154947802D01*
X129664760Y-155046492D01*
X129645507Y-155143282D01*
X129607741Y-155234458D01*
X129607740Y-155234459D01*
X129552912Y-155316516D01*
X129483129Y-155386299D01*
X129441822Y-155413899D01*
X129401071Y-155441128D01*
X129347662Y-155463251D01*
X129309896Y-155478894D01*
X129261500Y-155488521D01*
X129213105Y-155498147D01*
X129114415Y-155498147D01*
X129066020Y-155488521D01*
X129017624Y-155478894D01*
X128979858Y-155463251D01*
X128926449Y-155441128D01*
X128885698Y-155413899D01*
X128844391Y-155386299D01*
X128774608Y-155316516D01*
X128719780Y-155234459D01*
X128719779Y-155234458D01*
X128682013Y-155143282D01*
X128662760Y-155046492D01*
X128662760Y-154947802D01*
X128682013Y-154851012D01*
X128719779Y-154759836D01*
X128774607Y-154677780D01*
X128774608Y-154677778D01*
X128844391Y-154607995D01*
X128926448Y-154553167D01*
X128926449Y-154553166D01*
X128979858Y-154531043D01*
X129017624Y-154515400D01*
X129066020Y-154505774D01*
X129114415Y-154496147D01*
X129213105Y-154496147D01*
X129261500Y-154505774D01*
G37*
G36*
X127924652Y-154155072D02*
G01*
X128124210Y-154851012D01*
X128145713Y-154926004D01*
X126605772Y-155367575D01*
X126479154Y-154926004D01*
X126384711Y-154596643D01*
X126384711Y-154596642D01*
X127924652Y-154155071D01*
X127924652Y-154155072D01*
G37*
G36*
X128089545Y-153641735D02*
G01*
X127222487Y-153890360D01*
X126918735Y-152831049D01*
X127785793Y-152582424D01*
X128089545Y-153641735D01*
G37*
G36*
X130213933Y-153032576D02*
G01*
X129346875Y-153281201D01*
X129043123Y-152221890D01*
X129910181Y-151973265D01*
X130213933Y-153032576D01*
G37*
G36*
X118439683Y-145547725D02*
G01*
X118470143Y-145556966D01*
X118498223Y-145571974D01*
X118522831Y-145592169D01*
X118543026Y-145616777D01*
X118558034Y-145644857D01*
X118567275Y-145675317D01*
X118571000Y-145713140D01*
X118571000Y-146426860D01*
X118567275Y-146464683D01*
X118558034Y-146495143D01*
X118543026Y-146523223D01*
X118522831Y-146547831D01*
X118498223Y-146568026D01*
X118470143Y-146583034D01*
X118439683Y-146592275D01*
X118401860Y-146596000D01*
X117838140Y-146596000D01*
X117800317Y-146592275D01*
X117769857Y-146583034D01*
X117741777Y-146568026D01*
X117717169Y-146547831D01*
X117696974Y-146523223D01*
X117681966Y-146495143D01*
X117672725Y-146464683D01*
X117669000Y-146426860D01*
X117669000Y-145713140D01*
X117672725Y-145675317D01*
X117681966Y-145644857D01*
X117696974Y-145616777D01*
X117717169Y-145592169D01*
X117741777Y-145571974D01*
X117769857Y-145556966D01*
X117800317Y-145547725D01*
X117838140Y-145544000D01*
X118401860Y-145544000D01*
X118439683Y-145547725D01*
G37*
G36*
X120089683Y-145547725D02*
G01*
X120120143Y-145556966D01*
X120148223Y-145571974D01*
X120172831Y-145592169D01*
X120193026Y-145616777D01*
X120208034Y-145644857D01*
X120217275Y-145675317D01*
X120221000Y-145713140D01*
X120221000Y-146426860D01*
X120217275Y-146464683D01*
X120208034Y-146495143D01*
X120193026Y-146523223D01*
X120172831Y-146547831D01*
X120148223Y-146568026D01*
X120120143Y-146583034D01*
X120089683Y-146592275D01*
X120051860Y-146596000D01*
X119488140Y-146596000D01*
X119450317Y-146592275D01*
X119419857Y-146583034D01*
X119391777Y-146568026D01*
X119367169Y-146547831D01*
X119346974Y-146523223D01*
X119331966Y-146495143D01*
X119322725Y-146464683D01*
X119319000Y-146426860D01*
X119319000Y-145713140D01*
X119322725Y-145675317D01*
X119331966Y-145644857D01*
X119346974Y-145616777D01*
X119367169Y-145592169D01*
X119391777Y-145571974D01*
X119419857Y-145556966D01*
X119450317Y-145547725D01*
X119488140Y-145544000D01*
X120051860Y-145544000D01*
X120089683Y-145547725D01*
G37*
G36*
X117766000Y-143046000D02*
G01*
X111264000Y-143046000D01*
X111264000Y-137144000D01*
X117766000Y-137144000D01*
X117766000Y-143046000D01*
G37*
G36*
X121966000Y-143026000D02*
G01*
X119664000Y-143026000D01*
X119664000Y-141724000D01*
X121966000Y-141724000D01*
X121966000Y-143026000D01*
G37*
G36*
X121966000Y-138466000D02*
G01*
X119664000Y-138466000D01*
X119664000Y-137164000D01*
X121966000Y-137164000D01*
X121966000Y-138466000D01*
G37*
G36*
X90413512Y-134383927D02*
G01*
X90562812Y-134413624D01*
X90726784Y-134481544D01*
X90874354Y-134580147D01*
X90999853Y-134705646D01*
X91098456Y-134853216D01*
X91166376Y-135017188D01*
X91196073Y-135166488D01*
X91201000Y-135191258D01*
X91201000Y-135368742D01*
X91196073Y-135393512D01*
X91166376Y-135542812D01*
X91098456Y-135706784D01*
X90999853Y-135854354D01*
X90874354Y-135979853D01*
X90726784Y-136078456D01*
X90562812Y-136146376D01*
X90413512Y-136176073D01*
X90388742Y-136181000D01*
X90211258Y-136181000D01*
X90186488Y-136176073D01*
X90037188Y-136146376D01*
X89873216Y-136078456D01*
X89725646Y-135979853D01*
X89600147Y-135854354D01*
X89501544Y-135706784D01*
X89433624Y-135542812D01*
X89403927Y-135393512D01*
X89399000Y-135368742D01*
X89399000Y-135191258D01*
X89403927Y-135166488D01*
X89433624Y-135017188D01*
X89501544Y-134853216D01*
X89600147Y-134705646D01*
X89725646Y-134580147D01*
X89873216Y-134481544D01*
X90037188Y-134413624D01*
X90186488Y-134383927D01*
X90211258Y-134379000D01*
X90388742Y-134379000D01*
X90413512Y-134383927D01*
G37*
G36*
X101114560Y-134488205D02*
G01*
X101149713Y-134498869D01*
X101182110Y-134516186D01*
X101210509Y-134539491D01*
X101233814Y-134567890D01*
X101251131Y-134600287D01*
X101261795Y-134635440D01*
X101266000Y-134678140D01*
X101266000Y-135341860D01*
X101261795Y-135384560D01*
X101251131Y-135419713D01*
X101233814Y-135452110D01*
X101210509Y-135480509D01*
X101182110Y-135503814D01*
X101149713Y-135521131D01*
X101114560Y-135531795D01*
X101071860Y-135536000D01*
X100458140Y-135536000D01*
X100415440Y-135531795D01*
X100380287Y-135521131D01*
X100347890Y-135503814D01*
X100319491Y-135480509D01*
X100296186Y-135452110D01*
X100278869Y-135419713D01*
X100268205Y-135384560D01*
X100264000Y-135341860D01*
X100264000Y-134678140D01*
X100268205Y-134635440D01*
X100278869Y-134600287D01*
X100296186Y-134567890D01*
X100319491Y-134539491D01*
X100347890Y-134516186D01*
X100380287Y-134498869D01*
X100415440Y-134488205D01*
X100458140Y-134484000D01*
X101071860Y-134484000D01*
X101114560Y-134488205D01*
G37*
G36*
X99564560Y-134488205D02*
G01*
X99599713Y-134498869D01*
X99632110Y-134516186D01*
X99660509Y-134539491D01*
X99683814Y-134567890D01*
X99701131Y-134600287D01*
X99711795Y-134635440D01*
X99716000Y-134678140D01*
X99716000Y-135341860D01*
X99711795Y-135384560D01*
X99701131Y-135419713D01*
X99683814Y-135452110D01*
X99660509Y-135480509D01*
X99632110Y-135503814D01*
X99599713Y-135521131D01*
X99564560Y-135531795D01*
X99521860Y-135536000D01*
X98908140Y-135536000D01*
X98865440Y-135531795D01*
X98830287Y-135521131D01*
X98797890Y-135503814D01*
X98769491Y-135480509D01*
X98746186Y-135452110D01*
X98728869Y-135419713D01*
X98718205Y-135384560D01*
X98714000Y-135341860D01*
X98714000Y-134678140D01*
X98718205Y-134635440D01*
X98728869Y-134600287D01*
X98746186Y-134567890D01*
X98769491Y-134539491D01*
X98797890Y-134516186D01*
X98830287Y-134498869D01*
X98865440Y-134488205D01*
X98908140Y-134484000D01*
X99521860Y-134484000D01*
X99564560Y-134488205D01*
G37*
G36*
X90413512Y-131843927D02*
G01*
X90562812Y-131873624D01*
X90726784Y-131941544D01*
X90874354Y-132040147D01*
X90999853Y-132165646D01*
X91098456Y-132313216D01*
X91166376Y-132477188D01*
X91201000Y-132651259D01*
X91201000Y-132828741D01*
X91166376Y-133002812D01*
X91098456Y-133166784D01*
X90999853Y-133314354D01*
X90874354Y-133439853D01*
X90726784Y-133538456D01*
X90562812Y-133606376D01*
X90413512Y-133636073D01*
X90388742Y-133641000D01*
X90211258Y-133641000D01*
X90186488Y-133636073D01*
X90037188Y-133606376D01*
X89873216Y-133538456D01*
X89725646Y-133439853D01*
X89600147Y-133314354D01*
X89501544Y-133166784D01*
X89433624Y-133002812D01*
X89399000Y-132828741D01*
X89399000Y-132651259D01*
X89433624Y-132477188D01*
X89501544Y-132313216D01*
X89600147Y-132165646D01*
X89725646Y-132040147D01*
X89873216Y-131941544D01*
X90037188Y-131873624D01*
X90186488Y-131843927D01*
X90211258Y-131839000D01*
X90388742Y-131839000D01*
X90413512Y-131843927D01*
G37*
G36*
X98905355Y-127100083D02*
G01*
X98910029Y-127101501D01*
X98914330Y-127103800D01*
X98920702Y-127109029D01*
X98941076Y-127122643D01*
X98963715Y-127132020D01*
X98987749Y-127136800D01*
X99012253Y-127136800D01*
X99036286Y-127132019D01*
X99058925Y-127122642D01*
X99079298Y-127109029D01*
X99085670Y-127103800D01*
X99089971Y-127101501D01*
X99094645Y-127100083D01*
X99105641Y-127099000D01*
X99394359Y-127099000D01*
X99405355Y-127100083D01*
X99410029Y-127101501D01*
X99414330Y-127103800D01*
X99420702Y-127109029D01*
X99441076Y-127122643D01*
X99463715Y-127132020D01*
X99487749Y-127136800D01*
X99512253Y-127136800D01*
X99536286Y-127132019D01*
X99558925Y-127122642D01*
X99579298Y-127109029D01*
X99585670Y-127103800D01*
X99589971Y-127101501D01*
X99594645Y-127100083D01*
X99605641Y-127099000D01*
X99894359Y-127099000D01*
X99905355Y-127100083D01*
X99910029Y-127101501D01*
X99914330Y-127103800D01*
X99920702Y-127109029D01*
X99941076Y-127122643D01*
X99963715Y-127132020D01*
X99987749Y-127136800D01*
X100012253Y-127136800D01*
X100036286Y-127132019D01*
X100058925Y-127122642D01*
X100079298Y-127109029D01*
X100085670Y-127103800D01*
X100089971Y-127101501D01*
X100094645Y-127100083D01*
X100105641Y-127099000D01*
X100394359Y-127099000D01*
X100405355Y-127100083D01*
X100410029Y-127101501D01*
X100414330Y-127103800D01*
X100420702Y-127109029D01*
X100441076Y-127122643D01*
X100463715Y-127132020D01*
X100487749Y-127136800D01*
X100512253Y-127136800D01*
X100536286Y-127132019D01*
X100558925Y-127122642D01*
X100579298Y-127109029D01*
X100585670Y-127103800D01*
X100589971Y-127101501D01*
X100594645Y-127100083D01*
X100605641Y-127099000D01*
X100894359Y-127099000D01*
X100905355Y-127100083D01*
X100910029Y-127101501D01*
X100914330Y-127103800D01*
X100920702Y-127109029D01*
X100941076Y-127122643D01*
X100963715Y-127132020D01*
X100987749Y-127136800D01*
X101012253Y-127136800D01*
X101036286Y-127132019D01*
X101058925Y-127122642D01*
X101079298Y-127109029D01*
X101085670Y-127103800D01*
X101089971Y-127101501D01*
X101094645Y-127100083D01*
X101105641Y-127099000D01*
X101394359Y-127099000D01*
X101405355Y-127100083D01*
X101410029Y-127101501D01*
X101414331Y-127103800D01*
X101418104Y-127106896D01*
X101421200Y-127110669D01*
X101423499Y-127114971D01*
X101424917Y-127119645D01*
X101426000Y-127130641D01*
X101426000Y-127949001D01*
X101428402Y-127973387D01*
X101435515Y-127996836D01*
X101447066Y-128018447D01*
X101462611Y-128037389D01*
X101481553Y-128052934D01*
X101503164Y-128064485D01*
X101526613Y-128071598D01*
X101550999Y-128074000D01*
X102369359Y-128074000D01*
X102380355Y-128075083D01*
X102385029Y-128076501D01*
X102389331Y-128078800D01*
X102393104Y-128081896D01*
X102396200Y-128085669D01*
X102398499Y-128089971D01*
X102399917Y-128094645D01*
X102401000Y-128105641D01*
X102401000Y-128394359D01*
X102399917Y-128405355D01*
X102398499Y-128410029D01*
X102396200Y-128414330D01*
X102390971Y-128420702D01*
X102377357Y-128441076D01*
X102367980Y-128463715D01*
X102363200Y-128487749D01*
X102363200Y-128512253D01*
X102367981Y-128536286D01*
X102377358Y-128558925D01*
X102390971Y-128579298D01*
X102396200Y-128585670D01*
X102398499Y-128589971D01*
X102399917Y-128594645D01*
X102401000Y-128605641D01*
X102401000Y-128894359D01*
X102399917Y-128905355D01*
X102398499Y-128910029D01*
X102396200Y-128914330D01*
X102390971Y-128920702D01*
X102377357Y-128941076D01*
X102367980Y-128963715D01*
X102363200Y-128987749D01*
X102363200Y-129012253D01*
X102367981Y-129036286D01*
X102377358Y-129058925D01*
X102390971Y-129079298D01*
X102396200Y-129085670D01*
X102398499Y-129089971D01*
X102399917Y-129094645D01*
X102401000Y-129105641D01*
X102401000Y-129394359D01*
X102399917Y-129405355D01*
X102398499Y-129410029D01*
X102396200Y-129414330D01*
X102390971Y-129420702D01*
X102377357Y-129441076D01*
X102367980Y-129463715D01*
X102363200Y-129487749D01*
X102363200Y-129512253D01*
X102367981Y-129536286D01*
X102377358Y-129558925D01*
X102390971Y-129579298D01*
X102396200Y-129585670D01*
X102398499Y-129589971D01*
X102399917Y-129594645D01*
X102401000Y-129605641D01*
X102401000Y-129894359D01*
X102399917Y-129905355D01*
X102398499Y-129910029D01*
X102396200Y-129914330D01*
X102390971Y-129920702D01*
X102377357Y-129941076D01*
X102367980Y-129963715D01*
X102363200Y-129987749D01*
X102363200Y-130012253D01*
X102367981Y-130036286D01*
X102377358Y-130058925D01*
X102390971Y-130079298D01*
X102396200Y-130085670D01*
X102398499Y-130089971D01*
X102399917Y-130094645D01*
X102401000Y-130105641D01*
X102401000Y-130394359D01*
X102399917Y-130405355D01*
X102398499Y-130410029D01*
X102396200Y-130414330D01*
X102390971Y-130420702D01*
X102377357Y-130441076D01*
X102367980Y-130463715D01*
X102363200Y-130487749D01*
X102363200Y-130512253D01*
X102367981Y-130536286D01*
X102377358Y-130558925D01*
X102390971Y-130579298D01*
X102396200Y-130585670D01*
X102398499Y-130589971D01*
X102399917Y-130594645D01*
X102401000Y-130605641D01*
X102401000Y-130894359D01*
X102399917Y-130905355D01*
X102398499Y-130910029D01*
X102396200Y-130914331D01*
X102393104Y-130918104D01*
X102389331Y-130921200D01*
X102385029Y-130923499D01*
X102380355Y-130924917D01*
X102369359Y-130926000D01*
X101550999Y-130926000D01*
X101526613Y-130928402D01*
X101503164Y-130935515D01*
X101481553Y-130947066D01*
X101462611Y-130962611D01*
X101447066Y-130981553D01*
X101435515Y-131003164D01*
X101428402Y-131026613D01*
X101426000Y-131050999D01*
X101426000Y-131869359D01*
X101424917Y-131880355D01*
X101423499Y-131885029D01*
X101421200Y-131889331D01*
X101418104Y-131893104D01*
X101414331Y-131896200D01*
X101410029Y-131898499D01*
X101405355Y-131899917D01*
X101394359Y-131901000D01*
X101105641Y-131901000D01*
X101094645Y-131899917D01*
X101089971Y-131898499D01*
X101085670Y-131896200D01*
X101079298Y-131890971D01*
X101058924Y-131877357D01*
X101036285Y-131867980D01*
X101012251Y-131863200D01*
X100987747Y-131863200D01*
X100963714Y-131867981D01*
X100941075Y-131877358D01*
X100920702Y-131890971D01*
X100914330Y-131896200D01*
X100910029Y-131898499D01*
X100905355Y-131899917D01*
X100894359Y-131901000D01*
X100605641Y-131901000D01*
X100594645Y-131899917D01*
X100589971Y-131898499D01*
X100585670Y-131896200D01*
X100579298Y-131890971D01*
X100558924Y-131877357D01*
X100536285Y-131867980D01*
X100512251Y-131863200D01*
X100487747Y-131863200D01*
X100463714Y-131867981D01*
X100441075Y-131877358D01*
X100420702Y-131890971D01*
X100414330Y-131896200D01*
X100410029Y-131898499D01*
X100405355Y-131899917D01*
X100394359Y-131901000D01*
X100105641Y-131901000D01*
X100094645Y-131899917D01*
X100089971Y-131898499D01*
X100085670Y-131896200D01*
X100079298Y-131890971D01*
X100058924Y-131877357D01*
X100036285Y-131867980D01*
X100012251Y-131863200D01*
X99987747Y-131863200D01*
X99963714Y-131867981D01*
X99941075Y-131877358D01*
X99920702Y-131890971D01*
X99914330Y-131896200D01*
X99910029Y-131898499D01*
X99905355Y-131899917D01*
X99894359Y-131901000D01*
X99605641Y-131901000D01*
X99594645Y-131899917D01*
X99589971Y-131898499D01*
X99585670Y-131896200D01*
X99579298Y-131890971D01*
X99558924Y-131877357D01*
X99536285Y-131867980D01*
X99512251Y-131863200D01*
X99487747Y-131863200D01*
X99463714Y-131867981D01*
X99441075Y-131877358D01*
X99420702Y-131890971D01*
X99414330Y-131896200D01*
X99410029Y-131898499D01*
X99405355Y-131899917D01*
X99394359Y-131901000D01*
X99105641Y-131901000D01*
X99094645Y-131899917D01*
X99089971Y-131898499D01*
X99085670Y-131896200D01*
X99079298Y-131890971D01*
X99058924Y-131877357D01*
X99036285Y-131867980D01*
X99012251Y-131863200D01*
X98987747Y-131863200D01*
X98963714Y-131867981D01*
X98941075Y-131877358D01*
X98920702Y-131890971D01*
X98914330Y-131896200D01*
X98910029Y-131898499D01*
X98905355Y-131899917D01*
X98894359Y-131901000D01*
X98605641Y-131901000D01*
X98594645Y-131899917D01*
X98589971Y-131898499D01*
X98585669Y-131896200D01*
X98581896Y-131893104D01*
X98578800Y-131889331D01*
X98576501Y-131885029D01*
X98575083Y-131880355D01*
X98574000Y-131869359D01*
X98574000Y-131050999D01*
X98571598Y-131026613D01*
X98564485Y-131003164D01*
X98552934Y-130981553D01*
X98537389Y-130962611D01*
X98518447Y-130947066D01*
X98496836Y-130935515D01*
X98473387Y-130928402D01*
X98449001Y-130926000D01*
X97630641Y-130926000D01*
X97619645Y-130924917D01*
X97614971Y-130923499D01*
X97610669Y-130921200D01*
X97606896Y-130918104D01*
X97603800Y-130914331D01*
X97601501Y-130910029D01*
X97600083Y-130905355D01*
X97599000Y-130894359D01*
X97599000Y-130605641D01*
X97600083Y-130594645D01*
X97601501Y-130589971D01*
X97603800Y-130585670D01*
X97609029Y-130579298D01*
X97622643Y-130558924D01*
X97632020Y-130536285D01*
X97636800Y-130512251D01*
X97636800Y-130487747D01*
X97632019Y-130463714D01*
X97622642Y-130441075D01*
X97609029Y-130420702D01*
X97603800Y-130414330D01*
X97601501Y-130410029D01*
X97600083Y-130405355D01*
X97599000Y-130394359D01*
X97599000Y-130105641D01*
X97600083Y-130094645D01*
X97601501Y-130089971D01*
X97603800Y-130085670D01*
X97609029Y-130079298D01*
X97622643Y-130058924D01*
X97632020Y-130036285D01*
X97636800Y-130012251D01*
X97636800Y-129987747D01*
X97632019Y-129963714D01*
X97622642Y-129941075D01*
X97609029Y-129920702D01*
X97603800Y-129914330D01*
X97601501Y-129910029D01*
X97600083Y-129905355D01*
X97599000Y-129894359D01*
X97599000Y-129605641D01*
X97600083Y-129594645D01*
X97601501Y-129589971D01*
X97603800Y-129585670D01*
X97609029Y-129579298D01*
X97622643Y-129558924D01*
X97632020Y-129536285D01*
X97636800Y-129512251D01*
X97636800Y-129487747D01*
X97632019Y-129463714D01*
X97622642Y-129441075D01*
X97609029Y-129420702D01*
X97603800Y-129414330D01*
X97601501Y-129410029D01*
X97600083Y-129405355D01*
X97599000Y-129394359D01*
X97599000Y-129105641D01*
X97600083Y-129094645D01*
X97601501Y-129089971D01*
X97603800Y-129085670D01*
X97609029Y-129079298D01*
X97622643Y-129058924D01*
X97632020Y-129036285D01*
X97636800Y-129012251D01*
X97636800Y-128987747D01*
X97632019Y-128963714D01*
X97622642Y-128941075D01*
X97609029Y-128920702D01*
X97603800Y-128914330D01*
X97601501Y-128910029D01*
X97600083Y-128905355D01*
X97599000Y-128894359D01*
X97599000Y-128605641D01*
X97600083Y-128594645D01*
X97601501Y-128589971D01*
X97603800Y-128585670D01*
X97609029Y-128579298D01*
X97622643Y-128558924D01*
X97632020Y-128536285D01*
X97636800Y-128512251D01*
X97636800Y-128487747D01*
X97632019Y-128463714D01*
X97622642Y-128441075D01*
X97609029Y-128420702D01*
X97603800Y-128414330D01*
X97601501Y-128410029D01*
X97600083Y-128405355D01*
X97599000Y-128394359D01*
X97599000Y-128105641D01*
X97600083Y-128094645D01*
X97601501Y-128089971D01*
X97603800Y-128085669D01*
X97606896Y-128081896D01*
X97610669Y-128078800D01*
X97614971Y-128076501D01*
X97619645Y-128075083D01*
X97630641Y-128074000D01*
X98449001Y-128074000D01*
X98473387Y-128071598D01*
X98496836Y-128064485D01*
X98518447Y-128052934D01*
X98537389Y-128037389D01*
X98552934Y-128018447D01*
X98564485Y-127996836D01*
X98571598Y-127973387D01*
X98574000Y-127949001D01*
X98574000Y-127130641D01*
X98575083Y-127119645D01*
X98576501Y-127114971D01*
X98578800Y-127110669D01*
X98581896Y-127106896D01*
X98585669Y-127103800D01*
X98589971Y-127101501D01*
X98594645Y-127100083D01*
X98605641Y-127099000D01*
X98894359Y-127099000D01*
X98905355Y-127100083D01*
G37*
G36*
X91201000Y-131101000D02*
G01*
X89399000Y-131101000D01*
X89399000Y-129299000D01*
X91201000Y-129299000D01*
X91201000Y-131101000D01*
G37*
G36*
X104379591Y-130103085D02*
G01*
X104413569Y-130113393D01*
X104444890Y-130130134D01*
X104472339Y-130152661D01*
X104494866Y-130180110D01*
X104511607Y-130211431D01*
X104521915Y-130245409D01*
X104526000Y-130286890D01*
X104526000Y-130888110D01*
X104521915Y-130929591D01*
X104511607Y-130963569D01*
X104494866Y-130994890D01*
X104472339Y-131022339D01*
X104444890Y-131044866D01*
X104413569Y-131061607D01*
X104379591Y-131071915D01*
X104338110Y-131076000D01*
X103661890Y-131076000D01*
X103620409Y-131071915D01*
X103586431Y-131061607D01*
X103555110Y-131044866D01*
X103527661Y-131022339D01*
X103505134Y-130994890D01*
X103488393Y-130963569D01*
X103478085Y-130929591D01*
X103474000Y-130888110D01*
X103474000Y-130286890D01*
X103478085Y-130245409D01*
X103488393Y-130211431D01*
X103505134Y-130180110D01*
X103527661Y-130152661D01*
X103555110Y-130130134D01*
X103586431Y-130113393D01*
X103620409Y-130103085D01*
X103661890Y-130099000D01*
X104338110Y-130099000D01*
X104379591Y-130103085D01*
G37*
G36*
X95224683Y-129707725D02*
G01*
X95255143Y-129716966D01*
X95283223Y-129731974D01*
X95307831Y-129752169D01*
X95328026Y-129776777D01*
X95343034Y-129804857D01*
X95352275Y-129835317D01*
X95356000Y-129873140D01*
X95356000Y-130586860D01*
X95352275Y-130624683D01*
X95343034Y-130655143D01*
X95328026Y-130683223D01*
X95307831Y-130707831D01*
X95283223Y-130728026D01*
X95255143Y-130743034D01*
X95224683Y-130752275D01*
X95186860Y-130756000D01*
X94623140Y-130756000D01*
X94585317Y-130752275D01*
X94554857Y-130743034D01*
X94526777Y-130728026D01*
X94502169Y-130707831D01*
X94481974Y-130683223D01*
X94466966Y-130655143D01*
X94457725Y-130624683D01*
X94454000Y-130586860D01*
X94454000Y-129873140D01*
X94457725Y-129835317D01*
X94466966Y-129804857D01*
X94481974Y-129776777D01*
X94502169Y-129752169D01*
X94526777Y-129731974D01*
X94554857Y-129716966D01*
X94585317Y-129707725D01*
X94623140Y-129704000D01*
X95186860Y-129704000D01*
X95224683Y-129707725D01*
G37*
G36*
X93574683Y-129707725D02*
G01*
X93605143Y-129716966D01*
X93633223Y-129731974D01*
X93657831Y-129752169D01*
X93678026Y-129776777D01*
X93693034Y-129804857D01*
X93702275Y-129835317D01*
X93706000Y-129873140D01*
X93706000Y-130586860D01*
X93702275Y-130624683D01*
X93693034Y-130655143D01*
X93678026Y-130683223D01*
X93657831Y-130707831D01*
X93633223Y-130728026D01*
X93605143Y-130743034D01*
X93574683Y-130752275D01*
X93536860Y-130756000D01*
X92973140Y-130756000D01*
X92935317Y-130752275D01*
X92904857Y-130743034D01*
X92876777Y-130728026D01*
X92852169Y-130707831D01*
X92831974Y-130683223D01*
X92816966Y-130655143D01*
X92807725Y-130624683D01*
X92804000Y-130586860D01*
X92804000Y-129873140D01*
X92807725Y-129835317D01*
X92816966Y-129804857D01*
X92831974Y-129776777D01*
X92852169Y-129752169D01*
X92876777Y-129731974D01*
X92904857Y-129716966D01*
X92935317Y-129707725D01*
X92973140Y-129704000D01*
X93536860Y-129704000D01*
X93574683Y-129707725D01*
G37*
G36*
X104379591Y-128528085D02*
G01*
X104413569Y-128538393D01*
X104444890Y-128555134D01*
X104472339Y-128577661D01*
X104494866Y-128605110D01*
X104511607Y-128636431D01*
X104521915Y-128670409D01*
X104526000Y-128711890D01*
X104526000Y-129313110D01*
X104521915Y-129354591D01*
X104511607Y-129388569D01*
X104494866Y-129419890D01*
X104472339Y-129447339D01*
X104444890Y-129469866D01*
X104413569Y-129486607D01*
X104379591Y-129496915D01*
X104338110Y-129501000D01*
X103661890Y-129501000D01*
X103620409Y-129496915D01*
X103586431Y-129486607D01*
X103555110Y-129469866D01*
X103527661Y-129447339D01*
X103505134Y-129419890D01*
X103488393Y-129388569D01*
X103478085Y-129354591D01*
X103474000Y-129313110D01*
X103474000Y-128711890D01*
X103478085Y-128670409D01*
X103488393Y-128636431D01*
X103505134Y-128605110D01*
X103527661Y-128577661D01*
X103555110Y-128555134D01*
X103586431Y-128538393D01*
X103620409Y-128528085D01*
X103661890Y-128524000D01*
X104338110Y-128524000D01*
X104379591Y-128528085D01*
G37*
G36*
X105374560Y-126948205D02*
G01*
X105409713Y-126958869D01*
X105442110Y-126976186D01*
X105470509Y-126999491D01*
X105493814Y-127027890D01*
X105511131Y-127060287D01*
X105521795Y-127095440D01*
X105526000Y-127138140D01*
X105526000Y-127801860D01*
X105521795Y-127844560D01*
X105511131Y-127879713D01*
X105493814Y-127912110D01*
X105470509Y-127940509D01*
X105442110Y-127963814D01*
X105409713Y-127981131D01*
X105374560Y-127991795D01*
X105331860Y-127996000D01*
X104718140Y-127996000D01*
X104675440Y-127991795D01*
X104640287Y-127981131D01*
X104607890Y-127963814D01*
X104579491Y-127940509D01*
X104556186Y-127912110D01*
X104538869Y-127879713D01*
X104528205Y-127844560D01*
X104524000Y-127801860D01*
X104524000Y-127138140D01*
X104528205Y-127095440D01*
X104538869Y-127060287D01*
X104556186Y-127027890D01*
X104579491Y-126999491D01*
X104607890Y-126976186D01*
X104640287Y-126958869D01*
X104675440Y-126948205D01*
X104718140Y-126944000D01*
X105331860Y-126944000D01*
X105374560Y-126948205D01*
G37*
G36*
X106924560Y-126948205D02*
G01*
X106959713Y-126958869D01*
X106992110Y-126976186D01*
X107020509Y-126999491D01*
X107043814Y-127027890D01*
X107061131Y-127060287D01*
X107071795Y-127095440D01*
X107076000Y-127138140D01*
X107076000Y-127801860D01*
X107071795Y-127844560D01*
X107061131Y-127879713D01*
X107043814Y-127912110D01*
X107020509Y-127940509D01*
X106992110Y-127963814D01*
X106959713Y-127981131D01*
X106924560Y-127991795D01*
X106881860Y-127996000D01*
X106268140Y-127996000D01*
X106225440Y-127991795D01*
X106190287Y-127981131D01*
X106157890Y-127963814D01*
X106129491Y-127940509D01*
X106106186Y-127912110D01*
X106088869Y-127879713D01*
X106078205Y-127844560D01*
X106074000Y-127801860D01*
X106074000Y-127138140D01*
X106078205Y-127095440D01*
X106088869Y-127060287D01*
X106106186Y-127027890D01*
X106129491Y-126999491D01*
X106157890Y-126976186D01*
X106190287Y-126958869D01*
X106225440Y-126948205D01*
X106268140Y-126944000D01*
X106881860Y-126944000D01*
X106924560Y-126948205D01*
G37*
G36*
X98679591Y-125003085D02*
G01*
X98713569Y-125013393D01*
X98744890Y-125030134D01*
X98772339Y-125052661D01*
X98794866Y-125080110D01*
X98811607Y-125111431D01*
X98821915Y-125145409D01*
X98826000Y-125186890D01*
X98826000Y-125788110D01*
X98821915Y-125829591D01*
X98811607Y-125863569D01*
X98794866Y-125894890D01*
X98772339Y-125922339D01*
X98744890Y-125944866D01*
X98713569Y-125961607D01*
X98679591Y-125971915D01*
X98638110Y-125976000D01*
X97961890Y-125976000D01*
X97920409Y-125971915D01*
X97886431Y-125961607D01*
X97855110Y-125944866D01*
X97827661Y-125922339D01*
X97805134Y-125894890D01*
X97788393Y-125863569D01*
X97778085Y-125829591D01*
X97774000Y-125788110D01*
X97774000Y-125186890D01*
X97778085Y-125145409D01*
X97788393Y-125111431D01*
X97805134Y-125080110D01*
X97827661Y-125052661D01*
X97855110Y-125030134D01*
X97886431Y-125013393D01*
X97920409Y-125003085D01*
X97961890Y-124999000D01*
X98638110Y-124999000D01*
X98679591Y-125003085D01*
G37*
G36*
X104735355Y-120285083D02*
G01*
X104740029Y-120286501D01*
X104744330Y-120288800D01*
X104750702Y-120294029D01*
X104771076Y-120307643D01*
X104793715Y-120317020D01*
X104817749Y-120321800D01*
X104842253Y-120321800D01*
X104866286Y-120317019D01*
X104888925Y-120307642D01*
X104909298Y-120294029D01*
X104915670Y-120288800D01*
X104919971Y-120286501D01*
X104924645Y-120285083D01*
X104935641Y-120284000D01*
X105224359Y-120284000D01*
X105235355Y-120285083D01*
X105240029Y-120286501D01*
X105244330Y-120288800D01*
X105250702Y-120294029D01*
X105271076Y-120307643D01*
X105293715Y-120317020D01*
X105317749Y-120321800D01*
X105342253Y-120321800D01*
X105366286Y-120317019D01*
X105388925Y-120307642D01*
X105409298Y-120294029D01*
X105415670Y-120288800D01*
X105419971Y-120286501D01*
X105424645Y-120285083D01*
X105435641Y-120284000D01*
X105724359Y-120284000D01*
X105735355Y-120285083D01*
X105740029Y-120286501D01*
X105744330Y-120288800D01*
X105750702Y-120294029D01*
X105771076Y-120307643D01*
X105793715Y-120317020D01*
X105817749Y-120321800D01*
X105842253Y-120321800D01*
X105866286Y-120317019D01*
X105888925Y-120307642D01*
X105909298Y-120294029D01*
X105915670Y-120288800D01*
X105919971Y-120286501D01*
X105924645Y-120285083D01*
X105935641Y-120284000D01*
X106224359Y-120284000D01*
X106235355Y-120285083D01*
X106240029Y-120286501D01*
X106244330Y-120288800D01*
X106250702Y-120294029D01*
X106271076Y-120307643D01*
X106293715Y-120317020D01*
X106317749Y-120321800D01*
X106342253Y-120321800D01*
X106366286Y-120317019D01*
X106388925Y-120307642D01*
X106409298Y-120294029D01*
X106415670Y-120288800D01*
X106419971Y-120286501D01*
X106424645Y-120285083D01*
X106435641Y-120284000D01*
X106724359Y-120284000D01*
X106735355Y-120285083D01*
X106740029Y-120286501D01*
X106744330Y-120288800D01*
X106750702Y-120294029D01*
X106771076Y-120307643D01*
X106793715Y-120317020D01*
X106817749Y-120321800D01*
X106842253Y-120321800D01*
X106866286Y-120317019D01*
X106888925Y-120307642D01*
X106909298Y-120294029D01*
X106915670Y-120288800D01*
X106919971Y-120286501D01*
X106924645Y-120285083D01*
X106935641Y-120284000D01*
X107224359Y-120284000D01*
X107235355Y-120285083D01*
X107240029Y-120286501D01*
X107244331Y-120288800D01*
X107248104Y-120291896D01*
X107251200Y-120295669D01*
X107253499Y-120299971D01*
X107254917Y-120304645D01*
X107256000Y-120315641D01*
X107256000Y-121159001D01*
X107258402Y-121183387D01*
X107265515Y-121206836D01*
X107277066Y-121228447D01*
X107292611Y-121247389D01*
X107311553Y-121262934D01*
X107333164Y-121274485D01*
X107356613Y-121281598D01*
X107380999Y-121284000D01*
X108224359Y-121284000D01*
X108235355Y-121285083D01*
X108240029Y-121286501D01*
X108244331Y-121288800D01*
X108248104Y-121291896D01*
X108251200Y-121295669D01*
X108253499Y-121299971D01*
X108254917Y-121304645D01*
X108256000Y-121315641D01*
X108256000Y-121604359D01*
X108254917Y-121615355D01*
X108253499Y-121620029D01*
X108251200Y-121624330D01*
X108245971Y-121630702D01*
X108232357Y-121651076D01*
X108222980Y-121673715D01*
X108218200Y-121697749D01*
X108218200Y-121722253D01*
X108222981Y-121746286D01*
X108232358Y-121768925D01*
X108245971Y-121789298D01*
X108251200Y-121795670D01*
X108253499Y-121799971D01*
X108254917Y-121804645D01*
X108256000Y-121815641D01*
X108256000Y-122104359D01*
X108254917Y-122115355D01*
X108253499Y-122120029D01*
X108251200Y-122124330D01*
X108245971Y-122130702D01*
X108232357Y-122151076D01*
X108222980Y-122173715D01*
X108218200Y-122197749D01*
X108218200Y-122222253D01*
X108222981Y-122246286D01*
X108232358Y-122268925D01*
X108245971Y-122289298D01*
X108251200Y-122295670D01*
X108253499Y-122299971D01*
X108254917Y-122304645D01*
X108256000Y-122315641D01*
X108256000Y-122604359D01*
X108254917Y-122615355D01*
X108253499Y-122620029D01*
X108251200Y-122624330D01*
X108245971Y-122630702D01*
X108232357Y-122651076D01*
X108222980Y-122673715D01*
X108218200Y-122697749D01*
X108218200Y-122722253D01*
X108222981Y-122746286D01*
X108232358Y-122768925D01*
X108245971Y-122789298D01*
X108251200Y-122795670D01*
X108253499Y-122799971D01*
X108254917Y-122804645D01*
X108256000Y-122815641D01*
X108256000Y-123104359D01*
X108254917Y-123115355D01*
X108253499Y-123120029D01*
X108251200Y-123124330D01*
X108245971Y-123130702D01*
X108232357Y-123151076D01*
X108222980Y-123173715D01*
X108218200Y-123197749D01*
X108218200Y-123222253D01*
X108222981Y-123246286D01*
X108232358Y-123268925D01*
X108245971Y-123289298D01*
X108251200Y-123295670D01*
X108253499Y-123299971D01*
X108254917Y-123304645D01*
X108256000Y-123315641D01*
X108256000Y-123604359D01*
X108254917Y-123615355D01*
X108253499Y-123620029D01*
X108251200Y-123624330D01*
X108245971Y-123630702D01*
X108232357Y-123651076D01*
X108222980Y-123673715D01*
X108218200Y-123697749D01*
X108218200Y-123722253D01*
X108222981Y-123746286D01*
X108232358Y-123768925D01*
X108245971Y-123789298D01*
X108251200Y-123795670D01*
X108253499Y-123799971D01*
X108254917Y-123804645D01*
X108256000Y-123815641D01*
X108256000Y-124104359D01*
X108254917Y-124115355D01*
X108253499Y-124120029D01*
X108251200Y-124124331D01*
X108248104Y-124128104D01*
X108244331Y-124131200D01*
X108240029Y-124133499D01*
X108235355Y-124134917D01*
X108224359Y-124136000D01*
X107380999Y-124136000D01*
X107356613Y-124138402D01*
X107333164Y-124145515D01*
X107311553Y-124157066D01*
X107292611Y-124172611D01*
X107277066Y-124191553D01*
X107265515Y-124213164D01*
X107258402Y-124236613D01*
X107256000Y-124260999D01*
X107256000Y-125104359D01*
X107254917Y-125115355D01*
X107253499Y-125120029D01*
X107251200Y-125124331D01*
X107248104Y-125128104D01*
X107244331Y-125131200D01*
X107240029Y-125133499D01*
X107235355Y-125134917D01*
X107224359Y-125136000D01*
X106935641Y-125136000D01*
X106924645Y-125134917D01*
X106919971Y-125133499D01*
X106915670Y-125131200D01*
X106909298Y-125125971D01*
X106888924Y-125112357D01*
X106866285Y-125102980D01*
X106842251Y-125098200D01*
X106817747Y-125098200D01*
X106793714Y-125102981D01*
X106771075Y-125112358D01*
X106750702Y-125125971D01*
X106744330Y-125131200D01*
X106740029Y-125133499D01*
X106735355Y-125134917D01*
X106724359Y-125136000D01*
X106435641Y-125136000D01*
X106424645Y-125134917D01*
X106419971Y-125133499D01*
X106415670Y-125131200D01*
X106409298Y-125125971D01*
X106388924Y-125112357D01*
X106366285Y-125102980D01*
X106342251Y-125098200D01*
X106317747Y-125098200D01*
X106293714Y-125102981D01*
X106271075Y-125112358D01*
X106250702Y-125125971D01*
X106244330Y-125131200D01*
X106240029Y-125133499D01*
X106235355Y-125134917D01*
X106224359Y-125136000D01*
X105935641Y-125136000D01*
X105924645Y-125134917D01*
X105919971Y-125133499D01*
X105915670Y-125131200D01*
X105909298Y-125125971D01*
X105888924Y-125112357D01*
X105866285Y-125102980D01*
X105842251Y-125098200D01*
X105817747Y-125098200D01*
X105793714Y-125102981D01*
X105771075Y-125112358D01*
X105750702Y-125125971D01*
X105744330Y-125131200D01*
X105740029Y-125133499D01*
X105735355Y-125134917D01*
X105724359Y-125136000D01*
X105435641Y-125136000D01*
X105424645Y-125134917D01*
X105419971Y-125133499D01*
X105415670Y-125131200D01*
X105409298Y-125125971D01*
X105388924Y-125112357D01*
X105366285Y-125102980D01*
X105342251Y-125098200D01*
X105317747Y-125098200D01*
X105293714Y-125102981D01*
X105271075Y-125112358D01*
X105250702Y-125125971D01*
X105244330Y-125131200D01*
X105240029Y-125133499D01*
X105235355Y-125134917D01*
X105224359Y-125136000D01*
X104935641Y-125136000D01*
X104924645Y-125134917D01*
X104919971Y-125133499D01*
X104915670Y-125131200D01*
X104909298Y-125125971D01*
X104888924Y-125112357D01*
X104866285Y-125102980D01*
X104842251Y-125098200D01*
X104817747Y-125098200D01*
X104793714Y-125102981D01*
X104771075Y-125112358D01*
X104750702Y-125125971D01*
X104744330Y-125131200D01*
X104740029Y-125133499D01*
X104735355Y-125134917D01*
X104724359Y-125136000D01*
X104435641Y-125136000D01*
X104424645Y-125134917D01*
X104419971Y-125133499D01*
X104415669Y-125131200D01*
X104411896Y-125128104D01*
X104408800Y-125124331D01*
X104406501Y-125120029D01*
X104405083Y-125115355D01*
X104404000Y-125104359D01*
X104404000Y-124260999D01*
X104401598Y-124236613D01*
X104394485Y-124213164D01*
X104382934Y-124191553D01*
X104367389Y-124172611D01*
X104348447Y-124157066D01*
X104326836Y-124145515D01*
X104303387Y-124138402D01*
X104279001Y-124136000D01*
X103435641Y-124136000D01*
X103424645Y-124134917D01*
X103419971Y-124133499D01*
X103415669Y-124131200D01*
X103411896Y-124128104D01*
X103408800Y-124124331D01*
X103406501Y-124120029D01*
X103405083Y-124115355D01*
X103404000Y-124104359D01*
X103404000Y-123815641D01*
X103405083Y-123804645D01*
X103406501Y-123799971D01*
X103408800Y-123795670D01*
X103414029Y-123789298D01*
X103427643Y-123768924D01*
X103437020Y-123746285D01*
X103441800Y-123722251D01*
X103441800Y-123697747D01*
X103437019Y-123673714D01*
X103427642Y-123651075D01*
X103414029Y-123630702D01*
X103408800Y-123624330D01*
X103406501Y-123620029D01*
X103405083Y-123615355D01*
X103404000Y-123604359D01*
X103404000Y-123315641D01*
X103405083Y-123304645D01*
X103406501Y-123299971D01*
X103408800Y-123295670D01*
X103414029Y-123289298D01*
X103427643Y-123268924D01*
X103437020Y-123246285D01*
X103441800Y-123222251D01*
X103441800Y-123197747D01*
X103437019Y-123173714D01*
X103427642Y-123151075D01*
X103414029Y-123130702D01*
X103408800Y-123124330D01*
X103406501Y-123120029D01*
X103405083Y-123115355D01*
X103404000Y-123104359D01*
X103404000Y-122815641D01*
X103405083Y-122804645D01*
X103406501Y-122799971D01*
X103408800Y-122795670D01*
X103414029Y-122789298D01*
X103427643Y-122768924D01*
X103437020Y-122746285D01*
X103441800Y-122722251D01*
X103441800Y-122697747D01*
X103437019Y-122673714D01*
X103427642Y-122651075D01*
X103414029Y-122630702D01*
X103408800Y-122624330D01*
X103406501Y-122620029D01*
X103405083Y-122615355D01*
X103404000Y-122604359D01*
X103404000Y-122315641D01*
X103405083Y-122304645D01*
X103406501Y-122299971D01*
X103408800Y-122295670D01*
X103414029Y-122289298D01*
X103427643Y-122268924D01*
X103437020Y-122246285D01*
X103441800Y-122222251D01*
X103441800Y-122197747D01*
X103437019Y-122173714D01*
X103427642Y-122151075D01*
X103414029Y-122130702D01*
X103408800Y-122124330D01*
X103406501Y-122120029D01*
X103405083Y-122115355D01*
X103404000Y-122104359D01*
X103404000Y-121815641D01*
X103405083Y-121804645D01*
X103406501Y-121799971D01*
X103408800Y-121795670D01*
X103414029Y-121789298D01*
X103427643Y-121768924D01*
X103437020Y-121746285D01*
X103441800Y-121722251D01*
X103441800Y-121697747D01*
X103437019Y-121673714D01*
X103427642Y-121651075D01*
X103414029Y-121630702D01*
X103408800Y-121624330D01*
X103406501Y-121620029D01*
X103405083Y-121615355D01*
X103404000Y-121604359D01*
X103404000Y-121315641D01*
X103405083Y-121304645D01*
X103406501Y-121299971D01*
X103408800Y-121295669D01*
X103411896Y-121291896D01*
X103415669Y-121288800D01*
X103419971Y-121286501D01*
X103424645Y-121285083D01*
X103435641Y-121284000D01*
X104279001Y-121284000D01*
X104303387Y-121281598D01*
X104326836Y-121274485D01*
X104348447Y-121262934D01*
X104367389Y-121247389D01*
X104382934Y-121228447D01*
X104394485Y-121206836D01*
X104401598Y-121183387D01*
X104404000Y-121159001D01*
X104404000Y-120315641D01*
X104405083Y-120304645D01*
X104406501Y-120299971D01*
X104408800Y-120295669D01*
X104411896Y-120291896D01*
X104415669Y-120288800D01*
X104419971Y-120286501D01*
X104424645Y-120285083D01*
X104435641Y-120284000D01*
X104724359Y-120284000D01*
X104735355Y-120285083D01*
G37*
G36*
X98679591Y-123428085D02*
G01*
X98713569Y-123438393D01*
X98744890Y-123455134D01*
X98772339Y-123477661D01*
X98794866Y-123505110D01*
X98811607Y-123536431D01*
X98821915Y-123570409D01*
X98826000Y-123611890D01*
X98826000Y-124213110D01*
X98821915Y-124254591D01*
X98811607Y-124288569D01*
X98794866Y-124319890D01*
X98772339Y-124347339D01*
X98744890Y-124369866D01*
X98713569Y-124386607D01*
X98679591Y-124396915D01*
X98638110Y-124401000D01*
X97961890Y-124401000D01*
X97920409Y-124396915D01*
X97886431Y-124386607D01*
X97855110Y-124369866D01*
X97827661Y-124347339D01*
X97805134Y-124319890D01*
X97788393Y-124288569D01*
X97778085Y-124254591D01*
X97774000Y-124213110D01*
X97774000Y-123611890D01*
X97778085Y-123570409D01*
X97788393Y-123536431D01*
X97805134Y-123505110D01*
X97827661Y-123477661D01*
X97855110Y-123455134D01*
X97886431Y-123438393D01*
X97920409Y-123428085D01*
X97961890Y-123424000D01*
X98638110Y-123424000D01*
X98679591Y-123428085D01*
G37*
G36*
X98159999Y-116299737D02*
G01*
X98174528Y-116304145D01*
X98187711Y-116309606D01*
X98211745Y-116314388D01*
X98236249Y-116314389D01*
X98260282Y-116309609D01*
X98282921Y-116300232D01*
X98284765Y-116299000D01*
X99516050Y-116299000D01*
X99528164Y-116305475D01*
X99551613Y-116312588D01*
X99575999Y-116314990D01*
X99600385Y-116312588D01*
X99623834Y-116305475D01*
X99628746Y-116303152D01*
X99640001Y-116299737D01*
X99656140Y-116298148D01*
X100193861Y-116298148D01*
X100212199Y-116299954D01*
X100224450Y-116300556D01*
X100242869Y-116300556D01*
X100265149Y-116302750D01*
X100349233Y-116319476D01*
X100370660Y-116325976D01*
X100449858Y-116358780D01*
X100455303Y-116361691D01*
X100455309Y-116361693D01*
X100464169Y-116366429D01*
X100464173Y-116366432D01*
X100469614Y-116369340D01*
X100540899Y-116416971D01*
X100558204Y-116431172D01*
X100618828Y-116491796D01*
X100633029Y-116509101D01*
X100680660Y-116580386D01*
X100683568Y-116585827D01*
X100683571Y-116585831D01*
X100688307Y-116594691D01*
X100688309Y-116594697D01*
X100691220Y-116600142D01*
X100724024Y-116679340D01*
X100730524Y-116700767D01*
X100747250Y-116784851D01*
X100749444Y-116807131D01*
X100749444Y-116825550D01*
X100750046Y-116837801D01*
X100751852Y-116856139D01*
X100751852Y-117343862D01*
X100750046Y-117362199D01*
X100749444Y-117374450D01*
X100749444Y-117392869D01*
X100747250Y-117415149D01*
X100730524Y-117499233D01*
X100724024Y-117520660D01*
X100691220Y-117599858D01*
X100688309Y-117605303D01*
X100688307Y-117605309D01*
X100683571Y-117614169D01*
X100683568Y-117614173D01*
X100680660Y-117619614D01*
X100633029Y-117690899D01*
X100618828Y-117708204D01*
X100558204Y-117768828D01*
X100540899Y-117783029D01*
X100469614Y-117830660D01*
X100464173Y-117833568D01*
X100464169Y-117833571D01*
X100455309Y-117838307D01*
X100455303Y-117838309D01*
X100449858Y-117841220D01*
X100370660Y-117874024D01*
X100349233Y-117880524D01*
X100265149Y-117897250D01*
X100242869Y-117899444D01*
X100224450Y-117899444D01*
X100212199Y-117900046D01*
X100193862Y-117901852D01*
X99656140Y-117901852D01*
X99640001Y-117900263D01*
X99625472Y-117895855D01*
X99612289Y-117890394D01*
X99588255Y-117885612D01*
X99563751Y-117885611D01*
X99539718Y-117890391D01*
X99517079Y-117899768D01*
X99515235Y-117901000D01*
X98283950Y-117901000D01*
X98271836Y-117894525D01*
X98248387Y-117887412D01*
X98224001Y-117885010D01*
X98199615Y-117887412D01*
X98176166Y-117894525D01*
X98171254Y-117896848D01*
X98159999Y-117900263D01*
X98143860Y-117901852D01*
X97606138Y-117901852D01*
X97587801Y-117900046D01*
X97575550Y-117899444D01*
X97557131Y-117899444D01*
X97534851Y-117897250D01*
X97450767Y-117880524D01*
X97429340Y-117874024D01*
X97350142Y-117841220D01*
X97344697Y-117838309D01*
X97344691Y-117838307D01*
X97335831Y-117833571D01*
X97335827Y-117833568D01*
X97330386Y-117830660D01*
X97259101Y-117783029D01*
X97241796Y-117768828D01*
X97181172Y-117708204D01*
X97166971Y-117690899D01*
X97119340Y-117619614D01*
X97116432Y-117614173D01*
X97116429Y-117614169D01*
X97111693Y-117605309D01*
X97111691Y-117605303D01*
X97108780Y-117599858D01*
X97075976Y-117520660D01*
X97069476Y-117499233D01*
X97052750Y-117415149D01*
X97050556Y-117392869D01*
X97050556Y-117374450D01*
X97049954Y-117362199D01*
X97048148Y-117343862D01*
X97048148Y-116856139D01*
X97049954Y-116837801D01*
X97050556Y-116825550D01*
X97050556Y-116807131D01*
X97052750Y-116784851D01*
X97069476Y-116700767D01*
X97075976Y-116679340D01*
X97108780Y-116600142D01*
X97111691Y-116594697D01*
X97111693Y-116594691D01*
X97116429Y-116585831D01*
X97116432Y-116585827D01*
X97119340Y-116580386D01*
X97166971Y-116509101D01*
X97181172Y-116491796D01*
X97241796Y-116431172D01*
X97259101Y-116416971D01*
X97330386Y-116369340D01*
X97335827Y-116366432D01*
X97335831Y-116366429D01*
X97344691Y-116361693D01*
X97344697Y-116361691D01*
X97350142Y-116358780D01*
X97429340Y-116325976D01*
X97450767Y-116319476D01*
X97534851Y-116302750D01*
X97557131Y-116300556D01*
X97575550Y-116300556D01*
X97587801Y-116299954D01*
X97606139Y-116298148D01*
X98143860Y-116298148D01*
X98159999Y-116299737D01*
G37*
G36*
X102216000Y-115301000D02*
G01*
X99564000Y-115301000D01*
X99564000Y-114139000D01*
X102216000Y-114139000D01*
X102216000Y-115301000D01*
G37*
G36*
X104562199Y-111549954D02*
G01*
X104574450Y-111550556D01*
X104592869Y-111550556D01*
X104615149Y-111552750D01*
X104699233Y-111569476D01*
X104720660Y-111575976D01*
X104799858Y-111608780D01*
X104805303Y-111611691D01*
X104805309Y-111611693D01*
X104814169Y-111616429D01*
X104814173Y-111616432D01*
X104819614Y-111619340D01*
X104890899Y-111666971D01*
X104908204Y-111681172D01*
X104968828Y-111741796D01*
X104983029Y-111759101D01*
X105030660Y-111830386D01*
X105033568Y-111835827D01*
X105033571Y-111835831D01*
X105038307Y-111844691D01*
X105038309Y-111844697D01*
X105041220Y-111850142D01*
X105074024Y-111929340D01*
X105080524Y-111950767D01*
X105097250Y-112034851D01*
X105099444Y-112057131D01*
X105099444Y-112075550D01*
X105100046Y-112087801D01*
X105101852Y-112106139D01*
X105101852Y-112643860D01*
X105100263Y-112659999D01*
X105095855Y-112674528D01*
X105090394Y-112687711D01*
X105085612Y-112711745D01*
X105085611Y-112736249D01*
X105090391Y-112760282D01*
X105099768Y-112782921D01*
X105101000Y-112784765D01*
X105101000Y-114016050D01*
X105094525Y-114028164D01*
X105087412Y-114051613D01*
X105085010Y-114075999D01*
X105087412Y-114100385D01*
X105094525Y-114123834D01*
X105096848Y-114128746D01*
X105100263Y-114140001D01*
X105101852Y-114156140D01*
X105101852Y-114693862D01*
X105100046Y-114712199D01*
X105099444Y-114724450D01*
X105099444Y-114742869D01*
X105097250Y-114765149D01*
X105080524Y-114849233D01*
X105074024Y-114870660D01*
X105041220Y-114949858D01*
X105038309Y-114955303D01*
X105038307Y-114955309D01*
X105033571Y-114964169D01*
X105033568Y-114964173D01*
X105030660Y-114969614D01*
X104983029Y-115040899D01*
X104968828Y-115058204D01*
X104908204Y-115118828D01*
X104890899Y-115133029D01*
X104819614Y-115180660D01*
X104814173Y-115183568D01*
X104814169Y-115183571D01*
X104805309Y-115188307D01*
X104805303Y-115188309D01*
X104799858Y-115191220D01*
X104720660Y-115224024D01*
X104699233Y-115230524D01*
X104615149Y-115247250D01*
X104592869Y-115249444D01*
X104574450Y-115249444D01*
X104562199Y-115250046D01*
X104543862Y-115251852D01*
X104056138Y-115251852D01*
X104037801Y-115250046D01*
X104025550Y-115249444D01*
X104007131Y-115249444D01*
X103984851Y-115247250D01*
X103900767Y-115230524D01*
X103879340Y-115224024D01*
X103800142Y-115191220D01*
X103794697Y-115188309D01*
X103794691Y-115188307D01*
X103785831Y-115183571D01*
X103785827Y-115183568D01*
X103780386Y-115180660D01*
X103709101Y-115133029D01*
X103691796Y-115118828D01*
X103631172Y-115058204D01*
X103616971Y-115040899D01*
X103569340Y-114969614D01*
X103566432Y-114964173D01*
X103566429Y-114964169D01*
X103561693Y-114955309D01*
X103561691Y-114955303D01*
X103558780Y-114949858D01*
X103525976Y-114870660D01*
X103519476Y-114849233D01*
X103502750Y-114765149D01*
X103500556Y-114742869D01*
X103500556Y-114724450D01*
X103499954Y-114712199D01*
X103498148Y-114693862D01*
X103498148Y-114156140D01*
X103499737Y-114140001D01*
X103504145Y-114125472D01*
X103509606Y-114112289D01*
X103514388Y-114088255D01*
X103514389Y-114063751D01*
X103509609Y-114039718D01*
X103500232Y-114017079D01*
X103499000Y-114015235D01*
X103499000Y-112783950D01*
X103505475Y-112771836D01*
X103512588Y-112748387D01*
X103514990Y-112724001D01*
X103512588Y-112699615D01*
X103505475Y-112676166D01*
X103503152Y-112671254D01*
X103499737Y-112659999D01*
X103498148Y-112643860D01*
X103498148Y-112106139D01*
X103499954Y-112087801D01*
X103500556Y-112075550D01*
X103500556Y-112057131D01*
X103502750Y-112034851D01*
X103519476Y-111950767D01*
X103525976Y-111929340D01*
X103558780Y-111850142D01*
X103561691Y-111844697D01*
X103561693Y-111844691D01*
X103566429Y-111835831D01*
X103566432Y-111835827D01*
X103569340Y-111830386D01*
X103616971Y-111759101D01*
X103631172Y-111741796D01*
X103691796Y-111681172D01*
X103709101Y-111666971D01*
X103780386Y-111619340D01*
X103785827Y-111616432D01*
X103785831Y-111616429D01*
X103794691Y-111611693D01*
X103794697Y-111611691D01*
X103800142Y-111608780D01*
X103879340Y-111575976D01*
X103900767Y-111569476D01*
X103984851Y-111552750D01*
X104007131Y-111550556D01*
X104025550Y-111550556D01*
X104037801Y-111549954D01*
X104056139Y-111548148D01*
X104543861Y-111548148D01*
X104562199Y-111549954D01*
G37*
G36*
X98014560Y-114028205D02*
G01*
X98049713Y-114038869D01*
X98082110Y-114056186D01*
X98110509Y-114079491D01*
X98133814Y-114107890D01*
X98151131Y-114140287D01*
X98161795Y-114175440D01*
X98166000Y-114218140D01*
X98166000Y-114831860D01*
X98161795Y-114874560D01*
X98151131Y-114909713D01*
X98133814Y-114942110D01*
X98110509Y-114970509D01*
X98082110Y-114993814D01*
X98049713Y-115011131D01*
X98014560Y-115021795D01*
X97971860Y-115026000D01*
X97308140Y-115026000D01*
X97265440Y-115021795D01*
X97230287Y-115011131D01*
X97197890Y-114993814D01*
X97169491Y-114970509D01*
X97146186Y-114942110D01*
X97128869Y-114909713D01*
X97118205Y-114874560D01*
X97114000Y-114831860D01*
X97114000Y-114218140D01*
X97118205Y-114175440D01*
X97128869Y-114140287D01*
X97146186Y-114107890D01*
X97169491Y-114079491D01*
X97197890Y-114056186D01*
X97230287Y-114038869D01*
X97265440Y-114028205D01*
X97308140Y-114024000D01*
X97971860Y-114024000D01*
X98014560Y-114028205D01*
G37*
G36*
X98014560Y-112478205D02*
G01*
X98049713Y-112488869D01*
X98082110Y-112506186D01*
X98110509Y-112529491D01*
X98133814Y-112557890D01*
X98151131Y-112590287D01*
X98161795Y-112625440D01*
X98166000Y-112668140D01*
X98166000Y-113281860D01*
X98161795Y-113324560D01*
X98151131Y-113359713D01*
X98133814Y-113392110D01*
X98110509Y-113420509D01*
X98082110Y-113443814D01*
X98049713Y-113461131D01*
X98014560Y-113471795D01*
X97971860Y-113476000D01*
X97308140Y-113476000D01*
X97265440Y-113471795D01*
X97230287Y-113461131D01*
X97197890Y-113443814D01*
X97169491Y-113420509D01*
X97146186Y-113392110D01*
X97128869Y-113359713D01*
X97118205Y-113324560D01*
X97114000Y-113281860D01*
X97114000Y-112668140D01*
X97118205Y-112625440D01*
X97128869Y-112590287D01*
X97146186Y-112557890D01*
X97169491Y-112529491D01*
X97197890Y-112506186D01*
X97230287Y-112488869D01*
X97265440Y-112478205D01*
X97308140Y-112474000D01*
X97971860Y-112474000D01*
X98014560Y-112478205D01*
G37*
G36*
X102216000Y-113101000D02*
G01*
X99564000Y-113101000D01*
X99564000Y-111939000D01*
X102216000Y-111939000D01*
X102216000Y-113101000D01*
G37*
G36*
X98014560Y-110948205D02*
G01*
X98049713Y-110958869D01*
X98082110Y-110976186D01*
X98110509Y-110999491D01*
X98133814Y-111027890D01*
X98151131Y-111060287D01*
X98161795Y-111095440D01*
X98166000Y-111138140D01*
X98166000Y-111751860D01*
X98161795Y-111794560D01*
X98151131Y-111829713D01*
X98133814Y-111862110D01*
X98110509Y-111890509D01*
X98082110Y-111913814D01*
X98049713Y-111931131D01*
X98014560Y-111941795D01*
X97971860Y-111946000D01*
X97308140Y-111946000D01*
X97265440Y-111941795D01*
X97230287Y-111931131D01*
X97197890Y-111913814D01*
X97169491Y-111890509D01*
X97146186Y-111862110D01*
X97128869Y-111829713D01*
X97118205Y-111794560D01*
X97114000Y-111751860D01*
X97114000Y-111138140D01*
X97118205Y-111095440D01*
X97128869Y-111060287D01*
X97146186Y-111027890D01*
X97169491Y-110999491D01*
X97197890Y-110976186D01*
X97230287Y-110958869D01*
X97265440Y-110948205D01*
X97308140Y-110944000D01*
X97971860Y-110944000D01*
X98014560Y-110948205D01*
G37*
G36*
X98014560Y-109398205D02*
G01*
X98049713Y-109408869D01*
X98082110Y-109426186D01*
X98110509Y-109449491D01*
X98133814Y-109477890D01*
X98151131Y-109510287D01*
X98161795Y-109545440D01*
X98166000Y-109588140D01*
X98166000Y-110201860D01*
X98161795Y-110244560D01*
X98151131Y-110279713D01*
X98133814Y-110312110D01*
X98110509Y-110340509D01*
X98082110Y-110363814D01*
X98049713Y-110381131D01*
X98014560Y-110391795D01*
X97971860Y-110396000D01*
X97308140Y-110396000D01*
X97265440Y-110391795D01*
X97230287Y-110381131D01*
X97197890Y-110363814D01*
X97169491Y-110340509D01*
X97146186Y-110312110D01*
X97128869Y-110279713D01*
X97118205Y-110244560D01*
X97114000Y-110201860D01*
X97114000Y-109588140D01*
X97118205Y-109545440D01*
X97128869Y-109510287D01*
X97146186Y-109477890D01*
X97169491Y-109449491D01*
X97197890Y-109426186D01*
X97230287Y-109408869D01*
X97265440Y-109398205D01*
X97308140Y-109394000D01*
X97971860Y-109394000D01*
X98014560Y-109398205D01*
G37*
G36*
X100416000Y-110376000D02*
G01*
X99464000Y-110376000D01*
X99464000Y-109424000D01*
X100416000Y-109424000D01*
X100416000Y-110376000D01*
G37*
G36*
X121873166Y-101200000D02*
G01*
X121855440Y-101217726D01*
X121839900Y-101236662D01*
X121828349Y-101258273D01*
X121821236Y-101281722D01*
X121818834Y-101306108D01*
X121821236Y-101330494D01*
X121828349Y-101353943D01*
X121839900Y-101375554D01*
X121855445Y-101394496D01*
X121874387Y-101410041D01*
X121895998Y-101421592D01*
X121919447Y-101428705D01*
X121943833Y-101431107D01*
X121953990Y-101431107D01*
X122045950Y-101449399D01*
X122096695Y-101470418D01*
X122132577Y-101485281D01*
X122210539Y-101537374D01*
X122276840Y-101603675D01*
X122328933Y-101681637D01*
X122328933Y-101681638D01*
X122364815Y-101768264D01*
X122383107Y-101860224D01*
X122383107Y-101953990D01*
X122364815Y-102045950D01*
X122343796Y-102096695D01*
X122328933Y-102132577D01*
X122276840Y-102210539D01*
X122210539Y-102276840D01*
X122132577Y-102328933D01*
X122096695Y-102343796D01*
X122045950Y-102364815D01*
X121953990Y-102383107D01*
X121860224Y-102383107D01*
X121768264Y-102364815D01*
X121717519Y-102343796D01*
X121681637Y-102328933D01*
X121603675Y-102276840D01*
X121537374Y-102210539D01*
X121485281Y-102132577D01*
X121470418Y-102096695D01*
X121449399Y-102045950D01*
X121431107Y-101953990D01*
X121431107Y-101943833D01*
X121428705Y-101919447D01*
X121421592Y-101895998D01*
X121410041Y-101874387D01*
X121394496Y-101855445D01*
X121375554Y-101839900D01*
X121353943Y-101828349D01*
X121330494Y-101821236D01*
X121306108Y-101818834D01*
X121281722Y-101821236D01*
X121258273Y-101828349D01*
X121236662Y-101839900D01*
X121217726Y-101855440D01*
X121200000Y-101873166D01*
X120526834Y-101200000D01*
X121200000Y-100526834D01*
X121873166Y-101200000D01*
G37*
G36*
X79473166Y-101100000D02*
G01*
X78800000Y-101773166D01*
X78782274Y-101755440D01*
X78763338Y-101739900D01*
X78741727Y-101728349D01*
X78718278Y-101721236D01*
X78693892Y-101718834D01*
X78669506Y-101721236D01*
X78646057Y-101728349D01*
X78624446Y-101739900D01*
X78605504Y-101755445D01*
X78589959Y-101774387D01*
X78578408Y-101795998D01*
X78571295Y-101819447D01*
X78568893Y-101843833D01*
X78568893Y-101853990D01*
X78550601Y-101945950D01*
X78529582Y-101996695D01*
X78514719Y-102032577D01*
X78462626Y-102110539D01*
X78396325Y-102176840D01*
X78318363Y-102228933D01*
X78282481Y-102243796D01*
X78231736Y-102264815D01*
X78139776Y-102283107D01*
X78046010Y-102283107D01*
X77954050Y-102264815D01*
X77903305Y-102243796D01*
X77867423Y-102228933D01*
X77789461Y-102176840D01*
X77723160Y-102110539D01*
X77671067Y-102032577D01*
X77656204Y-101996695D01*
X77635185Y-101945950D01*
X77616893Y-101853990D01*
X77616893Y-101760224D01*
X77635185Y-101668264D01*
X77671067Y-101581638D01*
X77671067Y-101581637D01*
X77723160Y-101503675D01*
X77789461Y-101437374D01*
X77867423Y-101385281D01*
X77903305Y-101370418D01*
X77954050Y-101349399D01*
X78046010Y-101331107D01*
X78056167Y-101331107D01*
X78080553Y-101328705D01*
X78104002Y-101321592D01*
X78125613Y-101310041D01*
X78144555Y-101294496D01*
X78160100Y-101275554D01*
X78171651Y-101253943D01*
X78178764Y-101230494D01*
X78181166Y-101206108D01*
X78178764Y-101181722D01*
X78171651Y-101158273D01*
X78160100Y-101136662D01*
X78144560Y-101117726D01*
X78126834Y-101100000D01*
X78800000Y-100426834D01*
X79473166Y-101100000D01*
G37*
G36*
X119673166Y-99000000D02*
G01*
X119655440Y-99017726D01*
X119639900Y-99036662D01*
X119628349Y-99058273D01*
X119621236Y-99081722D01*
X119618834Y-99106108D01*
X119621236Y-99130494D01*
X119628349Y-99153943D01*
X119639900Y-99175554D01*
X119655445Y-99194496D01*
X119674387Y-99210041D01*
X119695998Y-99221592D01*
X119719447Y-99228705D01*
X119743833Y-99231107D01*
X119753990Y-99231107D01*
X119845950Y-99249399D01*
X119896695Y-99270418D01*
X119932577Y-99285281D01*
X120010539Y-99337374D01*
X120076840Y-99403675D01*
X120128933Y-99481637D01*
X120128933Y-99481638D01*
X120164815Y-99568264D01*
X120183107Y-99660224D01*
X120183107Y-99753990D01*
X120164815Y-99845950D01*
X120143796Y-99896695D01*
X120128933Y-99932577D01*
X120076840Y-100010539D01*
X120010539Y-100076840D01*
X119932577Y-100128933D01*
X119896695Y-100143796D01*
X119845950Y-100164815D01*
X119753990Y-100183107D01*
X119660224Y-100183107D01*
X119568264Y-100164815D01*
X119517519Y-100143796D01*
X119481637Y-100128933D01*
X119403675Y-100076840D01*
X119337374Y-100010539D01*
X119285281Y-99932577D01*
X119270418Y-99896695D01*
X119249399Y-99845950D01*
X119231107Y-99753990D01*
X119231107Y-99743833D01*
X119228705Y-99719447D01*
X119221592Y-99695998D01*
X119210041Y-99674387D01*
X119194496Y-99655445D01*
X119175554Y-99639900D01*
X119153943Y-99628349D01*
X119130494Y-99621236D01*
X119106108Y-99618834D01*
X119081722Y-99621236D01*
X119058273Y-99628349D01*
X119036662Y-99639900D01*
X119017726Y-99655440D01*
X119000000Y-99673166D01*
X118326834Y-99000000D01*
X119000000Y-98326834D01*
X119673166Y-99000000D01*
G37*
G36*
X81673166Y-98900000D02*
G01*
X81000000Y-99573166D01*
X80982274Y-99555440D01*
X80963338Y-99539900D01*
X80941727Y-99528349D01*
X80918278Y-99521236D01*
X80893892Y-99518834D01*
X80869506Y-99521236D01*
X80846057Y-99528349D01*
X80824446Y-99539900D01*
X80805504Y-99555445D01*
X80789959Y-99574387D01*
X80778408Y-99595998D01*
X80771295Y-99619447D01*
X80768893Y-99643833D01*
X80768893Y-99653990D01*
X80750601Y-99745950D01*
X80729582Y-99796695D01*
X80714719Y-99832577D01*
X80662626Y-99910539D01*
X80596325Y-99976840D01*
X80518363Y-100028933D01*
X80482481Y-100043796D01*
X80431736Y-100064815D01*
X80339776Y-100083107D01*
X80246010Y-100083107D01*
X80154050Y-100064815D01*
X80103305Y-100043796D01*
X80067423Y-100028933D01*
X79989461Y-99976840D01*
X79923160Y-99910539D01*
X79871067Y-99832577D01*
X79856204Y-99796695D01*
X79835185Y-99745950D01*
X79816893Y-99653990D01*
X79816893Y-99560224D01*
X79835185Y-99468264D01*
X79871067Y-99381638D01*
X79871067Y-99381637D01*
X79923160Y-99303675D01*
X79989461Y-99237374D01*
X80067423Y-99185281D01*
X80103305Y-99170418D01*
X80154050Y-99149399D01*
X80246010Y-99131107D01*
X80256167Y-99131107D01*
X80280553Y-99128705D01*
X80304002Y-99121592D01*
X80325613Y-99110041D01*
X80344555Y-99094496D01*
X80360100Y-99075554D01*
X80371651Y-99053943D01*
X80378764Y-99030494D01*
X80381166Y-99006108D01*
X80378764Y-98981722D01*
X80371651Y-98958273D01*
X80360100Y-98936662D01*
X80344560Y-98917726D01*
X80326834Y-98900000D01*
X81000000Y-98226834D01*
X81673166Y-98900000D01*
G37*
G36*
X99876000Y-97849060D02*
G01*
X99878402Y-97873446D01*
X99885515Y-97896895D01*
X99897066Y-97918506D01*
X99912611Y-97937448D01*
X99931553Y-97952993D01*
X99953164Y-97964544D01*
X99976613Y-97971657D01*
X100000999Y-97974059D01*
X100025385Y-97971657D01*
X100048834Y-97964544D01*
X100070445Y-97952993D01*
X100089387Y-97937448D01*
X100096568Y-97930267D01*
X100174530Y-97878174D01*
X100210412Y-97863311D01*
X100261157Y-97842292D01*
X100353117Y-97824000D01*
X100446883Y-97824000D01*
X100538843Y-97842292D01*
X100589588Y-97863311D01*
X100625470Y-97878174D01*
X100703432Y-97930267D01*
X100769733Y-97996568D01*
X100821826Y-98074530D01*
X100821826Y-98074531D01*
X100857708Y-98161157D01*
X100876000Y-98253117D01*
X100876000Y-98346883D01*
X100857708Y-98438843D01*
X100836689Y-98489588D01*
X100821826Y-98525470D01*
X100769733Y-98603432D01*
X100703432Y-98669733D01*
X100625470Y-98721826D01*
X100614055Y-98726554D01*
X100538843Y-98757708D01*
X100446883Y-98776000D01*
X100353117Y-98776000D01*
X100261157Y-98757708D01*
X100185945Y-98726554D01*
X100174530Y-98721826D01*
X100096568Y-98669733D01*
X100089387Y-98662552D01*
X100070445Y-98647007D01*
X100048834Y-98635456D01*
X100025385Y-98628343D01*
X100000999Y-98625941D01*
X99976613Y-98628343D01*
X99953164Y-98635456D01*
X99931553Y-98647007D01*
X99912611Y-98662552D01*
X99897066Y-98681494D01*
X99885515Y-98703105D01*
X99878402Y-98726554D01*
X99876000Y-98750940D01*
X99876000Y-98776000D01*
X98924000Y-98776000D01*
X98924000Y-97824000D01*
X99876000Y-97824000D01*
X99876000Y-97849060D01*
G37*
G36*
X99876000Y-95549060D02*
G01*
X99878402Y-95573446D01*
X99885515Y-95596895D01*
X99897066Y-95618506D01*
X99912611Y-95637448D01*
X99931553Y-95652993D01*
X99953164Y-95664544D01*
X99976613Y-95671657D01*
X100000999Y-95674059D01*
X100025385Y-95671657D01*
X100048834Y-95664544D01*
X100070445Y-95652993D01*
X100089387Y-95637448D01*
X100096568Y-95630267D01*
X100174530Y-95578174D01*
X100210412Y-95563311D01*
X100261157Y-95542292D01*
X100353117Y-95524000D01*
X100446883Y-95524000D01*
X100538843Y-95542292D01*
X100589588Y-95563311D01*
X100625470Y-95578174D01*
X100703432Y-95630267D01*
X100769733Y-95696568D01*
X100821826Y-95774530D01*
X100821826Y-95774531D01*
X100857708Y-95861157D01*
X100876000Y-95953117D01*
X100876000Y-96046883D01*
X100857708Y-96138843D01*
X100836689Y-96189588D01*
X100821826Y-96225470D01*
X100769733Y-96303432D01*
X100703432Y-96369733D01*
X100625470Y-96421826D01*
X100614055Y-96426554D01*
X100538843Y-96457708D01*
X100446883Y-96476000D01*
X100353117Y-96476000D01*
X100261157Y-96457708D01*
X100185945Y-96426554D01*
X100174530Y-96421826D01*
X100096568Y-96369733D01*
X100089387Y-96362552D01*
X100070445Y-96347007D01*
X100048834Y-96335456D01*
X100025385Y-96328343D01*
X100000999Y-96325941D01*
X99976613Y-96328343D01*
X99953164Y-96335456D01*
X99931553Y-96347007D01*
X99912611Y-96362552D01*
X99897066Y-96381494D01*
X99885515Y-96403105D01*
X99878402Y-96426554D01*
X99876000Y-96450940D01*
X99876000Y-96476000D01*
X98924000Y-96476000D01*
X98924000Y-95524000D01*
X99876000Y-95524000D01*
X99876000Y-95549060D01*
G37*
G36*
X99876000Y-93249060D02*
G01*
X99878402Y-93273446D01*
X99885515Y-93296895D01*
X99897066Y-93318506D01*
X99912611Y-93337448D01*
X99931553Y-93352993D01*
X99953164Y-93364544D01*
X99976613Y-93371657D01*
X100000999Y-93374059D01*
X100025385Y-93371657D01*
X100048834Y-93364544D01*
X100070445Y-93352993D01*
X100089387Y-93337448D01*
X100096568Y-93330267D01*
X100174530Y-93278174D01*
X100210412Y-93263311D01*
X100261157Y-93242292D01*
X100353117Y-93224000D01*
X100446883Y-93224000D01*
X100538843Y-93242292D01*
X100589588Y-93263311D01*
X100625470Y-93278174D01*
X100703432Y-93330267D01*
X100769733Y-93396568D01*
X100821826Y-93474530D01*
X100821826Y-93474531D01*
X100857708Y-93561157D01*
X100876000Y-93653117D01*
X100876000Y-93746883D01*
X100857708Y-93838843D01*
X100836689Y-93889588D01*
X100821826Y-93925470D01*
X100769733Y-94003432D01*
X100703432Y-94069733D01*
X100625470Y-94121826D01*
X100614055Y-94126554D01*
X100538843Y-94157708D01*
X100446883Y-94176000D01*
X100353117Y-94176000D01*
X100261157Y-94157708D01*
X100185945Y-94126554D01*
X100174530Y-94121826D01*
X100096568Y-94069733D01*
X100089387Y-94062552D01*
X100070445Y-94047007D01*
X100048834Y-94035456D01*
X100025385Y-94028343D01*
X100000999Y-94025941D01*
X99976613Y-94028343D01*
X99953164Y-94035456D01*
X99931553Y-94047007D01*
X99912611Y-94062552D01*
X99897066Y-94081494D01*
X99885515Y-94103105D01*
X99878402Y-94126554D01*
X99876000Y-94150940D01*
X99876000Y-94176000D01*
X98924000Y-94176000D01*
X98924000Y-93224000D01*
X99876000Y-93224000D01*
X99876000Y-93249060D01*
G37*
G36*
X99876000Y-90949060D02*
G01*
X99878402Y-90973446D01*
X99885515Y-90996895D01*
X99897066Y-91018506D01*
X99912611Y-91037448D01*
X99931553Y-91052993D01*
X99953164Y-91064544D01*
X99976613Y-91071657D01*
X100000999Y-91074059D01*
X100025385Y-91071657D01*
X100048834Y-91064544D01*
X100070445Y-91052993D01*
X100089387Y-91037448D01*
X100096568Y-91030267D01*
X100174530Y-90978174D01*
X100210412Y-90963311D01*
X100261157Y-90942292D01*
X100353117Y-90924000D01*
X100446883Y-90924000D01*
X100538843Y-90942292D01*
X100589588Y-90963311D01*
X100625470Y-90978174D01*
X100703432Y-91030267D01*
X100769733Y-91096568D01*
X100821826Y-91174530D01*
X100821826Y-91174531D01*
X100857708Y-91261157D01*
X100876000Y-91353117D01*
X100876000Y-91446883D01*
X100857708Y-91538843D01*
X100836689Y-91589588D01*
X100821826Y-91625470D01*
X100769733Y-91703432D01*
X100703432Y-91769733D01*
X100625470Y-91821826D01*
X100614055Y-91826554D01*
X100538843Y-91857708D01*
X100446883Y-91876000D01*
X100353117Y-91876000D01*
X100261157Y-91857708D01*
X100185945Y-91826554D01*
X100174530Y-91821826D01*
X100096568Y-91769733D01*
X100089387Y-91762552D01*
X100070445Y-91747007D01*
X100048834Y-91735456D01*
X100025385Y-91728343D01*
X100000999Y-91725941D01*
X99976613Y-91728343D01*
X99953164Y-91735456D01*
X99931553Y-91747007D01*
X99912611Y-91762552D01*
X99897066Y-91781494D01*
X99885515Y-91803105D01*
X99878402Y-91826554D01*
X99876000Y-91850940D01*
X99876000Y-91876000D01*
X98924000Y-91876000D01*
X98924000Y-90924000D01*
X99876000Y-90924000D01*
X99876000Y-90949060D01*
G37*
G36*
X101129591Y-81698085D02*
G01*
X101163569Y-81708393D01*
X101194890Y-81725134D01*
X101222339Y-81747661D01*
X101244866Y-81775110D01*
X101261607Y-81806431D01*
X101271915Y-81840409D01*
X101276000Y-81881890D01*
X101276000Y-82558110D01*
X101271915Y-82599591D01*
X101261607Y-82633569D01*
X101244866Y-82664890D01*
X101222339Y-82692339D01*
X101194890Y-82714866D01*
X101163569Y-82731607D01*
X101129591Y-82741915D01*
X101088110Y-82746000D01*
X100486890Y-82746000D01*
X100445409Y-82741915D01*
X100411431Y-82731607D01*
X100380110Y-82714866D01*
X100352661Y-82692339D01*
X100330134Y-82664890D01*
X100313393Y-82633569D01*
X100303085Y-82599591D01*
X100299000Y-82558110D01*
X100299000Y-81881890D01*
X100303085Y-81840409D01*
X100313393Y-81806431D01*
X100330134Y-81775110D01*
X100352661Y-81747661D01*
X100380110Y-81725134D01*
X100411431Y-81708393D01*
X100445409Y-81698085D01*
X100486890Y-81694000D01*
X101088110Y-81694000D01*
X101129591Y-81698085D01*
G37*
G36*
X99554591Y-81698085D02*
G01*
X99588569Y-81708393D01*
X99619890Y-81725134D01*
X99647339Y-81747661D01*
X99669866Y-81775110D01*
X99686607Y-81806431D01*
X99696915Y-81840409D01*
X99701000Y-81881890D01*
X99701000Y-82558110D01*
X99696915Y-82599591D01*
X99686607Y-82633569D01*
X99669866Y-82664890D01*
X99647339Y-82692339D01*
X99619890Y-82714866D01*
X99588569Y-82731607D01*
X99554591Y-82741915D01*
X99513110Y-82746000D01*
X98911890Y-82746000D01*
X98870409Y-82741915D01*
X98836431Y-82731607D01*
X98805110Y-82714866D01*
X98777661Y-82692339D01*
X98755134Y-82664890D01*
X98738393Y-82633569D01*
X98728085Y-82599591D01*
X98724000Y-82558110D01*
X98724000Y-81881890D01*
X98728085Y-81840409D01*
X98738393Y-81806431D01*
X98755134Y-81775110D01*
X98777661Y-81747661D01*
X98805110Y-81725134D01*
X98836431Y-81708393D01*
X98870409Y-81698085D01*
X98911890Y-81694000D01*
X99513110Y-81694000D01*
X99554591Y-81698085D01*
G37*
G36*
X118776000Y-79876000D02*
G01*
X118750940Y-79876000D01*
X118726554Y-79878402D01*
X118703105Y-79885515D01*
X118681494Y-79897066D01*
X118662552Y-79912611D01*
X118647007Y-79931553D01*
X118635456Y-79953164D01*
X118628343Y-79976613D01*
X118625941Y-80000999D01*
X118628343Y-80025385D01*
X118635456Y-80048834D01*
X118647007Y-80070445D01*
X118662552Y-80089387D01*
X118669733Y-80096568D01*
X118721826Y-80174530D01*
X118721826Y-80174531D01*
X118757708Y-80261157D01*
X118776000Y-80353117D01*
X118776000Y-80446883D01*
X118757708Y-80538843D01*
X118736689Y-80589588D01*
X118721826Y-80625470D01*
X118669733Y-80703432D01*
X118603432Y-80769733D01*
X118525470Y-80821826D01*
X118489588Y-80836689D01*
X118438843Y-80857708D01*
X118346883Y-80876000D01*
X118253117Y-80876000D01*
X118161157Y-80857708D01*
X118110412Y-80836689D01*
X118074530Y-80821826D01*
X117996568Y-80769733D01*
X117930267Y-80703432D01*
X117878174Y-80625470D01*
X117863311Y-80589588D01*
X117842292Y-80538843D01*
X117824000Y-80446883D01*
X117824000Y-80353117D01*
X117842292Y-80261157D01*
X117878174Y-80174531D01*
X117878174Y-80174530D01*
X117930267Y-80096568D01*
X117937448Y-80089387D01*
X117952993Y-80070445D01*
X117964544Y-80048834D01*
X117971657Y-80025385D01*
X117974059Y-80000999D01*
X117971657Y-79976613D01*
X117964544Y-79953164D01*
X117952993Y-79931553D01*
X117937448Y-79912611D01*
X117918506Y-79897066D01*
X117896895Y-79885515D01*
X117873446Y-79878402D01*
X117849060Y-79876000D01*
X117824000Y-79876000D01*
X117824000Y-78924000D01*
X118776000Y-78924000D01*
X118776000Y-79876000D01*
G37*
G36*
X116476000Y-79876000D02*
G01*
X116450940Y-79876000D01*
X116426554Y-79878402D01*
X116403105Y-79885515D01*
X116381494Y-79897066D01*
X116362552Y-79912611D01*
X116347007Y-79931553D01*
X116335456Y-79953164D01*
X116328343Y-79976613D01*
X116325941Y-80000999D01*
X116328343Y-80025385D01*
X116335456Y-80048834D01*
X116347007Y-80070445D01*
X116362552Y-80089387D01*
X116369733Y-80096568D01*
X116421826Y-80174530D01*
X116421826Y-80174531D01*
X116457708Y-80261157D01*
X116476000Y-80353117D01*
X116476000Y-80446883D01*
X116457708Y-80538843D01*
X116436689Y-80589588D01*
X116421826Y-80625470D01*
X116369733Y-80703432D01*
X116303432Y-80769733D01*
X116225470Y-80821826D01*
X116189588Y-80836689D01*
X116138843Y-80857708D01*
X116046883Y-80876000D01*
X115953117Y-80876000D01*
X115861157Y-80857708D01*
X115810412Y-80836689D01*
X115774530Y-80821826D01*
X115696568Y-80769733D01*
X115630267Y-80703432D01*
X115578174Y-80625470D01*
X115563311Y-80589588D01*
X115542292Y-80538843D01*
X115524000Y-80446883D01*
X115524000Y-80353117D01*
X115542292Y-80261157D01*
X115578174Y-80174531D01*
X115578174Y-80174530D01*
X115630267Y-80096568D01*
X115637448Y-80089387D01*
X115652993Y-80070445D01*
X115664544Y-80048834D01*
X115671657Y-80025385D01*
X115674059Y-80000999D01*
X115671657Y-79976613D01*
X115664544Y-79953164D01*
X115652993Y-79931553D01*
X115637448Y-79912611D01*
X115618506Y-79897066D01*
X115596895Y-79885515D01*
X115573446Y-79878402D01*
X115549060Y-79876000D01*
X115524000Y-79876000D01*
X115524000Y-78924000D01*
X116476000Y-78924000D01*
X116476000Y-79876000D01*
G37*
G36*
X114176000Y-79876000D02*
G01*
X114150940Y-79876000D01*
X114126554Y-79878402D01*
X114103105Y-79885515D01*
X114081494Y-79897066D01*
X114062552Y-79912611D01*
X114047007Y-79931553D01*
X114035456Y-79953164D01*
X114028343Y-79976613D01*
X114025941Y-80000999D01*
X114028343Y-80025385D01*
X114035456Y-80048834D01*
X114047007Y-80070445D01*
X114062552Y-80089387D01*
X114069733Y-80096568D01*
X114121826Y-80174530D01*
X114121826Y-80174531D01*
X114157708Y-80261157D01*
X114176000Y-80353117D01*
X114176000Y-80446883D01*
X114157708Y-80538843D01*
X114136689Y-80589588D01*
X114121826Y-80625470D01*
X114069733Y-80703432D01*
X114003432Y-80769733D01*
X113925470Y-80821826D01*
X113889588Y-80836689D01*
X113838843Y-80857708D01*
X113746883Y-80876000D01*
X113653117Y-80876000D01*
X113561157Y-80857708D01*
X113510412Y-80836689D01*
X113474530Y-80821826D01*
X113396568Y-80769733D01*
X113330267Y-80703432D01*
X113278174Y-80625470D01*
X113263311Y-80589588D01*
X113242292Y-80538843D01*
X113224000Y-80446883D01*
X113224000Y-80353117D01*
X113242292Y-80261157D01*
X113278174Y-80174531D01*
X113278174Y-80174530D01*
X113330267Y-80096568D01*
X113337448Y-80089387D01*
X113352993Y-80070445D01*
X113364544Y-80048834D01*
X113371657Y-80025385D01*
X113374059Y-80000999D01*
X113371657Y-79976613D01*
X113364544Y-79953164D01*
X113352993Y-79931553D01*
X113337448Y-79912611D01*
X113318506Y-79897066D01*
X113296895Y-79885515D01*
X113273446Y-79878402D01*
X113249060Y-79876000D01*
X113224000Y-79876000D01*
X113224000Y-78924000D01*
X114176000Y-78924000D01*
X114176000Y-79876000D01*
G37*
G36*
X111876000Y-79876000D02*
G01*
X111850940Y-79876000D01*
X111826554Y-79878402D01*
X111803105Y-79885515D01*
X111781494Y-79897066D01*
X111762552Y-79912611D01*
X111747007Y-79931553D01*
X111735456Y-79953164D01*
X111728343Y-79976613D01*
X111725941Y-80000999D01*
X111728343Y-80025385D01*
X111735456Y-80048834D01*
X111747007Y-80070445D01*
X111762552Y-80089387D01*
X111769733Y-80096568D01*
X111821826Y-80174530D01*
X111821826Y-80174531D01*
X111857708Y-80261157D01*
X111876000Y-80353117D01*
X111876000Y-80446883D01*
X111857708Y-80538843D01*
X111836689Y-80589588D01*
X111821826Y-80625470D01*
X111769733Y-80703432D01*
X111703432Y-80769733D01*
X111625470Y-80821826D01*
X111589588Y-80836689D01*
X111538843Y-80857708D01*
X111446883Y-80876000D01*
X111353117Y-80876000D01*
X111261157Y-80857708D01*
X111210412Y-80836689D01*
X111174530Y-80821826D01*
X111096568Y-80769733D01*
X111030267Y-80703432D01*
X110978174Y-80625470D01*
X110963311Y-80589588D01*
X110942292Y-80538843D01*
X110924000Y-80446883D01*
X110924000Y-80353117D01*
X110942292Y-80261157D01*
X110978174Y-80174531D01*
X110978174Y-80174530D01*
X111030267Y-80096568D01*
X111037448Y-80089387D01*
X111052993Y-80070445D01*
X111064544Y-80048834D01*
X111071657Y-80025385D01*
X111074059Y-80000999D01*
X111071657Y-79976613D01*
X111064544Y-79953164D01*
X111052993Y-79931553D01*
X111037448Y-79912611D01*
X111018506Y-79897066D01*
X110996895Y-79885515D01*
X110973446Y-79878402D01*
X110949060Y-79876000D01*
X110924000Y-79876000D01*
X110924000Y-78924000D01*
X111876000Y-78924000D01*
X111876000Y-79876000D01*
G37*
G36*
X101676000Y-79876000D02*
G01*
X101650940Y-79876000D01*
X101626554Y-79878402D01*
X101603105Y-79885515D01*
X101581494Y-79897066D01*
X101562552Y-79912611D01*
X101547007Y-79931553D01*
X101535456Y-79953164D01*
X101528343Y-79976613D01*
X101525941Y-80000999D01*
X101528343Y-80025385D01*
X101535456Y-80048834D01*
X101547007Y-80070445D01*
X101562552Y-80089387D01*
X101569733Y-80096568D01*
X101621826Y-80174530D01*
X101621826Y-80174531D01*
X101657708Y-80261157D01*
X101676000Y-80353117D01*
X101676000Y-80446883D01*
X101657708Y-80538843D01*
X101636689Y-80589588D01*
X101621826Y-80625470D01*
X101569733Y-80703432D01*
X101503432Y-80769733D01*
X101425470Y-80821826D01*
X101389588Y-80836689D01*
X101338843Y-80857708D01*
X101246883Y-80876000D01*
X101153117Y-80876000D01*
X101061157Y-80857708D01*
X101010412Y-80836689D01*
X100974530Y-80821826D01*
X100896568Y-80769733D01*
X100830267Y-80703432D01*
X100778174Y-80625470D01*
X100763311Y-80589588D01*
X100742292Y-80538843D01*
X100724000Y-80446883D01*
X100724000Y-80353117D01*
X100742292Y-80261157D01*
X100778174Y-80174531D01*
X100778174Y-80174530D01*
X100830267Y-80096568D01*
X100837448Y-80089387D01*
X100852993Y-80070445D01*
X100864544Y-80048834D01*
X100871657Y-80025385D01*
X100874059Y-80000999D01*
X100871657Y-79976613D01*
X100864544Y-79953164D01*
X100852993Y-79931553D01*
X100837448Y-79912611D01*
X100818506Y-79897066D01*
X100796895Y-79885515D01*
X100773446Y-79878402D01*
X100749060Y-79876000D01*
X100724000Y-79876000D01*
X100724000Y-78924000D01*
X101676000Y-78924000D01*
X101676000Y-79876000D01*
G37*
G36*
X99276000Y-79876000D02*
G01*
X99250940Y-79876000D01*
X99226554Y-79878402D01*
X99203105Y-79885515D01*
X99181494Y-79897066D01*
X99162552Y-79912611D01*
X99147007Y-79931553D01*
X99135456Y-79953164D01*
X99128343Y-79976613D01*
X99125941Y-80000999D01*
X99128343Y-80025385D01*
X99135456Y-80048834D01*
X99147007Y-80070445D01*
X99162552Y-80089387D01*
X99169733Y-80096568D01*
X99221826Y-80174530D01*
X99221826Y-80174531D01*
X99257708Y-80261157D01*
X99276000Y-80353117D01*
X99276000Y-80446883D01*
X99257708Y-80538843D01*
X99236689Y-80589588D01*
X99221826Y-80625470D01*
X99169733Y-80703432D01*
X99103432Y-80769733D01*
X99025470Y-80821826D01*
X98989588Y-80836689D01*
X98938843Y-80857708D01*
X98846883Y-80876000D01*
X98753117Y-80876000D01*
X98661157Y-80857708D01*
X98610412Y-80836689D01*
X98574530Y-80821826D01*
X98496568Y-80769733D01*
X98430267Y-80703432D01*
X98378174Y-80625470D01*
X98363311Y-80589588D01*
X98342292Y-80538843D01*
X98324000Y-80446883D01*
X98324000Y-80353117D01*
X98342292Y-80261157D01*
X98378174Y-80174531D01*
X98378174Y-80174530D01*
X98430267Y-80096568D01*
X98437448Y-80089387D01*
X98452993Y-80070445D01*
X98464544Y-80048834D01*
X98471657Y-80025385D01*
X98474059Y-80000999D01*
X98471657Y-79976613D01*
X98464544Y-79953164D01*
X98452993Y-79931553D01*
X98437448Y-79912611D01*
X98418506Y-79897066D01*
X98396895Y-79885515D01*
X98373446Y-79878402D01*
X98349060Y-79876000D01*
X98324000Y-79876000D01*
X98324000Y-78924000D01*
X99276000Y-78924000D01*
X99276000Y-79876000D01*
G37*
G36*
X89076000Y-79876000D02*
G01*
X89050940Y-79876000D01*
X89026554Y-79878402D01*
X89003105Y-79885515D01*
X88981494Y-79897066D01*
X88962552Y-79912611D01*
X88947007Y-79931553D01*
X88935456Y-79953164D01*
X88928343Y-79976613D01*
X88925941Y-80000999D01*
X88928343Y-80025385D01*
X88935456Y-80048834D01*
X88947007Y-80070445D01*
X88962552Y-80089387D01*
X88969733Y-80096568D01*
X89021826Y-80174530D01*
X89021826Y-80174531D01*
X89057708Y-80261157D01*
X89076000Y-80353117D01*
X89076000Y-80446883D01*
X89057708Y-80538843D01*
X89036689Y-80589588D01*
X89021826Y-80625470D01*
X88969733Y-80703432D01*
X88903432Y-80769733D01*
X88825470Y-80821826D01*
X88789588Y-80836689D01*
X88738843Y-80857708D01*
X88646883Y-80876000D01*
X88553117Y-80876000D01*
X88461157Y-80857708D01*
X88410412Y-80836689D01*
X88374530Y-80821826D01*
X88296568Y-80769733D01*
X88230267Y-80703432D01*
X88178174Y-80625470D01*
X88163311Y-80589588D01*
X88142292Y-80538843D01*
X88124000Y-80446883D01*
X88124000Y-80353117D01*
X88142292Y-80261157D01*
X88178174Y-80174531D01*
X88178174Y-80174530D01*
X88230267Y-80096568D01*
X88237448Y-80089387D01*
X88252993Y-80070445D01*
X88264544Y-80048834D01*
X88271657Y-80025385D01*
X88274059Y-80000999D01*
X88271657Y-79976613D01*
X88264544Y-79953164D01*
X88252993Y-79931553D01*
X88237448Y-79912611D01*
X88218506Y-79897066D01*
X88196895Y-79885515D01*
X88173446Y-79878402D01*
X88149060Y-79876000D01*
X88124000Y-79876000D01*
X88124000Y-78924000D01*
X89076000Y-78924000D01*
X89076000Y-79876000D01*
G37*
G36*
X86776000Y-79876000D02*
G01*
X86750940Y-79876000D01*
X86726554Y-79878402D01*
X86703105Y-79885515D01*
X86681494Y-79897066D01*
X86662552Y-79912611D01*
X86647007Y-79931553D01*
X86635456Y-79953164D01*
X86628343Y-79976613D01*
X86625941Y-80000999D01*
X86628343Y-80025385D01*
X86635456Y-80048834D01*
X86647007Y-80070445D01*
X86662552Y-80089387D01*
X86669733Y-80096568D01*
X86721826Y-80174530D01*
X86721826Y-80174531D01*
X86757708Y-80261157D01*
X86776000Y-80353117D01*
X86776000Y-80446883D01*
X86757708Y-80538843D01*
X86736689Y-80589588D01*
X86721826Y-80625470D01*
X86669733Y-80703432D01*
X86603432Y-80769733D01*
X86525470Y-80821826D01*
X86489588Y-80836689D01*
X86438843Y-80857708D01*
X86346883Y-80876000D01*
X86253117Y-80876000D01*
X86161157Y-80857708D01*
X86110412Y-80836689D01*
X86074530Y-80821826D01*
X85996568Y-80769733D01*
X85930267Y-80703432D01*
X85878174Y-80625470D01*
X85863311Y-80589588D01*
X85842292Y-80538843D01*
X85824000Y-80446883D01*
X85824000Y-80353117D01*
X85842292Y-80261157D01*
X85878174Y-80174531D01*
X85878174Y-80174530D01*
X85930267Y-80096568D01*
X85937448Y-80089387D01*
X85952993Y-80070445D01*
X85964544Y-80048834D01*
X85971657Y-80025385D01*
X85974059Y-80000999D01*
X85971657Y-79976613D01*
X85964544Y-79953164D01*
X85952993Y-79931553D01*
X85937448Y-79912611D01*
X85918506Y-79897066D01*
X85896895Y-79885515D01*
X85873446Y-79878402D01*
X85849060Y-79876000D01*
X85824000Y-79876000D01*
X85824000Y-78924000D01*
X86776000Y-78924000D01*
X86776000Y-79876000D01*
G37*
G36*
X82176000Y-79876000D02*
G01*
X82150940Y-79876000D01*
X82126554Y-79878402D01*
X82103105Y-79885515D01*
X82081494Y-79897066D01*
X82062552Y-79912611D01*
X82047007Y-79931553D01*
X82035456Y-79953164D01*
X82028343Y-79976613D01*
X82025941Y-80000999D01*
X82028343Y-80025385D01*
X82035456Y-80048834D01*
X82047007Y-80070445D01*
X82062552Y-80089387D01*
X82069733Y-80096568D01*
X82121826Y-80174530D01*
X82121826Y-80174531D01*
X82157708Y-80261157D01*
X82176000Y-80353117D01*
X82176000Y-80446883D01*
X82157708Y-80538843D01*
X82136689Y-80589588D01*
X82121826Y-80625470D01*
X82069733Y-80703432D01*
X82003432Y-80769733D01*
X81925470Y-80821826D01*
X81889588Y-80836689D01*
X81838843Y-80857708D01*
X81746883Y-80876000D01*
X81653117Y-80876000D01*
X81561157Y-80857708D01*
X81510412Y-80836689D01*
X81474530Y-80821826D01*
X81396568Y-80769733D01*
X81330267Y-80703432D01*
X81278174Y-80625470D01*
X81263311Y-80589588D01*
X81242292Y-80538843D01*
X81224000Y-80446883D01*
X81224000Y-80353117D01*
X81242292Y-80261157D01*
X81278174Y-80174531D01*
X81278174Y-80174530D01*
X81330267Y-80096568D01*
X81337448Y-80089387D01*
X81352993Y-80070445D01*
X81364544Y-80048834D01*
X81371657Y-80025385D01*
X81374059Y-80000999D01*
X81371657Y-79976613D01*
X81364544Y-79953164D01*
X81352993Y-79931553D01*
X81337448Y-79912611D01*
X81318506Y-79897066D01*
X81296895Y-79885515D01*
X81273446Y-79878402D01*
X81249060Y-79876000D01*
X81224000Y-79876000D01*
X81224000Y-78924000D01*
X82176000Y-78924000D01*
X82176000Y-79876000D01*
G37*
G36*
X84476000Y-79876000D02*
G01*
X84450940Y-79876000D01*
X84426554Y-79878402D01*
X84403105Y-79885515D01*
X84381494Y-79897066D01*
X84362552Y-79912611D01*
X84347007Y-79931553D01*
X84335456Y-79953164D01*
X84328343Y-79976613D01*
X84325941Y-80000999D01*
X84328343Y-80025385D01*
X84335456Y-80048834D01*
X84347007Y-80070445D01*
X84362552Y-80089387D01*
X84369733Y-80096568D01*
X84421826Y-80174530D01*
X84421826Y-80174531D01*
X84457708Y-80261157D01*
X84476000Y-80353117D01*
X84476000Y-80446883D01*
X84457708Y-80538843D01*
X84436689Y-80589588D01*
X84421826Y-80625470D01*
X84369733Y-80703432D01*
X84303432Y-80769733D01*
X84225470Y-80821826D01*
X84189588Y-80836689D01*
X84138843Y-80857708D01*
X84046883Y-80876000D01*
X83953117Y-80876000D01*
X83861157Y-80857708D01*
X83810412Y-80836689D01*
X83774530Y-80821826D01*
X83696568Y-80769733D01*
X83630267Y-80703432D01*
X83578174Y-80625470D01*
X83563311Y-80589588D01*
X83542292Y-80538843D01*
X83524000Y-80446883D01*
X83524000Y-80353117D01*
X83542292Y-80261157D01*
X83578174Y-80174531D01*
X83578174Y-80174530D01*
X83630267Y-80096568D01*
X83637448Y-80089387D01*
X83652993Y-80070445D01*
X83664544Y-80048834D01*
X83671657Y-80025385D01*
X83674059Y-80000999D01*
X83671657Y-79976613D01*
X83664544Y-79953164D01*
X83652993Y-79931553D01*
X83637448Y-79912611D01*
X83618506Y-79897066D01*
X83596895Y-79885515D01*
X83573446Y-79878402D01*
X83549060Y-79876000D01*
X83524000Y-79876000D01*
X83524000Y-78924000D01*
X84476000Y-78924000D01*
X84476000Y-79876000D01*
G37*
G36*
X130476000Y-79549060D02*
G01*
X130478402Y-79573446D01*
X130485515Y-79596895D01*
X130497066Y-79618506D01*
X130512611Y-79637448D01*
X130531553Y-79652993D01*
X130553164Y-79664544D01*
X130576613Y-79671657D01*
X130600999Y-79674059D01*
X130625385Y-79671657D01*
X130648834Y-79664544D01*
X130670445Y-79652993D01*
X130689387Y-79637448D01*
X130696568Y-79630267D01*
X130774530Y-79578174D01*
X130810412Y-79563311D01*
X130861157Y-79542292D01*
X130953117Y-79524000D01*
X131046883Y-79524000D01*
X131138843Y-79542292D01*
X131189588Y-79563311D01*
X131225470Y-79578174D01*
X131303432Y-79630267D01*
X131369733Y-79696568D01*
X131421826Y-79774530D01*
X131421826Y-79774531D01*
X131457708Y-79861157D01*
X131476000Y-79953117D01*
X131476000Y-80046883D01*
X131457708Y-80138843D01*
X131442926Y-80174530D01*
X131421826Y-80225470D01*
X131369733Y-80303432D01*
X131303432Y-80369733D01*
X131225470Y-80421826D01*
X131214055Y-80426554D01*
X131138843Y-80457708D01*
X131046883Y-80476000D01*
X130953117Y-80476000D01*
X130861157Y-80457708D01*
X130785945Y-80426554D01*
X130774530Y-80421826D01*
X130696568Y-80369733D01*
X130689387Y-80362552D01*
X130670445Y-80347007D01*
X130648834Y-80335456D01*
X130625385Y-80328343D01*
X130600999Y-80325941D01*
X130576613Y-80328343D01*
X130553164Y-80335456D01*
X130531553Y-80347007D01*
X130512611Y-80362552D01*
X130497066Y-80381494D01*
X130485515Y-80403105D01*
X130478402Y-80426554D01*
X130476000Y-80450940D01*
X130476000Y-80476000D01*
X129524000Y-80476000D01*
X129524000Y-79524000D01*
X130476000Y-79524000D01*
X130476000Y-79549060D01*
G37*
G36*
X69138843Y-79542292D02*
G01*
X69189588Y-79563311D01*
X69225470Y-79578174D01*
X69303432Y-79630267D01*
X69310613Y-79637448D01*
X69329555Y-79652993D01*
X69351166Y-79664544D01*
X69374615Y-79671657D01*
X69399001Y-79674059D01*
X69423387Y-79671657D01*
X69446836Y-79664544D01*
X69468447Y-79652993D01*
X69487389Y-79637448D01*
X69502934Y-79618506D01*
X69514485Y-79596895D01*
X69521598Y-79573446D01*
X69524000Y-79549060D01*
X69524000Y-79524000D01*
X70476000Y-79524000D01*
X70476000Y-80476000D01*
X69524000Y-80476000D01*
X69524000Y-80450940D01*
X69521598Y-80426554D01*
X69514485Y-80403105D01*
X69502934Y-80381494D01*
X69487389Y-80362552D01*
X69468447Y-80347007D01*
X69446836Y-80335456D01*
X69423387Y-80328343D01*
X69399001Y-80325941D01*
X69374615Y-80328343D01*
X69351166Y-80335456D01*
X69329555Y-80347007D01*
X69310613Y-80362552D01*
X69303432Y-80369733D01*
X69225470Y-80421826D01*
X69214055Y-80426554D01*
X69138843Y-80457708D01*
X69046883Y-80476000D01*
X68953117Y-80476000D01*
X68861157Y-80457708D01*
X68785945Y-80426554D01*
X68774530Y-80421826D01*
X68696568Y-80369733D01*
X68630267Y-80303432D01*
X68578174Y-80225470D01*
X68557074Y-80174530D01*
X68542292Y-80138843D01*
X68524000Y-80046883D01*
X68524000Y-79953117D01*
X68542292Y-79861157D01*
X68578174Y-79774531D01*
X68578174Y-79774530D01*
X68630267Y-79696568D01*
X68696568Y-79630267D01*
X68774530Y-79578174D01*
X68810412Y-79563311D01*
X68861157Y-79542292D01*
X68953117Y-79524000D01*
X69046883Y-79524000D01*
X69138843Y-79542292D01*
G37*
G36*
X99876000Y-68149060D02*
G01*
X99878402Y-68173446D01*
X99885515Y-68196895D01*
X99897066Y-68218506D01*
X99912611Y-68237448D01*
X99931553Y-68252993D01*
X99953164Y-68264544D01*
X99976613Y-68271657D01*
X100000999Y-68274059D01*
X100025385Y-68271657D01*
X100048834Y-68264544D01*
X100070445Y-68252993D01*
X100089387Y-68237448D01*
X100096568Y-68230267D01*
X100174530Y-68178174D01*
X100210412Y-68163311D01*
X100261157Y-68142292D01*
X100353117Y-68124000D01*
X100446883Y-68124000D01*
X100538843Y-68142292D01*
X100589588Y-68163311D01*
X100625470Y-68178174D01*
X100703432Y-68230267D01*
X100769733Y-68296568D01*
X100821826Y-68374530D01*
X100821826Y-68374531D01*
X100857708Y-68461157D01*
X100876000Y-68553117D01*
X100876000Y-68646883D01*
X100857708Y-68738843D01*
X100836689Y-68789588D01*
X100821826Y-68825470D01*
X100769733Y-68903432D01*
X100703432Y-68969733D01*
X100625470Y-69021826D01*
X100614055Y-69026554D01*
X100538843Y-69057708D01*
X100446883Y-69076000D01*
X100353117Y-69076000D01*
X100261157Y-69057708D01*
X100185945Y-69026554D01*
X100174530Y-69021826D01*
X100096568Y-68969733D01*
X100089387Y-68962552D01*
X100070445Y-68947007D01*
X100048834Y-68935456D01*
X100025385Y-68928343D01*
X100000999Y-68925941D01*
X99976613Y-68928343D01*
X99953164Y-68935456D01*
X99931553Y-68947007D01*
X99912611Y-68962552D01*
X99897066Y-68981494D01*
X99885515Y-69003105D01*
X99878402Y-69026554D01*
X99876000Y-69050940D01*
X99876000Y-69076000D01*
X98924000Y-69076000D01*
X98924000Y-68124000D01*
X99876000Y-68124000D01*
X99876000Y-68149060D01*
G37*
G36*
X99876000Y-65849060D02*
G01*
X99878402Y-65873446D01*
X99885515Y-65896895D01*
X99897066Y-65918506D01*
X99912611Y-65937448D01*
X99931553Y-65952993D01*
X99953164Y-65964544D01*
X99976613Y-65971657D01*
X100000999Y-65974059D01*
X100025385Y-65971657D01*
X100048834Y-65964544D01*
X100070445Y-65952993D01*
X100089387Y-65937448D01*
X100096568Y-65930267D01*
X100174530Y-65878174D01*
X100210412Y-65863311D01*
X100261157Y-65842292D01*
X100353117Y-65824000D01*
X100446883Y-65824000D01*
X100538843Y-65842292D01*
X100589588Y-65863311D01*
X100625470Y-65878174D01*
X100703432Y-65930267D01*
X100769733Y-65996568D01*
X100821826Y-66074530D01*
X100821826Y-66074531D01*
X100857708Y-66161157D01*
X100876000Y-66253117D01*
X100876000Y-66346883D01*
X100857708Y-66438843D01*
X100836689Y-66489588D01*
X100821826Y-66525470D01*
X100769733Y-66603432D01*
X100703432Y-66669733D01*
X100625470Y-66721826D01*
X100614055Y-66726554D01*
X100538843Y-66757708D01*
X100446883Y-66776000D01*
X100353117Y-66776000D01*
X100261157Y-66757708D01*
X100185945Y-66726554D01*
X100174530Y-66721826D01*
X100096568Y-66669733D01*
X100089387Y-66662552D01*
X100070445Y-66647007D01*
X100048834Y-66635456D01*
X100025385Y-66628343D01*
X100000999Y-66625941D01*
X99976613Y-66628343D01*
X99953164Y-66635456D01*
X99931553Y-66647007D01*
X99912611Y-66662552D01*
X99897066Y-66681494D01*
X99885515Y-66703105D01*
X99878402Y-66726554D01*
X99876000Y-66750940D01*
X99876000Y-66776000D01*
X98924000Y-66776000D01*
X98924000Y-65824000D01*
X99876000Y-65824000D01*
X99876000Y-65849060D01*
G37*
G36*
X99876000Y-63549060D02*
G01*
X99878402Y-63573446D01*
X99885515Y-63596895D01*
X99897066Y-63618506D01*
X99912611Y-63637448D01*
X99931553Y-63652993D01*
X99953164Y-63664544D01*
X99976613Y-63671657D01*
X100000999Y-63674059D01*
X100025385Y-63671657D01*
X100048834Y-63664544D01*
X100070445Y-63652993D01*
X100089387Y-63637448D01*
X100096568Y-63630267D01*
X100174530Y-63578174D01*
X100210412Y-63563311D01*
X100261157Y-63542292D01*
X100353117Y-63524000D01*
X100446883Y-63524000D01*
X100538843Y-63542292D01*
X100589588Y-63563311D01*
X100625470Y-63578174D01*
X100703432Y-63630267D01*
X100769733Y-63696568D01*
X100821826Y-63774530D01*
X100821826Y-63774531D01*
X100857708Y-63861157D01*
X100876000Y-63953117D01*
X100876000Y-64046883D01*
X100857708Y-64138843D01*
X100836689Y-64189588D01*
X100821826Y-64225470D01*
X100769733Y-64303432D01*
X100703432Y-64369733D01*
X100625470Y-64421826D01*
X100614055Y-64426554D01*
X100538843Y-64457708D01*
X100446883Y-64476000D01*
X100353117Y-64476000D01*
X100261157Y-64457708D01*
X100185945Y-64426554D01*
X100174530Y-64421826D01*
X100096568Y-64369733D01*
X100089387Y-64362552D01*
X100070445Y-64347007D01*
X100048834Y-64335456D01*
X100025385Y-64328343D01*
X100000999Y-64325941D01*
X99976613Y-64328343D01*
X99953164Y-64335456D01*
X99931553Y-64347007D01*
X99912611Y-64362552D01*
X99897066Y-64381494D01*
X99885515Y-64403105D01*
X99878402Y-64426554D01*
X99876000Y-64450940D01*
X99876000Y-64476000D01*
X98924000Y-64476000D01*
X98924000Y-63524000D01*
X99876000Y-63524000D01*
X99876000Y-63549060D01*
G37*
G36*
X99876000Y-61249060D02*
G01*
X99878402Y-61273446D01*
X99885515Y-61296895D01*
X99897066Y-61318506D01*
X99912611Y-61337448D01*
X99931553Y-61352993D01*
X99953164Y-61364544D01*
X99976613Y-61371657D01*
X100000999Y-61374059D01*
X100025385Y-61371657D01*
X100048834Y-61364544D01*
X100070445Y-61352993D01*
X100089387Y-61337448D01*
X100096568Y-61330267D01*
X100174530Y-61278174D01*
X100210412Y-61263311D01*
X100261157Y-61242292D01*
X100353117Y-61224000D01*
X100446883Y-61224000D01*
X100538843Y-61242292D01*
X100589588Y-61263311D01*
X100625470Y-61278174D01*
X100703432Y-61330267D01*
X100769733Y-61396568D01*
X100821826Y-61474530D01*
X100821826Y-61474531D01*
X100857708Y-61561157D01*
X100876000Y-61653117D01*
X100876000Y-61746883D01*
X100857708Y-61838843D01*
X100836689Y-61889588D01*
X100821826Y-61925470D01*
X100769733Y-62003432D01*
X100703432Y-62069733D01*
X100625470Y-62121826D01*
X100614055Y-62126554D01*
X100538843Y-62157708D01*
X100446883Y-62176000D01*
X100353117Y-62176000D01*
X100261157Y-62157708D01*
X100185945Y-62126554D01*
X100174530Y-62121826D01*
X100096568Y-62069733D01*
X100089387Y-62062552D01*
X100070445Y-62047007D01*
X100048834Y-62035456D01*
X100025385Y-62028343D01*
X100000999Y-62025941D01*
X99976613Y-62028343D01*
X99953164Y-62035456D01*
X99931553Y-62047007D01*
X99912611Y-62062552D01*
X99897066Y-62081494D01*
X99885515Y-62103105D01*
X99878402Y-62126554D01*
X99876000Y-62150940D01*
X99876000Y-62176000D01*
X98924000Y-62176000D01*
X98924000Y-61224000D01*
X99876000Y-61224000D01*
X99876000Y-61249060D01*
G37*
G36*
X119945950Y-59835185D02*
G01*
X119996695Y-59856204D01*
X120032577Y-59871067D01*
X120110539Y-59923160D01*
X120176840Y-59989461D01*
X120228933Y-60067423D01*
X120228933Y-60067424D01*
X120264815Y-60154050D01*
X120283107Y-60246010D01*
X120283107Y-60339776D01*
X120264815Y-60431736D01*
X120243796Y-60482481D01*
X120228933Y-60518363D01*
X120176840Y-60596325D01*
X120110539Y-60662626D01*
X120032577Y-60714719D01*
X119996695Y-60729582D01*
X119945950Y-60750601D01*
X119853990Y-60768893D01*
X119843833Y-60768893D01*
X119819447Y-60771295D01*
X119795998Y-60778408D01*
X119774387Y-60789959D01*
X119755445Y-60805504D01*
X119739900Y-60824446D01*
X119728349Y-60846057D01*
X119721236Y-60869506D01*
X119718834Y-60893892D01*
X119721236Y-60918278D01*
X119728349Y-60941727D01*
X119739900Y-60963338D01*
X119755440Y-60982274D01*
X119773166Y-61000000D01*
X119100000Y-61673166D01*
X118426834Y-61000000D01*
X119100000Y-60326834D01*
X119117726Y-60344560D01*
X119136662Y-60360100D01*
X119158273Y-60371651D01*
X119181722Y-60378764D01*
X119206108Y-60381166D01*
X119230494Y-60378764D01*
X119253943Y-60371651D01*
X119275554Y-60360100D01*
X119294496Y-60344555D01*
X119310041Y-60325613D01*
X119321592Y-60304002D01*
X119328705Y-60280553D01*
X119331107Y-60256167D01*
X119331107Y-60246010D01*
X119349399Y-60154050D01*
X119385281Y-60067424D01*
X119385281Y-60067423D01*
X119437374Y-59989461D01*
X119503675Y-59923160D01*
X119581637Y-59871067D01*
X119617519Y-59856204D01*
X119668264Y-59835185D01*
X119760224Y-59816893D01*
X119853990Y-59816893D01*
X119945950Y-59835185D01*
G37*
G36*
X80431736Y-59835185D02*
G01*
X80482481Y-59856204D01*
X80518363Y-59871067D01*
X80596325Y-59923160D01*
X80662626Y-59989461D01*
X80714719Y-60067423D01*
X80714719Y-60067424D01*
X80750601Y-60154050D01*
X80768893Y-60246010D01*
X80768893Y-60256167D01*
X80771295Y-60280553D01*
X80778408Y-60304002D01*
X80789959Y-60325613D01*
X80805504Y-60344555D01*
X80824446Y-60360100D01*
X80846057Y-60371651D01*
X80869506Y-60378764D01*
X80893892Y-60381166D01*
X80918278Y-60378764D01*
X80941727Y-60371651D01*
X80963338Y-60360100D01*
X80982274Y-60344560D01*
X81000000Y-60326834D01*
X81673166Y-61000000D01*
X81000000Y-61673166D01*
X80326834Y-61000000D01*
X80344560Y-60982274D01*
X80360100Y-60963338D01*
X80371651Y-60941727D01*
X80378764Y-60918278D01*
X80381166Y-60893892D01*
X80378764Y-60869506D01*
X80371651Y-60846057D01*
X80360100Y-60824446D01*
X80344555Y-60805504D01*
X80325613Y-60789959D01*
X80304002Y-60778408D01*
X80280553Y-60771295D01*
X80256167Y-60768893D01*
X80246010Y-60768893D01*
X80154050Y-60750601D01*
X80103305Y-60729582D01*
X80067423Y-60714719D01*
X79989461Y-60662626D01*
X79923160Y-60596325D01*
X79871067Y-60518363D01*
X79856204Y-60482481D01*
X79835185Y-60431736D01*
X79816893Y-60339776D01*
X79816893Y-60246010D01*
X79835185Y-60154050D01*
X79871067Y-60067424D01*
X79871067Y-60067423D01*
X79923160Y-59989461D01*
X79989461Y-59923160D01*
X80067423Y-59871067D01*
X80103305Y-59856204D01*
X80154050Y-59835185D01*
X80246010Y-59816893D01*
X80339776Y-59816893D01*
X80431736Y-59835185D01*
G37*
G36*
X122145950Y-57635185D02*
G01*
X122196695Y-57656204D01*
X122232577Y-57671067D01*
X122310539Y-57723160D01*
X122376840Y-57789461D01*
X122428933Y-57867423D01*
X122428933Y-57867424D01*
X122464815Y-57954050D01*
X122483107Y-58046010D01*
X122483107Y-58139776D01*
X122464815Y-58231736D01*
X122443796Y-58282481D01*
X122428933Y-58318363D01*
X122376840Y-58396325D01*
X122310539Y-58462626D01*
X122232577Y-58514719D01*
X122196695Y-58529582D01*
X122145950Y-58550601D01*
X122053990Y-58568893D01*
X122043833Y-58568893D01*
X122019447Y-58571295D01*
X121995998Y-58578408D01*
X121974387Y-58589959D01*
X121955445Y-58605504D01*
X121939900Y-58624446D01*
X121928349Y-58646057D01*
X121921236Y-58669506D01*
X121918834Y-58693892D01*
X121921236Y-58718278D01*
X121928349Y-58741727D01*
X121939900Y-58763338D01*
X121955440Y-58782274D01*
X121973166Y-58800000D01*
X121300000Y-59473166D01*
X120626834Y-58800000D01*
X121300000Y-58126834D01*
X121317726Y-58144560D01*
X121336662Y-58160100D01*
X121358273Y-58171651D01*
X121381722Y-58178764D01*
X121406108Y-58181166D01*
X121430494Y-58178764D01*
X121453943Y-58171651D01*
X121475554Y-58160100D01*
X121494496Y-58144555D01*
X121510041Y-58125613D01*
X121521592Y-58104002D01*
X121528705Y-58080553D01*
X121531107Y-58056167D01*
X121531107Y-58046010D01*
X121549399Y-57954050D01*
X121585281Y-57867424D01*
X121585281Y-57867423D01*
X121637374Y-57789461D01*
X121703675Y-57723160D01*
X121781637Y-57671067D01*
X121817519Y-57656204D01*
X121868264Y-57635185D01*
X121960224Y-57616893D01*
X122053990Y-57616893D01*
X122145950Y-57635185D01*
G37*
G36*
X78231736Y-57635185D02*
G01*
X78282481Y-57656204D01*
X78318363Y-57671067D01*
X78396325Y-57723160D01*
X78462626Y-57789461D01*
X78514719Y-57867423D01*
X78514719Y-57867424D01*
X78550601Y-57954050D01*
X78568893Y-58046010D01*
X78568893Y-58056167D01*
X78571295Y-58080553D01*
X78578408Y-58104002D01*
X78589959Y-58125613D01*
X78605504Y-58144555D01*
X78624446Y-58160100D01*
X78646057Y-58171651D01*
X78669506Y-58178764D01*
X78693892Y-58181166D01*
X78718278Y-58178764D01*
X78741727Y-58171651D01*
X78763338Y-58160100D01*
X78782274Y-58144560D01*
X78800000Y-58126834D01*
X79473166Y-58800000D01*
X78800000Y-59473166D01*
X78126834Y-58800000D01*
X78144560Y-58782274D01*
X78160100Y-58763338D01*
X78171651Y-58741727D01*
X78178764Y-58718278D01*
X78181166Y-58693892D01*
X78178764Y-58669506D01*
X78171651Y-58646057D01*
X78160100Y-58624446D01*
X78144555Y-58605504D01*
X78125613Y-58589959D01*
X78104002Y-58578408D01*
X78080553Y-58571295D01*
X78056167Y-58568893D01*
X78046010Y-58568893D01*
X77954050Y-58550601D01*
X77903305Y-58529582D01*
X77867423Y-58514719D01*
X77789461Y-58462626D01*
X77723160Y-58396325D01*
X77671067Y-58318363D01*
X77656204Y-58282481D01*
X77635185Y-58231736D01*
X77616893Y-58139776D01*
X77616893Y-58046010D01*
X77635185Y-57954050D01*
X77671067Y-57867424D01*
X77671067Y-57867423D01*
X77723160Y-57789461D01*
X77789461Y-57723160D01*
X77867423Y-57671067D01*
X77903305Y-57656204D01*
X77954050Y-57635185D01*
X78046010Y-57616893D01*
X78139776Y-57616893D01*
X78231736Y-57635185D01*
G37*
G36*
X99038843Y-48442292D02*
G01*
X99089588Y-48463311D01*
X99125470Y-48478174D01*
X99203432Y-48530267D01*
X99269733Y-48596568D01*
X99321826Y-48674530D01*
X99321826Y-48674531D01*
X99357708Y-48761157D01*
X99376000Y-48853117D01*
X99376000Y-48946883D01*
X99357708Y-49038843D01*
X99336689Y-49089588D01*
X99321826Y-49125470D01*
X99269733Y-49203432D01*
X99262552Y-49210613D01*
X99247007Y-49229555D01*
X99235456Y-49251166D01*
X99228343Y-49274615D01*
X99225941Y-49299001D01*
X99228343Y-49323387D01*
X99235456Y-49346836D01*
X99247007Y-49368447D01*
X99262552Y-49387389D01*
X99281494Y-49402934D01*
X99303105Y-49414485D01*
X99326554Y-49421598D01*
X99350940Y-49424000D01*
X99376000Y-49424000D01*
X99376000Y-50376000D01*
X98424000Y-50376000D01*
X98424000Y-49424000D01*
X98449060Y-49424000D01*
X98473446Y-49421598D01*
X98496895Y-49414485D01*
X98518506Y-49402934D01*
X98537448Y-49387389D01*
X98552993Y-49368447D01*
X98564544Y-49346836D01*
X98571657Y-49323387D01*
X98574059Y-49299001D01*
X98571657Y-49274615D01*
X98564544Y-49251166D01*
X98552993Y-49229555D01*
X98537448Y-49210613D01*
X98530267Y-49203432D01*
X98478174Y-49125470D01*
X98463311Y-49089588D01*
X98442292Y-49038843D01*
X98424000Y-48946883D01*
X98424000Y-48853117D01*
X98442292Y-48761157D01*
X98478174Y-48674531D01*
X98478174Y-48674530D01*
X98530267Y-48596568D01*
X98596568Y-48530267D01*
X98674530Y-48478174D01*
X98710412Y-48463311D01*
X98761157Y-48442292D01*
X98853117Y-48424000D01*
X98946883Y-48424000D01*
X99038843Y-48442292D01*
G37*
G36*
X101338843Y-48442292D02*
G01*
X101389588Y-48463311D01*
X101425470Y-48478174D01*
X101503432Y-48530267D01*
X101569733Y-48596568D01*
X101621826Y-48674530D01*
X101621826Y-48674531D01*
X101657708Y-48761157D01*
X101676000Y-48853117D01*
X101676000Y-48946883D01*
X101657708Y-49038843D01*
X101636689Y-49089588D01*
X101621826Y-49125470D01*
X101569733Y-49203432D01*
X101562552Y-49210613D01*
X101547007Y-49229555D01*
X101535456Y-49251166D01*
X101528343Y-49274615D01*
X101525941Y-49299001D01*
X101528343Y-49323387D01*
X101535456Y-49346836D01*
X101547007Y-49368447D01*
X101562552Y-49387389D01*
X101581494Y-49402934D01*
X101603105Y-49414485D01*
X101626554Y-49421598D01*
X101650940Y-49424000D01*
X101676000Y-49424000D01*
X101676000Y-50376000D01*
X100724000Y-50376000D01*
X100724000Y-49424000D01*
X100749060Y-49424000D01*
X100773446Y-49421598D01*
X100796895Y-49414485D01*
X100818506Y-49402934D01*
X100837448Y-49387389D01*
X100852993Y-49368447D01*
X100864544Y-49346836D01*
X100871657Y-49323387D01*
X100874059Y-49299001D01*
X100871657Y-49274615D01*
X100864544Y-49251166D01*
X100852993Y-49229555D01*
X100837448Y-49210613D01*
X100830267Y-49203432D01*
X100778174Y-49125470D01*
X100763311Y-49089588D01*
X100742292Y-49038843D01*
X100724000Y-48946883D01*
X100724000Y-48853117D01*
X100742292Y-48761157D01*
X100778174Y-48674531D01*
X100778174Y-48674530D01*
X100830267Y-48596568D01*
X100896568Y-48530267D01*
X100974530Y-48478174D01*
X101010412Y-48463311D01*
X101061157Y-48442292D01*
X101153117Y-48424000D01*
X101246883Y-48424000D01*
X101338843Y-48442292D01*
G37*
M02*
