M48
; DRILL file {KiCad (5.1.6-0)} date Friday, January 08, 2021 at 08:23:22 PM
; FORMAT={-:-/ absolute / metric / decimal}
; #@! TF.CreationDate,2021-01-08T20:23:22+00:00
; #@! TF.GenerationSoftware,Kicad,Pcbnew,(5.1.6-0)
FMAT,2
METRIC
T1C0.200
T2C0.400
T3C0.500
T4C1.000
T5C0.900
%
G90
G05
T1
X104.73Y-121.61
X104.73Y-122.71
X104.73Y-123.81
X105.83Y-121.61
X105.83Y-122.71
X105.83Y-123.81
X106.93Y-121.61
X106.93Y-122.71
X106.93Y-123.81
T2
X84.662Y-87.206
X86.025Y-111.215
X87.68Y-191.1
X88.68Y-191.1
X89.68Y-191.1
X90.68Y-191.1
X91.68Y-191.1
X92.68Y-191.1
X93.68Y-191.1
X94.68Y-191.1
X95.68Y-191.1
X96.68Y-191.1
X97.64Y-111.45
X97.652Y-114.512
X97.652Y-117.067
X97.68Y-191.1
X98.3Y-123.912
X98.68Y-191.1
X99.212Y-135.0
X99.25Y-82.21
X99.51Y-128.96
X99.51Y-129.96
X99.68Y-191.1
X100.51Y-128.96
X100.51Y-129.96
X100.68Y-191.1
X100.787Y-82.22
X100.787Y-135.0
X100.89Y-114.72
X101.59Y-121.36
X101.68Y-191.1
X101.835Y-122.571
X101.84Y-112.52
X101.988Y-126.845
X102.084Y-124.366
X102.378Y-123.411
X102.68Y-191.1
X102.727Y-117.59
X103.05Y-127.53
X103.68Y-191.1
X103.704Y-117.804
X104.0Y-130.6
X104.3Y-114.7
X104.68Y-191.1
X104.826Y-117.707
X105.025Y-127.475
X105.68Y-191.1
X106.104Y-117.455
X106.575Y-127.47
X106.68Y-191.1
X107.25Y-126.01
X107.68Y-191.1
X107.83Y-117.455
X108.145Y-124.955
X108.333Y-120.763
X108.68Y-191.1
X109.313Y-120.959
X109.623Y-115.942
X109.68Y-191.1
X109.732Y-117.455
X110.148Y-120.343
X110.571Y-116.911
X110.68Y-191.1
X110.867Y-114.493
X111.11Y-104.05
X111.68Y-191.1
X112.68Y-191.1
X125.887Y-140.895
X126.129Y-141.865
X126.371Y-142.835
X126.613Y-143.805
X126.78Y-183.13
X126.78Y-184.13
X126.78Y-185.13
X126.855Y-144.776
X127.145Y-145.814
X127.387Y-146.785
X127.629Y-147.755
X127.78Y-183.13
X127.78Y-184.13
X127.78Y-185.13
X127.871Y-148.725
X128.113Y-149.695
X128.355Y-150.666
X129.93Y-183.485
X129.93Y-186.025
X131.495Y-161.564
X131.737Y-162.535
X131.979Y-163.505
X132.13Y-185.705
X132.221Y-164.475
X132.463Y-165.445
X132.705Y-166.416
X133.005Y-167.444
X133.247Y-168.415
X133.489Y-169.385
X133.731Y-170.355
X133.973Y-171.325
X134.215Y-172.296
X135.193Y-176.215
X135.435Y-177.186
X135.707Y-178.185
X135.949Y-179.155
X136.191Y-180.125
X136.433Y-181.095
X136.675Y-182.066
X136.947Y-183.125
X137.189Y-184.095
X137.431Y-185.065
T3
X99.94Y-109.9
X88.6Y-79.4
X88.6Y-80.4
X119.1Y-61.0
X119.807Y-60.293
X69.0Y-80.0
X70.0Y-80.0
X99.4Y-66.3
X100.4Y-66.3
X80.293Y-99.607
X81.0Y-98.9
X99.4Y-98.3
X100.4Y-98.3
X101.2Y-79.4
X101.2Y-80.4
X121.2Y-101.2
X121.907Y-101.907
X98.9Y-48.9
X98.9Y-49.9
X99.4Y-91.4
X100.4Y-91.4
X86.3Y-79.4
X86.3Y-80.4
X99.4Y-64.0
X100.4Y-64.0
X81.7Y-79.4
X81.7Y-80.4
X98.8Y-79.4
X98.8Y-80.4
X78.093Y-101.807
X78.8Y-101.1
X101.2Y-48.9
X101.2Y-49.9
X99.4Y-68.6
X100.4Y-68.6
X78.093Y-58.093
X78.8Y-58.8
X118.3Y-79.4
X118.3Y-80.4
X111.4Y-79.4
X111.4Y-80.4
X119.0Y-99.0
X119.707Y-99.707
X84.0Y-79.4
X84.0Y-80.4
X99.4Y-96.0
X100.4Y-96.0
X80.293Y-60.293
X81.0Y-61.0
X130.0Y-80.0
X131.0Y-80.0
X99.4Y-61.7
X100.4Y-61.7
X121.3Y-58.8
X122.007Y-58.093
X116.0Y-79.4
X116.0Y-80.4
X113.7Y-79.4
X113.7Y-80.4
X99.4Y-93.7
X100.4Y-93.7
T4
X90.3Y-130.2
X90.3Y-132.74
X90.3Y-135.28
T5
X129.164Y-154.997
X129.991Y-157.881
T0
M30
